M48
INCH,TZ
T1C0.0157
T2C0.0295
T3C0.0315
T4C0.0350
T5C0.0394
T6C0.0472
T7C0.0618
%
G90
G05
T1
X13091Y-37795
X13189Y-36417
X13976Y-34252
X14813Y-39764
X14862Y-34350
X14862Y-37106
X15059Y-37894
X15059Y-40945
X16437Y-36417
X16437Y-37500
X16634Y-38583
X17126Y-34646
X18307Y-41093
X18504Y-39961
X18701Y-36614
X18701Y-39272
X19094Y-42067
X19293Y-41729
X20817Y-38022
X21063Y-37746
X21260Y-42618
X21752Y-37992
X21772Y-27569
X22244Y-43701
X22343Y-40354
X22425Y-36729
X22638Y-35728
X22736Y-37254
X22736Y-41929
X23031Y-27756
X23031Y-28346
X23130Y-28051
X23524Y-40157
X23524Y-42323
X23720Y-43701
X23917Y-27047
X24311Y-42323
X24528Y-27520
X24528Y-28071
X25000Y-42618
X25709Y-30236
T2
X25748Y-33543
X25748Y-34043
X25748Y-34543
T3
X22717Y-33937
X23701Y-33937
T4
X15650Y-30118
X16051Y-30819
X16453Y-30118
X16854Y-30819
X17256Y-30118
X17657Y-30819
X18059Y-30118
X18461Y-30819
T5
X26220Y-39016
X26220Y-40016
X26220Y-41016
X26220Y-42016
X26220Y-43016
X26220Y-44016
X26142Y-36087
X26142Y-37087
T6
X23386Y-36535
X23386Y-41260
T7
X13850Y-30469
X20252Y-30469
T0
M30
