G04 #@! TF.GenerationSoftware,KiCad,Pcbnew,5.0.2-bee76a0~70~ubuntu18.04.1*
G04 #@! TF.CreationDate,2019-08-17T16:59:23+02:00*
G04 #@! TF.ProjectId,HAN_ESP_TSS721,48414e5f-4553-4505-9f54-53533732312e,rev?*
G04 #@! TF.SameCoordinates,Original*
G04 #@! TF.FileFunction,Paste,Bot*
G04 #@! TF.FilePolarity,Positive*
%FSLAX46Y46*%
G04 Gerber Fmt 4.6, Leading zero omitted, Abs format (unit mm)*
G04 Created by KiCad (PCBNEW 5.0.2-bee76a0~70~ubuntu18.04.1) date Sat 17 Aug 2019 04:59:23 PM CEST*
%MOMM*%
%LPD*%
G01*
G04 APERTURE LIST*
%ADD10R,1.500000X0.600000*%
%ADD11C,0.100000*%
%ADD12C,1.150000*%
%ADD13R,0.450000X1.500000*%
%ADD14R,0.900000X1.200000*%
%ADD15R,1.000000X0.550000*%
G04 APERTURE END LIST*
D10*
G04 #@! TO.C,U3*
X40200000Y-100365000D03*
X40200000Y-99095000D03*
X40200000Y-97825000D03*
X40200000Y-96555000D03*
X40200000Y-95285000D03*
X40200000Y-94015000D03*
X40200000Y-92745000D03*
X40200000Y-91475000D03*
X45600000Y-91475000D03*
X45600000Y-92745000D03*
X45600000Y-94015000D03*
X45600000Y-95285000D03*
X45600000Y-96555000D03*
X45600000Y-97825000D03*
X45600000Y-99095000D03*
X45600000Y-100365000D03*
G04 #@! TD*
D11*
G04 #@! TO.C,R13*
G36*
X34824505Y-90551204D02*
X34848773Y-90554804D01*
X34872572Y-90560765D01*
X34895671Y-90569030D01*
X34917850Y-90579520D01*
X34938893Y-90592132D01*
X34958599Y-90606747D01*
X34976777Y-90623223D01*
X34993253Y-90641401D01*
X35007868Y-90661107D01*
X35020480Y-90682150D01*
X35030970Y-90704329D01*
X35039235Y-90727428D01*
X35045196Y-90751227D01*
X35048796Y-90775495D01*
X35050000Y-90799999D01*
X35050000Y-91700001D01*
X35048796Y-91724505D01*
X35045196Y-91748773D01*
X35039235Y-91772572D01*
X35030970Y-91795671D01*
X35020480Y-91817850D01*
X35007868Y-91838893D01*
X34993253Y-91858599D01*
X34976777Y-91876777D01*
X34958599Y-91893253D01*
X34938893Y-91907868D01*
X34917850Y-91920480D01*
X34895671Y-91930970D01*
X34872572Y-91939235D01*
X34848773Y-91945196D01*
X34824505Y-91948796D01*
X34800001Y-91950000D01*
X34149999Y-91950000D01*
X34125495Y-91948796D01*
X34101227Y-91945196D01*
X34077428Y-91939235D01*
X34054329Y-91930970D01*
X34032150Y-91920480D01*
X34011107Y-91907868D01*
X33991401Y-91893253D01*
X33973223Y-91876777D01*
X33956747Y-91858599D01*
X33942132Y-91838893D01*
X33929520Y-91817850D01*
X33919030Y-91795671D01*
X33910765Y-91772572D01*
X33904804Y-91748773D01*
X33901204Y-91724505D01*
X33900000Y-91700001D01*
X33900000Y-90799999D01*
X33901204Y-90775495D01*
X33904804Y-90751227D01*
X33910765Y-90727428D01*
X33919030Y-90704329D01*
X33929520Y-90682150D01*
X33942132Y-90661107D01*
X33956747Y-90641401D01*
X33973223Y-90623223D01*
X33991401Y-90606747D01*
X34011107Y-90592132D01*
X34032150Y-90579520D01*
X34054329Y-90569030D01*
X34077428Y-90560765D01*
X34101227Y-90554804D01*
X34125495Y-90551204D01*
X34149999Y-90550000D01*
X34800001Y-90550000D01*
X34824505Y-90551204D01*
X34824505Y-90551204D01*
G37*
D12*
X34475000Y-91250000D03*
D11*
G36*
X36874505Y-90551204D02*
X36898773Y-90554804D01*
X36922572Y-90560765D01*
X36945671Y-90569030D01*
X36967850Y-90579520D01*
X36988893Y-90592132D01*
X37008599Y-90606747D01*
X37026777Y-90623223D01*
X37043253Y-90641401D01*
X37057868Y-90661107D01*
X37070480Y-90682150D01*
X37080970Y-90704329D01*
X37089235Y-90727428D01*
X37095196Y-90751227D01*
X37098796Y-90775495D01*
X37100000Y-90799999D01*
X37100000Y-91700001D01*
X37098796Y-91724505D01*
X37095196Y-91748773D01*
X37089235Y-91772572D01*
X37080970Y-91795671D01*
X37070480Y-91817850D01*
X37057868Y-91838893D01*
X37043253Y-91858599D01*
X37026777Y-91876777D01*
X37008599Y-91893253D01*
X36988893Y-91907868D01*
X36967850Y-91920480D01*
X36945671Y-91930970D01*
X36922572Y-91939235D01*
X36898773Y-91945196D01*
X36874505Y-91948796D01*
X36850001Y-91950000D01*
X36199999Y-91950000D01*
X36175495Y-91948796D01*
X36151227Y-91945196D01*
X36127428Y-91939235D01*
X36104329Y-91930970D01*
X36082150Y-91920480D01*
X36061107Y-91907868D01*
X36041401Y-91893253D01*
X36023223Y-91876777D01*
X36006747Y-91858599D01*
X35992132Y-91838893D01*
X35979520Y-91817850D01*
X35969030Y-91795671D01*
X35960765Y-91772572D01*
X35954804Y-91748773D01*
X35951204Y-91724505D01*
X35950000Y-91700001D01*
X35950000Y-90799999D01*
X35951204Y-90775495D01*
X35954804Y-90751227D01*
X35960765Y-90727428D01*
X35969030Y-90704329D01*
X35979520Y-90682150D01*
X35992132Y-90661107D01*
X36006747Y-90641401D01*
X36023223Y-90623223D01*
X36041401Y-90606747D01*
X36061107Y-90592132D01*
X36082150Y-90579520D01*
X36104329Y-90569030D01*
X36127428Y-90560765D01*
X36151227Y-90554804D01*
X36175495Y-90551204D01*
X36199999Y-90550000D01*
X36850001Y-90550000D01*
X36874505Y-90551204D01*
X36874505Y-90551204D01*
G37*
D12*
X36525000Y-91250000D03*
G04 #@! TD*
D11*
G04 #@! TO.C,R15*
G36*
X49349505Y-97801204D02*
X49373773Y-97804804D01*
X49397572Y-97810765D01*
X49420671Y-97819030D01*
X49442850Y-97829520D01*
X49463893Y-97842132D01*
X49483599Y-97856747D01*
X49501777Y-97873223D01*
X49518253Y-97891401D01*
X49532868Y-97911107D01*
X49545480Y-97932150D01*
X49555970Y-97954329D01*
X49564235Y-97977428D01*
X49570196Y-98001227D01*
X49573796Y-98025495D01*
X49575000Y-98049999D01*
X49575000Y-98950001D01*
X49573796Y-98974505D01*
X49570196Y-98998773D01*
X49564235Y-99022572D01*
X49555970Y-99045671D01*
X49545480Y-99067850D01*
X49532868Y-99088893D01*
X49518253Y-99108599D01*
X49501777Y-99126777D01*
X49483599Y-99143253D01*
X49463893Y-99157868D01*
X49442850Y-99170480D01*
X49420671Y-99180970D01*
X49397572Y-99189235D01*
X49373773Y-99195196D01*
X49349505Y-99198796D01*
X49325001Y-99200000D01*
X48674999Y-99200000D01*
X48650495Y-99198796D01*
X48626227Y-99195196D01*
X48602428Y-99189235D01*
X48579329Y-99180970D01*
X48557150Y-99170480D01*
X48536107Y-99157868D01*
X48516401Y-99143253D01*
X48498223Y-99126777D01*
X48481747Y-99108599D01*
X48467132Y-99088893D01*
X48454520Y-99067850D01*
X48444030Y-99045671D01*
X48435765Y-99022572D01*
X48429804Y-98998773D01*
X48426204Y-98974505D01*
X48425000Y-98950001D01*
X48425000Y-98049999D01*
X48426204Y-98025495D01*
X48429804Y-98001227D01*
X48435765Y-97977428D01*
X48444030Y-97954329D01*
X48454520Y-97932150D01*
X48467132Y-97911107D01*
X48481747Y-97891401D01*
X48498223Y-97873223D01*
X48516401Y-97856747D01*
X48536107Y-97842132D01*
X48557150Y-97829520D01*
X48579329Y-97819030D01*
X48602428Y-97810765D01*
X48626227Y-97804804D01*
X48650495Y-97801204D01*
X48674999Y-97800000D01*
X49325001Y-97800000D01*
X49349505Y-97801204D01*
X49349505Y-97801204D01*
G37*
D12*
X49000000Y-98500000D03*
D11*
G36*
X51399505Y-97801204D02*
X51423773Y-97804804D01*
X51447572Y-97810765D01*
X51470671Y-97819030D01*
X51492850Y-97829520D01*
X51513893Y-97842132D01*
X51533599Y-97856747D01*
X51551777Y-97873223D01*
X51568253Y-97891401D01*
X51582868Y-97911107D01*
X51595480Y-97932150D01*
X51605970Y-97954329D01*
X51614235Y-97977428D01*
X51620196Y-98001227D01*
X51623796Y-98025495D01*
X51625000Y-98049999D01*
X51625000Y-98950001D01*
X51623796Y-98974505D01*
X51620196Y-98998773D01*
X51614235Y-99022572D01*
X51605970Y-99045671D01*
X51595480Y-99067850D01*
X51582868Y-99088893D01*
X51568253Y-99108599D01*
X51551777Y-99126777D01*
X51533599Y-99143253D01*
X51513893Y-99157868D01*
X51492850Y-99170480D01*
X51470671Y-99180970D01*
X51447572Y-99189235D01*
X51423773Y-99195196D01*
X51399505Y-99198796D01*
X51375001Y-99200000D01*
X50724999Y-99200000D01*
X50700495Y-99198796D01*
X50676227Y-99195196D01*
X50652428Y-99189235D01*
X50629329Y-99180970D01*
X50607150Y-99170480D01*
X50586107Y-99157868D01*
X50566401Y-99143253D01*
X50548223Y-99126777D01*
X50531747Y-99108599D01*
X50517132Y-99088893D01*
X50504520Y-99067850D01*
X50494030Y-99045671D01*
X50485765Y-99022572D01*
X50479804Y-98998773D01*
X50476204Y-98974505D01*
X50475000Y-98950001D01*
X50475000Y-98049999D01*
X50476204Y-98025495D01*
X50479804Y-98001227D01*
X50485765Y-97977428D01*
X50494030Y-97954329D01*
X50504520Y-97932150D01*
X50517132Y-97911107D01*
X50531747Y-97891401D01*
X50548223Y-97873223D01*
X50566401Y-97856747D01*
X50586107Y-97842132D01*
X50607150Y-97829520D01*
X50629329Y-97819030D01*
X50652428Y-97810765D01*
X50676227Y-97804804D01*
X50700495Y-97801204D01*
X50724999Y-97800000D01*
X51375001Y-97800000D01*
X51399505Y-97801204D01*
X51399505Y-97801204D01*
G37*
D12*
X51050000Y-98500000D03*
G04 #@! TD*
D11*
G04 #@! TO.C,R18*
G36*
X34799505Y-88051204D02*
X34823773Y-88054804D01*
X34847572Y-88060765D01*
X34870671Y-88069030D01*
X34892850Y-88079520D01*
X34913893Y-88092132D01*
X34933599Y-88106747D01*
X34951777Y-88123223D01*
X34968253Y-88141401D01*
X34982868Y-88161107D01*
X34995480Y-88182150D01*
X35005970Y-88204329D01*
X35014235Y-88227428D01*
X35020196Y-88251227D01*
X35023796Y-88275495D01*
X35025000Y-88299999D01*
X35025000Y-89200001D01*
X35023796Y-89224505D01*
X35020196Y-89248773D01*
X35014235Y-89272572D01*
X35005970Y-89295671D01*
X34995480Y-89317850D01*
X34982868Y-89338893D01*
X34968253Y-89358599D01*
X34951777Y-89376777D01*
X34933599Y-89393253D01*
X34913893Y-89407868D01*
X34892850Y-89420480D01*
X34870671Y-89430970D01*
X34847572Y-89439235D01*
X34823773Y-89445196D01*
X34799505Y-89448796D01*
X34775001Y-89450000D01*
X34124999Y-89450000D01*
X34100495Y-89448796D01*
X34076227Y-89445196D01*
X34052428Y-89439235D01*
X34029329Y-89430970D01*
X34007150Y-89420480D01*
X33986107Y-89407868D01*
X33966401Y-89393253D01*
X33948223Y-89376777D01*
X33931747Y-89358599D01*
X33917132Y-89338893D01*
X33904520Y-89317850D01*
X33894030Y-89295671D01*
X33885765Y-89272572D01*
X33879804Y-89248773D01*
X33876204Y-89224505D01*
X33875000Y-89200001D01*
X33875000Y-88299999D01*
X33876204Y-88275495D01*
X33879804Y-88251227D01*
X33885765Y-88227428D01*
X33894030Y-88204329D01*
X33904520Y-88182150D01*
X33917132Y-88161107D01*
X33931747Y-88141401D01*
X33948223Y-88123223D01*
X33966401Y-88106747D01*
X33986107Y-88092132D01*
X34007150Y-88079520D01*
X34029329Y-88069030D01*
X34052428Y-88060765D01*
X34076227Y-88054804D01*
X34100495Y-88051204D01*
X34124999Y-88050000D01*
X34775001Y-88050000D01*
X34799505Y-88051204D01*
X34799505Y-88051204D01*
G37*
D12*
X34450000Y-88750000D03*
D11*
G36*
X36849505Y-88051204D02*
X36873773Y-88054804D01*
X36897572Y-88060765D01*
X36920671Y-88069030D01*
X36942850Y-88079520D01*
X36963893Y-88092132D01*
X36983599Y-88106747D01*
X37001777Y-88123223D01*
X37018253Y-88141401D01*
X37032868Y-88161107D01*
X37045480Y-88182150D01*
X37055970Y-88204329D01*
X37064235Y-88227428D01*
X37070196Y-88251227D01*
X37073796Y-88275495D01*
X37075000Y-88299999D01*
X37075000Y-89200001D01*
X37073796Y-89224505D01*
X37070196Y-89248773D01*
X37064235Y-89272572D01*
X37055970Y-89295671D01*
X37045480Y-89317850D01*
X37032868Y-89338893D01*
X37018253Y-89358599D01*
X37001777Y-89376777D01*
X36983599Y-89393253D01*
X36963893Y-89407868D01*
X36942850Y-89420480D01*
X36920671Y-89430970D01*
X36897572Y-89439235D01*
X36873773Y-89445196D01*
X36849505Y-89448796D01*
X36825001Y-89450000D01*
X36174999Y-89450000D01*
X36150495Y-89448796D01*
X36126227Y-89445196D01*
X36102428Y-89439235D01*
X36079329Y-89430970D01*
X36057150Y-89420480D01*
X36036107Y-89407868D01*
X36016401Y-89393253D01*
X35998223Y-89376777D01*
X35981747Y-89358599D01*
X35967132Y-89338893D01*
X35954520Y-89317850D01*
X35944030Y-89295671D01*
X35935765Y-89272572D01*
X35929804Y-89248773D01*
X35926204Y-89224505D01*
X35925000Y-89200001D01*
X35925000Y-88299999D01*
X35926204Y-88275495D01*
X35929804Y-88251227D01*
X35935765Y-88227428D01*
X35944030Y-88204329D01*
X35954520Y-88182150D01*
X35967132Y-88161107D01*
X35981747Y-88141401D01*
X35998223Y-88123223D01*
X36016401Y-88106747D01*
X36036107Y-88092132D01*
X36057150Y-88079520D01*
X36079329Y-88069030D01*
X36102428Y-88060765D01*
X36126227Y-88054804D01*
X36150495Y-88051204D01*
X36174999Y-88050000D01*
X36825001Y-88050000D01*
X36849505Y-88051204D01*
X36849505Y-88051204D01*
G37*
D12*
X36500000Y-88750000D03*
G04 #@! TD*
D11*
G04 #@! TO.C,R17*
G36*
X43799505Y-104801204D02*
X43823773Y-104804804D01*
X43847572Y-104810765D01*
X43870671Y-104819030D01*
X43892850Y-104829520D01*
X43913893Y-104842132D01*
X43933599Y-104856747D01*
X43951777Y-104873223D01*
X43968253Y-104891401D01*
X43982868Y-104911107D01*
X43995480Y-104932150D01*
X44005970Y-104954329D01*
X44014235Y-104977428D01*
X44020196Y-105001227D01*
X44023796Y-105025495D01*
X44025000Y-105049999D01*
X44025000Y-105950001D01*
X44023796Y-105974505D01*
X44020196Y-105998773D01*
X44014235Y-106022572D01*
X44005970Y-106045671D01*
X43995480Y-106067850D01*
X43982868Y-106088893D01*
X43968253Y-106108599D01*
X43951777Y-106126777D01*
X43933599Y-106143253D01*
X43913893Y-106157868D01*
X43892850Y-106170480D01*
X43870671Y-106180970D01*
X43847572Y-106189235D01*
X43823773Y-106195196D01*
X43799505Y-106198796D01*
X43775001Y-106200000D01*
X43124999Y-106200000D01*
X43100495Y-106198796D01*
X43076227Y-106195196D01*
X43052428Y-106189235D01*
X43029329Y-106180970D01*
X43007150Y-106170480D01*
X42986107Y-106157868D01*
X42966401Y-106143253D01*
X42948223Y-106126777D01*
X42931747Y-106108599D01*
X42917132Y-106088893D01*
X42904520Y-106067850D01*
X42894030Y-106045671D01*
X42885765Y-106022572D01*
X42879804Y-105998773D01*
X42876204Y-105974505D01*
X42875000Y-105950001D01*
X42875000Y-105049999D01*
X42876204Y-105025495D01*
X42879804Y-105001227D01*
X42885765Y-104977428D01*
X42894030Y-104954329D01*
X42904520Y-104932150D01*
X42917132Y-104911107D01*
X42931747Y-104891401D01*
X42948223Y-104873223D01*
X42966401Y-104856747D01*
X42986107Y-104842132D01*
X43007150Y-104829520D01*
X43029329Y-104819030D01*
X43052428Y-104810765D01*
X43076227Y-104804804D01*
X43100495Y-104801204D01*
X43124999Y-104800000D01*
X43775001Y-104800000D01*
X43799505Y-104801204D01*
X43799505Y-104801204D01*
G37*
D12*
X43450000Y-105500000D03*
D11*
G36*
X45849505Y-104801204D02*
X45873773Y-104804804D01*
X45897572Y-104810765D01*
X45920671Y-104819030D01*
X45942850Y-104829520D01*
X45963893Y-104842132D01*
X45983599Y-104856747D01*
X46001777Y-104873223D01*
X46018253Y-104891401D01*
X46032868Y-104911107D01*
X46045480Y-104932150D01*
X46055970Y-104954329D01*
X46064235Y-104977428D01*
X46070196Y-105001227D01*
X46073796Y-105025495D01*
X46075000Y-105049999D01*
X46075000Y-105950001D01*
X46073796Y-105974505D01*
X46070196Y-105998773D01*
X46064235Y-106022572D01*
X46055970Y-106045671D01*
X46045480Y-106067850D01*
X46032868Y-106088893D01*
X46018253Y-106108599D01*
X46001777Y-106126777D01*
X45983599Y-106143253D01*
X45963893Y-106157868D01*
X45942850Y-106170480D01*
X45920671Y-106180970D01*
X45897572Y-106189235D01*
X45873773Y-106195196D01*
X45849505Y-106198796D01*
X45825001Y-106200000D01*
X45174999Y-106200000D01*
X45150495Y-106198796D01*
X45126227Y-106195196D01*
X45102428Y-106189235D01*
X45079329Y-106180970D01*
X45057150Y-106170480D01*
X45036107Y-106157868D01*
X45016401Y-106143253D01*
X44998223Y-106126777D01*
X44981747Y-106108599D01*
X44967132Y-106088893D01*
X44954520Y-106067850D01*
X44944030Y-106045671D01*
X44935765Y-106022572D01*
X44929804Y-105998773D01*
X44926204Y-105974505D01*
X44925000Y-105950001D01*
X44925000Y-105049999D01*
X44926204Y-105025495D01*
X44929804Y-105001227D01*
X44935765Y-104977428D01*
X44944030Y-104954329D01*
X44954520Y-104932150D01*
X44967132Y-104911107D01*
X44981747Y-104891401D01*
X44998223Y-104873223D01*
X45016401Y-104856747D01*
X45036107Y-104842132D01*
X45057150Y-104829520D01*
X45079329Y-104819030D01*
X45102428Y-104810765D01*
X45126227Y-104804804D01*
X45150495Y-104801204D01*
X45174999Y-104800000D01*
X45825001Y-104800000D01*
X45849505Y-104801204D01*
X45849505Y-104801204D01*
G37*
D12*
X45500000Y-105500000D03*
G04 #@! TD*
D11*
G04 #@! TO.C,R19*
G36*
X36849505Y-93551204D02*
X36873773Y-93554804D01*
X36897572Y-93560765D01*
X36920671Y-93569030D01*
X36942850Y-93579520D01*
X36963893Y-93592132D01*
X36983599Y-93606747D01*
X37001777Y-93623223D01*
X37018253Y-93641401D01*
X37032868Y-93661107D01*
X37045480Y-93682150D01*
X37055970Y-93704329D01*
X37064235Y-93727428D01*
X37070196Y-93751227D01*
X37073796Y-93775495D01*
X37075000Y-93799999D01*
X37075000Y-94700001D01*
X37073796Y-94724505D01*
X37070196Y-94748773D01*
X37064235Y-94772572D01*
X37055970Y-94795671D01*
X37045480Y-94817850D01*
X37032868Y-94838893D01*
X37018253Y-94858599D01*
X37001777Y-94876777D01*
X36983599Y-94893253D01*
X36963893Y-94907868D01*
X36942850Y-94920480D01*
X36920671Y-94930970D01*
X36897572Y-94939235D01*
X36873773Y-94945196D01*
X36849505Y-94948796D01*
X36825001Y-94950000D01*
X36174999Y-94950000D01*
X36150495Y-94948796D01*
X36126227Y-94945196D01*
X36102428Y-94939235D01*
X36079329Y-94930970D01*
X36057150Y-94920480D01*
X36036107Y-94907868D01*
X36016401Y-94893253D01*
X35998223Y-94876777D01*
X35981747Y-94858599D01*
X35967132Y-94838893D01*
X35954520Y-94817850D01*
X35944030Y-94795671D01*
X35935765Y-94772572D01*
X35929804Y-94748773D01*
X35926204Y-94724505D01*
X35925000Y-94700001D01*
X35925000Y-93799999D01*
X35926204Y-93775495D01*
X35929804Y-93751227D01*
X35935765Y-93727428D01*
X35944030Y-93704329D01*
X35954520Y-93682150D01*
X35967132Y-93661107D01*
X35981747Y-93641401D01*
X35998223Y-93623223D01*
X36016401Y-93606747D01*
X36036107Y-93592132D01*
X36057150Y-93579520D01*
X36079329Y-93569030D01*
X36102428Y-93560765D01*
X36126227Y-93554804D01*
X36150495Y-93551204D01*
X36174999Y-93550000D01*
X36825001Y-93550000D01*
X36849505Y-93551204D01*
X36849505Y-93551204D01*
G37*
D12*
X36500000Y-94250000D03*
D11*
G36*
X34799505Y-93551204D02*
X34823773Y-93554804D01*
X34847572Y-93560765D01*
X34870671Y-93569030D01*
X34892850Y-93579520D01*
X34913893Y-93592132D01*
X34933599Y-93606747D01*
X34951777Y-93623223D01*
X34968253Y-93641401D01*
X34982868Y-93661107D01*
X34995480Y-93682150D01*
X35005970Y-93704329D01*
X35014235Y-93727428D01*
X35020196Y-93751227D01*
X35023796Y-93775495D01*
X35025000Y-93799999D01*
X35025000Y-94700001D01*
X35023796Y-94724505D01*
X35020196Y-94748773D01*
X35014235Y-94772572D01*
X35005970Y-94795671D01*
X34995480Y-94817850D01*
X34982868Y-94838893D01*
X34968253Y-94858599D01*
X34951777Y-94876777D01*
X34933599Y-94893253D01*
X34913893Y-94907868D01*
X34892850Y-94920480D01*
X34870671Y-94930970D01*
X34847572Y-94939235D01*
X34823773Y-94945196D01*
X34799505Y-94948796D01*
X34775001Y-94950000D01*
X34124999Y-94950000D01*
X34100495Y-94948796D01*
X34076227Y-94945196D01*
X34052428Y-94939235D01*
X34029329Y-94930970D01*
X34007150Y-94920480D01*
X33986107Y-94907868D01*
X33966401Y-94893253D01*
X33948223Y-94876777D01*
X33931747Y-94858599D01*
X33917132Y-94838893D01*
X33904520Y-94817850D01*
X33894030Y-94795671D01*
X33885765Y-94772572D01*
X33879804Y-94748773D01*
X33876204Y-94724505D01*
X33875000Y-94700001D01*
X33875000Y-93799999D01*
X33876204Y-93775495D01*
X33879804Y-93751227D01*
X33885765Y-93727428D01*
X33894030Y-93704329D01*
X33904520Y-93682150D01*
X33917132Y-93661107D01*
X33931747Y-93641401D01*
X33948223Y-93623223D01*
X33966401Y-93606747D01*
X33986107Y-93592132D01*
X34007150Y-93579520D01*
X34029329Y-93569030D01*
X34052428Y-93560765D01*
X34076227Y-93554804D01*
X34100495Y-93551204D01*
X34124999Y-93550000D01*
X34775001Y-93550000D01*
X34799505Y-93551204D01*
X34799505Y-93551204D01*
G37*
D12*
X34450000Y-94250000D03*
G04 #@! TD*
D11*
G04 #@! TO.C,R20*
G36*
X48474505Y-102401204D02*
X48498773Y-102404804D01*
X48522572Y-102410765D01*
X48545671Y-102419030D01*
X48567850Y-102429520D01*
X48588893Y-102442132D01*
X48608599Y-102456747D01*
X48626777Y-102473223D01*
X48643253Y-102491401D01*
X48657868Y-102511107D01*
X48670480Y-102532150D01*
X48680970Y-102554329D01*
X48689235Y-102577428D01*
X48695196Y-102601227D01*
X48698796Y-102625495D01*
X48700000Y-102649999D01*
X48700000Y-103300001D01*
X48698796Y-103324505D01*
X48695196Y-103348773D01*
X48689235Y-103372572D01*
X48680970Y-103395671D01*
X48670480Y-103417850D01*
X48657868Y-103438893D01*
X48643253Y-103458599D01*
X48626777Y-103476777D01*
X48608599Y-103493253D01*
X48588893Y-103507868D01*
X48567850Y-103520480D01*
X48545671Y-103530970D01*
X48522572Y-103539235D01*
X48498773Y-103545196D01*
X48474505Y-103548796D01*
X48450001Y-103550000D01*
X47549999Y-103550000D01*
X47525495Y-103548796D01*
X47501227Y-103545196D01*
X47477428Y-103539235D01*
X47454329Y-103530970D01*
X47432150Y-103520480D01*
X47411107Y-103507868D01*
X47391401Y-103493253D01*
X47373223Y-103476777D01*
X47356747Y-103458599D01*
X47342132Y-103438893D01*
X47329520Y-103417850D01*
X47319030Y-103395671D01*
X47310765Y-103372572D01*
X47304804Y-103348773D01*
X47301204Y-103324505D01*
X47300000Y-103300001D01*
X47300000Y-102649999D01*
X47301204Y-102625495D01*
X47304804Y-102601227D01*
X47310765Y-102577428D01*
X47319030Y-102554329D01*
X47329520Y-102532150D01*
X47342132Y-102511107D01*
X47356747Y-102491401D01*
X47373223Y-102473223D01*
X47391401Y-102456747D01*
X47411107Y-102442132D01*
X47432150Y-102429520D01*
X47454329Y-102419030D01*
X47477428Y-102410765D01*
X47501227Y-102404804D01*
X47525495Y-102401204D01*
X47549999Y-102400000D01*
X48450001Y-102400000D01*
X48474505Y-102401204D01*
X48474505Y-102401204D01*
G37*
D12*
X48000000Y-102975000D03*
D11*
G36*
X48474505Y-104451204D02*
X48498773Y-104454804D01*
X48522572Y-104460765D01*
X48545671Y-104469030D01*
X48567850Y-104479520D01*
X48588893Y-104492132D01*
X48608599Y-104506747D01*
X48626777Y-104523223D01*
X48643253Y-104541401D01*
X48657868Y-104561107D01*
X48670480Y-104582150D01*
X48680970Y-104604329D01*
X48689235Y-104627428D01*
X48695196Y-104651227D01*
X48698796Y-104675495D01*
X48700000Y-104699999D01*
X48700000Y-105350001D01*
X48698796Y-105374505D01*
X48695196Y-105398773D01*
X48689235Y-105422572D01*
X48680970Y-105445671D01*
X48670480Y-105467850D01*
X48657868Y-105488893D01*
X48643253Y-105508599D01*
X48626777Y-105526777D01*
X48608599Y-105543253D01*
X48588893Y-105557868D01*
X48567850Y-105570480D01*
X48545671Y-105580970D01*
X48522572Y-105589235D01*
X48498773Y-105595196D01*
X48474505Y-105598796D01*
X48450001Y-105600000D01*
X47549999Y-105600000D01*
X47525495Y-105598796D01*
X47501227Y-105595196D01*
X47477428Y-105589235D01*
X47454329Y-105580970D01*
X47432150Y-105570480D01*
X47411107Y-105557868D01*
X47391401Y-105543253D01*
X47373223Y-105526777D01*
X47356747Y-105508599D01*
X47342132Y-105488893D01*
X47329520Y-105467850D01*
X47319030Y-105445671D01*
X47310765Y-105422572D01*
X47304804Y-105398773D01*
X47301204Y-105374505D01*
X47300000Y-105350001D01*
X47300000Y-104699999D01*
X47301204Y-104675495D01*
X47304804Y-104651227D01*
X47310765Y-104627428D01*
X47319030Y-104604329D01*
X47329520Y-104582150D01*
X47342132Y-104561107D01*
X47356747Y-104541401D01*
X47373223Y-104523223D01*
X47391401Y-104506747D01*
X47411107Y-104492132D01*
X47432150Y-104479520D01*
X47454329Y-104469030D01*
X47477428Y-104460765D01*
X47501227Y-104454804D01*
X47525495Y-104451204D01*
X47549999Y-104450000D01*
X48450001Y-104450000D01*
X48474505Y-104451204D01*
X48474505Y-104451204D01*
G37*
D12*
X48000000Y-105025000D03*
G04 #@! TD*
D11*
G04 #@! TO.C,R11*
G36*
X44299505Y-85551204D02*
X44323773Y-85554804D01*
X44347572Y-85560765D01*
X44370671Y-85569030D01*
X44392850Y-85579520D01*
X44413893Y-85592132D01*
X44433599Y-85606747D01*
X44451777Y-85623223D01*
X44468253Y-85641401D01*
X44482868Y-85661107D01*
X44495480Y-85682150D01*
X44505970Y-85704329D01*
X44514235Y-85727428D01*
X44520196Y-85751227D01*
X44523796Y-85775495D01*
X44525000Y-85799999D01*
X44525000Y-86700001D01*
X44523796Y-86724505D01*
X44520196Y-86748773D01*
X44514235Y-86772572D01*
X44505970Y-86795671D01*
X44495480Y-86817850D01*
X44482868Y-86838893D01*
X44468253Y-86858599D01*
X44451777Y-86876777D01*
X44433599Y-86893253D01*
X44413893Y-86907868D01*
X44392850Y-86920480D01*
X44370671Y-86930970D01*
X44347572Y-86939235D01*
X44323773Y-86945196D01*
X44299505Y-86948796D01*
X44275001Y-86950000D01*
X43624999Y-86950000D01*
X43600495Y-86948796D01*
X43576227Y-86945196D01*
X43552428Y-86939235D01*
X43529329Y-86930970D01*
X43507150Y-86920480D01*
X43486107Y-86907868D01*
X43466401Y-86893253D01*
X43448223Y-86876777D01*
X43431747Y-86858599D01*
X43417132Y-86838893D01*
X43404520Y-86817850D01*
X43394030Y-86795671D01*
X43385765Y-86772572D01*
X43379804Y-86748773D01*
X43376204Y-86724505D01*
X43375000Y-86700001D01*
X43375000Y-85799999D01*
X43376204Y-85775495D01*
X43379804Y-85751227D01*
X43385765Y-85727428D01*
X43394030Y-85704329D01*
X43404520Y-85682150D01*
X43417132Y-85661107D01*
X43431747Y-85641401D01*
X43448223Y-85623223D01*
X43466401Y-85606747D01*
X43486107Y-85592132D01*
X43507150Y-85579520D01*
X43529329Y-85569030D01*
X43552428Y-85560765D01*
X43576227Y-85554804D01*
X43600495Y-85551204D01*
X43624999Y-85550000D01*
X44275001Y-85550000D01*
X44299505Y-85551204D01*
X44299505Y-85551204D01*
G37*
D12*
X43950000Y-86250000D03*
D11*
G36*
X46349505Y-85551204D02*
X46373773Y-85554804D01*
X46397572Y-85560765D01*
X46420671Y-85569030D01*
X46442850Y-85579520D01*
X46463893Y-85592132D01*
X46483599Y-85606747D01*
X46501777Y-85623223D01*
X46518253Y-85641401D01*
X46532868Y-85661107D01*
X46545480Y-85682150D01*
X46555970Y-85704329D01*
X46564235Y-85727428D01*
X46570196Y-85751227D01*
X46573796Y-85775495D01*
X46575000Y-85799999D01*
X46575000Y-86700001D01*
X46573796Y-86724505D01*
X46570196Y-86748773D01*
X46564235Y-86772572D01*
X46555970Y-86795671D01*
X46545480Y-86817850D01*
X46532868Y-86838893D01*
X46518253Y-86858599D01*
X46501777Y-86876777D01*
X46483599Y-86893253D01*
X46463893Y-86907868D01*
X46442850Y-86920480D01*
X46420671Y-86930970D01*
X46397572Y-86939235D01*
X46373773Y-86945196D01*
X46349505Y-86948796D01*
X46325001Y-86950000D01*
X45674999Y-86950000D01*
X45650495Y-86948796D01*
X45626227Y-86945196D01*
X45602428Y-86939235D01*
X45579329Y-86930970D01*
X45557150Y-86920480D01*
X45536107Y-86907868D01*
X45516401Y-86893253D01*
X45498223Y-86876777D01*
X45481747Y-86858599D01*
X45467132Y-86838893D01*
X45454520Y-86817850D01*
X45444030Y-86795671D01*
X45435765Y-86772572D01*
X45429804Y-86748773D01*
X45426204Y-86724505D01*
X45425000Y-86700001D01*
X45425000Y-85799999D01*
X45426204Y-85775495D01*
X45429804Y-85751227D01*
X45435765Y-85727428D01*
X45444030Y-85704329D01*
X45454520Y-85682150D01*
X45467132Y-85661107D01*
X45481747Y-85641401D01*
X45498223Y-85623223D01*
X45516401Y-85606747D01*
X45536107Y-85592132D01*
X45557150Y-85579520D01*
X45579329Y-85569030D01*
X45602428Y-85560765D01*
X45626227Y-85554804D01*
X45650495Y-85551204D01*
X45674999Y-85550000D01*
X46325001Y-85550000D01*
X46349505Y-85551204D01*
X46349505Y-85551204D01*
G37*
D12*
X46000000Y-86250000D03*
G04 #@! TD*
D11*
G04 #@! TO.C,R12*
G36*
X34849505Y-98551204D02*
X34873773Y-98554804D01*
X34897572Y-98560765D01*
X34920671Y-98569030D01*
X34942850Y-98579520D01*
X34963893Y-98592132D01*
X34983599Y-98606747D01*
X35001777Y-98623223D01*
X35018253Y-98641401D01*
X35032868Y-98661107D01*
X35045480Y-98682150D01*
X35055970Y-98704329D01*
X35064235Y-98727428D01*
X35070196Y-98751227D01*
X35073796Y-98775495D01*
X35075000Y-98799999D01*
X35075000Y-99700001D01*
X35073796Y-99724505D01*
X35070196Y-99748773D01*
X35064235Y-99772572D01*
X35055970Y-99795671D01*
X35045480Y-99817850D01*
X35032868Y-99838893D01*
X35018253Y-99858599D01*
X35001777Y-99876777D01*
X34983599Y-99893253D01*
X34963893Y-99907868D01*
X34942850Y-99920480D01*
X34920671Y-99930970D01*
X34897572Y-99939235D01*
X34873773Y-99945196D01*
X34849505Y-99948796D01*
X34825001Y-99950000D01*
X34174999Y-99950000D01*
X34150495Y-99948796D01*
X34126227Y-99945196D01*
X34102428Y-99939235D01*
X34079329Y-99930970D01*
X34057150Y-99920480D01*
X34036107Y-99907868D01*
X34016401Y-99893253D01*
X33998223Y-99876777D01*
X33981747Y-99858599D01*
X33967132Y-99838893D01*
X33954520Y-99817850D01*
X33944030Y-99795671D01*
X33935765Y-99772572D01*
X33929804Y-99748773D01*
X33926204Y-99724505D01*
X33925000Y-99700001D01*
X33925000Y-98799999D01*
X33926204Y-98775495D01*
X33929804Y-98751227D01*
X33935765Y-98727428D01*
X33944030Y-98704329D01*
X33954520Y-98682150D01*
X33967132Y-98661107D01*
X33981747Y-98641401D01*
X33998223Y-98623223D01*
X34016401Y-98606747D01*
X34036107Y-98592132D01*
X34057150Y-98579520D01*
X34079329Y-98569030D01*
X34102428Y-98560765D01*
X34126227Y-98554804D01*
X34150495Y-98551204D01*
X34174999Y-98550000D01*
X34825001Y-98550000D01*
X34849505Y-98551204D01*
X34849505Y-98551204D01*
G37*
D12*
X34500000Y-99250000D03*
D11*
G36*
X36899505Y-98551204D02*
X36923773Y-98554804D01*
X36947572Y-98560765D01*
X36970671Y-98569030D01*
X36992850Y-98579520D01*
X37013893Y-98592132D01*
X37033599Y-98606747D01*
X37051777Y-98623223D01*
X37068253Y-98641401D01*
X37082868Y-98661107D01*
X37095480Y-98682150D01*
X37105970Y-98704329D01*
X37114235Y-98727428D01*
X37120196Y-98751227D01*
X37123796Y-98775495D01*
X37125000Y-98799999D01*
X37125000Y-99700001D01*
X37123796Y-99724505D01*
X37120196Y-99748773D01*
X37114235Y-99772572D01*
X37105970Y-99795671D01*
X37095480Y-99817850D01*
X37082868Y-99838893D01*
X37068253Y-99858599D01*
X37051777Y-99876777D01*
X37033599Y-99893253D01*
X37013893Y-99907868D01*
X36992850Y-99920480D01*
X36970671Y-99930970D01*
X36947572Y-99939235D01*
X36923773Y-99945196D01*
X36899505Y-99948796D01*
X36875001Y-99950000D01*
X36224999Y-99950000D01*
X36200495Y-99948796D01*
X36176227Y-99945196D01*
X36152428Y-99939235D01*
X36129329Y-99930970D01*
X36107150Y-99920480D01*
X36086107Y-99907868D01*
X36066401Y-99893253D01*
X36048223Y-99876777D01*
X36031747Y-99858599D01*
X36017132Y-99838893D01*
X36004520Y-99817850D01*
X35994030Y-99795671D01*
X35985765Y-99772572D01*
X35979804Y-99748773D01*
X35976204Y-99724505D01*
X35975000Y-99700001D01*
X35975000Y-98799999D01*
X35976204Y-98775495D01*
X35979804Y-98751227D01*
X35985765Y-98727428D01*
X35994030Y-98704329D01*
X36004520Y-98682150D01*
X36017132Y-98661107D01*
X36031747Y-98641401D01*
X36048223Y-98623223D01*
X36066401Y-98606747D01*
X36086107Y-98592132D01*
X36107150Y-98579520D01*
X36129329Y-98569030D01*
X36152428Y-98560765D01*
X36176227Y-98554804D01*
X36200495Y-98551204D01*
X36224999Y-98550000D01*
X36875001Y-98550000D01*
X36899505Y-98551204D01*
X36899505Y-98551204D01*
G37*
D12*
X36550000Y-99250000D03*
G04 #@! TD*
D11*
G04 #@! TO.C,R16*
G36*
X49349505Y-95551204D02*
X49373773Y-95554804D01*
X49397572Y-95560765D01*
X49420671Y-95569030D01*
X49442850Y-95579520D01*
X49463893Y-95592132D01*
X49483599Y-95606747D01*
X49501777Y-95623223D01*
X49518253Y-95641401D01*
X49532868Y-95661107D01*
X49545480Y-95682150D01*
X49555970Y-95704329D01*
X49564235Y-95727428D01*
X49570196Y-95751227D01*
X49573796Y-95775495D01*
X49575000Y-95799999D01*
X49575000Y-96700001D01*
X49573796Y-96724505D01*
X49570196Y-96748773D01*
X49564235Y-96772572D01*
X49555970Y-96795671D01*
X49545480Y-96817850D01*
X49532868Y-96838893D01*
X49518253Y-96858599D01*
X49501777Y-96876777D01*
X49483599Y-96893253D01*
X49463893Y-96907868D01*
X49442850Y-96920480D01*
X49420671Y-96930970D01*
X49397572Y-96939235D01*
X49373773Y-96945196D01*
X49349505Y-96948796D01*
X49325001Y-96950000D01*
X48674999Y-96950000D01*
X48650495Y-96948796D01*
X48626227Y-96945196D01*
X48602428Y-96939235D01*
X48579329Y-96930970D01*
X48557150Y-96920480D01*
X48536107Y-96907868D01*
X48516401Y-96893253D01*
X48498223Y-96876777D01*
X48481747Y-96858599D01*
X48467132Y-96838893D01*
X48454520Y-96817850D01*
X48444030Y-96795671D01*
X48435765Y-96772572D01*
X48429804Y-96748773D01*
X48426204Y-96724505D01*
X48425000Y-96700001D01*
X48425000Y-95799999D01*
X48426204Y-95775495D01*
X48429804Y-95751227D01*
X48435765Y-95727428D01*
X48444030Y-95704329D01*
X48454520Y-95682150D01*
X48467132Y-95661107D01*
X48481747Y-95641401D01*
X48498223Y-95623223D01*
X48516401Y-95606747D01*
X48536107Y-95592132D01*
X48557150Y-95579520D01*
X48579329Y-95569030D01*
X48602428Y-95560765D01*
X48626227Y-95554804D01*
X48650495Y-95551204D01*
X48674999Y-95550000D01*
X49325001Y-95550000D01*
X49349505Y-95551204D01*
X49349505Y-95551204D01*
G37*
D12*
X49000000Y-96250000D03*
D11*
G36*
X51399505Y-95551204D02*
X51423773Y-95554804D01*
X51447572Y-95560765D01*
X51470671Y-95569030D01*
X51492850Y-95579520D01*
X51513893Y-95592132D01*
X51533599Y-95606747D01*
X51551777Y-95623223D01*
X51568253Y-95641401D01*
X51582868Y-95661107D01*
X51595480Y-95682150D01*
X51605970Y-95704329D01*
X51614235Y-95727428D01*
X51620196Y-95751227D01*
X51623796Y-95775495D01*
X51625000Y-95799999D01*
X51625000Y-96700001D01*
X51623796Y-96724505D01*
X51620196Y-96748773D01*
X51614235Y-96772572D01*
X51605970Y-96795671D01*
X51595480Y-96817850D01*
X51582868Y-96838893D01*
X51568253Y-96858599D01*
X51551777Y-96876777D01*
X51533599Y-96893253D01*
X51513893Y-96907868D01*
X51492850Y-96920480D01*
X51470671Y-96930970D01*
X51447572Y-96939235D01*
X51423773Y-96945196D01*
X51399505Y-96948796D01*
X51375001Y-96950000D01*
X50724999Y-96950000D01*
X50700495Y-96948796D01*
X50676227Y-96945196D01*
X50652428Y-96939235D01*
X50629329Y-96930970D01*
X50607150Y-96920480D01*
X50586107Y-96907868D01*
X50566401Y-96893253D01*
X50548223Y-96876777D01*
X50531747Y-96858599D01*
X50517132Y-96838893D01*
X50504520Y-96817850D01*
X50494030Y-96795671D01*
X50485765Y-96772572D01*
X50479804Y-96748773D01*
X50476204Y-96724505D01*
X50475000Y-96700001D01*
X50475000Y-95799999D01*
X50476204Y-95775495D01*
X50479804Y-95751227D01*
X50485765Y-95727428D01*
X50494030Y-95704329D01*
X50504520Y-95682150D01*
X50517132Y-95661107D01*
X50531747Y-95641401D01*
X50548223Y-95623223D01*
X50566401Y-95606747D01*
X50586107Y-95592132D01*
X50607150Y-95579520D01*
X50629329Y-95569030D01*
X50652428Y-95560765D01*
X50676227Y-95554804D01*
X50700495Y-95551204D01*
X50724999Y-95550000D01*
X51375001Y-95550000D01*
X51399505Y-95551204D01*
X51399505Y-95551204D01*
G37*
D12*
X51050000Y-96250000D03*
G04 #@! TD*
D11*
G04 #@! TO.C,R14*
G36*
X60349505Y-88301204D02*
X60373773Y-88304804D01*
X60397572Y-88310765D01*
X60420671Y-88319030D01*
X60442850Y-88329520D01*
X60463893Y-88342132D01*
X60483599Y-88356747D01*
X60501777Y-88373223D01*
X60518253Y-88391401D01*
X60532868Y-88411107D01*
X60545480Y-88432150D01*
X60555970Y-88454329D01*
X60564235Y-88477428D01*
X60570196Y-88501227D01*
X60573796Y-88525495D01*
X60575000Y-88549999D01*
X60575000Y-89450001D01*
X60573796Y-89474505D01*
X60570196Y-89498773D01*
X60564235Y-89522572D01*
X60555970Y-89545671D01*
X60545480Y-89567850D01*
X60532868Y-89588893D01*
X60518253Y-89608599D01*
X60501777Y-89626777D01*
X60483599Y-89643253D01*
X60463893Y-89657868D01*
X60442850Y-89670480D01*
X60420671Y-89680970D01*
X60397572Y-89689235D01*
X60373773Y-89695196D01*
X60349505Y-89698796D01*
X60325001Y-89700000D01*
X59674999Y-89700000D01*
X59650495Y-89698796D01*
X59626227Y-89695196D01*
X59602428Y-89689235D01*
X59579329Y-89680970D01*
X59557150Y-89670480D01*
X59536107Y-89657868D01*
X59516401Y-89643253D01*
X59498223Y-89626777D01*
X59481747Y-89608599D01*
X59467132Y-89588893D01*
X59454520Y-89567850D01*
X59444030Y-89545671D01*
X59435765Y-89522572D01*
X59429804Y-89498773D01*
X59426204Y-89474505D01*
X59425000Y-89450001D01*
X59425000Y-88549999D01*
X59426204Y-88525495D01*
X59429804Y-88501227D01*
X59435765Y-88477428D01*
X59444030Y-88454329D01*
X59454520Y-88432150D01*
X59467132Y-88411107D01*
X59481747Y-88391401D01*
X59498223Y-88373223D01*
X59516401Y-88356747D01*
X59536107Y-88342132D01*
X59557150Y-88329520D01*
X59579329Y-88319030D01*
X59602428Y-88310765D01*
X59626227Y-88304804D01*
X59650495Y-88301204D01*
X59674999Y-88300000D01*
X60325001Y-88300000D01*
X60349505Y-88301204D01*
X60349505Y-88301204D01*
G37*
D12*
X60000000Y-89000000D03*
D11*
G36*
X62399505Y-88301204D02*
X62423773Y-88304804D01*
X62447572Y-88310765D01*
X62470671Y-88319030D01*
X62492850Y-88329520D01*
X62513893Y-88342132D01*
X62533599Y-88356747D01*
X62551777Y-88373223D01*
X62568253Y-88391401D01*
X62582868Y-88411107D01*
X62595480Y-88432150D01*
X62605970Y-88454329D01*
X62614235Y-88477428D01*
X62620196Y-88501227D01*
X62623796Y-88525495D01*
X62625000Y-88549999D01*
X62625000Y-89450001D01*
X62623796Y-89474505D01*
X62620196Y-89498773D01*
X62614235Y-89522572D01*
X62605970Y-89545671D01*
X62595480Y-89567850D01*
X62582868Y-89588893D01*
X62568253Y-89608599D01*
X62551777Y-89626777D01*
X62533599Y-89643253D01*
X62513893Y-89657868D01*
X62492850Y-89670480D01*
X62470671Y-89680970D01*
X62447572Y-89689235D01*
X62423773Y-89695196D01*
X62399505Y-89698796D01*
X62375001Y-89700000D01*
X61724999Y-89700000D01*
X61700495Y-89698796D01*
X61676227Y-89695196D01*
X61652428Y-89689235D01*
X61629329Y-89680970D01*
X61607150Y-89670480D01*
X61586107Y-89657868D01*
X61566401Y-89643253D01*
X61548223Y-89626777D01*
X61531747Y-89608599D01*
X61517132Y-89588893D01*
X61504520Y-89567850D01*
X61494030Y-89545671D01*
X61485765Y-89522572D01*
X61479804Y-89498773D01*
X61476204Y-89474505D01*
X61475000Y-89450001D01*
X61475000Y-88549999D01*
X61476204Y-88525495D01*
X61479804Y-88501227D01*
X61485765Y-88477428D01*
X61494030Y-88454329D01*
X61504520Y-88432150D01*
X61517132Y-88411107D01*
X61531747Y-88391401D01*
X61548223Y-88373223D01*
X61566401Y-88356747D01*
X61586107Y-88342132D01*
X61607150Y-88329520D01*
X61629329Y-88319030D01*
X61652428Y-88310765D01*
X61676227Y-88304804D01*
X61700495Y-88301204D01*
X61724999Y-88300000D01*
X62375001Y-88300000D01*
X62399505Y-88301204D01*
X62399505Y-88301204D01*
G37*
D12*
X62050000Y-89000000D03*
G04 #@! TD*
D11*
G04 #@! TO.C,R4*
G36*
X51474505Y-102401204D02*
X51498773Y-102404804D01*
X51522572Y-102410765D01*
X51545671Y-102419030D01*
X51567850Y-102429520D01*
X51588893Y-102442132D01*
X51608599Y-102456747D01*
X51626777Y-102473223D01*
X51643253Y-102491401D01*
X51657868Y-102511107D01*
X51670480Y-102532150D01*
X51680970Y-102554329D01*
X51689235Y-102577428D01*
X51695196Y-102601227D01*
X51698796Y-102625495D01*
X51700000Y-102649999D01*
X51700000Y-103300001D01*
X51698796Y-103324505D01*
X51695196Y-103348773D01*
X51689235Y-103372572D01*
X51680970Y-103395671D01*
X51670480Y-103417850D01*
X51657868Y-103438893D01*
X51643253Y-103458599D01*
X51626777Y-103476777D01*
X51608599Y-103493253D01*
X51588893Y-103507868D01*
X51567850Y-103520480D01*
X51545671Y-103530970D01*
X51522572Y-103539235D01*
X51498773Y-103545196D01*
X51474505Y-103548796D01*
X51450001Y-103550000D01*
X50549999Y-103550000D01*
X50525495Y-103548796D01*
X50501227Y-103545196D01*
X50477428Y-103539235D01*
X50454329Y-103530970D01*
X50432150Y-103520480D01*
X50411107Y-103507868D01*
X50391401Y-103493253D01*
X50373223Y-103476777D01*
X50356747Y-103458599D01*
X50342132Y-103438893D01*
X50329520Y-103417850D01*
X50319030Y-103395671D01*
X50310765Y-103372572D01*
X50304804Y-103348773D01*
X50301204Y-103324505D01*
X50300000Y-103300001D01*
X50300000Y-102649999D01*
X50301204Y-102625495D01*
X50304804Y-102601227D01*
X50310765Y-102577428D01*
X50319030Y-102554329D01*
X50329520Y-102532150D01*
X50342132Y-102511107D01*
X50356747Y-102491401D01*
X50373223Y-102473223D01*
X50391401Y-102456747D01*
X50411107Y-102442132D01*
X50432150Y-102429520D01*
X50454329Y-102419030D01*
X50477428Y-102410765D01*
X50501227Y-102404804D01*
X50525495Y-102401204D01*
X50549999Y-102400000D01*
X51450001Y-102400000D01*
X51474505Y-102401204D01*
X51474505Y-102401204D01*
G37*
D12*
X51000000Y-102975000D03*
D11*
G36*
X51474505Y-104451204D02*
X51498773Y-104454804D01*
X51522572Y-104460765D01*
X51545671Y-104469030D01*
X51567850Y-104479520D01*
X51588893Y-104492132D01*
X51608599Y-104506747D01*
X51626777Y-104523223D01*
X51643253Y-104541401D01*
X51657868Y-104561107D01*
X51670480Y-104582150D01*
X51680970Y-104604329D01*
X51689235Y-104627428D01*
X51695196Y-104651227D01*
X51698796Y-104675495D01*
X51700000Y-104699999D01*
X51700000Y-105350001D01*
X51698796Y-105374505D01*
X51695196Y-105398773D01*
X51689235Y-105422572D01*
X51680970Y-105445671D01*
X51670480Y-105467850D01*
X51657868Y-105488893D01*
X51643253Y-105508599D01*
X51626777Y-105526777D01*
X51608599Y-105543253D01*
X51588893Y-105557868D01*
X51567850Y-105570480D01*
X51545671Y-105580970D01*
X51522572Y-105589235D01*
X51498773Y-105595196D01*
X51474505Y-105598796D01*
X51450001Y-105600000D01*
X50549999Y-105600000D01*
X50525495Y-105598796D01*
X50501227Y-105595196D01*
X50477428Y-105589235D01*
X50454329Y-105580970D01*
X50432150Y-105570480D01*
X50411107Y-105557868D01*
X50391401Y-105543253D01*
X50373223Y-105526777D01*
X50356747Y-105508599D01*
X50342132Y-105488893D01*
X50329520Y-105467850D01*
X50319030Y-105445671D01*
X50310765Y-105422572D01*
X50304804Y-105398773D01*
X50301204Y-105374505D01*
X50300000Y-105350001D01*
X50300000Y-104699999D01*
X50301204Y-104675495D01*
X50304804Y-104651227D01*
X50310765Y-104627428D01*
X50319030Y-104604329D01*
X50329520Y-104582150D01*
X50342132Y-104561107D01*
X50356747Y-104541401D01*
X50373223Y-104523223D01*
X50391401Y-104506747D01*
X50411107Y-104492132D01*
X50432150Y-104479520D01*
X50454329Y-104469030D01*
X50477428Y-104460765D01*
X50501227Y-104454804D01*
X50525495Y-104451204D01*
X50549999Y-104450000D01*
X51450001Y-104450000D01*
X51474505Y-104451204D01*
X51474505Y-104451204D01*
G37*
D12*
X51000000Y-105025000D03*
G04 #@! TD*
D11*
G04 #@! TO.C,R5*
G36*
X36899505Y-101301204D02*
X36923773Y-101304804D01*
X36947572Y-101310765D01*
X36970671Y-101319030D01*
X36992850Y-101329520D01*
X37013893Y-101342132D01*
X37033599Y-101356747D01*
X37051777Y-101373223D01*
X37068253Y-101391401D01*
X37082868Y-101411107D01*
X37095480Y-101432150D01*
X37105970Y-101454329D01*
X37114235Y-101477428D01*
X37120196Y-101501227D01*
X37123796Y-101525495D01*
X37125000Y-101549999D01*
X37125000Y-102450001D01*
X37123796Y-102474505D01*
X37120196Y-102498773D01*
X37114235Y-102522572D01*
X37105970Y-102545671D01*
X37095480Y-102567850D01*
X37082868Y-102588893D01*
X37068253Y-102608599D01*
X37051777Y-102626777D01*
X37033599Y-102643253D01*
X37013893Y-102657868D01*
X36992850Y-102670480D01*
X36970671Y-102680970D01*
X36947572Y-102689235D01*
X36923773Y-102695196D01*
X36899505Y-102698796D01*
X36875001Y-102700000D01*
X36224999Y-102700000D01*
X36200495Y-102698796D01*
X36176227Y-102695196D01*
X36152428Y-102689235D01*
X36129329Y-102680970D01*
X36107150Y-102670480D01*
X36086107Y-102657868D01*
X36066401Y-102643253D01*
X36048223Y-102626777D01*
X36031747Y-102608599D01*
X36017132Y-102588893D01*
X36004520Y-102567850D01*
X35994030Y-102545671D01*
X35985765Y-102522572D01*
X35979804Y-102498773D01*
X35976204Y-102474505D01*
X35975000Y-102450001D01*
X35975000Y-101549999D01*
X35976204Y-101525495D01*
X35979804Y-101501227D01*
X35985765Y-101477428D01*
X35994030Y-101454329D01*
X36004520Y-101432150D01*
X36017132Y-101411107D01*
X36031747Y-101391401D01*
X36048223Y-101373223D01*
X36066401Y-101356747D01*
X36086107Y-101342132D01*
X36107150Y-101329520D01*
X36129329Y-101319030D01*
X36152428Y-101310765D01*
X36176227Y-101304804D01*
X36200495Y-101301204D01*
X36224999Y-101300000D01*
X36875001Y-101300000D01*
X36899505Y-101301204D01*
X36899505Y-101301204D01*
G37*
D12*
X36550000Y-102000000D03*
D11*
G36*
X34849505Y-101301204D02*
X34873773Y-101304804D01*
X34897572Y-101310765D01*
X34920671Y-101319030D01*
X34942850Y-101329520D01*
X34963893Y-101342132D01*
X34983599Y-101356747D01*
X35001777Y-101373223D01*
X35018253Y-101391401D01*
X35032868Y-101411107D01*
X35045480Y-101432150D01*
X35055970Y-101454329D01*
X35064235Y-101477428D01*
X35070196Y-101501227D01*
X35073796Y-101525495D01*
X35075000Y-101549999D01*
X35075000Y-102450001D01*
X35073796Y-102474505D01*
X35070196Y-102498773D01*
X35064235Y-102522572D01*
X35055970Y-102545671D01*
X35045480Y-102567850D01*
X35032868Y-102588893D01*
X35018253Y-102608599D01*
X35001777Y-102626777D01*
X34983599Y-102643253D01*
X34963893Y-102657868D01*
X34942850Y-102670480D01*
X34920671Y-102680970D01*
X34897572Y-102689235D01*
X34873773Y-102695196D01*
X34849505Y-102698796D01*
X34825001Y-102700000D01*
X34174999Y-102700000D01*
X34150495Y-102698796D01*
X34126227Y-102695196D01*
X34102428Y-102689235D01*
X34079329Y-102680970D01*
X34057150Y-102670480D01*
X34036107Y-102657868D01*
X34016401Y-102643253D01*
X33998223Y-102626777D01*
X33981747Y-102608599D01*
X33967132Y-102588893D01*
X33954520Y-102567850D01*
X33944030Y-102545671D01*
X33935765Y-102522572D01*
X33929804Y-102498773D01*
X33926204Y-102474505D01*
X33925000Y-102450001D01*
X33925000Y-101549999D01*
X33926204Y-101525495D01*
X33929804Y-101501227D01*
X33935765Y-101477428D01*
X33944030Y-101454329D01*
X33954520Y-101432150D01*
X33967132Y-101411107D01*
X33981747Y-101391401D01*
X33998223Y-101373223D01*
X34016401Y-101356747D01*
X34036107Y-101342132D01*
X34057150Y-101329520D01*
X34079329Y-101319030D01*
X34102428Y-101310765D01*
X34126227Y-101304804D01*
X34150495Y-101301204D01*
X34174999Y-101300000D01*
X34825001Y-101300000D01*
X34849505Y-101301204D01*
X34849505Y-101301204D01*
G37*
D12*
X34500000Y-102000000D03*
G04 #@! TD*
D11*
G04 #@! TO.C,R10*
G36*
X51399505Y-100051204D02*
X51423773Y-100054804D01*
X51447572Y-100060765D01*
X51470671Y-100069030D01*
X51492850Y-100079520D01*
X51513893Y-100092132D01*
X51533599Y-100106747D01*
X51551777Y-100123223D01*
X51568253Y-100141401D01*
X51582868Y-100161107D01*
X51595480Y-100182150D01*
X51605970Y-100204329D01*
X51614235Y-100227428D01*
X51620196Y-100251227D01*
X51623796Y-100275495D01*
X51625000Y-100299999D01*
X51625000Y-101200001D01*
X51623796Y-101224505D01*
X51620196Y-101248773D01*
X51614235Y-101272572D01*
X51605970Y-101295671D01*
X51595480Y-101317850D01*
X51582868Y-101338893D01*
X51568253Y-101358599D01*
X51551777Y-101376777D01*
X51533599Y-101393253D01*
X51513893Y-101407868D01*
X51492850Y-101420480D01*
X51470671Y-101430970D01*
X51447572Y-101439235D01*
X51423773Y-101445196D01*
X51399505Y-101448796D01*
X51375001Y-101450000D01*
X50724999Y-101450000D01*
X50700495Y-101448796D01*
X50676227Y-101445196D01*
X50652428Y-101439235D01*
X50629329Y-101430970D01*
X50607150Y-101420480D01*
X50586107Y-101407868D01*
X50566401Y-101393253D01*
X50548223Y-101376777D01*
X50531747Y-101358599D01*
X50517132Y-101338893D01*
X50504520Y-101317850D01*
X50494030Y-101295671D01*
X50485765Y-101272572D01*
X50479804Y-101248773D01*
X50476204Y-101224505D01*
X50475000Y-101200001D01*
X50475000Y-100299999D01*
X50476204Y-100275495D01*
X50479804Y-100251227D01*
X50485765Y-100227428D01*
X50494030Y-100204329D01*
X50504520Y-100182150D01*
X50517132Y-100161107D01*
X50531747Y-100141401D01*
X50548223Y-100123223D01*
X50566401Y-100106747D01*
X50586107Y-100092132D01*
X50607150Y-100079520D01*
X50629329Y-100069030D01*
X50652428Y-100060765D01*
X50676227Y-100054804D01*
X50700495Y-100051204D01*
X50724999Y-100050000D01*
X51375001Y-100050000D01*
X51399505Y-100051204D01*
X51399505Y-100051204D01*
G37*
D12*
X51050000Y-100750000D03*
D11*
G36*
X49349505Y-100051204D02*
X49373773Y-100054804D01*
X49397572Y-100060765D01*
X49420671Y-100069030D01*
X49442850Y-100079520D01*
X49463893Y-100092132D01*
X49483599Y-100106747D01*
X49501777Y-100123223D01*
X49518253Y-100141401D01*
X49532868Y-100161107D01*
X49545480Y-100182150D01*
X49555970Y-100204329D01*
X49564235Y-100227428D01*
X49570196Y-100251227D01*
X49573796Y-100275495D01*
X49575000Y-100299999D01*
X49575000Y-101200001D01*
X49573796Y-101224505D01*
X49570196Y-101248773D01*
X49564235Y-101272572D01*
X49555970Y-101295671D01*
X49545480Y-101317850D01*
X49532868Y-101338893D01*
X49518253Y-101358599D01*
X49501777Y-101376777D01*
X49483599Y-101393253D01*
X49463893Y-101407868D01*
X49442850Y-101420480D01*
X49420671Y-101430970D01*
X49397572Y-101439235D01*
X49373773Y-101445196D01*
X49349505Y-101448796D01*
X49325001Y-101450000D01*
X48674999Y-101450000D01*
X48650495Y-101448796D01*
X48626227Y-101445196D01*
X48602428Y-101439235D01*
X48579329Y-101430970D01*
X48557150Y-101420480D01*
X48536107Y-101407868D01*
X48516401Y-101393253D01*
X48498223Y-101376777D01*
X48481747Y-101358599D01*
X48467132Y-101338893D01*
X48454520Y-101317850D01*
X48444030Y-101295671D01*
X48435765Y-101272572D01*
X48429804Y-101248773D01*
X48426204Y-101224505D01*
X48425000Y-101200001D01*
X48425000Y-100299999D01*
X48426204Y-100275495D01*
X48429804Y-100251227D01*
X48435765Y-100227428D01*
X48444030Y-100204329D01*
X48454520Y-100182150D01*
X48467132Y-100161107D01*
X48481747Y-100141401D01*
X48498223Y-100123223D01*
X48516401Y-100106747D01*
X48536107Y-100092132D01*
X48557150Y-100079520D01*
X48579329Y-100069030D01*
X48602428Y-100060765D01*
X48626227Y-100054804D01*
X48650495Y-100051204D01*
X48674999Y-100050000D01*
X49325001Y-100050000D01*
X49349505Y-100051204D01*
X49349505Y-100051204D01*
G37*
D12*
X49000000Y-100750000D03*
G04 #@! TD*
D13*
G04 #@! TO.C,D2*
X54850000Y-106160000D03*
X55500000Y-103500000D03*
X54200000Y-103500000D03*
G04 #@! TD*
D14*
G04 #@! TO.C,D1*
X55400000Y-78800000D03*
X58700000Y-78800000D03*
G04 #@! TD*
G04 #@! TO.C,D3*
X64100000Y-78800000D03*
X60800000Y-78800000D03*
G04 #@! TD*
D13*
G04 #@! TO.C,Q1*
X40650000Y-105580000D03*
X39350000Y-105580000D03*
X40000000Y-102920000D03*
G04 #@! TD*
D11*
G04 #@! TO.C,R7*
G36*
X54074505Y-68826204D02*
X54098773Y-68829804D01*
X54122572Y-68835765D01*
X54145671Y-68844030D01*
X54167850Y-68854520D01*
X54188893Y-68867132D01*
X54208599Y-68881747D01*
X54226777Y-68898223D01*
X54243253Y-68916401D01*
X54257868Y-68936107D01*
X54270480Y-68957150D01*
X54280970Y-68979329D01*
X54289235Y-69002428D01*
X54295196Y-69026227D01*
X54298796Y-69050495D01*
X54300000Y-69074999D01*
X54300000Y-69725001D01*
X54298796Y-69749505D01*
X54295196Y-69773773D01*
X54289235Y-69797572D01*
X54280970Y-69820671D01*
X54270480Y-69842850D01*
X54257868Y-69863893D01*
X54243253Y-69883599D01*
X54226777Y-69901777D01*
X54208599Y-69918253D01*
X54188893Y-69932868D01*
X54167850Y-69945480D01*
X54145671Y-69955970D01*
X54122572Y-69964235D01*
X54098773Y-69970196D01*
X54074505Y-69973796D01*
X54050001Y-69975000D01*
X53149999Y-69975000D01*
X53125495Y-69973796D01*
X53101227Y-69970196D01*
X53077428Y-69964235D01*
X53054329Y-69955970D01*
X53032150Y-69945480D01*
X53011107Y-69932868D01*
X52991401Y-69918253D01*
X52973223Y-69901777D01*
X52956747Y-69883599D01*
X52942132Y-69863893D01*
X52929520Y-69842850D01*
X52919030Y-69820671D01*
X52910765Y-69797572D01*
X52904804Y-69773773D01*
X52901204Y-69749505D01*
X52900000Y-69725001D01*
X52900000Y-69074999D01*
X52901204Y-69050495D01*
X52904804Y-69026227D01*
X52910765Y-69002428D01*
X52919030Y-68979329D01*
X52929520Y-68957150D01*
X52942132Y-68936107D01*
X52956747Y-68916401D01*
X52973223Y-68898223D01*
X52991401Y-68881747D01*
X53011107Y-68867132D01*
X53032150Y-68854520D01*
X53054329Y-68844030D01*
X53077428Y-68835765D01*
X53101227Y-68829804D01*
X53125495Y-68826204D01*
X53149999Y-68825000D01*
X54050001Y-68825000D01*
X54074505Y-68826204D01*
X54074505Y-68826204D01*
G37*
D12*
X53600000Y-69400000D03*
D11*
G36*
X54074505Y-70876204D02*
X54098773Y-70879804D01*
X54122572Y-70885765D01*
X54145671Y-70894030D01*
X54167850Y-70904520D01*
X54188893Y-70917132D01*
X54208599Y-70931747D01*
X54226777Y-70948223D01*
X54243253Y-70966401D01*
X54257868Y-70986107D01*
X54270480Y-71007150D01*
X54280970Y-71029329D01*
X54289235Y-71052428D01*
X54295196Y-71076227D01*
X54298796Y-71100495D01*
X54300000Y-71124999D01*
X54300000Y-71775001D01*
X54298796Y-71799505D01*
X54295196Y-71823773D01*
X54289235Y-71847572D01*
X54280970Y-71870671D01*
X54270480Y-71892850D01*
X54257868Y-71913893D01*
X54243253Y-71933599D01*
X54226777Y-71951777D01*
X54208599Y-71968253D01*
X54188893Y-71982868D01*
X54167850Y-71995480D01*
X54145671Y-72005970D01*
X54122572Y-72014235D01*
X54098773Y-72020196D01*
X54074505Y-72023796D01*
X54050001Y-72025000D01*
X53149999Y-72025000D01*
X53125495Y-72023796D01*
X53101227Y-72020196D01*
X53077428Y-72014235D01*
X53054329Y-72005970D01*
X53032150Y-71995480D01*
X53011107Y-71982868D01*
X52991401Y-71968253D01*
X52973223Y-71951777D01*
X52956747Y-71933599D01*
X52942132Y-71913893D01*
X52929520Y-71892850D01*
X52919030Y-71870671D01*
X52910765Y-71847572D01*
X52904804Y-71823773D01*
X52901204Y-71799505D01*
X52900000Y-71775001D01*
X52900000Y-71124999D01*
X52901204Y-71100495D01*
X52904804Y-71076227D01*
X52910765Y-71052428D01*
X52919030Y-71029329D01*
X52929520Y-71007150D01*
X52942132Y-70986107D01*
X52956747Y-70966401D01*
X52973223Y-70948223D01*
X52991401Y-70931747D01*
X53011107Y-70917132D01*
X53032150Y-70904520D01*
X53054329Y-70894030D01*
X53077428Y-70885765D01*
X53101227Y-70879804D01*
X53125495Y-70876204D01*
X53149999Y-70875000D01*
X54050001Y-70875000D01*
X54074505Y-70876204D01*
X54074505Y-70876204D01*
G37*
D12*
X53600000Y-71450000D03*
G04 #@! TD*
D11*
G04 #@! TO.C,R8*
G36*
X66349505Y-72051204D02*
X66373773Y-72054804D01*
X66397572Y-72060765D01*
X66420671Y-72069030D01*
X66442850Y-72079520D01*
X66463893Y-72092132D01*
X66483599Y-72106747D01*
X66501777Y-72123223D01*
X66518253Y-72141401D01*
X66532868Y-72161107D01*
X66545480Y-72182150D01*
X66555970Y-72204329D01*
X66564235Y-72227428D01*
X66570196Y-72251227D01*
X66573796Y-72275495D01*
X66575000Y-72299999D01*
X66575000Y-73200001D01*
X66573796Y-73224505D01*
X66570196Y-73248773D01*
X66564235Y-73272572D01*
X66555970Y-73295671D01*
X66545480Y-73317850D01*
X66532868Y-73338893D01*
X66518253Y-73358599D01*
X66501777Y-73376777D01*
X66483599Y-73393253D01*
X66463893Y-73407868D01*
X66442850Y-73420480D01*
X66420671Y-73430970D01*
X66397572Y-73439235D01*
X66373773Y-73445196D01*
X66349505Y-73448796D01*
X66325001Y-73450000D01*
X65674999Y-73450000D01*
X65650495Y-73448796D01*
X65626227Y-73445196D01*
X65602428Y-73439235D01*
X65579329Y-73430970D01*
X65557150Y-73420480D01*
X65536107Y-73407868D01*
X65516401Y-73393253D01*
X65498223Y-73376777D01*
X65481747Y-73358599D01*
X65467132Y-73338893D01*
X65454520Y-73317850D01*
X65444030Y-73295671D01*
X65435765Y-73272572D01*
X65429804Y-73248773D01*
X65426204Y-73224505D01*
X65425000Y-73200001D01*
X65425000Y-72299999D01*
X65426204Y-72275495D01*
X65429804Y-72251227D01*
X65435765Y-72227428D01*
X65444030Y-72204329D01*
X65454520Y-72182150D01*
X65467132Y-72161107D01*
X65481747Y-72141401D01*
X65498223Y-72123223D01*
X65516401Y-72106747D01*
X65536107Y-72092132D01*
X65557150Y-72079520D01*
X65579329Y-72069030D01*
X65602428Y-72060765D01*
X65626227Y-72054804D01*
X65650495Y-72051204D01*
X65674999Y-72050000D01*
X66325001Y-72050000D01*
X66349505Y-72051204D01*
X66349505Y-72051204D01*
G37*
D12*
X66000000Y-72750000D03*
D11*
G36*
X64299505Y-72051204D02*
X64323773Y-72054804D01*
X64347572Y-72060765D01*
X64370671Y-72069030D01*
X64392850Y-72079520D01*
X64413893Y-72092132D01*
X64433599Y-72106747D01*
X64451777Y-72123223D01*
X64468253Y-72141401D01*
X64482868Y-72161107D01*
X64495480Y-72182150D01*
X64505970Y-72204329D01*
X64514235Y-72227428D01*
X64520196Y-72251227D01*
X64523796Y-72275495D01*
X64525000Y-72299999D01*
X64525000Y-73200001D01*
X64523796Y-73224505D01*
X64520196Y-73248773D01*
X64514235Y-73272572D01*
X64505970Y-73295671D01*
X64495480Y-73317850D01*
X64482868Y-73338893D01*
X64468253Y-73358599D01*
X64451777Y-73376777D01*
X64433599Y-73393253D01*
X64413893Y-73407868D01*
X64392850Y-73420480D01*
X64370671Y-73430970D01*
X64347572Y-73439235D01*
X64323773Y-73445196D01*
X64299505Y-73448796D01*
X64275001Y-73450000D01*
X63624999Y-73450000D01*
X63600495Y-73448796D01*
X63576227Y-73445196D01*
X63552428Y-73439235D01*
X63529329Y-73430970D01*
X63507150Y-73420480D01*
X63486107Y-73407868D01*
X63466401Y-73393253D01*
X63448223Y-73376777D01*
X63431747Y-73358599D01*
X63417132Y-73338893D01*
X63404520Y-73317850D01*
X63394030Y-73295671D01*
X63385765Y-73272572D01*
X63379804Y-73248773D01*
X63376204Y-73224505D01*
X63375000Y-73200001D01*
X63375000Y-72299999D01*
X63376204Y-72275495D01*
X63379804Y-72251227D01*
X63385765Y-72227428D01*
X63394030Y-72204329D01*
X63404520Y-72182150D01*
X63417132Y-72161107D01*
X63431747Y-72141401D01*
X63448223Y-72123223D01*
X63466401Y-72106747D01*
X63486107Y-72092132D01*
X63507150Y-72079520D01*
X63529329Y-72069030D01*
X63552428Y-72060765D01*
X63576227Y-72054804D01*
X63600495Y-72051204D01*
X63624999Y-72050000D01*
X64275001Y-72050000D01*
X64299505Y-72051204D01*
X64299505Y-72051204D01*
G37*
D12*
X63950000Y-72750000D03*
G04 #@! TD*
D11*
G04 #@! TO.C,C1*
G36*
X56149505Y-100301204D02*
X56173773Y-100304804D01*
X56197572Y-100310765D01*
X56220671Y-100319030D01*
X56242850Y-100329520D01*
X56263893Y-100342132D01*
X56283599Y-100356747D01*
X56301777Y-100373223D01*
X56318253Y-100391401D01*
X56332868Y-100411107D01*
X56345480Y-100432150D01*
X56355970Y-100454329D01*
X56364235Y-100477428D01*
X56370196Y-100501227D01*
X56373796Y-100525495D01*
X56375000Y-100549999D01*
X56375000Y-101450001D01*
X56373796Y-101474505D01*
X56370196Y-101498773D01*
X56364235Y-101522572D01*
X56355970Y-101545671D01*
X56345480Y-101567850D01*
X56332868Y-101588893D01*
X56318253Y-101608599D01*
X56301777Y-101626777D01*
X56283599Y-101643253D01*
X56263893Y-101657868D01*
X56242850Y-101670480D01*
X56220671Y-101680970D01*
X56197572Y-101689235D01*
X56173773Y-101695196D01*
X56149505Y-101698796D01*
X56125001Y-101700000D01*
X55474999Y-101700000D01*
X55450495Y-101698796D01*
X55426227Y-101695196D01*
X55402428Y-101689235D01*
X55379329Y-101680970D01*
X55357150Y-101670480D01*
X55336107Y-101657868D01*
X55316401Y-101643253D01*
X55298223Y-101626777D01*
X55281747Y-101608599D01*
X55267132Y-101588893D01*
X55254520Y-101567850D01*
X55244030Y-101545671D01*
X55235765Y-101522572D01*
X55229804Y-101498773D01*
X55226204Y-101474505D01*
X55225000Y-101450001D01*
X55225000Y-100549999D01*
X55226204Y-100525495D01*
X55229804Y-100501227D01*
X55235765Y-100477428D01*
X55244030Y-100454329D01*
X55254520Y-100432150D01*
X55267132Y-100411107D01*
X55281747Y-100391401D01*
X55298223Y-100373223D01*
X55316401Y-100356747D01*
X55336107Y-100342132D01*
X55357150Y-100329520D01*
X55379329Y-100319030D01*
X55402428Y-100310765D01*
X55426227Y-100304804D01*
X55450495Y-100301204D01*
X55474999Y-100300000D01*
X56125001Y-100300000D01*
X56149505Y-100301204D01*
X56149505Y-100301204D01*
G37*
D12*
X55800000Y-101000000D03*
D11*
G36*
X54099505Y-100301204D02*
X54123773Y-100304804D01*
X54147572Y-100310765D01*
X54170671Y-100319030D01*
X54192850Y-100329520D01*
X54213893Y-100342132D01*
X54233599Y-100356747D01*
X54251777Y-100373223D01*
X54268253Y-100391401D01*
X54282868Y-100411107D01*
X54295480Y-100432150D01*
X54305970Y-100454329D01*
X54314235Y-100477428D01*
X54320196Y-100501227D01*
X54323796Y-100525495D01*
X54325000Y-100549999D01*
X54325000Y-101450001D01*
X54323796Y-101474505D01*
X54320196Y-101498773D01*
X54314235Y-101522572D01*
X54305970Y-101545671D01*
X54295480Y-101567850D01*
X54282868Y-101588893D01*
X54268253Y-101608599D01*
X54251777Y-101626777D01*
X54233599Y-101643253D01*
X54213893Y-101657868D01*
X54192850Y-101670480D01*
X54170671Y-101680970D01*
X54147572Y-101689235D01*
X54123773Y-101695196D01*
X54099505Y-101698796D01*
X54075001Y-101700000D01*
X53424999Y-101700000D01*
X53400495Y-101698796D01*
X53376227Y-101695196D01*
X53352428Y-101689235D01*
X53329329Y-101680970D01*
X53307150Y-101670480D01*
X53286107Y-101657868D01*
X53266401Y-101643253D01*
X53248223Y-101626777D01*
X53231747Y-101608599D01*
X53217132Y-101588893D01*
X53204520Y-101567850D01*
X53194030Y-101545671D01*
X53185765Y-101522572D01*
X53179804Y-101498773D01*
X53176204Y-101474505D01*
X53175000Y-101450001D01*
X53175000Y-100549999D01*
X53176204Y-100525495D01*
X53179804Y-100501227D01*
X53185765Y-100477428D01*
X53194030Y-100454329D01*
X53204520Y-100432150D01*
X53217132Y-100411107D01*
X53231747Y-100391401D01*
X53248223Y-100373223D01*
X53266401Y-100356747D01*
X53286107Y-100342132D01*
X53307150Y-100329520D01*
X53329329Y-100319030D01*
X53352428Y-100310765D01*
X53376227Y-100304804D01*
X53400495Y-100301204D01*
X53424999Y-100300000D01*
X54075001Y-100300000D01*
X54099505Y-100301204D01*
X54099505Y-100301204D01*
G37*
D12*
X53750000Y-101000000D03*
G04 #@! TD*
D11*
G04 #@! TO.C,C4*
G36*
X45874505Y-101801204D02*
X45898773Y-101804804D01*
X45922572Y-101810765D01*
X45945671Y-101819030D01*
X45967850Y-101829520D01*
X45988893Y-101842132D01*
X46008599Y-101856747D01*
X46026777Y-101873223D01*
X46043253Y-101891401D01*
X46057868Y-101911107D01*
X46070480Y-101932150D01*
X46080970Y-101954329D01*
X46089235Y-101977428D01*
X46095196Y-102001227D01*
X46098796Y-102025495D01*
X46100000Y-102049999D01*
X46100000Y-102950001D01*
X46098796Y-102974505D01*
X46095196Y-102998773D01*
X46089235Y-103022572D01*
X46080970Y-103045671D01*
X46070480Y-103067850D01*
X46057868Y-103088893D01*
X46043253Y-103108599D01*
X46026777Y-103126777D01*
X46008599Y-103143253D01*
X45988893Y-103157868D01*
X45967850Y-103170480D01*
X45945671Y-103180970D01*
X45922572Y-103189235D01*
X45898773Y-103195196D01*
X45874505Y-103198796D01*
X45850001Y-103200000D01*
X45199999Y-103200000D01*
X45175495Y-103198796D01*
X45151227Y-103195196D01*
X45127428Y-103189235D01*
X45104329Y-103180970D01*
X45082150Y-103170480D01*
X45061107Y-103157868D01*
X45041401Y-103143253D01*
X45023223Y-103126777D01*
X45006747Y-103108599D01*
X44992132Y-103088893D01*
X44979520Y-103067850D01*
X44969030Y-103045671D01*
X44960765Y-103022572D01*
X44954804Y-102998773D01*
X44951204Y-102974505D01*
X44950000Y-102950001D01*
X44950000Y-102049999D01*
X44951204Y-102025495D01*
X44954804Y-102001227D01*
X44960765Y-101977428D01*
X44969030Y-101954329D01*
X44979520Y-101932150D01*
X44992132Y-101911107D01*
X45006747Y-101891401D01*
X45023223Y-101873223D01*
X45041401Y-101856747D01*
X45061107Y-101842132D01*
X45082150Y-101829520D01*
X45104329Y-101819030D01*
X45127428Y-101810765D01*
X45151227Y-101804804D01*
X45175495Y-101801204D01*
X45199999Y-101800000D01*
X45850001Y-101800000D01*
X45874505Y-101801204D01*
X45874505Y-101801204D01*
G37*
D12*
X45525000Y-102500000D03*
D11*
G36*
X43824505Y-101801204D02*
X43848773Y-101804804D01*
X43872572Y-101810765D01*
X43895671Y-101819030D01*
X43917850Y-101829520D01*
X43938893Y-101842132D01*
X43958599Y-101856747D01*
X43976777Y-101873223D01*
X43993253Y-101891401D01*
X44007868Y-101911107D01*
X44020480Y-101932150D01*
X44030970Y-101954329D01*
X44039235Y-101977428D01*
X44045196Y-102001227D01*
X44048796Y-102025495D01*
X44050000Y-102049999D01*
X44050000Y-102950001D01*
X44048796Y-102974505D01*
X44045196Y-102998773D01*
X44039235Y-103022572D01*
X44030970Y-103045671D01*
X44020480Y-103067850D01*
X44007868Y-103088893D01*
X43993253Y-103108599D01*
X43976777Y-103126777D01*
X43958599Y-103143253D01*
X43938893Y-103157868D01*
X43917850Y-103170480D01*
X43895671Y-103180970D01*
X43872572Y-103189235D01*
X43848773Y-103195196D01*
X43824505Y-103198796D01*
X43800001Y-103200000D01*
X43149999Y-103200000D01*
X43125495Y-103198796D01*
X43101227Y-103195196D01*
X43077428Y-103189235D01*
X43054329Y-103180970D01*
X43032150Y-103170480D01*
X43011107Y-103157868D01*
X42991401Y-103143253D01*
X42973223Y-103126777D01*
X42956747Y-103108599D01*
X42942132Y-103088893D01*
X42929520Y-103067850D01*
X42919030Y-103045671D01*
X42910765Y-103022572D01*
X42904804Y-102998773D01*
X42901204Y-102974505D01*
X42900000Y-102950001D01*
X42900000Y-102049999D01*
X42901204Y-102025495D01*
X42904804Y-102001227D01*
X42910765Y-101977428D01*
X42919030Y-101954329D01*
X42929520Y-101932150D01*
X42942132Y-101911107D01*
X42956747Y-101891401D01*
X42973223Y-101873223D01*
X42991401Y-101856747D01*
X43011107Y-101842132D01*
X43032150Y-101829520D01*
X43054329Y-101819030D01*
X43077428Y-101810765D01*
X43101227Y-101804804D01*
X43125495Y-101801204D01*
X43149999Y-101800000D01*
X43800001Y-101800000D01*
X43824505Y-101801204D01*
X43824505Y-101801204D01*
G37*
D12*
X43475000Y-102500000D03*
G04 #@! TD*
D11*
G04 #@! TO.C,C5*
G36*
X56149505Y-97301204D02*
X56173773Y-97304804D01*
X56197572Y-97310765D01*
X56220671Y-97319030D01*
X56242850Y-97329520D01*
X56263893Y-97342132D01*
X56283599Y-97356747D01*
X56301777Y-97373223D01*
X56318253Y-97391401D01*
X56332868Y-97411107D01*
X56345480Y-97432150D01*
X56355970Y-97454329D01*
X56364235Y-97477428D01*
X56370196Y-97501227D01*
X56373796Y-97525495D01*
X56375000Y-97549999D01*
X56375000Y-98450001D01*
X56373796Y-98474505D01*
X56370196Y-98498773D01*
X56364235Y-98522572D01*
X56355970Y-98545671D01*
X56345480Y-98567850D01*
X56332868Y-98588893D01*
X56318253Y-98608599D01*
X56301777Y-98626777D01*
X56283599Y-98643253D01*
X56263893Y-98657868D01*
X56242850Y-98670480D01*
X56220671Y-98680970D01*
X56197572Y-98689235D01*
X56173773Y-98695196D01*
X56149505Y-98698796D01*
X56125001Y-98700000D01*
X55474999Y-98700000D01*
X55450495Y-98698796D01*
X55426227Y-98695196D01*
X55402428Y-98689235D01*
X55379329Y-98680970D01*
X55357150Y-98670480D01*
X55336107Y-98657868D01*
X55316401Y-98643253D01*
X55298223Y-98626777D01*
X55281747Y-98608599D01*
X55267132Y-98588893D01*
X55254520Y-98567850D01*
X55244030Y-98545671D01*
X55235765Y-98522572D01*
X55229804Y-98498773D01*
X55226204Y-98474505D01*
X55225000Y-98450001D01*
X55225000Y-97549999D01*
X55226204Y-97525495D01*
X55229804Y-97501227D01*
X55235765Y-97477428D01*
X55244030Y-97454329D01*
X55254520Y-97432150D01*
X55267132Y-97411107D01*
X55281747Y-97391401D01*
X55298223Y-97373223D01*
X55316401Y-97356747D01*
X55336107Y-97342132D01*
X55357150Y-97329520D01*
X55379329Y-97319030D01*
X55402428Y-97310765D01*
X55426227Y-97304804D01*
X55450495Y-97301204D01*
X55474999Y-97300000D01*
X56125001Y-97300000D01*
X56149505Y-97301204D01*
X56149505Y-97301204D01*
G37*
D12*
X55800000Y-98000000D03*
D11*
G36*
X54099505Y-97301204D02*
X54123773Y-97304804D01*
X54147572Y-97310765D01*
X54170671Y-97319030D01*
X54192850Y-97329520D01*
X54213893Y-97342132D01*
X54233599Y-97356747D01*
X54251777Y-97373223D01*
X54268253Y-97391401D01*
X54282868Y-97411107D01*
X54295480Y-97432150D01*
X54305970Y-97454329D01*
X54314235Y-97477428D01*
X54320196Y-97501227D01*
X54323796Y-97525495D01*
X54325000Y-97549999D01*
X54325000Y-98450001D01*
X54323796Y-98474505D01*
X54320196Y-98498773D01*
X54314235Y-98522572D01*
X54305970Y-98545671D01*
X54295480Y-98567850D01*
X54282868Y-98588893D01*
X54268253Y-98608599D01*
X54251777Y-98626777D01*
X54233599Y-98643253D01*
X54213893Y-98657868D01*
X54192850Y-98670480D01*
X54170671Y-98680970D01*
X54147572Y-98689235D01*
X54123773Y-98695196D01*
X54099505Y-98698796D01*
X54075001Y-98700000D01*
X53424999Y-98700000D01*
X53400495Y-98698796D01*
X53376227Y-98695196D01*
X53352428Y-98689235D01*
X53329329Y-98680970D01*
X53307150Y-98670480D01*
X53286107Y-98657868D01*
X53266401Y-98643253D01*
X53248223Y-98626777D01*
X53231747Y-98608599D01*
X53217132Y-98588893D01*
X53204520Y-98567850D01*
X53194030Y-98545671D01*
X53185765Y-98522572D01*
X53179804Y-98498773D01*
X53176204Y-98474505D01*
X53175000Y-98450001D01*
X53175000Y-97549999D01*
X53176204Y-97525495D01*
X53179804Y-97501227D01*
X53185765Y-97477428D01*
X53194030Y-97454329D01*
X53204520Y-97432150D01*
X53217132Y-97411107D01*
X53231747Y-97391401D01*
X53248223Y-97373223D01*
X53266401Y-97356747D01*
X53286107Y-97342132D01*
X53307150Y-97329520D01*
X53329329Y-97319030D01*
X53352428Y-97310765D01*
X53376227Y-97304804D01*
X53400495Y-97301204D01*
X53424999Y-97300000D01*
X54075001Y-97300000D01*
X54099505Y-97301204D01*
X54099505Y-97301204D01*
G37*
D12*
X53750000Y-98000000D03*
G04 #@! TD*
D11*
G04 #@! TO.C,C6*
G36*
X64299505Y-69901204D02*
X64323773Y-69904804D01*
X64347572Y-69910765D01*
X64370671Y-69919030D01*
X64392850Y-69929520D01*
X64413893Y-69942132D01*
X64433599Y-69956747D01*
X64451777Y-69973223D01*
X64468253Y-69991401D01*
X64482868Y-70011107D01*
X64495480Y-70032150D01*
X64505970Y-70054329D01*
X64514235Y-70077428D01*
X64520196Y-70101227D01*
X64523796Y-70125495D01*
X64525000Y-70149999D01*
X64525000Y-71050001D01*
X64523796Y-71074505D01*
X64520196Y-71098773D01*
X64514235Y-71122572D01*
X64505970Y-71145671D01*
X64495480Y-71167850D01*
X64482868Y-71188893D01*
X64468253Y-71208599D01*
X64451777Y-71226777D01*
X64433599Y-71243253D01*
X64413893Y-71257868D01*
X64392850Y-71270480D01*
X64370671Y-71280970D01*
X64347572Y-71289235D01*
X64323773Y-71295196D01*
X64299505Y-71298796D01*
X64275001Y-71300000D01*
X63624999Y-71300000D01*
X63600495Y-71298796D01*
X63576227Y-71295196D01*
X63552428Y-71289235D01*
X63529329Y-71280970D01*
X63507150Y-71270480D01*
X63486107Y-71257868D01*
X63466401Y-71243253D01*
X63448223Y-71226777D01*
X63431747Y-71208599D01*
X63417132Y-71188893D01*
X63404520Y-71167850D01*
X63394030Y-71145671D01*
X63385765Y-71122572D01*
X63379804Y-71098773D01*
X63376204Y-71074505D01*
X63375000Y-71050001D01*
X63375000Y-70149999D01*
X63376204Y-70125495D01*
X63379804Y-70101227D01*
X63385765Y-70077428D01*
X63394030Y-70054329D01*
X63404520Y-70032150D01*
X63417132Y-70011107D01*
X63431747Y-69991401D01*
X63448223Y-69973223D01*
X63466401Y-69956747D01*
X63486107Y-69942132D01*
X63507150Y-69929520D01*
X63529329Y-69919030D01*
X63552428Y-69910765D01*
X63576227Y-69904804D01*
X63600495Y-69901204D01*
X63624999Y-69900000D01*
X64275001Y-69900000D01*
X64299505Y-69901204D01*
X64299505Y-69901204D01*
G37*
D12*
X63950000Y-70600000D03*
D11*
G36*
X66349505Y-69901204D02*
X66373773Y-69904804D01*
X66397572Y-69910765D01*
X66420671Y-69919030D01*
X66442850Y-69929520D01*
X66463893Y-69942132D01*
X66483599Y-69956747D01*
X66501777Y-69973223D01*
X66518253Y-69991401D01*
X66532868Y-70011107D01*
X66545480Y-70032150D01*
X66555970Y-70054329D01*
X66564235Y-70077428D01*
X66570196Y-70101227D01*
X66573796Y-70125495D01*
X66575000Y-70149999D01*
X66575000Y-71050001D01*
X66573796Y-71074505D01*
X66570196Y-71098773D01*
X66564235Y-71122572D01*
X66555970Y-71145671D01*
X66545480Y-71167850D01*
X66532868Y-71188893D01*
X66518253Y-71208599D01*
X66501777Y-71226777D01*
X66483599Y-71243253D01*
X66463893Y-71257868D01*
X66442850Y-71270480D01*
X66420671Y-71280970D01*
X66397572Y-71289235D01*
X66373773Y-71295196D01*
X66349505Y-71298796D01*
X66325001Y-71300000D01*
X65674999Y-71300000D01*
X65650495Y-71298796D01*
X65626227Y-71295196D01*
X65602428Y-71289235D01*
X65579329Y-71280970D01*
X65557150Y-71270480D01*
X65536107Y-71257868D01*
X65516401Y-71243253D01*
X65498223Y-71226777D01*
X65481747Y-71208599D01*
X65467132Y-71188893D01*
X65454520Y-71167850D01*
X65444030Y-71145671D01*
X65435765Y-71122572D01*
X65429804Y-71098773D01*
X65426204Y-71074505D01*
X65425000Y-71050001D01*
X65425000Y-70149999D01*
X65426204Y-70125495D01*
X65429804Y-70101227D01*
X65435765Y-70077428D01*
X65444030Y-70054329D01*
X65454520Y-70032150D01*
X65467132Y-70011107D01*
X65481747Y-69991401D01*
X65498223Y-69973223D01*
X65516401Y-69956747D01*
X65536107Y-69942132D01*
X65557150Y-69929520D01*
X65579329Y-69919030D01*
X65602428Y-69910765D01*
X65626227Y-69904804D01*
X65650495Y-69901204D01*
X65674999Y-69900000D01*
X66325001Y-69900000D01*
X66349505Y-69901204D01*
X66349505Y-69901204D01*
G37*
D12*
X66000000Y-70600000D03*
G04 #@! TD*
D11*
G04 #@! TO.C,C7*
G36*
X54074505Y-72826204D02*
X54098773Y-72829804D01*
X54122572Y-72835765D01*
X54145671Y-72844030D01*
X54167850Y-72854520D01*
X54188893Y-72867132D01*
X54208599Y-72881747D01*
X54226777Y-72898223D01*
X54243253Y-72916401D01*
X54257868Y-72936107D01*
X54270480Y-72957150D01*
X54280970Y-72979329D01*
X54289235Y-73002428D01*
X54295196Y-73026227D01*
X54298796Y-73050495D01*
X54300000Y-73074999D01*
X54300000Y-73725001D01*
X54298796Y-73749505D01*
X54295196Y-73773773D01*
X54289235Y-73797572D01*
X54280970Y-73820671D01*
X54270480Y-73842850D01*
X54257868Y-73863893D01*
X54243253Y-73883599D01*
X54226777Y-73901777D01*
X54208599Y-73918253D01*
X54188893Y-73932868D01*
X54167850Y-73945480D01*
X54145671Y-73955970D01*
X54122572Y-73964235D01*
X54098773Y-73970196D01*
X54074505Y-73973796D01*
X54050001Y-73975000D01*
X53149999Y-73975000D01*
X53125495Y-73973796D01*
X53101227Y-73970196D01*
X53077428Y-73964235D01*
X53054329Y-73955970D01*
X53032150Y-73945480D01*
X53011107Y-73932868D01*
X52991401Y-73918253D01*
X52973223Y-73901777D01*
X52956747Y-73883599D01*
X52942132Y-73863893D01*
X52929520Y-73842850D01*
X52919030Y-73820671D01*
X52910765Y-73797572D01*
X52904804Y-73773773D01*
X52901204Y-73749505D01*
X52900000Y-73725001D01*
X52900000Y-73074999D01*
X52901204Y-73050495D01*
X52904804Y-73026227D01*
X52910765Y-73002428D01*
X52919030Y-72979329D01*
X52929520Y-72957150D01*
X52942132Y-72936107D01*
X52956747Y-72916401D01*
X52973223Y-72898223D01*
X52991401Y-72881747D01*
X53011107Y-72867132D01*
X53032150Y-72854520D01*
X53054329Y-72844030D01*
X53077428Y-72835765D01*
X53101227Y-72829804D01*
X53125495Y-72826204D01*
X53149999Y-72825000D01*
X54050001Y-72825000D01*
X54074505Y-72826204D01*
X54074505Y-72826204D01*
G37*
D12*
X53600000Y-73400000D03*
D11*
G36*
X54074505Y-74876204D02*
X54098773Y-74879804D01*
X54122572Y-74885765D01*
X54145671Y-74894030D01*
X54167850Y-74904520D01*
X54188893Y-74917132D01*
X54208599Y-74931747D01*
X54226777Y-74948223D01*
X54243253Y-74966401D01*
X54257868Y-74986107D01*
X54270480Y-75007150D01*
X54280970Y-75029329D01*
X54289235Y-75052428D01*
X54295196Y-75076227D01*
X54298796Y-75100495D01*
X54300000Y-75124999D01*
X54300000Y-75775001D01*
X54298796Y-75799505D01*
X54295196Y-75823773D01*
X54289235Y-75847572D01*
X54280970Y-75870671D01*
X54270480Y-75892850D01*
X54257868Y-75913893D01*
X54243253Y-75933599D01*
X54226777Y-75951777D01*
X54208599Y-75968253D01*
X54188893Y-75982868D01*
X54167850Y-75995480D01*
X54145671Y-76005970D01*
X54122572Y-76014235D01*
X54098773Y-76020196D01*
X54074505Y-76023796D01*
X54050001Y-76025000D01*
X53149999Y-76025000D01*
X53125495Y-76023796D01*
X53101227Y-76020196D01*
X53077428Y-76014235D01*
X53054329Y-76005970D01*
X53032150Y-75995480D01*
X53011107Y-75982868D01*
X52991401Y-75968253D01*
X52973223Y-75951777D01*
X52956747Y-75933599D01*
X52942132Y-75913893D01*
X52929520Y-75892850D01*
X52919030Y-75870671D01*
X52910765Y-75847572D01*
X52904804Y-75823773D01*
X52901204Y-75799505D01*
X52900000Y-75775001D01*
X52900000Y-75124999D01*
X52901204Y-75100495D01*
X52904804Y-75076227D01*
X52910765Y-75052428D01*
X52919030Y-75029329D01*
X52929520Y-75007150D01*
X52942132Y-74986107D01*
X52956747Y-74966401D01*
X52973223Y-74948223D01*
X52991401Y-74931747D01*
X53011107Y-74917132D01*
X53032150Y-74904520D01*
X53054329Y-74894030D01*
X53077428Y-74885765D01*
X53101227Y-74879804D01*
X53125495Y-74876204D01*
X53149999Y-74875000D01*
X54050001Y-74875000D01*
X54074505Y-74876204D01*
X54074505Y-74876204D01*
G37*
D12*
X53600000Y-75450000D03*
G04 #@! TD*
D11*
G04 #@! TO.C,C11*
G36*
X41349505Y-88301204D02*
X41373773Y-88304804D01*
X41397572Y-88310765D01*
X41420671Y-88319030D01*
X41442850Y-88329520D01*
X41463893Y-88342132D01*
X41483599Y-88356747D01*
X41501777Y-88373223D01*
X41518253Y-88391401D01*
X41532868Y-88411107D01*
X41545480Y-88432150D01*
X41555970Y-88454329D01*
X41564235Y-88477428D01*
X41570196Y-88501227D01*
X41573796Y-88525495D01*
X41575000Y-88549999D01*
X41575000Y-89450001D01*
X41573796Y-89474505D01*
X41570196Y-89498773D01*
X41564235Y-89522572D01*
X41555970Y-89545671D01*
X41545480Y-89567850D01*
X41532868Y-89588893D01*
X41518253Y-89608599D01*
X41501777Y-89626777D01*
X41483599Y-89643253D01*
X41463893Y-89657868D01*
X41442850Y-89670480D01*
X41420671Y-89680970D01*
X41397572Y-89689235D01*
X41373773Y-89695196D01*
X41349505Y-89698796D01*
X41325001Y-89700000D01*
X40674999Y-89700000D01*
X40650495Y-89698796D01*
X40626227Y-89695196D01*
X40602428Y-89689235D01*
X40579329Y-89680970D01*
X40557150Y-89670480D01*
X40536107Y-89657868D01*
X40516401Y-89643253D01*
X40498223Y-89626777D01*
X40481747Y-89608599D01*
X40467132Y-89588893D01*
X40454520Y-89567850D01*
X40444030Y-89545671D01*
X40435765Y-89522572D01*
X40429804Y-89498773D01*
X40426204Y-89474505D01*
X40425000Y-89450001D01*
X40425000Y-88549999D01*
X40426204Y-88525495D01*
X40429804Y-88501227D01*
X40435765Y-88477428D01*
X40444030Y-88454329D01*
X40454520Y-88432150D01*
X40467132Y-88411107D01*
X40481747Y-88391401D01*
X40498223Y-88373223D01*
X40516401Y-88356747D01*
X40536107Y-88342132D01*
X40557150Y-88329520D01*
X40579329Y-88319030D01*
X40602428Y-88310765D01*
X40626227Y-88304804D01*
X40650495Y-88301204D01*
X40674999Y-88300000D01*
X41325001Y-88300000D01*
X41349505Y-88301204D01*
X41349505Y-88301204D01*
G37*
D12*
X41000000Y-89000000D03*
D11*
G36*
X39299505Y-88301204D02*
X39323773Y-88304804D01*
X39347572Y-88310765D01*
X39370671Y-88319030D01*
X39392850Y-88329520D01*
X39413893Y-88342132D01*
X39433599Y-88356747D01*
X39451777Y-88373223D01*
X39468253Y-88391401D01*
X39482868Y-88411107D01*
X39495480Y-88432150D01*
X39505970Y-88454329D01*
X39514235Y-88477428D01*
X39520196Y-88501227D01*
X39523796Y-88525495D01*
X39525000Y-88549999D01*
X39525000Y-89450001D01*
X39523796Y-89474505D01*
X39520196Y-89498773D01*
X39514235Y-89522572D01*
X39505970Y-89545671D01*
X39495480Y-89567850D01*
X39482868Y-89588893D01*
X39468253Y-89608599D01*
X39451777Y-89626777D01*
X39433599Y-89643253D01*
X39413893Y-89657868D01*
X39392850Y-89670480D01*
X39370671Y-89680970D01*
X39347572Y-89689235D01*
X39323773Y-89695196D01*
X39299505Y-89698796D01*
X39275001Y-89700000D01*
X38624999Y-89700000D01*
X38600495Y-89698796D01*
X38576227Y-89695196D01*
X38552428Y-89689235D01*
X38529329Y-89680970D01*
X38507150Y-89670480D01*
X38486107Y-89657868D01*
X38466401Y-89643253D01*
X38448223Y-89626777D01*
X38431747Y-89608599D01*
X38417132Y-89588893D01*
X38404520Y-89567850D01*
X38394030Y-89545671D01*
X38385765Y-89522572D01*
X38379804Y-89498773D01*
X38376204Y-89474505D01*
X38375000Y-89450001D01*
X38375000Y-88549999D01*
X38376204Y-88525495D01*
X38379804Y-88501227D01*
X38385765Y-88477428D01*
X38394030Y-88454329D01*
X38404520Y-88432150D01*
X38417132Y-88411107D01*
X38431747Y-88391401D01*
X38448223Y-88373223D01*
X38466401Y-88356747D01*
X38486107Y-88342132D01*
X38507150Y-88329520D01*
X38529329Y-88319030D01*
X38552428Y-88310765D01*
X38576227Y-88304804D01*
X38600495Y-88301204D01*
X38624999Y-88300000D01*
X39275001Y-88300000D01*
X39299505Y-88301204D01*
X39299505Y-88301204D01*
G37*
D12*
X38950000Y-89000000D03*
G04 #@! TD*
D11*
G04 #@! TO.C,C12*
G36*
X51399505Y-93301204D02*
X51423773Y-93304804D01*
X51447572Y-93310765D01*
X51470671Y-93319030D01*
X51492850Y-93329520D01*
X51513893Y-93342132D01*
X51533599Y-93356747D01*
X51551777Y-93373223D01*
X51568253Y-93391401D01*
X51582868Y-93411107D01*
X51595480Y-93432150D01*
X51605970Y-93454329D01*
X51614235Y-93477428D01*
X51620196Y-93501227D01*
X51623796Y-93525495D01*
X51625000Y-93549999D01*
X51625000Y-94450001D01*
X51623796Y-94474505D01*
X51620196Y-94498773D01*
X51614235Y-94522572D01*
X51605970Y-94545671D01*
X51595480Y-94567850D01*
X51582868Y-94588893D01*
X51568253Y-94608599D01*
X51551777Y-94626777D01*
X51533599Y-94643253D01*
X51513893Y-94657868D01*
X51492850Y-94670480D01*
X51470671Y-94680970D01*
X51447572Y-94689235D01*
X51423773Y-94695196D01*
X51399505Y-94698796D01*
X51375001Y-94700000D01*
X50724999Y-94700000D01*
X50700495Y-94698796D01*
X50676227Y-94695196D01*
X50652428Y-94689235D01*
X50629329Y-94680970D01*
X50607150Y-94670480D01*
X50586107Y-94657868D01*
X50566401Y-94643253D01*
X50548223Y-94626777D01*
X50531747Y-94608599D01*
X50517132Y-94588893D01*
X50504520Y-94567850D01*
X50494030Y-94545671D01*
X50485765Y-94522572D01*
X50479804Y-94498773D01*
X50476204Y-94474505D01*
X50475000Y-94450001D01*
X50475000Y-93549999D01*
X50476204Y-93525495D01*
X50479804Y-93501227D01*
X50485765Y-93477428D01*
X50494030Y-93454329D01*
X50504520Y-93432150D01*
X50517132Y-93411107D01*
X50531747Y-93391401D01*
X50548223Y-93373223D01*
X50566401Y-93356747D01*
X50586107Y-93342132D01*
X50607150Y-93329520D01*
X50629329Y-93319030D01*
X50652428Y-93310765D01*
X50676227Y-93304804D01*
X50700495Y-93301204D01*
X50724999Y-93300000D01*
X51375001Y-93300000D01*
X51399505Y-93301204D01*
X51399505Y-93301204D01*
G37*
D12*
X51050000Y-94000000D03*
D11*
G36*
X49349505Y-93301204D02*
X49373773Y-93304804D01*
X49397572Y-93310765D01*
X49420671Y-93319030D01*
X49442850Y-93329520D01*
X49463893Y-93342132D01*
X49483599Y-93356747D01*
X49501777Y-93373223D01*
X49518253Y-93391401D01*
X49532868Y-93411107D01*
X49545480Y-93432150D01*
X49555970Y-93454329D01*
X49564235Y-93477428D01*
X49570196Y-93501227D01*
X49573796Y-93525495D01*
X49575000Y-93549999D01*
X49575000Y-94450001D01*
X49573796Y-94474505D01*
X49570196Y-94498773D01*
X49564235Y-94522572D01*
X49555970Y-94545671D01*
X49545480Y-94567850D01*
X49532868Y-94588893D01*
X49518253Y-94608599D01*
X49501777Y-94626777D01*
X49483599Y-94643253D01*
X49463893Y-94657868D01*
X49442850Y-94670480D01*
X49420671Y-94680970D01*
X49397572Y-94689235D01*
X49373773Y-94695196D01*
X49349505Y-94698796D01*
X49325001Y-94700000D01*
X48674999Y-94700000D01*
X48650495Y-94698796D01*
X48626227Y-94695196D01*
X48602428Y-94689235D01*
X48579329Y-94680970D01*
X48557150Y-94670480D01*
X48536107Y-94657868D01*
X48516401Y-94643253D01*
X48498223Y-94626777D01*
X48481747Y-94608599D01*
X48467132Y-94588893D01*
X48454520Y-94567850D01*
X48444030Y-94545671D01*
X48435765Y-94522572D01*
X48429804Y-94498773D01*
X48426204Y-94474505D01*
X48425000Y-94450001D01*
X48425000Y-93549999D01*
X48426204Y-93525495D01*
X48429804Y-93501227D01*
X48435765Y-93477428D01*
X48444030Y-93454329D01*
X48454520Y-93432150D01*
X48467132Y-93411107D01*
X48481747Y-93391401D01*
X48498223Y-93373223D01*
X48516401Y-93356747D01*
X48536107Y-93342132D01*
X48557150Y-93329520D01*
X48579329Y-93319030D01*
X48602428Y-93310765D01*
X48626227Y-93304804D01*
X48650495Y-93301204D01*
X48674999Y-93300000D01*
X49325001Y-93300000D01*
X49349505Y-93301204D01*
X49349505Y-93301204D01*
G37*
D12*
X49000000Y-94000000D03*
G04 #@! TD*
D11*
G04 #@! TO.C,R1*
G36*
X48974505Y-85926204D02*
X48998773Y-85929804D01*
X49022572Y-85935765D01*
X49045671Y-85944030D01*
X49067850Y-85954520D01*
X49088893Y-85967132D01*
X49108599Y-85981747D01*
X49126777Y-85998223D01*
X49143253Y-86016401D01*
X49157868Y-86036107D01*
X49170480Y-86057150D01*
X49180970Y-86079329D01*
X49189235Y-86102428D01*
X49195196Y-86126227D01*
X49198796Y-86150495D01*
X49200000Y-86174999D01*
X49200000Y-86825001D01*
X49198796Y-86849505D01*
X49195196Y-86873773D01*
X49189235Y-86897572D01*
X49180970Y-86920671D01*
X49170480Y-86942850D01*
X49157868Y-86963893D01*
X49143253Y-86983599D01*
X49126777Y-87001777D01*
X49108599Y-87018253D01*
X49088893Y-87032868D01*
X49067850Y-87045480D01*
X49045671Y-87055970D01*
X49022572Y-87064235D01*
X48998773Y-87070196D01*
X48974505Y-87073796D01*
X48950001Y-87075000D01*
X48049999Y-87075000D01*
X48025495Y-87073796D01*
X48001227Y-87070196D01*
X47977428Y-87064235D01*
X47954329Y-87055970D01*
X47932150Y-87045480D01*
X47911107Y-87032868D01*
X47891401Y-87018253D01*
X47873223Y-87001777D01*
X47856747Y-86983599D01*
X47842132Y-86963893D01*
X47829520Y-86942850D01*
X47819030Y-86920671D01*
X47810765Y-86897572D01*
X47804804Y-86873773D01*
X47801204Y-86849505D01*
X47800000Y-86825001D01*
X47800000Y-86174999D01*
X47801204Y-86150495D01*
X47804804Y-86126227D01*
X47810765Y-86102428D01*
X47819030Y-86079329D01*
X47829520Y-86057150D01*
X47842132Y-86036107D01*
X47856747Y-86016401D01*
X47873223Y-85998223D01*
X47891401Y-85981747D01*
X47911107Y-85967132D01*
X47932150Y-85954520D01*
X47954329Y-85944030D01*
X47977428Y-85935765D01*
X48001227Y-85929804D01*
X48025495Y-85926204D01*
X48049999Y-85925000D01*
X48950001Y-85925000D01*
X48974505Y-85926204D01*
X48974505Y-85926204D01*
G37*
D12*
X48500000Y-86500000D03*
D11*
G36*
X48974505Y-87976204D02*
X48998773Y-87979804D01*
X49022572Y-87985765D01*
X49045671Y-87994030D01*
X49067850Y-88004520D01*
X49088893Y-88017132D01*
X49108599Y-88031747D01*
X49126777Y-88048223D01*
X49143253Y-88066401D01*
X49157868Y-88086107D01*
X49170480Y-88107150D01*
X49180970Y-88129329D01*
X49189235Y-88152428D01*
X49195196Y-88176227D01*
X49198796Y-88200495D01*
X49200000Y-88224999D01*
X49200000Y-88875001D01*
X49198796Y-88899505D01*
X49195196Y-88923773D01*
X49189235Y-88947572D01*
X49180970Y-88970671D01*
X49170480Y-88992850D01*
X49157868Y-89013893D01*
X49143253Y-89033599D01*
X49126777Y-89051777D01*
X49108599Y-89068253D01*
X49088893Y-89082868D01*
X49067850Y-89095480D01*
X49045671Y-89105970D01*
X49022572Y-89114235D01*
X48998773Y-89120196D01*
X48974505Y-89123796D01*
X48950001Y-89125000D01*
X48049999Y-89125000D01*
X48025495Y-89123796D01*
X48001227Y-89120196D01*
X47977428Y-89114235D01*
X47954329Y-89105970D01*
X47932150Y-89095480D01*
X47911107Y-89082868D01*
X47891401Y-89068253D01*
X47873223Y-89051777D01*
X47856747Y-89033599D01*
X47842132Y-89013893D01*
X47829520Y-88992850D01*
X47819030Y-88970671D01*
X47810765Y-88947572D01*
X47804804Y-88923773D01*
X47801204Y-88899505D01*
X47800000Y-88875001D01*
X47800000Y-88224999D01*
X47801204Y-88200495D01*
X47804804Y-88176227D01*
X47810765Y-88152428D01*
X47819030Y-88129329D01*
X47829520Y-88107150D01*
X47842132Y-88086107D01*
X47856747Y-88066401D01*
X47873223Y-88048223D01*
X47891401Y-88031747D01*
X47911107Y-88017132D01*
X47932150Y-88004520D01*
X47954329Y-87994030D01*
X47977428Y-87985765D01*
X48001227Y-87979804D01*
X48025495Y-87976204D01*
X48049999Y-87975000D01*
X48950001Y-87975000D01*
X48974505Y-87976204D01*
X48974505Y-87976204D01*
G37*
D12*
X48500000Y-88550000D03*
G04 #@! TD*
D11*
G04 #@! TO.C,R2*
G36*
X55399505Y-83051204D02*
X55423773Y-83054804D01*
X55447572Y-83060765D01*
X55470671Y-83069030D01*
X55492850Y-83079520D01*
X55513893Y-83092132D01*
X55533599Y-83106747D01*
X55551777Y-83123223D01*
X55568253Y-83141401D01*
X55582868Y-83161107D01*
X55595480Y-83182150D01*
X55605970Y-83204329D01*
X55614235Y-83227428D01*
X55620196Y-83251227D01*
X55623796Y-83275495D01*
X55625000Y-83299999D01*
X55625000Y-84200001D01*
X55623796Y-84224505D01*
X55620196Y-84248773D01*
X55614235Y-84272572D01*
X55605970Y-84295671D01*
X55595480Y-84317850D01*
X55582868Y-84338893D01*
X55568253Y-84358599D01*
X55551777Y-84376777D01*
X55533599Y-84393253D01*
X55513893Y-84407868D01*
X55492850Y-84420480D01*
X55470671Y-84430970D01*
X55447572Y-84439235D01*
X55423773Y-84445196D01*
X55399505Y-84448796D01*
X55375001Y-84450000D01*
X54724999Y-84450000D01*
X54700495Y-84448796D01*
X54676227Y-84445196D01*
X54652428Y-84439235D01*
X54629329Y-84430970D01*
X54607150Y-84420480D01*
X54586107Y-84407868D01*
X54566401Y-84393253D01*
X54548223Y-84376777D01*
X54531747Y-84358599D01*
X54517132Y-84338893D01*
X54504520Y-84317850D01*
X54494030Y-84295671D01*
X54485765Y-84272572D01*
X54479804Y-84248773D01*
X54476204Y-84224505D01*
X54475000Y-84200001D01*
X54475000Y-83299999D01*
X54476204Y-83275495D01*
X54479804Y-83251227D01*
X54485765Y-83227428D01*
X54494030Y-83204329D01*
X54504520Y-83182150D01*
X54517132Y-83161107D01*
X54531747Y-83141401D01*
X54548223Y-83123223D01*
X54566401Y-83106747D01*
X54586107Y-83092132D01*
X54607150Y-83079520D01*
X54629329Y-83069030D01*
X54652428Y-83060765D01*
X54676227Y-83054804D01*
X54700495Y-83051204D01*
X54724999Y-83050000D01*
X55375001Y-83050000D01*
X55399505Y-83051204D01*
X55399505Y-83051204D01*
G37*
D12*
X55050000Y-83750000D03*
D11*
G36*
X53349505Y-83051204D02*
X53373773Y-83054804D01*
X53397572Y-83060765D01*
X53420671Y-83069030D01*
X53442850Y-83079520D01*
X53463893Y-83092132D01*
X53483599Y-83106747D01*
X53501777Y-83123223D01*
X53518253Y-83141401D01*
X53532868Y-83161107D01*
X53545480Y-83182150D01*
X53555970Y-83204329D01*
X53564235Y-83227428D01*
X53570196Y-83251227D01*
X53573796Y-83275495D01*
X53575000Y-83299999D01*
X53575000Y-84200001D01*
X53573796Y-84224505D01*
X53570196Y-84248773D01*
X53564235Y-84272572D01*
X53555970Y-84295671D01*
X53545480Y-84317850D01*
X53532868Y-84338893D01*
X53518253Y-84358599D01*
X53501777Y-84376777D01*
X53483599Y-84393253D01*
X53463893Y-84407868D01*
X53442850Y-84420480D01*
X53420671Y-84430970D01*
X53397572Y-84439235D01*
X53373773Y-84445196D01*
X53349505Y-84448796D01*
X53325001Y-84450000D01*
X52674999Y-84450000D01*
X52650495Y-84448796D01*
X52626227Y-84445196D01*
X52602428Y-84439235D01*
X52579329Y-84430970D01*
X52557150Y-84420480D01*
X52536107Y-84407868D01*
X52516401Y-84393253D01*
X52498223Y-84376777D01*
X52481747Y-84358599D01*
X52467132Y-84338893D01*
X52454520Y-84317850D01*
X52444030Y-84295671D01*
X52435765Y-84272572D01*
X52429804Y-84248773D01*
X52426204Y-84224505D01*
X52425000Y-84200001D01*
X52425000Y-83299999D01*
X52426204Y-83275495D01*
X52429804Y-83251227D01*
X52435765Y-83227428D01*
X52444030Y-83204329D01*
X52454520Y-83182150D01*
X52467132Y-83161107D01*
X52481747Y-83141401D01*
X52498223Y-83123223D01*
X52516401Y-83106747D01*
X52536107Y-83092132D01*
X52557150Y-83079520D01*
X52579329Y-83069030D01*
X52602428Y-83060765D01*
X52626227Y-83054804D01*
X52650495Y-83051204D01*
X52674999Y-83050000D01*
X53325001Y-83050000D01*
X53349505Y-83051204D01*
X53349505Y-83051204D01*
G37*
D12*
X53000000Y-83750000D03*
G04 #@! TD*
D11*
G04 #@! TO.C,R3*
G36*
X56099505Y-93301204D02*
X56123773Y-93304804D01*
X56147572Y-93310765D01*
X56170671Y-93319030D01*
X56192850Y-93329520D01*
X56213893Y-93342132D01*
X56233599Y-93356747D01*
X56251777Y-93373223D01*
X56268253Y-93391401D01*
X56282868Y-93411107D01*
X56295480Y-93432150D01*
X56305970Y-93454329D01*
X56314235Y-93477428D01*
X56320196Y-93501227D01*
X56323796Y-93525495D01*
X56325000Y-93549999D01*
X56325000Y-94450001D01*
X56323796Y-94474505D01*
X56320196Y-94498773D01*
X56314235Y-94522572D01*
X56305970Y-94545671D01*
X56295480Y-94567850D01*
X56282868Y-94588893D01*
X56268253Y-94608599D01*
X56251777Y-94626777D01*
X56233599Y-94643253D01*
X56213893Y-94657868D01*
X56192850Y-94670480D01*
X56170671Y-94680970D01*
X56147572Y-94689235D01*
X56123773Y-94695196D01*
X56099505Y-94698796D01*
X56075001Y-94700000D01*
X55424999Y-94700000D01*
X55400495Y-94698796D01*
X55376227Y-94695196D01*
X55352428Y-94689235D01*
X55329329Y-94680970D01*
X55307150Y-94670480D01*
X55286107Y-94657868D01*
X55266401Y-94643253D01*
X55248223Y-94626777D01*
X55231747Y-94608599D01*
X55217132Y-94588893D01*
X55204520Y-94567850D01*
X55194030Y-94545671D01*
X55185765Y-94522572D01*
X55179804Y-94498773D01*
X55176204Y-94474505D01*
X55175000Y-94450001D01*
X55175000Y-93549999D01*
X55176204Y-93525495D01*
X55179804Y-93501227D01*
X55185765Y-93477428D01*
X55194030Y-93454329D01*
X55204520Y-93432150D01*
X55217132Y-93411107D01*
X55231747Y-93391401D01*
X55248223Y-93373223D01*
X55266401Y-93356747D01*
X55286107Y-93342132D01*
X55307150Y-93329520D01*
X55329329Y-93319030D01*
X55352428Y-93310765D01*
X55376227Y-93304804D01*
X55400495Y-93301204D01*
X55424999Y-93300000D01*
X56075001Y-93300000D01*
X56099505Y-93301204D01*
X56099505Y-93301204D01*
G37*
D12*
X55750000Y-94000000D03*
D11*
G36*
X54049505Y-93301204D02*
X54073773Y-93304804D01*
X54097572Y-93310765D01*
X54120671Y-93319030D01*
X54142850Y-93329520D01*
X54163893Y-93342132D01*
X54183599Y-93356747D01*
X54201777Y-93373223D01*
X54218253Y-93391401D01*
X54232868Y-93411107D01*
X54245480Y-93432150D01*
X54255970Y-93454329D01*
X54264235Y-93477428D01*
X54270196Y-93501227D01*
X54273796Y-93525495D01*
X54275000Y-93549999D01*
X54275000Y-94450001D01*
X54273796Y-94474505D01*
X54270196Y-94498773D01*
X54264235Y-94522572D01*
X54255970Y-94545671D01*
X54245480Y-94567850D01*
X54232868Y-94588893D01*
X54218253Y-94608599D01*
X54201777Y-94626777D01*
X54183599Y-94643253D01*
X54163893Y-94657868D01*
X54142850Y-94670480D01*
X54120671Y-94680970D01*
X54097572Y-94689235D01*
X54073773Y-94695196D01*
X54049505Y-94698796D01*
X54025001Y-94700000D01*
X53374999Y-94700000D01*
X53350495Y-94698796D01*
X53326227Y-94695196D01*
X53302428Y-94689235D01*
X53279329Y-94680970D01*
X53257150Y-94670480D01*
X53236107Y-94657868D01*
X53216401Y-94643253D01*
X53198223Y-94626777D01*
X53181747Y-94608599D01*
X53167132Y-94588893D01*
X53154520Y-94567850D01*
X53144030Y-94545671D01*
X53135765Y-94522572D01*
X53129804Y-94498773D01*
X53126204Y-94474505D01*
X53125000Y-94450001D01*
X53125000Y-93549999D01*
X53126204Y-93525495D01*
X53129804Y-93501227D01*
X53135765Y-93477428D01*
X53144030Y-93454329D01*
X53154520Y-93432150D01*
X53167132Y-93411107D01*
X53181747Y-93391401D01*
X53198223Y-93373223D01*
X53216401Y-93356747D01*
X53236107Y-93342132D01*
X53257150Y-93329520D01*
X53279329Y-93319030D01*
X53302428Y-93310765D01*
X53326227Y-93304804D01*
X53350495Y-93301204D01*
X53374999Y-93300000D01*
X54025001Y-93300000D01*
X54049505Y-93301204D01*
X54049505Y-93301204D01*
G37*
D12*
X53700000Y-94000000D03*
G04 #@! TD*
D11*
G04 #@! TO.C,R6*
G36*
X55399505Y-85551204D02*
X55423773Y-85554804D01*
X55447572Y-85560765D01*
X55470671Y-85569030D01*
X55492850Y-85579520D01*
X55513893Y-85592132D01*
X55533599Y-85606747D01*
X55551777Y-85623223D01*
X55568253Y-85641401D01*
X55582868Y-85661107D01*
X55595480Y-85682150D01*
X55605970Y-85704329D01*
X55614235Y-85727428D01*
X55620196Y-85751227D01*
X55623796Y-85775495D01*
X55625000Y-85799999D01*
X55625000Y-86700001D01*
X55623796Y-86724505D01*
X55620196Y-86748773D01*
X55614235Y-86772572D01*
X55605970Y-86795671D01*
X55595480Y-86817850D01*
X55582868Y-86838893D01*
X55568253Y-86858599D01*
X55551777Y-86876777D01*
X55533599Y-86893253D01*
X55513893Y-86907868D01*
X55492850Y-86920480D01*
X55470671Y-86930970D01*
X55447572Y-86939235D01*
X55423773Y-86945196D01*
X55399505Y-86948796D01*
X55375001Y-86950000D01*
X54724999Y-86950000D01*
X54700495Y-86948796D01*
X54676227Y-86945196D01*
X54652428Y-86939235D01*
X54629329Y-86930970D01*
X54607150Y-86920480D01*
X54586107Y-86907868D01*
X54566401Y-86893253D01*
X54548223Y-86876777D01*
X54531747Y-86858599D01*
X54517132Y-86838893D01*
X54504520Y-86817850D01*
X54494030Y-86795671D01*
X54485765Y-86772572D01*
X54479804Y-86748773D01*
X54476204Y-86724505D01*
X54475000Y-86700001D01*
X54475000Y-85799999D01*
X54476204Y-85775495D01*
X54479804Y-85751227D01*
X54485765Y-85727428D01*
X54494030Y-85704329D01*
X54504520Y-85682150D01*
X54517132Y-85661107D01*
X54531747Y-85641401D01*
X54548223Y-85623223D01*
X54566401Y-85606747D01*
X54586107Y-85592132D01*
X54607150Y-85579520D01*
X54629329Y-85569030D01*
X54652428Y-85560765D01*
X54676227Y-85554804D01*
X54700495Y-85551204D01*
X54724999Y-85550000D01*
X55375001Y-85550000D01*
X55399505Y-85551204D01*
X55399505Y-85551204D01*
G37*
D12*
X55050000Y-86250000D03*
D11*
G36*
X53349505Y-85551204D02*
X53373773Y-85554804D01*
X53397572Y-85560765D01*
X53420671Y-85569030D01*
X53442850Y-85579520D01*
X53463893Y-85592132D01*
X53483599Y-85606747D01*
X53501777Y-85623223D01*
X53518253Y-85641401D01*
X53532868Y-85661107D01*
X53545480Y-85682150D01*
X53555970Y-85704329D01*
X53564235Y-85727428D01*
X53570196Y-85751227D01*
X53573796Y-85775495D01*
X53575000Y-85799999D01*
X53575000Y-86700001D01*
X53573796Y-86724505D01*
X53570196Y-86748773D01*
X53564235Y-86772572D01*
X53555970Y-86795671D01*
X53545480Y-86817850D01*
X53532868Y-86838893D01*
X53518253Y-86858599D01*
X53501777Y-86876777D01*
X53483599Y-86893253D01*
X53463893Y-86907868D01*
X53442850Y-86920480D01*
X53420671Y-86930970D01*
X53397572Y-86939235D01*
X53373773Y-86945196D01*
X53349505Y-86948796D01*
X53325001Y-86950000D01*
X52674999Y-86950000D01*
X52650495Y-86948796D01*
X52626227Y-86945196D01*
X52602428Y-86939235D01*
X52579329Y-86930970D01*
X52557150Y-86920480D01*
X52536107Y-86907868D01*
X52516401Y-86893253D01*
X52498223Y-86876777D01*
X52481747Y-86858599D01*
X52467132Y-86838893D01*
X52454520Y-86817850D01*
X52444030Y-86795671D01*
X52435765Y-86772572D01*
X52429804Y-86748773D01*
X52426204Y-86724505D01*
X52425000Y-86700001D01*
X52425000Y-85799999D01*
X52426204Y-85775495D01*
X52429804Y-85751227D01*
X52435765Y-85727428D01*
X52444030Y-85704329D01*
X52454520Y-85682150D01*
X52467132Y-85661107D01*
X52481747Y-85641401D01*
X52498223Y-85623223D01*
X52516401Y-85606747D01*
X52536107Y-85592132D01*
X52557150Y-85579520D01*
X52579329Y-85569030D01*
X52602428Y-85560765D01*
X52626227Y-85554804D01*
X52650495Y-85551204D01*
X52674999Y-85550000D01*
X53325001Y-85550000D01*
X53349505Y-85551204D01*
X53349505Y-85551204D01*
G37*
D12*
X53000000Y-86250000D03*
G04 #@! TD*
D11*
G04 #@! TO.C,R9*
G36*
X51399505Y-91051204D02*
X51423773Y-91054804D01*
X51447572Y-91060765D01*
X51470671Y-91069030D01*
X51492850Y-91079520D01*
X51513893Y-91092132D01*
X51533599Y-91106747D01*
X51551777Y-91123223D01*
X51568253Y-91141401D01*
X51582868Y-91161107D01*
X51595480Y-91182150D01*
X51605970Y-91204329D01*
X51614235Y-91227428D01*
X51620196Y-91251227D01*
X51623796Y-91275495D01*
X51625000Y-91299999D01*
X51625000Y-92200001D01*
X51623796Y-92224505D01*
X51620196Y-92248773D01*
X51614235Y-92272572D01*
X51605970Y-92295671D01*
X51595480Y-92317850D01*
X51582868Y-92338893D01*
X51568253Y-92358599D01*
X51551777Y-92376777D01*
X51533599Y-92393253D01*
X51513893Y-92407868D01*
X51492850Y-92420480D01*
X51470671Y-92430970D01*
X51447572Y-92439235D01*
X51423773Y-92445196D01*
X51399505Y-92448796D01*
X51375001Y-92450000D01*
X50724999Y-92450000D01*
X50700495Y-92448796D01*
X50676227Y-92445196D01*
X50652428Y-92439235D01*
X50629329Y-92430970D01*
X50607150Y-92420480D01*
X50586107Y-92407868D01*
X50566401Y-92393253D01*
X50548223Y-92376777D01*
X50531747Y-92358599D01*
X50517132Y-92338893D01*
X50504520Y-92317850D01*
X50494030Y-92295671D01*
X50485765Y-92272572D01*
X50479804Y-92248773D01*
X50476204Y-92224505D01*
X50475000Y-92200001D01*
X50475000Y-91299999D01*
X50476204Y-91275495D01*
X50479804Y-91251227D01*
X50485765Y-91227428D01*
X50494030Y-91204329D01*
X50504520Y-91182150D01*
X50517132Y-91161107D01*
X50531747Y-91141401D01*
X50548223Y-91123223D01*
X50566401Y-91106747D01*
X50586107Y-91092132D01*
X50607150Y-91079520D01*
X50629329Y-91069030D01*
X50652428Y-91060765D01*
X50676227Y-91054804D01*
X50700495Y-91051204D01*
X50724999Y-91050000D01*
X51375001Y-91050000D01*
X51399505Y-91051204D01*
X51399505Y-91051204D01*
G37*
D12*
X51050000Y-91750000D03*
D11*
G36*
X49349505Y-91051204D02*
X49373773Y-91054804D01*
X49397572Y-91060765D01*
X49420671Y-91069030D01*
X49442850Y-91079520D01*
X49463893Y-91092132D01*
X49483599Y-91106747D01*
X49501777Y-91123223D01*
X49518253Y-91141401D01*
X49532868Y-91161107D01*
X49545480Y-91182150D01*
X49555970Y-91204329D01*
X49564235Y-91227428D01*
X49570196Y-91251227D01*
X49573796Y-91275495D01*
X49575000Y-91299999D01*
X49575000Y-92200001D01*
X49573796Y-92224505D01*
X49570196Y-92248773D01*
X49564235Y-92272572D01*
X49555970Y-92295671D01*
X49545480Y-92317850D01*
X49532868Y-92338893D01*
X49518253Y-92358599D01*
X49501777Y-92376777D01*
X49483599Y-92393253D01*
X49463893Y-92407868D01*
X49442850Y-92420480D01*
X49420671Y-92430970D01*
X49397572Y-92439235D01*
X49373773Y-92445196D01*
X49349505Y-92448796D01*
X49325001Y-92450000D01*
X48674999Y-92450000D01*
X48650495Y-92448796D01*
X48626227Y-92445196D01*
X48602428Y-92439235D01*
X48579329Y-92430970D01*
X48557150Y-92420480D01*
X48536107Y-92407868D01*
X48516401Y-92393253D01*
X48498223Y-92376777D01*
X48481747Y-92358599D01*
X48467132Y-92338893D01*
X48454520Y-92317850D01*
X48444030Y-92295671D01*
X48435765Y-92272572D01*
X48429804Y-92248773D01*
X48426204Y-92224505D01*
X48425000Y-92200001D01*
X48425000Y-91299999D01*
X48426204Y-91275495D01*
X48429804Y-91251227D01*
X48435765Y-91227428D01*
X48444030Y-91204329D01*
X48454520Y-91182150D01*
X48467132Y-91161107D01*
X48481747Y-91141401D01*
X48498223Y-91123223D01*
X48516401Y-91106747D01*
X48536107Y-91092132D01*
X48557150Y-91079520D01*
X48579329Y-91069030D01*
X48602428Y-91060765D01*
X48626227Y-91054804D01*
X48650495Y-91051204D01*
X48674999Y-91050000D01*
X49325001Y-91050000D01*
X49349505Y-91051204D01*
X49349505Y-91051204D01*
G37*
D12*
X49000000Y-91750000D03*
G04 #@! TD*
D15*
G04 #@! TO.C,U1*
X55950000Y-90650000D03*
X55950000Y-89700000D03*
X55950000Y-88750000D03*
X53250000Y-90650000D03*
X53250000Y-89700000D03*
X53250000Y-88750000D03*
G04 #@! TD*
D11*
G04 #@! TO.C,C9*
G36*
X36849505Y-96051204D02*
X36873773Y-96054804D01*
X36897572Y-96060765D01*
X36920671Y-96069030D01*
X36942850Y-96079520D01*
X36963893Y-96092132D01*
X36983599Y-96106747D01*
X37001777Y-96123223D01*
X37018253Y-96141401D01*
X37032868Y-96161107D01*
X37045480Y-96182150D01*
X37055970Y-96204329D01*
X37064235Y-96227428D01*
X37070196Y-96251227D01*
X37073796Y-96275495D01*
X37075000Y-96299999D01*
X37075000Y-97200001D01*
X37073796Y-97224505D01*
X37070196Y-97248773D01*
X37064235Y-97272572D01*
X37055970Y-97295671D01*
X37045480Y-97317850D01*
X37032868Y-97338893D01*
X37018253Y-97358599D01*
X37001777Y-97376777D01*
X36983599Y-97393253D01*
X36963893Y-97407868D01*
X36942850Y-97420480D01*
X36920671Y-97430970D01*
X36897572Y-97439235D01*
X36873773Y-97445196D01*
X36849505Y-97448796D01*
X36825001Y-97450000D01*
X36174999Y-97450000D01*
X36150495Y-97448796D01*
X36126227Y-97445196D01*
X36102428Y-97439235D01*
X36079329Y-97430970D01*
X36057150Y-97420480D01*
X36036107Y-97407868D01*
X36016401Y-97393253D01*
X35998223Y-97376777D01*
X35981747Y-97358599D01*
X35967132Y-97338893D01*
X35954520Y-97317850D01*
X35944030Y-97295671D01*
X35935765Y-97272572D01*
X35929804Y-97248773D01*
X35926204Y-97224505D01*
X35925000Y-97200001D01*
X35925000Y-96299999D01*
X35926204Y-96275495D01*
X35929804Y-96251227D01*
X35935765Y-96227428D01*
X35944030Y-96204329D01*
X35954520Y-96182150D01*
X35967132Y-96161107D01*
X35981747Y-96141401D01*
X35998223Y-96123223D01*
X36016401Y-96106747D01*
X36036107Y-96092132D01*
X36057150Y-96079520D01*
X36079329Y-96069030D01*
X36102428Y-96060765D01*
X36126227Y-96054804D01*
X36150495Y-96051204D01*
X36174999Y-96050000D01*
X36825001Y-96050000D01*
X36849505Y-96051204D01*
X36849505Y-96051204D01*
G37*
D12*
X36500000Y-96750000D03*
D11*
G36*
X34799505Y-96051204D02*
X34823773Y-96054804D01*
X34847572Y-96060765D01*
X34870671Y-96069030D01*
X34892850Y-96079520D01*
X34913893Y-96092132D01*
X34933599Y-96106747D01*
X34951777Y-96123223D01*
X34968253Y-96141401D01*
X34982868Y-96161107D01*
X34995480Y-96182150D01*
X35005970Y-96204329D01*
X35014235Y-96227428D01*
X35020196Y-96251227D01*
X35023796Y-96275495D01*
X35025000Y-96299999D01*
X35025000Y-97200001D01*
X35023796Y-97224505D01*
X35020196Y-97248773D01*
X35014235Y-97272572D01*
X35005970Y-97295671D01*
X34995480Y-97317850D01*
X34982868Y-97338893D01*
X34968253Y-97358599D01*
X34951777Y-97376777D01*
X34933599Y-97393253D01*
X34913893Y-97407868D01*
X34892850Y-97420480D01*
X34870671Y-97430970D01*
X34847572Y-97439235D01*
X34823773Y-97445196D01*
X34799505Y-97448796D01*
X34775001Y-97450000D01*
X34124999Y-97450000D01*
X34100495Y-97448796D01*
X34076227Y-97445196D01*
X34052428Y-97439235D01*
X34029329Y-97430970D01*
X34007150Y-97420480D01*
X33986107Y-97407868D01*
X33966401Y-97393253D01*
X33948223Y-97376777D01*
X33931747Y-97358599D01*
X33917132Y-97338893D01*
X33904520Y-97317850D01*
X33894030Y-97295671D01*
X33885765Y-97272572D01*
X33879804Y-97248773D01*
X33876204Y-97224505D01*
X33875000Y-97200001D01*
X33875000Y-96299999D01*
X33876204Y-96275495D01*
X33879804Y-96251227D01*
X33885765Y-96227428D01*
X33894030Y-96204329D01*
X33904520Y-96182150D01*
X33917132Y-96161107D01*
X33931747Y-96141401D01*
X33948223Y-96123223D01*
X33966401Y-96106747D01*
X33986107Y-96092132D01*
X34007150Y-96079520D01*
X34029329Y-96069030D01*
X34052428Y-96060765D01*
X34076227Y-96054804D01*
X34100495Y-96051204D01*
X34124999Y-96050000D01*
X34775001Y-96050000D01*
X34799505Y-96051204D01*
X34799505Y-96051204D01*
G37*
D12*
X34450000Y-96750000D03*
G04 #@! TD*
D11*
G04 #@! TO.C,C13*
G36*
X51224505Y-85926204D02*
X51248773Y-85929804D01*
X51272572Y-85935765D01*
X51295671Y-85944030D01*
X51317850Y-85954520D01*
X51338893Y-85967132D01*
X51358599Y-85981747D01*
X51376777Y-85998223D01*
X51393253Y-86016401D01*
X51407868Y-86036107D01*
X51420480Y-86057150D01*
X51430970Y-86079329D01*
X51439235Y-86102428D01*
X51445196Y-86126227D01*
X51448796Y-86150495D01*
X51450000Y-86174999D01*
X51450000Y-86825001D01*
X51448796Y-86849505D01*
X51445196Y-86873773D01*
X51439235Y-86897572D01*
X51430970Y-86920671D01*
X51420480Y-86942850D01*
X51407868Y-86963893D01*
X51393253Y-86983599D01*
X51376777Y-87001777D01*
X51358599Y-87018253D01*
X51338893Y-87032868D01*
X51317850Y-87045480D01*
X51295671Y-87055970D01*
X51272572Y-87064235D01*
X51248773Y-87070196D01*
X51224505Y-87073796D01*
X51200001Y-87075000D01*
X50299999Y-87075000D01*
X50275495Y-87073796D01*
X50251227Y-87070196D01*
X50227428Y-87064235D01*
X50204329Y-87055970D01*
X50182150Y-87045480D01*
X50161107Y-87032868D01*
X50141401Y-87018253D01*
X50123223Y-87001777D01*
X50106747Y-86983599D01*
X50092132Y-86963893D01*
X50079520Y-86942850D01*
X50069030Y-86920671D01*
X50060765Y-86897572D01*
X50054804Y-86873773D01*
X50051204Y-86849505D01*
X50050000Y-86825001D01*
X50050000Y-86174999D01*
X50051204Y-86150495D01*
X50054804Y-86126227D01*
X50060765Y-86102428D01*
X50069030Y-86079329D01*
X50079520Y-86057150D01*
X50092132Y-86036107D01*
X50106747Y-86016401D01*
X50123223Y-85998223D01*
X50141401Y-85981747D01*
X50161107Y-85967132D01*
X50182150Y-85954520D01*
X50204329Y-85944030D01*
X50227428Y-85935765D01*
X50251227Y-85929804D01*
X50275495Y-85926204D01*
X50299999Y-85925000D01*
X51200001Y-85925000D01*
X51224505Y-85926204D01*
X51224505Y-85926204D01*
G37*
D12*
X50750000Y-86500000D03*
D11*
G36*
X51224505Y-87976204D02*
X51248773Y-87979804D01*
X51272572Y-87985765D01*
X51295671Y-87994030D01*
X51317850Y-88004520D01*
X51338893Y-88017132D01*
X51358599Y-88031747D01*
X51376777Y-88048223D01*
X51393253Y-88066401D01*
X51407868Y-88086107D01*
X51420480Y-88107150D01*
X51430970Y-88129329D01*
X51439235Y-88152428D01*
X51445196Y-88176227D01*
X51448796Y-88200495D01*
X51450000Y-88224999D01*
X51450000Y-88875001D01*
X51448796Y-88899505D01*
X51445196Y-88923773D01*
X51439235Y-88947572D01*
X51430970Y-88970671D01*
X51420480Y-88992850D01*
X51407868Y-89013893D01*
X51393253Y-89033599D01*
X51376777Y-89051777D01*
X51358599Y-89068253D01*
X51338893Y-89082868D01*
X51317850Y-89095480D01*
X51295671Y-89105970D01*
X51272572Y-89114235D01*
X51248773Y-89120196D01*
X51224505Y-89123796D01*
X51200001Y-89125000D01*
X50299999Y-89125000D01*
X50275495Y-89123796D01*
X50251227Y-89120196D01*
X50227428Y-89114235D01*
X50204329Y-89105970D01*
X50182150Y-89095480D01*
X50161107Y-89082868D01*
X50141401Y-89068253D01*
X50123223Y-89051777D01*
X50106747Y-89033599D01*
X50092132Y-89013893D01*
X50079520Y-88992850D01*
X50069030Y-88970671D01*
X50060765Y-88947572D01*
X50054804Y-88923773D01*
X50051204Y-88899505D01*
X50050000Y-88875001D01*
X50050000Y-88224999D01*
X50051204Y-88200495D01*
X50054804Y-88176227D01*
X50060765Y-88152428D01*
X50069030Y-88129329D01*
X50079520Y-88107150D01*
X50092132Y-88086107D01*
X50106747Y-88066401D01*
X50123223Y-88048223D01*
X50141401Y-88031747D01*
X50161107Y-88017132D01*
X50182150Y-88004520D01*
X50204329Y-87994030D01*
X50227428Y-87985765D01*
X50251227Y-87979804D01*
X50275495Y-87976204D01*
X50299999Y-87975000D01*
X51200001Y-87975000D01*
X51224505Y-87976204D01*
X51224505Y-87976204D01*
G37*
D12*
X50750000Y-88550000D03*
G04 #@! TD*
M02*
