G04 #@! TF.GenerationSoftware,KiCad,Pcbnew,5.0.2-bee76a0~70~ubuntu18.04.1*
G04 #@! TF.CreationDate,2019-08-17T16:59:23+02:00*
G04 #@! TF.ProjectId,HAN_ESP_TSS721,48414e5f-4553-4505-9f54-53533732312e,rev?*
G04 #@! TF.SameCoordinates,Original*
G04 #@! TF.FileFunction,Legend,Bot*
G04 #@! TF.FilePolarity,Positive*
%FSLAX46Y46*%
G04 Gerber Fmt 4.6, Leading zero omitted, Abs format (unit mm)*
G04 Created by KiCad (PCBNEW 5.0.2-bee76a0~70~ubuntu18.04.1) date Sat 17 Aug 2019 04:59:23 PM CEST*
%MOMM*%
%LPD*%
G01*
G04 APERTURE LIST*
%ADD10C,0.100000*%
%ADD11C,0.150000*%
%ADD12C,0.200000*%
%ADD13C,0.120000*%
G04 APERTURE END LIST*
D10*
X48961904Y-110052380D02*
X48961904Y-109052380D01*
X48961904Y-109528571D02*
X48390476Y-109528571D01*
X48390476Y-110052380D02*
X48390476Y-109052380D01*
X47961904Y-109766666D02*
X47485714Y-109766666D01*
X48057142Y-110052380D02*
X47723809Y-109052380D01*
X47390476Y-110052380D01*
X47057142Y-110052380D02*
X47057142Y-109052380D01*
X46485714Y-110052380D01*
X46485714Y-109052380D01*
X44676190Y-110052380D02*
X45009523Y-109576190D01*
X45247619Y-110052380D02*
X45247619Y-109052380D01*
X44866666Y-109052380D01*
X44771428Y-109100000D01*
X44723809Y-109147619D01*
X44676190Y-109242857D01*
X44676190Y-109385714D01*
X44723809Y-109480952D01*
X44771428Y-109528571D01*
X44866666Y-109576190D01*
X45247619Y-109576190D01*
X43866666Y-110004761D02*
X43961904Y-110052380D01*
X44152380Y-110052380D01*
X44247619Y-110004761D01*
X44295238Y-109909523D01*
X44295238Y-109528571D01*
X44247619Y-109433333D01*
X44152380Y-109385714D01*
X43961904Y-109385714D01*
X43866666Y-109433333D01*
X43819047Y-109528571D01*
X43819047Y-109623809D01*
X44295238Y-109719047D01*
X42961904Y-110052380D02*
X42961904Y-109528571D01*
X43009523Y-109433333D01*
X43104761Y-109385714D01*
X43295238Y-109385714D01*
X43390476Y-109433333D01*
X42961904Y-110004761D02*
X43057142Y-110052380D01*
X43295238Y-110052380D01*
X43390476Y-110004761D01*
X43438095Y-109909523D01*
X43438095Y-109814285D01*
X43390476Y-109719047D01*
X43295238Y-109671428D01*
X43057142Y-109671428D01*
X42961904Y-109623809D01*
X42057142Y-110052380D02*
X42057142Y-109052380D01*
X42057142Y-110004761D02*
X42152380Y-110052380D01*
X42342857Y-110052380D01*
X42438095Y-110004761D01*
X42485714Y-109957142D01*
X42533333Y-109861904D01*
X42533333Y-109576190D01*
X42485714Y-109480952D01*
X42438095Y-109433333D01*
X42342857Y-109385714D01*
X42152380Y-109385714D01*
X42057142Y-109433333D01*
X41200000Y-110004761D02*
X41295238Y-110052380D01*
X41485714Y-110052380D01*
X41580952Y-110004761D01*
X41628571Y-109909523D01*
X41628571Y-109528571D01*
X41580952Y-109433333D01*
X41485714Y-109385714D01*
X41295238Y-109385714D01*
X41200000Y-109433333D01*
X41152380Y-109528571D01*
X41152380Y-109623809D01*
X41628571Y-109719047D01*
X40723809Y-110052380D02*
X40723809Y-109385714D01*
X40723809Y-109576190D02*
X40676190Y-109480952D01*
X40628571Y-109433333D01*
X40533333Y-109385714D01*
X40438095Y-109385714D01*
X39342857Y-109671428D02*
X38580952Y-109671428D01*
X37390476Y-109147619D02*
X37342857Y-109100000D01*
X37247619Y-109052380D01*
X37009523Y-109052380D01*
X36914285Y-109100000D01*
X36866666Y-109147619D01*
X36819047Y-109242857D01*
X36819047Y-109338095D01*
X36866666Y-109480952D01*
X37438095Y-110052380D01*
X36819047Y-110052380D01*
X36390476Y-109957142D02*
X36342857Y-110004761D01*
X36390476Y-110052380D01*
X36438095Y-110004761D01*
X36390476Y-109957142D01*
X36390476Y-110052380D01*
X35723809Y-109052380D02*
X35628571Y-109052380D01*
X35533333Y-109100000D01*
X35485714Y-109147619D01*
X35438095Y-109242857D01*
X35390476Y-109433333D01*
X35390476Y-109671428D01*
X35438095Y-109861904D01*
X35485714Y-109957142D01*
X35533333Y-110004761D01*
X35628571Y-110052380D01*
X35723809Y-110052380D01*
X35819047Y-110004761D01*
X35866666Y-109957142D01*
X35914285Y-109861904D01*
X35961904Y-109671428D01*
X35961904Y-109433333D01*
X35914285Y-109242857D01*
X35866666Y-109147619D01*
X35819047Y-109100000D01*
X35723809Y-109052380D01*
X46747619Y-111652380D02*
X46747619Y-110652380D01*
X46414285Y-111366666D01*
X46080952Y-110652380D01*
X46080952Y-111652380D01*
X45176190Y-111652380D02*
X45176190Y-111128571D01*
X45223809Y-111033333D01*
X45319047Y-110985714D01*
X45509523Y-110985714D01*
X45604761Y-111033333D01*
X45176190Y-111604761D02*
X45271428Y-111652380D01*
X45509523Y-111652380D01*
X45604761Y-111604761D01*
X45652380Y-111509523D01*
X45652380Y-111414285D01*
X45604761Y-111319047D01*
X45509523Y-111271428D01*
X45271428Y-111271428D01*
X45176190Y-111223809D01*
X44795238Y-111652380D02*
X44271428Y-110985714D01*
X44795238Y-110985714D02*
X44271428Y-111652380D01*
X43176190Y-111604761D02*
X43033333Y-111652380D01*
X42795238Y-111652380D01*
X42700000Y-111604761D01*
X42652380Y-111557142D01*
X42604761Y-111461904D01*
X42604761Y-111366666D01*
X42652380Y-111271428D01*
X42700000Y-111223809D01*
X42795238Y-111176190D01*
X42985714Y-111128571D01*
X43080952Y-111080952D01*
X43128571Y-111033333D01*
X43176190Y-110938095D01*
X43176190Y-110842857D01*
X43128571Y-110747619D01*
X43080952Y-110700000D01*
X42985714Y-110652380D01*
X42747619Y-110652380D01*
X42604761Y-110700000D01*
X42176190Y-110985714D02*
X42176190Y-111985714D01*
X42176190Y-111033333D02*
X42080952Y-110985714D01*
X41890476Y-110985714D01*
X41795238Y-111033333D01*
X41747619Y-111080952D01*
X41700000Y-111176190D01*
X41700000Y-111461904D01*
X41747619Y-111557142D01*
X41795238Y-111604761D01*
X41890476Y-111652380D01*
X42080952Y-111652380D01*
X42176190Y-111604761D01*
X40890476Y-111604761D02*
X40985714Y-111652380D01*
X41176190Y-111652380D01*
X41271428Y-111604761D01*
X41319047Y-111509523D01*
X41319047Y-111128571D01*
X41271428Y-111033333D01*
X41176190Y-110985714D01*
X40985714Y-110985714D01*
X40890476Y-111033333D01*
X40842857Y-111128571D01*
X40842857Y-111223809D01*
X41319047Y-111319047D01*
X40414285Y-110985714D02*
X40414285Y-111652380D01*
X40414285Y-111080952D02*
X40366666Y-111033333D01*
X40271428Y-110985714D01*
X40128571Y-110985714D01*
X40033333Y-111033333D01*
X39985714Y-111128571D01*
X39985714Y-111652380D01*
X39080952Y-111604761D02*
X39176190Y-111652380D01*
X39366666Y-111652380D01*
X39461904Y-111604761D01*
X39509523Y-111557142D01*
X39557142Y-111461904D01*
X39557142Y-111176190D01*
X39509523Y-111080952D01*
X39461904Y-111033333D01*
X39366666Y-110985714D01*
X39176190Y-110985714D01*
X39080952Y-111033333D01*
X38271428Y-111604761D02*
X38366666Y-111652380D01*
X38557142Y-111652380D01*
X38652380Y-111604761D01*
X38700000Y-111509523D01*
X38700000Y-111128571D01*
X38652380Y-111033333D01*
X38557142Y-110985714D01*
X38366666Y-110985714D01*
X38271428Y-111033333D01*
X38223809Y-111128571D01*
X38223809Y-111223809D01*
X38700000Y-111319047D01*
X37795238Y-111652380D02*
X37795238Y-110985714D01*
X37795238Y-111176190D02*
X37747619Y-111080952D01*
X37700000Y-111033333D01*
X37604761Y-110985714D01*
X37509523Y-110985714D01*
X46771428Y-112966666D02*
X46295238Y-112966666D01*
X46866666Y-113252380D02*
X46533333Y-112252380D01*
X46200000Y-113252380D01*
X45438095Y-112585714D02*
X45438095Y-113252380D01*
X45866666Y-112585714D02*
X45866666Y-113109523D01*
X45819047Y-113204761D01*
X45723809Y-113252380D01*
X45580952Y-113252380D01*
X45485714Y-113204761D01*
X45438095Y-113157142D01*
X44533333Y-112585714D02*
X44533333Y-113395238D01*
X44580952Y-113490476D01*
X44628571Y-113538095D01*
X44723809Y-113585714D01*
X44866666Y-113585714D01*
X44961904Y-113538095D01*
X44533333Y-113204761D02*
X44628571Y-113252380D01*
X44819047Y-113252380D01*
X44914285Y-113204761D01*
X44961904Y-113157142D01*
X45009523Y-113061904D01*
X45009523Y-112776190D01*
X44961904Y-112680952D01*
X44914285Y-112633333D01*
X44819047Y-112585714D01*
X44628571Y-112585714D01*
X44533333Y-112633333D01*
X43628571Y-112585714D02*
X43628571Y-113252380D01*
X44057142Y-112585714D02*
X44057142Y-113109523D01*
X44009523Y-113204761D01*
X43914285Y-113252380D01*
X43771428Y-113252380D01*
X43676190Y-113204761D01*
X43628571Y-113157142D01*
X43200000Y-113204761D02*
X43104761Y-113252380D01*
X42914285Y-113252380D01*
X42819047Y-113204761D01*
X42771428Y-113109523D01*
X42771428Y-113061904D01*
X42819047Y-112966666D01*
X42914285Y-112919047D01*
X43057142Y-112919047D01*
X43152380Y-112871428D01*
X43200000Y-112776190D01*
X43200000Y-112728571D01*
X43152380Y-112633333D01*
X43057142Y-112585714D01*
X42914285Y-112585714D01*
X42819047Y-112633333D01*
X42485714Y-112585714D02*
X42104761Y-112585714D01*
X42342857Y-112252380D02*
X42342857Y-113109523D01*
X42295238Y-113204761D01*
X42200000Y-113252380D01*
X42104761Y-113252380D01*
X41057142Y-112347619D02*
X41009523Y-112300000D01*
X40914285Y-112252380D01*
X40676190Y-112252380D01*
X40580952Y-112300000D01*
X40533333Y-112347619D01*
X40485714Y-112442857D01*
X40485714Y-112538095D01*
X40533333Y-112680952D01*
X41104761Y-113252380D01*
X40485714Y-113252380D01*
X39866666Y-112252380D02*
X39771428Y-112252380D01*
X39676190Y-112300000D01*
X39628571Y-112347619D01*
X39580952Y-112442857D01*
X39533333Y-112633333D01*
X39533333Y-112871428D01*
X39580952Y-113061904D01*
X39628571Y-113157142D01*
X39676190Y-113204761D01*
X39771428Y-113252380D01*
X39866666Y-113252380D01*
X39961904Y-113204761D01*
X40009523Y-113157142D01*
X40057142Y-113061904D01*
X40104761Y-112871428D01*
X40104761Y-112633333D01*
X40057142Y-112442857D01*
X40009523Y-112347619D01*
X39961904Y-112300000D01*
X39866666Y-112252380D01*
X38580952Y-113252380D02*
X39152380Y-113252380D01*
X38866666Y-113252380D02*
X38866666Y-112252380D01*
X38961904Y-112395238D01*
X39057142Y-112490476D01*
X39152380Y-112538095D01*
X38104761Y-113252380D02*
X37914285Y-113252380D01*
X37819047Y-113204761D01*
X37771428Y-113157142D01*
X37676190Y-113014285D01*
X37628571Y-112823809D01*
X37628571Y-112442857D01*
X37676190Y-112347619D01*
X37723809Y-112300000D01*
X37819047Y-112252380D01*
X38009523Y-112252380D01*
X38104761Y-112300000D01*
X38152380Y-112347619D01*
X38200000Y-112442857D01*
X38200000Y-112680952D01*
X38152380Y-112776190D01*
X38104761Y-112823809D01*
X38009523Y-112871428D01*
X37819047Y-112871428D01*
X37723809Y-112823809D01*
X37676190Y-112776190D01*
X37628571Y-112680952D01*
D11*
X56000000Y-87652380D02*
X56000000Y-87890476D01*
X56238095Y-87795238D02*
X56000000Y-87890476D01*
X55761904Y-87795238D01*
X56142857Y-88080952D02*
X56000000Y-87890476D01*
X55857142Y-88080952D01*
X38800000Y-100252380D02*
X38800000Y-100490476D01*
X39038095Y-100395238D02*
X38800000Y-100490476D01*
X38561904Y-100395238D01*
X38942857Y-100680952D02*
X38800000Y-100490476D01*
X38657142Y-100680952D01*
D12*
X56500000Y-84750000D02*
X56000000Y-85250000D01*
D11*
G04 #@! TO.C,U3*
X40825000Y-100995000D02*
X40825000Y-100970000D01*
X44975000Y-100995000D02*
X44975000Y-100890000D01*
X44975000Y-90845000D02*
X44975000Y-90950000D01*
X40825000Y-90845000D02*
X40825000Y-90950000D01*
X40825000Y-100995000D02*
X44975000Y-100995000D01*
X40825000Y-90845000D02*
X44975000Y-90845000D01*
X40825000Y-100970000D02*
X39450000Y-100970000D01*
D13*
G04 #@! TO.C,JP2*
X58750000Y-99100000D02*
G75*
G03X59450000Y-99800000I700000J0D01*
G01*
X60050000Y-99800000D02*
G75*
G03X60750000Y-99100000I0J700000D01*
G01*
X60750000Y-97700000D02*
G75*
G03X60050000Y-97000000I-700000J0D01*
G01*
X59450000Y-97000000D02*
G75*
G03X58750000Y-97700000I0J-700000D01*
G01*
X60050000Y-97000000D02*
X59450000Y-97000000D01*
X60750000Y-99100000D02*
X60750000Y-97700000D01*
X59450000Y-99800000D02*
X60050000Y-99800000D01*
X58750000Y-97700000D02*
X58750000Y-99100000D01*
G04 #@! TO.C,R13*
X35761252Y-91960000D02*
X35238748Y-91960000D01*
X35761252Y-90540000D02*
X35238748Y-90540000D01*
G04 #@! TO.C,R15*
X49763748Y-99210000D02*
X50286252Y-99210000D01*
X49763748Y-97790000D02*
X50286252Y-97790000D01*
G04 #@! TO.C,R18*
X35213748Y-89460000D02*
X35736252Y-89460000D01*
X35213748Y-88040000D02*
X35736252Y-88040000D01*
G04 #@! TO.C,R17*
X44736252Y-106210000D02*
X44213748Y-106210000D01*
X44736252Y-104790000D02*
X44213748Y-104790000D01*
G04 #@! TO.C,R19*
X35736252Y-93540000D02*
X35213748Y-93540000D01*
X35736252Y-94960000D02*
X35213748Y-94960000D01*
G04 #@! TO.C,R20*
X47290000Y-104261252D02*
X47290000Y-103738748D01*
X48710000Y-104261252D02*
X48710000Y-103738748D01*
G04 #@! TO.C,R11*
X44713748Y-86960000D02*
X45236252Y-86960000D01*
X44713748Y-85540000D02*
X45236252Y-85540000D01*
G04 #@! TO.C,R12*
X35786252Y-99960000D02*
X35263748Y-99960000D01*
X35786252Y-98540000D02*
X35263748Y-98540000D01*
G04 #@! TO.C,R16*
X50286252Y-96960000D02*
X49763748Y-96960000D01*
X50286252Y-95540000D02*
X49763748Y-95540000D01*
G04 #@! TO.C,R14*
X60763748Y-89710000D02*
X61286252Y-89710000D01*
X60763748Y-88290000D02*
X61286252Y-88290000D01*
G04 #@! TO.C,R4*
X50290000Y-103738748D02*
X50290000Y-104261252D01*
X51710000Y-103738748D02*
X51710000Y-104261252D01*
G04 #@! TO.C,R5*
X35786252Y-101290000D02*
X35263748Y-101290000D01*
X35786252Y-102710000D02*
X35263748Y-102710000D01*
G04 #@! TO.C,R10*
X49763748Y-100040000D02*
X50286252Y-100040000D01*
X49763748Y-101460000D02*
X50286252Y-101460000D01*
G04 #@! TO.C,D2*
X56010000Y-104155000D02*
X56010000Y-105565000D01*
X53690000Y-105565000D02*
X53690000Y-102830000D01*
X53680000Y-105565000D02*
X54350000Y-105565000D01*
X55350000Y-105565000D02*
X56010000Y-105565000D01*
G04 #@! TO.C,D1*
X59300000Y-77800000D02*
X55400000Y-77800000D01*
X59300000Y-79800000D02*
X55400000Y-79800000D01*
X59300000Y-77800000D02*
X59300000Y-79800000D01*
G04 #@! TO.C,D3*
X64700000Y-77800000D02*
X64700000Y-79800000D01*
X64700000Y-79800000D02*
X60800000Y-79800000D01*
X64700000Y-77800000D02*
X60800000Y-77800000D01*
G04 #@! TO.C,Q1*
X39500000Y-103515000D02*
X38840000Y-103515000D01*
X41170000Y-103515000D02*
X40500000Y-103515000D01*
X41160000Y-103515000D02*
X41160000Y-106250000D01*
X38840000Y-104925000D02*
X38840000Y-103515000D01*
G04 #@! TO.C,R7*
X52890000Y-70163748D02*
X52890000Y-70686252D01*
X54310000Y-70163748D02*
X54310000Y-70686252D01*
G04 #@! TO.C,R8*
X64713748Y-72040000D02*
X65236252Y-72040000D01*
X64713748Y-73460000D02*
X65236252Y-73460000D01*
G04 #@! TO.C,C1*
X54513748Y-100290000D02*
X55036252Y-100290000D01*
X54513748Y-101710000D02*
X55036252Y-101710000D01*
G04 #@! TO.C,C4*
X44761252Y-101790000D02*
X44238748Y-101790000D01*
X44761252Y-103210000D02*
X44238748Y-103210000D01*
G04 #@! TO.C,C5*
X55036252Y-97290000D02*
X54513748Y-97290000D01*
X55036252Y-98710000D02*
X54513748Y-98710000D01*
G04 #@! TO.C,C6*
X64713748Y-71310000D02*
X65236252Y-71310000D01*
X64713748Y-69890000D02*
X65236252Y-69890000D01*
G04 #@! TO.C,C7*
X52890000Y-74686252D02*
X52890000Y-74163748D01*
X54310000Y-74686252D02*
X54310000Y-74163748D01*
G04 #@! TO.C,C11*
X39713748Y-88290000D02*
X40236252Y-88290000D01*
X39713748Y-89710000D02*
X40236252Y-89710000D01*
G04 #@! TO.C,C12*
X49763748Y-93290000D02*
X50286252Y-93290000D01*
X49763748Y-94710000D02*
X50286252Y-94710000D01*
G04 #@! TO.C,R1*
X47790000Y-87263748D02*
X47790000Y-87786252D01*
X49210000Y-87263748D02*
X49210000Y-87786252D01*
G04 #@! TO.C,R2*
X53763748Y-83040000D02*
X54286252Y-83040000D01*
X53763748Y-84460000D02*
X54286252Y-84460000D01*
G04 #@! TO.C,R3*
X54986252Y-93290000D02*
X54463748Y-93290000D01*
X54986252Y-94710000D02*
X54463748Y-94710000D01*
G04 #@! TO.C,R6*
X54286252Y-85540000D02*
X53763748Y-85540000D01*
X54286252Y-86960000D02*
X53763748Y-86960000D01*
G04 #@! TO.C,R9*
X49763748Y-91040000D02*
X50286252Y-91040000D01*
X49763748Y-92460000D02*
X50286252Y-92460000D01*
D10*
G04 #@! TO.C,U1*
X56250000Y-88400000D02*
X55650000Y-88400000D01*
X55650000Y-88400000D02*
X55200000Y-88050000D01*
X53600000Y-88400000D02*
X53600000Y-88050000D01*
X53600000Y-88050000D02*
X53950000Y-88050000D01*
X55250000Y-91350000D02*
X55600000Y-91350000D01*
X55600000Y-91350000D02*
X55600000Y-91000000D01*
X53600000Y-91000000D02*
X53600000Y-91350000D01*
X53600000Y-91350000D02*
X53950000Y-91350000D01*
D13*
G04 #@! TO.C,C9*
X35736252Y-96040000D02*
X35213748Y-96040000D01*
X35736252Y-97460000D02*
X35213748Y-97460000D01*
G04 #@! TO.C,C13*
X50040000Y-87263748D02*
X50040000Y-87786252D01*
X51460000Y-87263748D02*
X51460000Y-87786252D01*
G04 #@! TO.C,U3*
D11*
X44961904Y-89452380D02*
X44961904Y-90261904D01*
X44914285Y-90357142D01*
X44866666Y-90404761D01*
X44771428Y-90452380D01*
X44580952Y-90452380D01*
X44485714Y-90404761D01*
X44438095Y-90357142D01*
X44390476Y-90261904D01*
X44390476Y-89452380D01*
X44009523Y-89452380D02*
X43390476Y-89452380D01*
X43723809Y-89833333D01*
X43580952Y-89833333D01*
X43485714Y-89880952D01*
X43438095Y-89928571D01*
X43390476Y-90023809D01*
X43390476Y-90261904D01*
X43438095Y-90357142D01*
X43485714Y-90404761D01*
X43580952Y-90452380D01*
X43866666Y-90452380D01*
X43961904Y-90404761D01*
X44009523Y-90357142D01*
G04 #@! TO.C,JP2*
X57402380Y-97566666D02*
X58116666Y-97566666D01*
X58259523Y-97519047D01*
X58354761Y-97423809D01*
X58402380Y-97280952D01*
X58402380Y-97185714D01*
X58402380Y-98042857D02*
X57402380Y-98042857D01*
X57402380Y-98423809D01*
X57450000Y-98519047D01*
X57497619Y-98566666D01*
X57592857Y-98614285D01*
X57735714Y-98614285D01*
X57830952Y-98566666D01*
X57878571Y-98519047D01*
X57926190Y-98423809D01*
X57926190Y-98042857D01*
X57497619Y-98995238D02*
X57450000Y-99042857D01*
X57402380Y-99138095D01*
X57402380Y-99376190D01*
X57450000Y-99471428D01*
X57497619Y-99519047D01*
X57592857Y-99566666D01*
X57688095Y-99566666D01*
X57830952Y-99519047D01*
X58402380Y-98947619D01*
X58402380Y-99566666D01*
G04 #@! TO.C,R13*
X33452380Y-90557142D02*
X32976190Y-90223809D01*
X33452380Y-89985714D02*
X32452380Y-89985714D01*
X32452380Y-90366666D01*
X32500000Y-90461904D01*
X32547619Y-90509523D01*
X32642857Y-90557142D01*
X32785714Y-90557142D01*
X32880952Y-90509523D01*
X32928571Y-90461904D01*
X32976190Y-90366666D01*
X32976190Y-89985714D01*
X33452380Y-91509523D02*
X33452380Y-90938095D01*
X33452380Y-91223809D02*
X32452380Y-91223809D01*
X32595238Y-91128571D01*
X32690476Y-91033333D01*
X32738095Y-90938095D01*
X32452380Y-91842857D02*
X32452380Y-92461904D01*
X32833333Y-92128571D01*
X32833333Y-92271428D01*
X32880952Y-92366666D01*
X32928571Y-92414285D01*
X33023809Y-92461904D01*
X33261904Y-92461904D01*
X33357142Y-92414285D01*
X33404761Y-92366666D01*
X33452380Y-92271428D01*
X33452380Y-91985714D01*
X33404761Y-91890476D01*
X33357142Y-91842857D01*
G04 #@! TO.C,R15*
D10*
X47916666Y-98050000D02*
X47583333Y-97816666D01*
X47916666Y-97650000D02*
X47216666Y-97650000D01*
X47216666Y-97916666D01*
X47250000Y-97983333D01*
X47283333Y-98016666D01*
X47350000Y-98050000D01*
X47450000Y-98050000D01*
X47516666Y-98016666D01*
X47550000Y-97983333D01*
X47583333Y-97916666D01*
X47583333Y-97650000D01*
X47916666Y-98716666D02*
X47916666Y-98316666D01*
X47916666Y-98516666D02*
X47216666Y-98516666D01*
X47316666Y-98450000D01*
X47383333Y-98383333D01*
X47416666Y-98316666D01*
X47216666Y-99350000D02*
X47216666Y-99016666D01*
X47550000Y-98983333D01*
X47516666Y-99016666D01*
X47483333Y-99083333D01*
X47483333Y-99250000D01*
X47516666Y-99316666D01*
X47550000Y-99350000D01*
X47616666Y-99383333D01*
X47783333Y-99383333D01*
X47850000Y-99350000D01*
X47883333Y-99316666D01*
X47916666Y-99250000D01*
X47916666Y-99083333D01*
X47883333Y-99016666D01*
X47850000Y-98983333D01*
G04 #@! TO.C,R18*
D11*
X36117857Y-87452380D02*
X36451190Y-86976190D01*
X36689285Y-87452380D02*
X36689285Y-86452380D01*
X36308333Y-86452380D01*
X36213095Y-86500000D01*
X36165476Y-86547619D01*
X36117857Y-86642857D01*
X36117857Y-86785714D01*
X36165476Y-86880952D01*
X36213095Y-86928571D01*
X36308333Y-86976190D01*
X36689285Y-86976190D01*
X35165476Y-87452380D02*
X35736904Y-87452380D01*
X35451190Y-87452380D02*
X35451190Y-86452380D01*
X35546428Y-86595238D01*
X35641666Y-86690476D01*
X35736904Y-86738095D01*
X34594047Y-86880952D02*
X34689285Y-86833333D01*
X34736904Y-86785714D01*
X34784523Y-86690476D01*
X34784523Y-86642857D01*
X34736904Y-86547619D01*
X34689285Y-86500000D01*
X34594047Y-86452380D01*
X34403571Y-86452380D01*
X34308333Y-86500000D01*
X34260714Y-86547619D01*
X34213095Y-86642857D01*
X34213095Y-86690476D01*
X34260714Y-86785714D01*
X34308333Y-86833333D01*
X34403571Y-86880952D01*
X34594047Y-86880952D01*
X34689285Y-86928571D01*
X34736904Y-86976190D01*
X34784523Y-87071428D01*
X34784523Y-87261904D01*
X34736904Y-87357142D01*
X34689285Y-87404761D01*
X34594047Y-87452380D01*
X34403571Y-87452380D01*
X34308333Y-87404761D01*
X34260714Y-87357142D01*
X34213095Y-87261904D01*
X34213095Y-87071428D01*
X34260714Y-86976190D01*
X34308333Y-86928571D01*
X34403571Y-86880952D01*
G04 #@! TO.C,R17*
X45117857Y-107652380D02*
X45451190Y-107176190D01*
X45689285Y-107652380D02*
X45689285Y-106652380D01*
X45308333Y-106652380D01*
X45213095Y-106700000D01*
X45165476Y-106747619D01*
X45117857Y-106842857D01*
X45117857Y-106985714D01*
X45165476Y-107080952D01*
X45213095Y-107128571D01*
X45308333Y-107176190D01*
X45689285Y-107176190D01*
X44165476Y-107652380D02*
X44736904Y-107652380D01*
X44451190Y-107652380D02*
X44451190Y-106652380D01*
X44546428Y-106795238D01*
X44641666Y-106890476D01*
X44736904Y-106938095D01*
X43832142Y-106652380D02*
X43165476Y-106652380D01*
X43594047Y-107652380D01*
G04 #@! TO.C,R19*
X33452380Y-93557142D02*
X32976190Y-93223809D01*
X33452380Y-92985714D02*
X32452380Y-92985714D01*
X32452380Y-93366666D01*
X32500000Y-93461904D01*
X32547619Y-93509523D01*
X32642857Y-93557142D01*
X32785714Y-93557142D01*
X32880952Y-93509523D01*
X32928571Y-93461904D01*
X32976190Y-93366666D01*
X32976190Y-92985714D01*
X33452380Y-94509523D02*
X33452380Y-93938095D01*
X33452380Y-94223809D02*
X32452380Y-94223809D01*
X32595238Y-94128571D01*
X32690476Y-94033333D01*
X32738095Y-93938095D01*
X33452380Y-94985714D02*
X33452380Y-95176190D01*
X33404761Y-95271428D01*
X33357142Y-95319047D01*
X33214285Y-95414285D01*
X33023809Y-95461904D01*
X32642857Y-95461904D01*
X32547619Y-95414285D01*
X32500000Y-95366666D01*
X32452380Y-95271428D01*
X32452380Y-95080952D01*
X32500000Y-94985714D01*
X32547619Y-94938095D01*
X32642857Y-94890476D01*
X32880952Y-94890476D01*
X32976190Y-94938095D01*
X33023809Y-94985714D01*
X33071428Y-95080952D01*
X33071428Y-95271428D01*
X33023809Y-95366666D01*
X32976190Y-95414285D01*
X32880952Y-95461904D01*
G04 #@! TO.C,R20*
X48642857Y-107052380D02*
X48976190Y-106576190D01*
X49214285Y-107052380D02*
X49214285Y-106052380D01*
X48833333Y-106052380D01*
X48738095Y-106100000D01*
X48690476Y-106147619D01*
X48642857Y-106242857D01*
X48642857Y-106385714D01*
X48690476Y-106480952D01*
X48738095Y-106528571D01*
X48833333Y-106576190D01*
X49214285Y-106576190D01*
X48261904Y-106147619D02*
X48214285Y-106100000D01*
X48119047Y-106052380D01*
X47880952Y-106052380D01*
X47785714Y-106100000D01*
X47738095Y-106147619D01*
X47690476Y-106242857D01*
X47690476Y-106338095D01*
X47738095Y-106480952D01*
X48309523Y-107052380D01*
X47690476Y-107052380D01*
X47071428Y-106052380D02*
X46976190Y-106052380D01*
X46880952Y-106100000D01*
X46833333Y-106147619D01*
X46785714Y-106242857D01*
X46738095Y-106433333D01*
X46738095Y-106671428D01*
X46785714Y-106861904D01*
X46833333Y-106957142D01*
X46880952Y-107004761D01*
X46976190Y-107052380D01*
X47071428Y-107052380D01*
X47166666Y-107004761D01*
X47214285Y-106957142D01*
X47261904Y-106861904D01*
X47309523Y-106671428D01*
X47309523Y-106433333D01*
X47261904Y-106242857D01*
X47214285Y-106147619D01*
X47166666Y-106100000D01*
X47071428Y-106052380D01*
G04 #@! TO.C,R11*
X45642857Y-84952380D02*
X45976190Y-84476190D01*
X46214285Y-84952380D02*
X46214285Y-83952380D01*
X45833333Y-83952380D01*
X45738095Y-84000000D01*
X45690476Y-84047619D01*
X45642857Y-84142857D01*
X45642857Y-84285714D01*
X45690476Y-84380952D01*
X45738095Y-84428571D01*
X45833333Y-84476190D01*
X46214285Y-84476190D01*
X44690476Y-84952380D02*
X45261904Y-84952380D01*
X44976190Y-84952380D02*
X44976190Y-83952380D01*
X45071428Y-84095238D01*
X45166666Y-84190476D01*
X45261904Y-84238095D01*
X43738095Y-84952380D02*
X44309523Y-84952380D01*
X44023809Y-84952380D02*
X44023809Y-83952380D01*
X44119047Y-84095238D01*
X44214285Y-84190476D01*
X44309523Y-84238095D01*
G04 #@! TO.C,R12*
X33452380Y-98757142D02*
X32976190Y-98423809D01*
X33452380Y-98185714D02*
X32452380Y-98185714D01*
X32452380Y-98566666D01*
X32500000Y-98661904D01*
X32547619Y-98709523D01*
X32642857Y-98757142D01*
X32785714Y-98757142D01*
X32880952Y-98709523D01*
X32928571Y-98661904D01*
X32976190Y-98566666D01*
X32976190Y-98185714D01*
X33452380Y-99709523D02*
X33452380Y-99138095D01*
X33452380Y-99423809D02*
X32452380Y-99423809D01*
X32595238Y-99328571D01*
X32690476Y-99233333D01*
X32738095Y-99138095D01*
X32547619Y-100090476D02*
X32500000Y-100138095D01*
X32452380Y-100233333D01*
X32452380Y-100471428D01*
X32500000Y-100566666D01*
X32547619Y-100614285D01*
X32642857Y-100661904D01*
X32738095Y-100661904D01*
X32880952Y-100614285D01*
X33452380Y-100042857D01*
X33452380Y-100661904D01*
G04 #@! TO.C,R16*
D10*
X47916666Y-95750000D02*
X47583333Y-95516666D01*
X47916666Y-95350000D02*
X47216666Y-95350000D01*
X47216666Y-95616666D01*
X47250000Y-95683333D01*
X47283333Y-95716666D01*
X47350000Y-95750000D01*
X47450000Y-95750000D01*
X47516666Y-95716666D01*
X47550000Y-95683333D01*
X47583333Y-95616666D01*
X47583333Y-95350000D01*
X47916666Y-96416666D02*
X47916666Y-96016666D01*
X47916666Y-96216666D02*
X47216666Y-96216666D01*
X47316666Y-96150000D01*
X47383333Y-96083333D01*
X47416666Y-96016666D01*
X47216666Y-97016666D02*
X47216666Y-96883333D01*
X47250000Y-96816666D01*
X47283333Y-96783333D01*
X47383333Y-96716666D01*
X47516666Y-96683333D01*
X47783333Y-96683333D01*
X47850000Y-96716666D01*
X47883333Y-96750000D01*
X47916666Y-96816666D01*
X47916666Y-96950000D01*
X47883333Y-97016666D01*
X47850000Y-97050000D01*
X47783333Y-97083333D01*
X47616666Y-97083333D01*
X47550000Y-97050000D01*
X47516666Y-97016666D01*
X47483333Y-96950000D01*
X47483333Y-96816666D01*
X47516666Y-96750000D01*
X47550000Y-96716666D01*
X47616666Y-96683333D01*
G04 #@! TO.C,R14*
D11*
X61667857Y-91102380D02*
X62001190Y-90626190D01*
X62239285Y-91102380D02*
X62239285Y-90102380D01*
X61858333Y-90102380D01*
X61763095Y-90150000D01*
X61715476Y-90197619D01*
X61667857Y-90292857D01*
X61667857Y-90435714D01*
X61715476Y-90530952D01*
X61763095Y-90578571D01*
X61858333Y-90626190D01*
X62239285Y-90626190D01*
X60715476Y-91102380D02*
X61286904Y-91102380D01*
X61001190Y-91102380D02*
X61001190Y-90102380D01*
X61096428Y-90245238D01*
X61191666Y-90340476D01*
X61286904Y-90388095D01*
X59858333Y-90435714D02*
X59858333Y-91102380D01*
X60096428Y-90054761D02*
X60334523Y-90769047D01*
X59715476Y-90769047D01*
G04 #@! TO.C,R4*
X51166666Y-107052380D02*
X51500000Y-106576190D01*
X51738095Y-107052380D02*
X51738095Y-106052380D01*
X51357142Y-106052380D01*
X51261904Y-106100000D01*
X51214285Y-106147619D01*
X51166666Y-106242857D01*
X51166666Y-106385714D01*
X51214285Y-106480952D01*
X51261904Y-106528571D01*
X51357142Y-106576190D01*
X51738095Y-106576190D01*
X50309523Y-106385714D02*
X50309523Y-107052380D01*
X50547619Y-106004761D02*
X50785714Y-106719047D01*
X50166666Y-106719047D01*
G04 #@! TO.C,R5*
X35691666Y-104252380D02*
X36025000Y-103776190D01*
X36263095Y-104252380D02*
X36263095Y-103252380D01*
X35882142Y-103252380D01*
X35786904Y-103300000D01*
X35739285Y-103347619D01*
X35691666Y-103442857D01*
X35691666Y-103585714D01*
X35739285Y-103680952D01*
X35786904Y-103728571D01*
X35882142Y-103776190D01*
X36263095Y-103776190D01*
X34786904Y-103252380D02*
X35263095Y-103252380D01*
X35310714Y-103728571D01*
X35263095Y-103680952D01*
X35167857Y-103633333D01*
X34929761Y-103633333D01*
X34834523Y-103680952D01*
X34786904Y-103728571D01*
X34739285Y-103823809D01*
X34739285Y-104061904D01*
X34786904Y-104157142D01*
X34834523Y-104204761D01*
X34929761Y-104252380D01*
X35167857Y-104252380D01*
X35263095Y-104204761D01*
X35310714Y-104157142D01*
G04 #@! TO.C,R10*
D10*
X47839285Y-100267857D02*
X47482142Y-100017857D01*
X47839285Y-99839285D02*
X47089285Y-99839285D01*
X47089285Y-100125000D01*
X47125000Y-100196428D01*
X47160714Y-100232142D01*
X47232142Y-100267857D01*
X47339285Y-100267857D01*
X47410714Y-100232142D01*
X47446428Y-100196428D01*
X47482142Y-100125000D01*
X47482142Y-99839285D01*
X47839285Y-100982142D02*
X47839285Y-100553571D01*
X47839285Y-100767857D02*
X47089285Y-100767857D01*
X47196428Y-100696428D01*
X47267857Y-100625000D01*
X47303571Y-100553571D01*
X47089285Y-101446428D02*
X47089285Y-101517857D01*
X47125000Y-101589285D01*
X47160714Y-101625000D01*
X47232142Y-101660714D01*
X47375000Y-101696428D01*
X47553571Y-101696428D01*
X47696428Y-101660714D01*
X47767857Y-101625000D01*
X47803571Y-101589285D01*
X47839285Y-101517857D01*
X47839285Y-101446428D01*
X47803571Y-101375000D01*
X47767857Y-101339285D01*
X47696428Y-101303571D01*
X47553571Y-101267857D01*
X47375000Y-101267857D01*
X47232142Y-101303571D01*
X47160714Y-101339285D01*
X47125000Y-101375000D01*
X47089285Y-101446428D01*
G04 #@! TO.C,D2*
D11*
X53452380Y-103861904D02*
X52452380Y-103861904D01*
X52452380Y-104100000D01*
X52500000Y-104242857D01*
X52595238Y-104338095D01*
X52690476Y-104385714D01*
X52880952Y-104433333D01*
X53023809Y-104433333D01*
X53214285Y-104385714D01*
X53309523Y-104338095D01*
X53404761Y-104242857D01*
X53452380Y-104100000D01*
X53452380Y-103861904D01*
X52547619Y-104814285D02*
X52500000Y-104861904D01*
X52452380Y-104957142D01*
X52452380Y-105195238D01*
X52500000Y-105290476D01*
X52547619Y-105338095D01*
X52642857Y-105385714D01*
X52738095Y-105385714D01*
X52880952Y-105338095D01*
X53452380Y-104766666D01*
X53452380Y-105385714D01*
G04 #@! TO.C,D1*
X57788095Y-77252380D02*
X57788095Y-76252380D01*
X57550000Y-76252380D01*
X57407142Y-76300000D01*
X57311904Y-76395238D01*
X57264285Y-76490476D01*
X57216666Y-76680952D01*
X57216666Y-76823809D01*
X57264285Y-77014285D01*
X57311904Y-77109523D01*
X57407142Y-77204761D01*
X57550000Y-77252380D01*
X57788095Y-77252380D01*
X56264285Y-77252380D02*
X56835714Y-77252380D01*
X56550000Y-77252380D02*
X56550000Y-76252380D01*
X56645238Y-76395238D01*
X56740476Y-76490476D01*
X56835714Y-76538095D01*
G04 #@! TO.C,D3*
X63188095Y-77252380D02*
X63188095Y-76252380D01*
X62950000Y-76252380D01*
X62807142Y-76300000D01*
X62711904Y-76395238D01*
X62664285Y-76490476D01*
X62616666Y-76680952D01*
X62616666Y-76823809D01*
X62664285Y-77014285D01*
X62711904Y-77109523D01*
X62807142Y-77204761D01*
X62950000Y-77252380D01*
X63188095Y-77252380D01*
X62283333Y-76252380D02*
X61664285Y-76252380D01*
X61997619Y-76633333D01*
X61854761Y-76633333D01*
X61759523Y-76680952D01*
X61711904Y-76728571D01*
X61664285Y-76823809D01*
X61664285Y-77061904D01*
X61711904Y-77157142D01*
X61759523Y-77204761D01*
X61854761Y-77252380D01*
X62140476Y-77252380D01*
X62235714Y-77204761D01*
X62283333Y-77157142D01*
G04 #@! TO.C,Q1*
X37695238Y-106547619D02*
X37790476Y-106500000D01*
X37885714Y-106404761D01*
X38028571Y-106261904D01*
X38123809Y-106214285D01*
X38219047Y-106214285D01*
X38171428Y-106452380D02*
X38266666Y-106404761D01*
X38361904Y-106309523D01*
X38409523Y-106119047D01*
X38409523Y-105785714D01*
X38361904Y-105595238D01*
X38266666Y-105500000D01*
X38171428Y-105452380D01*
X37980952Y-105452380D01*
X37885714Y-105500000D01*
X37790476Y-105595238D01*
X37742857Y-105785714D01*
X37742857Y-106119047D01*
X37790476Y-106309523D01*
X37885714Y-106404761D01*
X37980952Y-106452380D01*
X38171428Y-106452380D01*
X36790476Y-106452380D02*
X37361904Y-106452380D01*
X37076190Y-106452380D02*
X37076190Y-105452380D01*
X37171428Y-105595238D01*
X37266666Y-105690476D01*
X37361904Y-105738095D01*
G04 #@! TO.C,R7*
X55702380Y-70333333D02*
X55226190Y-70000000D01*
X55702380Y-69761904D02*
X54702380Y-69761904D01*
X54702380Y-70142857D01*
X54750000Y-70238095D01*
X54797619Y-70285714D01*
X54892857Y-70333333D01*
X55035714Y-70333333D01*
X55130952Y-70285714D01*
X55178571Y-70238095D01*
X55226190Y-70142857D01*
X55226190Y-69761904D01*
X54702380Y-70666666D02*
X54702380Y-71333333D01*
X55702380Y-70904761D01*
G04 #@! TO.C,R8*
X65141666Y-74852380D02*
X65475000Y-74376190D01*
X65713095Y-74852380D02*
X65713095Y-73852380D01*
X65332142Y-73852380D01*
X65236904Y-73900000D01*
X65189285Y-73947619D01*
X65141666Y-74042857D01*
X65141666Y-74185714D01*
X65189285Y-74280952D01*
X65236904Y-74328571D01*
X65332142Y-74376190D01*
X65713095Y-74376190D01*
X64570238Y-74280952D02*
X64665476Y-74233333D01*
X64713095Y-74185714D01*
X64760714Y-74090476D01*
X64760714Y-74042857D01*
X64713095Y-73947619D01*
X64665476Y-73900000D01*
X64570238Y-73852380D01*
X64379761Y-73852380D01*
X64284523Y-73900000D01*
X64236904Y-73947619D01*
X64189285Y-74042857D01*
X64189285Y-74090476D01*
X64236904Y-74185714D01*
X64284523Y-74233333D01*
X64379761Y-74280952D01*
X64570238Y-74280952D01*
X64665476Y-74328571D01*
X64713095Y-74376190D01*
X64760714Y-74471428D01*
X64760714Y-74661904D01*
X64713095Y-74757142D01*
X64665476Y-74804761D01*
X64570238Y-74852380D01*
X64379761Y-74852380D01*
X64284523Y-74804761D01*
X64236904Y-74757142D01*
X64189285Y-74661904D01*
X64189285Y-74471428D01*
X64236904Y-74376190D01*
X64284523Y-74328571D01*
X64379761Y-74280952D01*
G04 #@! TO.C,C1*
X57766666Y-101357142D02*
X57814285Y-101404761D01*
X57957142Y-101452380D01*
X58052380Y-101452380D01*
X58195238Y-101404761D01*
X58290476Y-101309523D01*
X58338095Y-101214285D01*
X58385714Y-101023809D01*
X58385714Y-100880952D01*
X58338095Y-100690476D01*
X58290476Y-100595238D01*
X58195238Y-100500000D01*
X58052380Y-100452380D01*
X57957142Y-100452380D01*
X57814285Y-100500000D01*
X57766666Y-100547619D01*
X56814285Y-101452380D02*
X57385714Y-101452380D01*
X57100000Y-101452380D02*
X57100000Y-100452380D01*
X57195238Y-100595238D01*
X57290476Y-100690476D01*
X57385714Y-100738095D01*
G04 #@! TO.C,C4*
X42357142Y-102233333D02*
X42404761Y-102185714D01*
X42452380Y-102042857D01*
X42452380Y-101947619D01*
X42404761Y-101804761D01*
X42309523Y-101709523D01*
X42214285Y-101661904D01*
X42023809Y-101614285D01*
X41880952Y-101614285D01*
X41690476Y-101661904D01*
X41595238Y-101709523D01*
X41500000Y-101804761D01*
X41452380Y-101947619D01*
X41452380Y-102042857D01*
X41500000Y-102185714D01*
X41547619Y-102233333D01*
X41785714Y-103090476D02*
X42452380Y-103090476D01*
X41404761Y-102852380D02*
X42119047Y-102614285D01*
X42119047Y-103233333D01*
G04 #@! TO.C,C5*
X54941666Y-96707142D02*
X54989285Y-96754761D01*
X55132142Y-96802380D01*
X55227380Y-96802380D01*
X55370238Y-96754761D01*
X55465476Y-96659523D01*
X55513095Y-96564285D01*
X55560714Y-96373809D01*
X55560714Y-96230952D01*
X55513095Y-96040476D01*
X55465476Y-95945238D01*
X55370238Y-95850000D01*
X55227380Y-95802380D01*
X55132142Y-95802380D01*
X54989285Y-95850000D01*
X54941666Y-95897619D01*
X54036904Y-95802380D02*
X54513095Y-95802380D01*
X54560714Y-96278571D01*
X54513095Y-96230952D01*
X54417857Y-96183333D01*
X54179761Y-96183333D01*
X54084523Y-96230952D01*
X54036904Y-96278571D01*
X53989285Y-96373809D01*
X53989285Y-96611904D01*
X54036904Y-96707142D01*
X54084523Y-96754761D01*
X54179761Y-96802380D01*
X54417857Y-96802380D01*
X54513095Y-96754761D01*
X54560714Y-96707142D01*
G04 #@! TO.C,C6*
X65166666Y-69357142D02*
X65214285Y-69404761D01*
X65357142Y-69452380D01*
X65452380Y-69452380D01*
X65595238Y-69404761D01*
X65690476Y-69309523D01*
X65738095Y-69214285D01*
X65785714Y-69023809D01*
X65785714Y-68880952D01*
X65738095Y-68690476D01*
X65690476Y-68595238D01*
X65595238Y-68500000D01*
X65452380Y-68452380D01*
X65357142Y-68452380D01*
X65214285Y-68500000D01*
X65166666Y-68547619D01*
X64309523Y-68452380D02*
X64500000Y-68452380D01*
X64595238Y-68500000D01*
X64642857Y-68547619D01*
X64738095Y-68690476D01*
X64785714Y-68880952D01*
X64785714Y-69261904D01*
X64738095Y-69357142D01*
X64690476Y-69404761D01*
X64595238Y-69452380D01*
X64404761Y-69452380D01*
X64309523Y-69404761D01*
X64261904Y-69357142D01*
X64214285Y-69261904D01*
X64214285Y-69023809D01*
X64261904Y-68928571D01*
X64309523Y-68880952D01*
X64404761Y-68833333D01*
X64595238Y-68833333D01*
X64690476Y-68880952D01*
X64738095Y-68928571D01*
X64785714Y-69023809D01*
G04 #@! TO.C,C7*
X55607142Y-74258333D02*
X55654761Y-74210714D01*
X55702380Y-74067857D01*
X55702380Y-73972619D01*
X55654761Y-73829761D01*
X55559523Y-73734523D01*
X55464285Y-73686904D01*
X55273809Y-73639285D01*
X55130952Y-73639285D01*
X54940476Y-73686904D01*
X54845238Y-73734523D01*
X54750000Y-73829761D01*
X54702380Y-73972619D01*
X54702380Y-74067857D01*
X54750000Y-74210714D01*
X54797619Y-74258333D01*
X54702380Y-74591666D02*
X54702380Y-75258333D01*
X55702380Y-74829761D01*
G04 #@! TO.C,C11*
X40642857Y-87607142D02*
X40690476Y-87654761D01*
X40833333Y-87702380D01*
X40928571Y-87702380D01*
X41071428Y-87654761D01*
X41166666Y-87559523D01*
X41214285Y-87464285D01*
X41261904Y-87273809D01*
X41261904Y-87130952D01*
X41214285Y-86940476D01*
X41166666Y-86845238D01*
X41071428Y-86750000D01*
X40928571Y-86702380D01*
X40833333Y-86702380D01*
X40690476Y-86750000D01*
X40642857Y-86797619D01*
X39690476Y-87702380D02*
X40261904Y-87702380D01*
X39976190Y-87702380D02*
X39976190Y-86702380D01*
X40071428Y-86845238D01*
X40166666Y-86940476D01*
X40261904Y-86988095D01*
X38738095Y-87702380D02*
X39309523Y-87702380D01*
X39023809Y-87702380D02*
X39023809Y-86702380D01*
X39119047Y-86845238D01*
X39214285Y-86940476D01*
X39309523Y-86988095D01*
G04 #@! TO.C,C12*
D10*
X47750000Y-93550000D02*
X47783333Y-93516666D01*
X47816666Y-93416666D01*
X47816666Y-93350000D01*
X47783333Y-93250000D01*
X47716666Y-93183333D01*
X47650000Y-93150000D01*
X47516666Y-93116666D01*
X47416666Y-93116666D01*
X47283333Y-93150000D01*
X47216666Y-93183333D01*
X47150000Y-93250000D01*
X47116666Y-93350000D01*
X47116666Y-93416666D01*
X47150000Y-93516666D01*
X47183333Y-93550000D01*
X47816666Y-94216666D02*
X47816666Y-93816666D01*
X47816666Y-94016666D02*
X47116666Y-94016666D01*
X47216666Y-93950000D01*
X47283333Y-93883333D01*
X47316666Y-93816666D01*
X47183333Y-94483333D02*
X47150000Y-94516666D01*
X47116666Y-94583333D01*
X47116666Y-94750000D01*
X47150000Y-94816666D01*
X47183333Y-94850000D01*
X47250000Y-94883333D01*
X47316666Y-94883333D01*
X47416666Y-94850000D01*
X47816666Y-94450000D01*
X47816666Y-94883333D01*
G04 #@! TO.C,R1*
D11*
X48952380Y-84583333D02*
X48476190Y-84250000D01*
X48952380Y-84011904D02*
X47952380Y-84011904D01*
X47952380Y-84392857D01*
X48000000Y-84488095D01*
X48047619Y-84535714D01*
X48142857Y-84583333D01*
X48285714Y-84583333D01*
X48380952Y-84535714D01*
X48428571Y-84488095D01*
X48476190Y-84392857D01*
X48476190Y-84011904D01*
X48952380Y-85535714D02*
X48952380Y-84964285D01*
X48952380Y-85250000D02*
X47952380Y-85250000D01*
X48095238Y-85154761D01*
X48190476Y-85059523D01*
X48238095Y-84964285D01*
G04 #@! TO.C,R2*
X54166666Y-82452380D02*
X54500000Y-81976190D01*
X54738095Y-82452380D02*
X54738095Y-81452380D01*
X54357142Y-81452380D01*
X54261904Y-81500000D01*
X54214285Y-81547619D01*
X54166666Y-81642857D01*
X54166666Y-81785714D01*
X54214285Y-81880952D01*
X54261904Y-81928571D01*
X54357142Y-81976190D01*
X54738095Y-81976190D01*
X53785714Y-81547619D02*
X53738095Y-81500000D01*
X53642857Y-81452380D01*
X53404761Y-81452380D01*
X53309523Y-81500000D01*
X53261904Y-81547619D01*
X53214285Y-81642857D01*
X53214285Y-81738095D01*
X53261904Y-81880952D01*
X53833333Y-82452380D01*
X53214285Y-82452380D01*
G04 #@! TO.C,R3*
X54891666Y-92802380D02*
X55225000Y-92326190D01*
X55463095Y-92802380D02*
X55463095Y-91802380D01*
X55082142Y-91802380D01*
X54986904Y-91850000D01*
X54939285Y-91897619D01*
X54891666Y-91992857D01*
X54891666Y-92135714D01*
X54939285Y-92230952D01*
X54986904Y-92278571D01*
X55082142Y-92326190D01*
X55463095Y-92326190D01*
X54558333Y-91802380D02*
X53939285Y-91802380D01*
X54272619Y-92183333D01*
X54129761Y-92183333D01*
X54034523Y-92230952D01*
X53986904Y-92278571D01*
X53939285Y-92373809D01*
X53939285Y-92611904D01*
X53986904Y-92707142D01*
X54034523Y-92754761D01*
X54129761Y-92802380D01*
X54415476Y-92802380D01*
X54510714Y-92754761D01*
X54558333Y-92707142D01*
G04 #@! TO.C,R6*
X57666666Y-84702380D02*
X58000000Y-84226190D01*
X58238095Y-84702380D02*
X58238095Y-83702380D01*
X57857142Y-83702380D01*
X57761904Y-83750000D01*
X57714285Y-83797619D01*
X57666666Y-83892857D01*
X57666666Y-84035714D01*
X57714285Y-84130952D01*
X57761904Y-84178571D01*
X57857142Y-84226190D01*
X58238095Y-84226190D01*
X56809523Y-83702380D02*
X57000000Y-83702380D01*
X57095238Y-83750000D01*
X57142857Y-83797619D01*
X57238095Y-83940476D01*
X57285714Y-84130952D01*
X57285714Y-84511904D01*
X57238095Y-84607142D01*
X57190476Y-84654761D01*
X57095238Y-84702380D01*
X56904761Y-84702380D01*
X56809523Y-84654761D01*
X56761904Y-84607142D01*
X56714285Y-84511904D01*
X56714285Y-84273809D01*
X56761904Y-84178571D01*
X56809523Y-84130952D01*
X56904761Y-84083333D01*
X57095238Y-84083333D01*
X57190476Y-84130952D01*
X57238095Y-84178571D01*
X57285714Y-84273809D01*
G04 #@! TO.C,R9*
X50191666Y-90702380D02*
X50525000Y-90226190D01*
X50763095Y-90702380D02*
X50763095Y-89702380D01*
X50382142Y-89702380D01*
X50286904Y-89750000D01*
X50239285Y-89797619D01*
X50191666Y-89892857D01*
X50191666Y-90035714D01*
X50239285Y-90130952D01*
X50286904Y-90178571D01*
X50382142Y-90226190D01*
X50763095Y-90226190D01*
X49715476Y-90702380D02*
X49525000Y-90702380D01*
X49429761Y-90654761D01*
X49382142Y-90607142D01*
X49286904Y-90464285D01*
X49239285Y-90273809D01*
X49239285Y-89892857D01*
X49286904Y-89797619D01*
X49334523Y-89750000D01*
X49429761Y-89702380D01*
X49620238Y-89702380D01*
X49715476Y-89750000D01*
X49763095Y-89797619D01*
X49810714Y-89892857D01*
X49810714Y-90130952D01*
X49763095Y-90226190D01*
X49715476Y-90273809D01*
X49620238Y-90321428D01*
X49429761Y-90321428D01*
X49334523Y-90273809D01*
X49286904Y-90226190D01*
X49239285Y-90130952D01*
G04 #@! TO.C,U1*
X56952380Y-88488095D02*
X57761904Y-88488095D01*
X57857142Y-88535714D01*
X57904761Y-88583333D01*
X57952380Y-88678571D01*
X57952380Y-88869047D01*
X57904761Y-88964285D01*
X57857142Y-89011904D01*
X57761904Y-89059523D01*
X56952380Y-89059523D01*
X57952380Y-90059523D02*
X57952380Y-89488095D01*
X57952380Y-89773809D02*
X56952380Y-89773809D01*
X57095238Y-89678571D01*
X57190476Y-89583333D01*
X57238095Y-89488095D01*
G04 #@! TO.C,C9*
X33357142Y-96633333D02*
X33404761Y-96585714D01*
X33452380Y-96442857D01*
X33452380Y-96347619D01*
X33404761Y-96204761D01*
X33309523Y-96109523D01*
X33214285Y-96061904D01*
X33023809Y-96014285D01*
X32880952Y-96014285D01*
X32690476Y-96061904D01*
X32595238Y-96109523D01*
X32500000Y-96204761D01*
X32452380Y-96347619D01*
X32452380Y-96442857D01*
X32500000Y-96585714D01*
X32547619Y-96633333D01*
X33452380Y-97109523D02*
X33452380Y-97300000D01*
X33404761Y-97395238D01*
X33357142Y-97442857D01*
X33214285Y-97538095D01*
X33023809Y-97585714D01*
X32642857Y-97585714D01*
X32547619Y-97538095D01*
X32500000Y-97490476D01*
X32452380Y-97395238D01*
X32452380Y-97204761D01*
X32500000Y-97109523D01*
X32547619Y-97061904D01*
X32642857Y-97014285D01*
X32880952Y-97014285D01*
X32976190Y-97061904D01*
X33023809Y-97109523D01*
X33071428Y-97204761D01*
X33071428Y-97395238D01*
X33023809Y-97490476D01*
X32976190Y-97538095D01*
X32880952Y-97585714D01*
G04 #@! TO.C,C13*
X51107142Y-83607142D02*
X51154761Y-83559523D01*
X51202380Y-83416666D01*
X51202380Y-83321428D01*
X51154761Y-83178571D01*
X51059523Y-83083333D01*
X50964285Y-83035714D01*
X50773809Y-82988095D01*
X50630952Y-82988095D01*
X50440476Y-83035714D01*
X50345238Y-83083333D01*
X50250000Y-83178571D01*
X50202380Y-83321428D01*
X50202380Y-83416666D01*
X50250000Y-83559523D01*
X50297619Y-83607142D01*
X51202380Y-84559523D02*
X51202380Y-83988095D01*
X51202380Y-84273809D02*
X50202380Y-84273809D01*
X50345238Y-84178571D01*
X50440476Y-84083333D01*
X50488095Y-83988095D01*
X50202380Y-84892857D02*
X50202380Y-85511904D01*
X50583333Y-85178571D01*
X50583333Y-85321428D01*
X50630952Y-85416666D01*
X50678571Y-85464285D01*
X50773809Y-85511904D01*
X51011904Y-85511904D01*
X51107142Y-85464285D01*
X51154761Y-85416666D01*
X51202380Y-85321428D01*
X51202380Y-85035714D01*
X51154761Y-84940476D01*
X51107142Y-84892857D01*
G04 #@! TD*
M02*
