G04 #@! TF.GenerationSoftware,KiCad,Pcbnew,5.0.2-bee76a0~70~ubuntu18.04.1*
G04 #@! TF.CreationDate,2019-08-17T16:59:23+02:00*
G04 #@! TF.ProjectId,HAN_ESP_TSS721,48414e5f-4553-4505-9f54-53533732312e,rev?*
G04 #@! TF.SameCoordinates,Original*
G04 #@! TF.FileFunction,Soldermask,Bot*
G04 #@! TF.FilePolarity,Negative*
%FSLAX46Y46*%
G04 Gerber Fmt 4.6, Leading zero omitted, Abs format (unit mm)*
G04 Created by KiCad (PCBNEW 5.0.2-bee76a0~70~ubuntu18.04.1) date Sat 17 Aug 2019 04:59:23 PM CEST*
%MOMM*%
%LPD*%
G01*
G04 APERTURE LIST*
%ADD10C,0.100000*%
G04 APERTURE END LIST*
D10*
G36*
X67650000Y-112850000D02*
X65550000Y-112850000D01*
X65550000Y-110750000D01*
X67650000Y-110750000D01*
X67650000Y-112850000D01*
X67650000Y-112850000D01*
G37*
G36*
X66728707Y-108217596D02*
X66805836Y-108225193D01*
X66937787Y-108265220D01*
X67003763Y-108285233D01*
X67186172Y-108382733D01*
X67346054Y-108513946D01*
X67477267Y-108673828D01*
X67574767Y-108856237D01*
X67574767Y-108856238D01*
X67634807Y-109054164D01*
X67655080Y-109260000D01*
X67634807Y-109465836D01*
X67594780Y-109597787D01*
X67574767Y-109663763D01*
X67477267Y-109846172D01*
X67346054Y-110006054D01*
X67186172Y-110137267D01*
X67003763Y-110234767D01*
X66937787Y-110254780D01*
X66805836Y-110294807D01*
X66728707Y-110302403D01*
X66651580Y-110310000D01*
X66548420Y-110310000D01*
X66471293Y-110302403D01*
X66394164Y-110294807D01*
X66262213Y-110254780D01*
X66196237Y-110234767D01*
X66013828Y-110137267D01*
X65853946Y-110006054D01*
X65722733Y-109846172D01*
X65625233Y-109663763D01*
X65605220Y-109597787D01*
X65565193Y-109465836D01*
X65544920Y-109260000D01*
X65565193Y-109054164D01*
X65625233Y-108856238D01*
X65625233Y-108856237D01*
X65722733Y-108673828D01*
X65853946Y-108513946D01*
X66013828Y-108382733D01*
X66196237Y-108285233D01*
X66262213Y-108265220D01*
X66394164Y-108225193D01*
X66471293Y-108217596D01*
X66548420Y-108210000D01*
X66651580Y-108210000D01*
X66728707Y-108217596D01*
X66728707Y-108217596D01*
G37*
G36*
X66728707Y-105677596D02*
X66805836Y-105685193D01*
X66925768Y-105721574D01*
X67003763Y-105745233D01*
X67186172Y-105842733D01*
X67346054Y-105973946D01*
X67477267Y-106133828D01*
X67574767Y-106316237D01*
X67592395Y-106374351D01*
X67634807Y-106514164D01*
X67655080Y-106720000D01*
X67634807Y-106925836D01*
X67594780Y-107057787D01*
X67574767Y-107123763D01*
X67477267Y-107306172D01*
X67346054Y-107466054D01*
X67186172Y-107597267D01*
X67003763Y-107694767D01*
X66937787Y-107714780D01*
X66805836Y-107754807D01*
X66728707Y-107762404D01*
X66651580Y-107770000D01*
X66548420Y-107770000D01*
X66471293Y-107762404D01*
X66394164Y-107754807D01*
X66262213Y-107714780D01*
X66196237Y-107694767D01*
X66013828Y-107597267D01*
X65853946Y-107466054D01*
X65722733Y-107306172D01*
X65625233Y-107123763D01*
X65605220Y-107057787D01*
X65565193Y-106925836D01*
X65544920Y-106720000D01*
X65565193Y-106514164D01*
X65607605Y-106374351D01*
X65625233Y-106316237D01*
X65722733Y-106133828D01*
X65853946Y-105973946D01*
X66013828Y-105842733D01*
X66196237Y-105745233D01*
X66274232Y-105721574D01*
X66394164Y-105685193D01*
X66471293Y-105677597D01*
X66548420Y-105670000D01*
X66651580Y-105670000D01*
X66728707Y-105677596D01*
X66728707Y-105677596D01*
G37*
G36*
X55275000Y-107110000D02*
X54425000Y-107110000D01*
X54425000Y-105210000D01*
X55275000Y-105210000D01*
X55275000Y-107110000D01*
X55275000Y-107110000D01*
G37*
G36*
X41075000Y-106530000D02*
X40225000Y-106530000D01*
X40225000Y-104630000D01*
X41075000Y-104630000D01*
X41075000Y-106530000D01*
X41075000Y-106530000D01*
G37*
G36*
X39775000Y-106530000D02*
X38925000Y-106530000D01*
X38925000Y-104630000D01*
X39775000Y-104630000D01*
X39775000Y-106530000D01*
X39775000Y-106530000D01*
G37*
G36*
X46060530Y-104605710D02*
X46110379Y-104620831D01*
X46156311Y-104645382D01*
X46196574Y-104678426D01*
X46229618Y-104718689D01*
X46254169Y-104764621D01*
X46269290Y-104814470D01*
X46275000Y-104872444D01*
X46275000Y-106127556D01*
X46269290Y-106185530D01*
X46254169Y-106235379D01*
X46229618Y-106281311D01*
X46196574Y-106321574D01*
X46156311Y-106354618D01*
X46110379Y-106379169D01*
X46060530Y-106394290D01*
X46002556Y-106400000D01*
X44997444Y-106400000D01*
X44939470Y-106394290D01*
X44889621Y-106379169D01*
X44843689Y-106354618D01*
X44803426Y-106321574D01*
X44770382Y-106281311D01*
X44745831Y-106235379D01*
X44730710Y-106185530D01*
X44725000Y-106127556D01*
X44725000Y-104872444D01*
X44730710Y-104814470D01*
X44745831Y-104764621D01*
X44770382Y-104718689D01*
X44803426Y-104678426D01*
X44843689Y-104645382D01*
X44889621Y-104620831D01*
X44939470Y-104605710D01*
X44997444Y-104600000D01*
X46002556Y-104600000D01*
X46060530Y-104605710D01*
X46060530Y-104605710D01*
G37*
G36*
X44010530Y-104605710D02*
X44060379Y-104620831D01*
X44106311Y-104645382D01*
X44146574Y-104678426D01*
X44179618Y-104718689D01*
X44204169Y-104764621D01*
X44219290Y-104814470D01*
X44225000Y-104872444D01*
X44225000Y-106127556D01*
X44219290Y-106185530D01*
X44204169Y-106235379D01*
X44179618Y-106281311D01*
X44146574Y-106321574D01*
X44106311Y-106354618D01*
X44060379Y-106379169D01*
X44010530Y-106394290D01*
X43952556Y-106400000D01*
X42947444Y-106400000D01*
X42889470Y-106394290D01*
X42839621Y-106379169D01*
X42793689Y-106354618D01*
X42753426Y-106321574D01*
X42720382Y-106281311D01*
X42695831Y-106235379D01*
X42680710Y-106185530D01*
X42675000Y-106127556D01*
X42675000Y-104872444D01*
X42680710Y-104814470D01*
X42695831Y-104764621D01*
X42720382Y-104718689D01*
X42753426Y-104678426D01*
X42793689Y-104645382D01*
X42839621Y-104620831D01*
X42889470Y-104605710D01*
X42947444Y-104600000D01*
X43952556Y-104600000D01*
X44010530Y-104605710D01*
X44010530Y-104605710D01*
G37*
G36*
X59603465Y-103413044D02*
X59808365Y-103453801D01*
X59988523Y-103528425D01*
X60021275Y-103541991D01*
X60063149Y-103559336D01*
X60231125Y-103671574D01*
X60292451Y-103712551D01*
X60487449Y-103907549D01*
X60487451Y-103907552D01*
X60640664Y-104136851D01*
X60746199Y-104391635D01*
X60760687Y-104464470D01*
X60784416Y-104583763D01*
X60800000Y-104662112D01*
X60800000Y-104937888D01*
X60746199Y-105208365D01*
X60737237Y-105230000D01*
X60640708Y-105463044D01*
X60640664Y-105463149D01*
X60596810Y-105528781D01*
X60487449Y-105692451D01*
X60292451Y-105887449D01*
X60292448Y-105887451D01*
X60063149Y-106040664D01*
X59808365Y-106146199D01*
X59673127Y-106173099D01*
X59537889Y-106200000D01*
X59262111Y-106200000D01*
X59126873Y-106173099D01*
X58991635Y-106146199D01*
X58736851Y-106040664D01*
X58507552Y-105887451D01*
X58507549Y-105887449D01*
X58312551Y-105692451D01*
X58203190Y-105528781D01*
X58159336Y-105463149D01*
X58159293Y-105463044D01*
X58062763Y-105230000D01*
X58053801Y-105208365D01*
X58000000Y-104937888D01*
X58000000Y-104662112D01*
X58015585Y-104583763D01*
X58039313Y-104464470D01*
X58053801Y-104391635D01*
X58159336Y-104136851D01*
X58312549Y-103907552D01*
X58312551Y-103907549D01*
X58507549Y-103712551D01*
X58568875Y-103671574D01*
X58736851Y-103559336D01*
X58778726Y-103541991D01*
X58811477Y-103528425D01*
X58991635Y-103453801D01*
X59196535Y-103413044D01*
X59262111Y-103400000D01*
X59537889Y-103400000D01*
X59603465Y-103413044D01*
X59603465Y-103413044D01*
G37*
G36*
X48685530Y-104255710D02*
X48735379Y-104270831D01*
X48781311Y-104295382D01*
X48821574Y-104328426D01*
X48854618Y-104368689D01*
X48879169Y-104414621D01*
X48894290Y-104464470D01*
X48900000Y-104522444D01*
X48900000Y-105527556D01*
X48894290Y-105585530D01*
X48879169Y-105635379D01*
X48854618Y-105681311D01*
X48821574Y-105721574D01*
X48781311Y-105754618D01*
X48735379Y-105779169D01*
X48685530Y-105794290D01*
X48627556Y-105800000D01*
X47372444Y-105800000D01*
X47314470Y-105794290D01*
X47264621Y-105779169D01*
X47218689Y-105754618D01*
X47178426Y-105721574D01*
X47145382Y-105681311D01*
X47120831Y-105635379D01*
X47105710Y-105585530D01*
X47100000Y-105527556D01*
X47100000Y-104522444D01*
X47105710Y-104464470D01*
X47120831Y-104414621D01*
X47145382Y-104368689D01*
X47178426Y-104328426D01*
X47218689Y-104295382D01*
X47264621Y-104270831D01*
X47314470Y-104255710D01*
X47372444Y-104250000D01*
X48627556Y-104250000D01*
X48685530Y-104255710D01*
X48685530Y-104255710D01*
G37*
G36*
X51685530Y-104255710D02*
X51735379Y-104270831D01*
X51781311Y-104295382D01*
X51821574Y-104328426D01*
X51854618Y-104368689D01*
X51879169Y-104414621D01*
X51894290Y-104464470D01*
X51900000Y-104522444D01*
X51900000Y-105527556D01*
X51894290Y-105585530D01*
X51879169Y-105635379D01*
X51854618Y-105681311D01*
X51821574Y-105721574D01*
X51781311Y-105754618D01*
X51735379Y-105779169D01*
X51685530Y-105794290D01*
X51627556Y-105800000D01*
X50372444Y-105800000D01*
X50314470Y-105794290D01*
X50264621Y-105779169D01*
X50218689Y-105754618D01*
X50178426Y-105721574D01*
X50145382Y-105681311D01*
X50120831Y-105635379D01*
X50105710Y-105585530D01*
X50100000Y-105527556D01*
X50100000Y-104522444D01*
X50105710Y-104464470D01*
X50120831Y-104414621D01*
X50145382Y-104368689D01*
X50178426Y-104328426D01*
X50218689Y-104295382D01*
X50264621Y-104270831D01*
X50314470Y-104255710D01*
X50372444Y-104250000D01*
X51627556Y-104250000D01*
X51685530Y-104255710D01*
X51685530Y-104255710D01*
G37*
G36*
X66728707Y-103137596D02*
X66805836Y-103145193D01*
X66937787Y-103185220D01*
X67003763Y-103205233D01*
X67186172Y-103302733D01*
X67346054Y-103433946D01*
X67477267Y-103593828D01*
X67574767Y-103776237D01*
X67574767Y-103776238D01*
X67634807Y-103974164D01*
X67655080Y-104180000D01*
X67634807Y-104385836D01*
X67594780Y-104517787D01*
X67574767Y-104583763D01*
X67477267Y-104766172D01*
X67346054Y-104926054D01*
X67186172Y-105057267D01*
X67003763Y-105154767D01*
X66937787Y-105174780D01*
X66805836Y-105214807D01*
X66728707Y-105222404D01*
X66651580Y-105230000D01*
X66548420Y-105230000D01*
X66471293Y-105222403D01*
X66394164Y-105214807D01*
X66262213Y-105174780D01*
X66196237Y-105154767D01*
X66013828Y-105057267D01*
X65853946Y-104926054D01*
X65722733Y-104766172D01*
X65625233Y-104583763D01*
X65605220Y-104517787D01*
X65565193Y-104385836D01*
X65544920Y-104180000D01*
X65565193Y-103974164D01*
X65625233Y-103776238D01*
X65625233Y-103776237D01*
X65722733Y-103593828D01*
X65853946Y-103433946D01*
X66013828Y-103302733D01*
X66196237Y-103205233D01*
X66262213Y-103185220D01*
X66394164Y-103145193D01*
X66471293Y-103137597D01*
X66548420Y-103130000D01*
X66651580Y-103130000D01*
X66728707Y-103137596D01*
X66728707Y-103137596D01*
G37*
G36*
X54625000Y-104450000D02*
X53775000Y-104450000D01*
X53775000Y-102550000D01*
X54625000Y-102550000D01*
X54625000Y-104450000D01*
X54625000Y-104450000D01*
G37*
G36*
X55925000Y-104450000D02*
X55075000Y-104450000D01*
X55075000Y-102550000D01*
X55925000Y-102550000D01*
X55925000Y-104450000D01*
X55925000Y-104450000D01*
G37*
G36*
X40425000Y-103870000D02*
X39575000Y-103870000D01*
X39575000Y-101970000D01*
X40425000Y-101970000D01*
X40425000Y-103870000D01*
X40425000Y-103870000D01*
G37*
G36*
X51685530Y-102205710D02*
X51735379Y-102220831D01*
X51781311Y-102245382D01*
X51821574Y-102278426D01*
X51854618Y-102318689D01*
X51879169Y-102364621D01*
X51894290Y-102414470D01*
X51900000Y-102472444D01*
X51900000Y-103477556D01*
X51894290Y-103535530D01*
X51879169Y-103585379D01*
X51854618Y-103631311D01*
X51821574Y-103671574D01*
X51781311Y-103704618D01*
X51735379Y-103729169D01*
X51685530Y-103744290D01*
X51627556Y-103750000D01*
X50372444Y-103750000D01*
X50314470Y-103744290D01*
X50264621Y-103729169D01*
X50218689Y-103704618D01*
X50178426Y-103671574D01*
X50145382Y-103631311D01*
X50120831Y-103585379D01*
X50105710Y-103535530D01*
X50100000Y-103477556D01*
X50100000Y-102472444D01*
X50105710Y-102414470D01*
X50120831Y-102364621D01*
X50145382Y-102318689D01*
X50178426Y-102278426D01*
X50218689Y-102245382D01*
X50264621Y-102220831D01*
X50314470Y-102205710D01*
X50372444Y-102200000D01*
X51627556Y-102200000D01*
X51685530Y-102205710D01*
X51685530Y-102205710D01*
G37*
G36*
X48685530Y-102205710D02*
X48735379Y-102220831D01*
X48781311Y-102245382D01*
X48821574Y-102278426D01*
X48854618Y-102318689D01*
X48879169Y-102364621D01*
X48894290Y-102414470D01*
X48900000Y-102472444D01*
X48900000Y-103477556D01*
X48894290Y-103535530D01*
X48879169Y-103585379D01*
X48854618Y-103631311D01*
X48821574Y-103671574D01*
X48781311Y-103704618D01*
X48735379Y-103729169D01*
X48685530Y-103744290D01*
X48627556Y-103750000D01*
X47372444Y-103750000D01*
X47314470Y-103744290D01*
X47264621Y-103729169D01*
X47218689Y-103704618D01*
X47178426Y-103671574D01*
X47145382Y-103631311D01*
X47120831Y-103585379D01*
X47105710Y-103535530D01*
X47100000Y-103477556D01*
X47100000Y-102472444D01*
X47105710Y-102414470D01*
X47120831Y-102364621D01*
X47145382Y-102318689D01*
X47178426Y-102278426D01*
X47218689Y-102245382D01*
X47264621Y-102220831D01*
X47314470Y-102205710D01*
X47372444Y-102200000D01*
X48627556Y-102200000D01*
X48685530Y-102205710D01*
X48685530Y-102205710D01*
G37*
G36*
X46085530Y-101605710D02*
X46135379Y-101620831D01*
X46181311Y-101645382D01*
X46221574Y-101678426D01*
X46254618Y-101718689D01*
X46279169Y-101764621D01*
X46294290Y-101814470D01*
X46300000Y-101872444D01*
X46300000Y-103127556D01*
X46294290Y-103185530D01*
X46279169Y-103235379D01*
X46254618Y-103281311D01*
X46221574Y-103321574D01*
X46181311Y-103354618D01*
X46135379Y-103379169D01*
X46085530Y-103394290D01*
X46027556Y-103400000D01*
X45022444Y-103400000D01*
X44964470Y-103394290D01*
X44914621Y-103379169D01*
X44868689Y-103354618D01*
X44828426Y-103321574D01*
X44795382Y-103281311D01*
X44770831Y-103235379D01*
X44755710Y-103185530D01*
X44750000Y-103127556D01*
X44750000Y-101872444D01*
X44755710Y-101814470D01*
X44770831Y-101764621D01*
X44795382Y-101718689D01*
X44828426Y-101678426D01*
X44868689Y-101645382D01*
X44914621Y-101620831D01*
X44964470Y-101605710D01*
X45022444Y-101600000D01*
X46027556Y-101600000D01*
X46085530Y-101605710D01*
X46085530Y-101605710D01*
G37*
G36*
X44035530Y-101605710D02*
X44085379Y-101620831D01*
X44131311Y-101645382D01*
X44171574Y-101678426D01*
X44204618Y-101718689D01*
X44229169Y-101764621D01*
X44244290Y-101814470D01*
X44250000Y-101872444D01*
X44250000Y-103127556D01*
X44244290Y-103185530D01*
X44229169Y-103235379D01*
X44204618Y-103281311D01*
X44171574Y-103321574D01*
X44131311Y-103354618D01*
X44085379Y-103379169D01*
X44035530Y-103394290D01*
X43977556Y-103400000D01*
X42972444Y-103400000D01*
X42914470Y-103394290D01*
X42864621Y-103379169D01*
X42818689Y-103354618D01*
X42778426Y-103321574D01*
X42745382Y-103281311D01*
X42720831Y-103235379D01*
X42705710Y-103185530D01*
X42700000Y-103127556D01*
X42700000Y-101872444D01*
X42705710Y-101814470D01*
X42720831Y-101764621D01*
X42745382Y-101718689D01*
X42778426Y-101678426D01*
X42818689Y-101645382D01*
X42864621Y-101620831D01*
X42914470Y-101605710D01*
X42972444Y-101600000D01*
X43977556Y-101600000D01*
X44035530Y-101605710D01*
X44035530Y-101605710D01*
G37*
G36*
X35060530Y-101105710D02*
X35110379Y-101120831D01*
X35156311Y-101145382D01*
X35196574Y-101178426D01*
X35229618Y-101218689D01*
X35254169Y-101264621D01*
X35269290Y-101314470D01*
X35275000Y-101372444D01*
X35275000Y-102627556D01*
X35269290Y-102685530D01*
X35254169Y-102735379D01*
X35229618Y-102781311D01*
X35196574Y-102821574D01*
X35156311Y-102854618D01*
X35110379Y-102879169D01*
X35060530Y-102894290D01*
X35002556Y-102900000D01*
X33997444Y-102900000D01*
X33939470Y-102894290D01*
X33889621Y-102879169D01*
X33843689Y-102854618D01*
X33803426Y-102821574D01*
X33770382Y-102781311D01*
X33745831Y-102735379D01*
X33730710Y-102685530D01*
X33725000Y-102627556D01*
X33725000Y-101372444D01*
X33730710Y-101314470D01*
X33745831Y-101264621D01*
X33770382Y-101218689D01*
X33803426Y-101178426D01*
X33843689Y-101145382D01*
X33889621Y-101120831D01*
X33939470Y-101105710D01*
X33997444Y-101100000D01*
X35002556Y-101100000D01*
X35060530Y-101105710D01*
X35060530Y-101105710D01*
G37*
G36*
X37110530Y-101105710D02*
X37160379Y-101120831D01*
X37206311Y-101145382D01*
X37246574Y-101178426D01*
X37279618Y-101218689D01*
X37304169Y-101264621D01*
X37319290Y-101314470D01*
X37325000Y-101372444D01*
X37325000Y-102627556D01*
X37319290Y-102685530D01*
X37304169Y-102735379D01*
X37279618Y-102781311D01*
X37246574Y-102821574D01*
X37206311Y-102854618D01*
X37160379Y-102879169D01*
X37110530Y-102894290D01*
X37052556Y-102900000D01*
X36047444Y-102900000D01*
X35989470Y-102894290D01*
X35939621Y-102879169D01*
X35893689Y-102854618D01*
X35853426Y-102821574D01*
X35820382Y-102781311D01*
X35795831Y-102735379D01*
X35780710Y-102685530D01*
X35775000Y-102627556D01*
X35775000Y-101372444D01*
X35780710Y-101314470D01*
X35795831Y-101264621D01*
X35820382Y-101218689D01*
X35853426Y-101178426D01*
X35893689Y-101145382D01*
X35939621Y-101120831D01*
X35989470Y-101105710D01*
X36047444Y-101100000D01*
X37052556Y-101100000D01*
X37110530Y-101105710D01*
X37110530Y-101105710D01*
G37*
G36*
X66728707Y-100597596D02*
X66805836Y-100605193D01*
X66937787Y-100645220D01*
X67003763Y-100665233D01*
X67186172Y-100762733D01*
X67346054Y-100893946D01*
X67477267Y-101053828D01*
X67574767Y-101236237D01*
X67574767Y-101236238D01*
X67634807Y-101434164D01*
X67655080Y-101640000D01*
X67634807Y-101845836D01*
X67607166Y-101936956D01*
X67574767Y-102043763D01*
X67477267Y-102226172D01*
X67346054Y-102386054D01*
X67186172Y-102517267D01*
X67003763Y-102614767D01*
X66957564Y-102628781D01*
X66805836Y-102674807D01*
X66728707Y-102682403D01*
X66651580Y-102690000D01*
X66548420Y-102690000D01*
X66471293Y-102682403D01*
X66394164Y-102674807D01*
X66242436Y-102628781D01*
X66196237Y-102614767D01*
X66013828Y-102517267D01*
X65853946Y-102386054D01*
X65722733Y-102226172D01*
X65625233Y-102043763D01*
X65592834Y-101936956D01*
X65565193Y-101845836D01*
X65544920Y-101640000D01*
X65565193Y-101434164D01*
X65625233Y-101236238D01*
X65625233Y-101236237D01*
X65722733Y-101053828D01*
X65853946Y-100893946D01*
X66013828Y-100762733D01*
X66196237Y-100665233D01*
X66262213Y-100645220D01*
X66394164Y-100605193D01*
X66471293Y-100597596D01*
X66548420Y-100590000D01*
X66651580Y-100590000D01*
X66728707Y-100597596D01*
X66728707Y-100597596D01*
G37*
G36*
X54310530Y-100105710D02*
X54360379Y-100120831D01*
X54406311Y-100145382D01*
X54446574Y-100178426D01*
X54479618Y-100218689D01*
X54504169Y-100264621D01*
X54519290Y-100314470D01*
X54525000Y-100372444D01*
X54525000Y-101627556D01*
X54519290Y-101685530D01*
X54504169Y-101735379D01*
X54479618Y-101781311D01*
X54446574Y-101821574D01*
X54406311Y-101854618D01*
X54360379Y-101879169D01*
X54310530Y-101894290D01*
X54252556Y-101900000D01*
X53247444Y-101900000D01*
X53189470Y-101894290D01*
X53139621Y-101879169D01*
X53093689Y-101854618D01*
X53053426Y-101821574D01*
X53020382Y-101781311D01*
X52995831Y-101735379D01*
X52980710Y-101685530D01*
X52975000Y-101627556D01*
X52975000Y-100372444D01*
X52980710Y-100314470D01*
X52995831Y-100264621D01*
X53020382Y-100218689D01*
X53053426Y-100178426D01*
X53093689Y-100145382D01*
X53139621Y-100120831D01*
X53189470Y-100105710D01*
X53247444Y-100100000D01*
X54252556Y-100100000D01*
X54310530Y-100105710D01*
X54310530Y-100105710D01*
G37*
G36*
X56360530Y-100105710D02*
X56410379Y-100120831D01*
X56456311Y-100145382D01*
X56496574Y-100178426D01*
X56529618Y-100218689D01*
X56554169Y-100264621D01*
X56569290Y-100314470D01*
X56575000Y-100372444D01*
X56575000Y-101627556D01*
X56569290Y-101685530D01*
X56554169Y-101735379D01*
X56529618Y-101781311D01*
X56496574Y-101821574D01*
X56456311Y-101854618D01*
X56410379Y-101879169D01*
X56360530Y-101894290D01*
X56302556Y-101900000D01*
X55297444Y-101900000D01*
X55239470Y-101894290D01*
X55189621Y-101879169D01*
X55143689Y-101854618D01*
X55103426Y-101821574D01*
X55070382Y-101781311D01*
X55045831Y-101735379D01*
X55030710Y-101685530D01*
X55025000Y-101627556D01*
X55025000Y-100372444D01*
X55030710Y-100314470D01*
X55045831Y-100264621D01*
X55070382Y-100218689D01*
X55103426Y-100178426D01*
X55143689Y-100145382D01*
X55189621Y-100120831D01*
X55239470Y-100105710D01*
X55297444Y-100100000D01*
X56302556Y-100100000D01*
X56360530Y-100105710D01*
X56360530Y-100105710D01*
G37*
G36*
X49560530Y-99855710D02*
X49610379Y-99870831D01*
X49656311Y-99895382D01*
X49696574Y-99928426D01*
X49729618Y-99968689D01*
X49754169Y-100014621D01*
X49769290Y-100064470D01*
X49775000Y-100122444D01*
X49775000Y-101377556D01*
X49769290Y-101435530D01*
X49754169Y-101485379D01*
X49729618Y-101531311D01*
X49696574Y-101571574D01*
X49656311Y-101604618D01*
X49610379Y-101629169D01*
X49560530Y-101644290D01*
X49502556Y-101650000D01*
X48497444Y-101650000D01*
X48439470Y-101644290D01*
X48389621Y-101629169D01*
X48343689Y-101604618D01*
X48303426Y-101571574D01*
X48270382Y-101531311D01*
X48245831Y-101485379D01*
X48230710Y-101435530D01*
X48225000Y-101377556D01*
X48225000Y-100122444D01*
X48230710Y-100064470D01*
X48245831Y-100014621D01*
X48270382Y-99968689D01*
X48303426Y-99928426D01*
X48343689Y-99895382D01*
X48389621Y-99870831D01*
X48439470Y-99855710D01*
X48497444Y-99850000D01*
X49502556Y-99850000D01*
X49560530Y-99855710D01*
X49560530Y-99855710D01*
G37*
G36*
X51610530Y-99855710D02*
X51660379Y-99870831D01*
X51706311Y-99895382D01*
X51746574Y-99928426D01*
X51779618Y-99968689D01*
X51804169Y-100014621D01*
X51819290Y-100064470D01*
X51825000Y-100122444D01*
X51825000Y-101377556D01*
X51819290Y-101435530D01*
X51804169Y-101485379D01*
X51779618Y-101531311D01*
X51746574Y-101571574D01*
X51706311Y-101604618D01*
X51660379Y-101629169D01*
X51610530Y-101644290D01*
X51552556Y-101650000D01*
X50547444Y-101650000D01*
X50489470Y-101644290D01*
X50439621Y-101629169D01*
X50393689Y-101604618D01*
X50353426Y-101571574D01*
X50320382Y-101531311D01*
X50295831Y-101485379D01*
X50280710Y-101435530D01*
X50275000Y-101377556D01*
X50275000Y-100122444D01*
X50280710Y-100064470D01*
X50295831Y-100014621D01*
X50320382Y-99968689D01*
X50353426Y-99928426D01*
X50393689Y-99895382D01*
X50439621Y-99870831D01*
X50489470Y-99855710D01*
X50547444Y-99850000D01*
X51552556Y-99850000D01*
X51610530Y-99855710D01*
X51610530Y-99855710D01*
G37*
G36*
X46550000Y-100865000D02*
X44650000Y-100865000D01*
X44650000Y-99865000D01*
X46550000Y-99865000D01*
X46550000Y-100865000D01*
X46550000Y-100865000D01*
G37*
G36*
X41150000Y-100865000D02*
X39250000Y-100865000D01*
X39250000Y-99865000D01*
X41150000Y-99865000D01*
X41150000Y-100865000D01*
X41150000Y-100865000D01*
G37*
G36*
X35060530Y-98355710D02*
X35110379Y-98370831D01*
X35156311Y-98395382D01*
X35196574Y-98428426D01*
X35229618Y-98468689D01*
X35254169Y-98514621D01*
X35269290Y-98564470D01*
X35275000Y-98622444D01*
X35275000Y-99877556D01*
X35269290Y-99935530D01*
X35254169Y-99985379D01*
X35229618Y-100031311D01*
X35196574Y-100071574D01*
X35156311Y-100104618D01*
X35110379Y-100129169D01*
X35060530Y-100144290D01*
X35002556Y-100150000D01*
X33997444Y-100150000D01*
X33939470Y-100144290D01*
X33889621Y-100129169D01*
X33843689Y-100104618D01*
X33803426Y-100071574D01*
X33770382Y-100031311D01*
X33745831Y-99985379D01*
X33730710Y-99935530D01*
X33725000Y-99877556D01*
X33725000Y-98622444D01*
X33730710Y-98564470D01*
X33745831Y-98514621D01*
X33770382Y-98468689D01*
X33803426Y-98428426D01*
X33843689Y-98395382D01*
X33889621Y-98370831D01*
X33939470Y-98355710D01*
X33997444Y-98350000D01*
X35002556Y-98350000D01*
X35060530Y-98355710D01*
X35060530Y-98355710D01*
G37*
G36*
X37110530Y-98355710D02*
X37160379Y-98370831D01*
X37206311Y-98395382D01*
X37246574Y-98428426D01*
X37279618Y-98468689D01*
X37304169Y-98514621D01*
X37319290Y-98564470D01*
X37325000Y-98622444D01*
X37325000Y-99877556D01*
X37319290Y-99935530D01*
X37304169Y-99985379D01*
X37279618Y-100031311D01*
X37246574Y-100071574D01*
X37206311Y-100104618D01*
X37160379Y-100129169D01*
X37110530Y-100144290D01*
X37052556Y-100150000D01*
X36047444Y-100150000D01*
X35989470Y-100144290D01*
X35939621Y-100129169D01*
X35893689Y-100104618D01*
X35853426Y-100071574D01*
X35820382Y-100031311D01*
X35795831Y-99985379D01*
X35780710Y-99935530D01*
X35775000Y-99877556D01*
X35775000Y-98622444D01*
X35780710Y-98564470D01*
X35795831Y-98514621D01*
X35820382Y-98468689D01*
X35853426Y-98428426D01*
X35893689Y-98395382D01*
X35939621Y-98370831D01*
X35989470Y-98355710D01*
X36047444Y-98350000D01*
X37052556Y-98350000D01*
X37110530Y-98355710D01*
X37110530Y-98355710D01*
G37*
G36*
X66728707Y-98057597D02*
X66805836Y-98065193D01*
X66937787Y-98105220D01*
X67003763Y-98125233D01*
X67186172Y-98222733D01*
X67346054Y-98353946D01*
X67477267Y-98513828D01*
X67574767Y-98696237D01*
X67574767Y-98696238D01*
X67634807Y-98894164D01*
X67655080Y-99100000D01*
X67634807Y-99305836D01*
X67606243Y-99400000D01*
X67574767Y-99503763D01*
X67477267Y-99686172D01*
X67346054Y-99846054D01*
X67186172Y-99977267D01*
X67003763Y-100074767D01*
X66937787Y-100094780D01*
X66805836Y-100134807D01*
X66728707Y-100142403D01*
X66651580Y-100150000D01*
X66548420Y-100150000D01*
X66471293Y-100142403D01*
X66394164Y-100134807D01*
X66262213Y-100094780D01*
X66196237Y-100074767D01*
X66013828Y-99977267D01*
X65853946Y-99846054D01*
X65722733Y-99686172D01*
X65625233Y-99503763D01*
X65593757Y-99400000D01*
X65565193Y-99305836D01*
X65544920Y-99100000D01*
X65565193Y-98894164D01*
X65625233Y-98696238D01*
X65625233Y-98696237D01*
X65722733Y-98513828D01*
X65853946Y-98353946D01*
X66013828Y-98222733D01*
X66196237Y-98125233D01*
X66262213Y-98105220D01*
X66394164Y-98065193D01*
X66471293Y-98057597D01*
X66548420Y-98050000D01*
X66651580Y-98050000D01*
X66728707Y-98057597D01*
X66728707Y-98057597D01*
G37*
G36*
X60012197Y-97050233D02*
X60024449Y-97050835D01*
X60042869Y-97050835D01*
X60094358Y-97055906D01*
X60178443Y-97072632D01*
X60212168Y-97082862D01*
X60222048Y-97085859D01*
X60222050Y-97085860D01*
X60227955Y-97087651D01*
X60307164Y-97120460D01*
X60352787Y-97144846D01*
X60424082Y-97192484D01*
X60464076Y-97225306D01*
X60524694Y-97285924D01*
X60557516Y-97325918D01*
X60605154Y-97397213D01*
X60629540Y-97442836D01*
X60662349Y-97522045D01*
X60677368Y-97571557D01*
X60694094Y-97655642D01*
X60699165Y-97707131D01*
X60699165Y-97725551D01*
X60699767Y-97737803D01*
X60701573Y-97756140D01*
X60701573Y-98243860D01*
X60697107Y-98289203D01*
X60685668Y-98326913D01*
X60678097Y-98341078D01*
X60668720Y-98363717D01*
X60663940Y-98387750D01*
X60663940Y-98412255D01*
X60668721Y-98436288D01*
X60678097Y-98458922D01*
X60685668Y-98473087D01*
X60697107Y-98510797D01*
X60701573Y-98556140D01*
X60701573Y-99043860D01*
X60699767Y-99062197D01*
X60699165Y-99074449D01*
X60699165Y-99092869D01*
X60694094Y-99144358D01*
X60677368Y-99228443D01*
X60662349Y-99277955D01*
X60629540Y-99357164D01*
X60605154Y-99402787D01*
X60557516Y-99474082D01*
X60524694Y-99514076D01*
X60464076Y-99574694D01*
X60424082Y-99607516D01*
X60352787Y-99655154D01*
X60307164Y-99679540D01*
X60227955Y-99712349D01*
X60222050Y-99714140D01*
X60222048Y-99714141D01*
X60212168Y-99717138D01*
X60178443Y-99727368D01*
X60094358Y-99744094D01*
X60042869Y-99749165D01*
X60024449Y-99749165D01*
X60012197Y-99749767D01*
X59993860Y-99751573D01*
X59506140Y-99751573D01*
X59487803Y-99749767D01*
X59475551Y-99749165D01*
X59457131Y-99749165D01*
X59405642Y-99744094D01*
X59321557Y-99727368D01*
X59287832Y-99717138D01*
X59277952Y-99714141D01*
X59277950Y-99714140D01*
X59272045Y-99712349D01*
X59192836Y-99679540D01*
X59147213Y-99655154D01*
X59075918Y-99607516D01*
X59035924Y-99574694D01*
X58975306Y-99514076D01*
X58942484Y-99474082D01*
X58894846Y-99402787D01*
X58870460Y-99357164D01*
X58837651Y-99277955D01*
X58822632Y-99228443D01*
X58805906Y-99144358D01*
X58800835Y-99092869D01*
X58800835Y-99074449D01*
X58800233Y-99062197D01*
X58798427Y-99043860D01*
X58798427Y-98556140D01*
X58802893Y-98510797D01*
X58814332Y-98473087D01*
X58821903Y-98458922D01*
X58831280Y-98436283D01*
X58836060Y-98412250D01*
X58836060Y-98387745D01*
X58831279Y-98363712D01*
X58821903Y-98341078D01*
X58814332Y-98326913D01*
X58802893Y-98289203D01*
X58798427Y-98243860D01*
X58798427Y-97756140D01*
X58800233Y-97737803D01*
X58800835Y-97725551D01*
X58800835Y-97707131D01*
X58805906Y-97655642D01*
X58822632Y-97571557D01*
X58837651Y-97522045D01*
X58870460Y-97442836D01*
X58894846Y-97397213D01*
X58942484Y-97325918D01*
X58975306Y-97285924D01*
X59035924Y-97225306D01*
X59075918Y-97192484D01*
X59147213Y-97144846D01*
X59192836Y-97120460D01*
X59272045Y-97087651D01*
X59277950Y-97085860D01*
X59277952Y-97085859D01*
X59287832Y-97082862D01*
X59321557Y-97072632D01*
X59405642Y-97055906D01*
X59457131Y-97050835D01*
X59475551Y-97050835D01*
X59487803Y-97050233D01*
X59506140Y-97048427D01*
X59993860Y-97048427D01*
X60012197Y-97050233D01*
X60012197Y-97050233D01*
G37*
G36*
X46550000Y-99595000D02*
X44650000Y-99595000D01*
X44650000Y-98595000D01*
X46550000Y-98595000D01*
X46550000Y-99595000D01*
X46550000Y-99595000D01*
G37*
G36*
X41150000Y-99595000D02*
X39250000Y-99595000D01*
X39250000Y-98595000D01*
X41150000Y-98595000D01*
X41150000Y-99595000D01*
X41150000Y-99595000D01*
G37*
G36*
X49560530Y-97605710D02*
X49610379Y-97620831D01*
X49656311Y-97645382D01*
X49696574Y-97678426D01*
X49729618Y-97718689D01*
X49754169Y-97764621D01*
X49769290Y-97814470D01*
X49775000Y-97872444D01*
X49775000Y-99127556D01*
X49769290Y-99185530D01*
X49754169Y-99235379D01*
X49729618Y-99281311D01*
X49696574Y-99321574D01*
X49656311Y-99354618D01*
X49610379Y-99379169D01*
X49560530Y-99394290D01*
X49502556Y-99400000D01*
X48497444Y-99400000D01*
X48439470Y-99394290D01*
X48389621Y-99379169D01*
X48343689Y-99354618D01*
X48303426Y-99321574D01*
X48270382Y-99281311D01*
X48245831Y-99235379D01*
X48230710Y-99185530D01*
X48225000Y-99127556D01*
X48225000Y-97872444D01*
X48230710Y-97814470D01*
X48245831Y-97764621D01*
X48270382Y-97718689D01*
X48303426Y-97678426D01*
X48343689Y-97645382D01*
X48389621Y-97620831D01*
X48439470Y-97605710D01*
X48497444Y-97600000D01*
X49502556Y-97600000D01*
X49560530Y-97605710D01*
X49560530Y-97605710D01*
G37*
G36*
X51610530Y-97605710D02*
X51660379Y-97620831D01*
X51706311Y-97645382D01*
X51746574Y-97678426D01*
X51779618Y-97718689D01*
X51804169Y-97764621D01*
X51819290Y-97814470D01*
X51825000Y-97872444D01*
X51825000Y-99127556D01*
X51819290Y-99185530D01*
X51804169Y-99235379D01*
X51779618Y-99281311D01*
X51746574Y-99321574D01*
X51706311Y-99354618D01*
X51660379Y-99379169D01*
X51610530Y-99394290D01*
X51552556Y-99400000D01*
X50547444Y-99400000D01*
X50489470Y-99394290D01*
X50439621Y-99379169D01*
X50393689Y-99354618D01*
X50353426Y-99321574D01*
X50320382Y-99281311D01*
X50295831Y-99235379D01*
X50280710Y-99185530D01*
X50275000Y-99127556D01*
X50275000Y-97872444D01*
X50280710Y-97814470D01*
X50295831Y-97764621D01*
X50320382Y-97718689D01*
X50353426Y-97678426D01*
X50393689Y-97645382D01*
X50439621Y-97620831D01*
X50489470Y-97605710D01*
X50547444Y-97600000D01*
X51552556Y-97600000D01*
X51610530Y-97605710D01*
X51610530Y-97605710D01*
G37*
G36*
X54310530Y-97105710D02*
X54360379Y-97120831D01*
X54406311Y-97145382D01*
X54446574Y-97178426D01*
X54479618Y-97218689D01*
X54504169Y-97264621D01*
X54519290Y-97314470D01*
X54525000Y-97372444D01*
X54525000Y-98627556D01*
X54519290Y-98685530D01*
X54504169Y-98735379D01*
X54479618Y-98781311D01*
X54446574Y-98821574D01*
X54406311Y-98854618D01*
X54360379Y-98879169D01*
X54310530Y-98894290D01*
X54252556Y-98900000D01*
X53247444Y-98900000D01*
X53189470Y-98894290D01*
X53139621Y-98879169D01*
X53093689Y-98854618D01*
X53053426Y-98821574D01*
X53020382Y-98781311D01*
X52995831Y-98735379D01*
X52980710Y-98685530D01*
X52975000Y-98627556D01*
X52975000Y-97372444D01*
X52980710Y-97314470D01*
X52995831Y-97264621D01*
X53020382Y-97218689D01*
X53053426Y-97178426D01*
X53093689Y-97145382D01*
X53139621Y-97120831D01*
X53189470Y-97105710D01*
X53247444Y-97100000D01*
X54252556Y-97100000D01*
X54310530Y-97105710D01*
X54310530Y-97105710D01*
G37*
G36*
X56360530Y-97105710D02*
X56410379Y-97120831D01*
X56456311Y-97145382D01*
X56496574Y-97178426D01*
X56529618Y-97218689D01*
X56554169Y-97264621D01*
X56569290Y-97314470D01*
X56575000Y-97372444D01*
X56575000Y-98627556D01*
X56569290Y-98685530D01*
X56554169Y-98735379D01*
X56529618Y-98781311D01*
X56496574Y-98821574D01*
X56456311Y-98854618D01*
X56410379Y-98879169D01*
X56360530Y-98894290D01*
X56302556Y-98900000D01*
X55297444Y-98900000D01*
X55239470Y-98894290D01*
X55189621Y-98879169D01*
X55143689Y-98854618D01*
X55103426Y-98821574D01*
X55070382Y-98781311D01*
X55045831Y-98735379D01*
X55030710Y-98685530D01*
X55025000Y-98627556D01*
X55025000Y-97372444D01*
X55030710Y-97314470D01*
X55045831Y-97264621D01*
X55070382Y-97218689D01*
X55103426Y-97178426D01*
X55143689Y-97145382D01*
X55189621Y-97120831D01*
X55239470Y-97105710D01*
X55297444Y-97100000D01*
X56302556Y-97100000D01*
X56360530Y-97105710D01*
X56360530Y-97105710D01*
G37*
G36*
X41150000Y-98325000D02*
X39250000Y-98325000D01*
X39250000Y-97325000D01*
X41150000Y-97325000D01*
X41150000Y-98325000D01*
X41150000Y-98325000D01*
G37*
G36*
X46550000Y-98325000D02*
X44650000Y-98325000D01*
X44650000Y-97325000D01*
X46550000Y-97325000D01*
X46550000Y-98325000D01*
X46550000Y-98325000D01*
G37*
G36*
X37060530Y-95855710D02*
X37110379Y-95870831D01*
X37156311Y-95895382D01*
X37196574Y-95928426D01*
X37229618Y-95968689D01*
X37254169Y-96014621D01*
X37269290Y-96064470D01*
X37275000Y-96122444D01*
X37275000Y-97377556D01*
X37269290Y-97435530D01*
X37254169Y-97485379D01*
X37229618Y-97531311D01*
X37196574Y-97571574D01*
X37156311Y-97604618D01*
X37110379Y-97629169D01*
X37060530Y-97644290D01*
X37002556Y-97650000D01*
X35997444Y-97650000D01*
X35939470Y-97644290D01*
X35889621Y-97629169D01*
X35843689Y-97604618D01*
X35803426Y-97571574D01*
X35770382Y-97531311D01*
X35745831Y-97485379D01*
X35730710Y-97435530D01*
X35725000Y-97377556D01*
X35725000Y-96122444D01*
X35730710Y-96064470D01*
X35745831Y-96014621D01*
X35770382Y-95968689D01*
X35803426Y-95928426D01*
X35843689Y-95895382D01*
X35889621Y-95870831D01*
X35939470Y-95855710D01*
X35997444Y-95850000D01*
X37002556Y-95850000D01*
X37060530Y-95855710D01*
X37060530Y-95855710D01*
G37*
G36*
X35010530Y-95855710D02*
X35060379Y-95870831D01*
X35106311Y-95895382D01*
X35146574Y-95928426D01*
X35179618Y-95968689D01*
X35204169Y-96014621D01*
X35219290Y-96064470D01*
X35225000Y-96122444D01*
X35225000Y-97377556D01*
X35219290Y-97435530D01*
X35204169Y-97485379D01*
X35179618Y-97531311D01*
X35146574Y-97571574D01*
X35106311Y-97604618D01*
X35060379Y-97629169D01*
X35010530Y-97644290D01*
X34952556Y-97650000D01*
X33947444Y-97650000D01*
X33889470Y-97644290D01*
X33839621Y-97629169D01*
X33793689Y-97604618D01*
X33753426Y-97571574D01*
X33720382Y-97531311D01*
X33695831Y-97485379D01*
X33680710Y-97435530D01*
X33675000Y-97377556D01*
X33675000Y-96122444D01*
X33680710Y-96064470D01*
X33695831Y-96014621D01*
X33720382Y-95968689D01*
X33753426Y-95928426D01*
X33793689Y-95895382D01*
X33839621Y-95870831D01*
X33889470Y-95855710D01*
X33947444Y-95850000D01*
X34952556Y-95850000D01*
X35010530Y-95855710D01*
X35010530Y-95855710D01*
G37*
G36*
X49560530Y-95355710D02*
X49610379Y-95370831D01*
X49656311Y-95395382D01*
X49696574Y-95428426D01*
X49729618Y-95468689D01*
X49754169Y-95514621D01*
X49769290Y-95564470D01*
X49775000Y-95622444D01*
X49775000Y-96877556D01*
X49769290Y-96935530D01*
X49754169Y-96985379D01*
X49729618Y-97031311D01*
X49696574Y-97071574D01*
X49656311Y-97104618D01*
X49610379Y-97129169D01*
X49560530Y-97144290D01*
X49502556Y-97150000D01*
X48497444Y-97150000D01*
X48439470Y-97144290D01*
X48389621Y-97129169D01*
X48343689Y-97104618D01*
X48303426Y-97071574D01*
X48270382Y-97031311D01*
X48245831Y-96985379D01*
X48230710Y-96935530D01*
X48225000Y-96877556D01*
X48225000Y-95622444D01*
X48230710Y-95564470D01*
X48245831Y-95514621D01*
X48270382Y-95468689D01*
X48303426Y-95428426D01*
X48343689Y-95395382D01*
X48389621Y-95370831D01*
X48439470Y-95355710D01*
X48497444Y-95350000D01*
X49502556Y-95350000D01*
X49560530Y-95355710D01*
X49560530Y-95355710D01*
G37*
G36*
X51610530Y-95355710D02*
X51660379Y-95370831D01*
X51706311Y-95395382D01*
X51746574Y-95428426D01*
X51779618Y-95468689D01*
X51804169Y-95514621D01*
X51819290Y-95564470D01*
X51825000Y-95622444D01*
X51825000Y-96877556D01*
X51819290Y-96935530D01*
X51804169Y-96985379D01*
X51779618Y-97031311D01*
X51746574Y-97071574D01*
X51706311Y-97104618D01*
X51660379Y-97129169D01*
X51610530Y-97144290D01*
X51552556Y-97150000D01*
X50547444Y-97150000D01*
X50489470Y-97144290D01*
X50439621Y-97129169D01*
X50393689Y-97104618D01*
X50353426Y-97071574D01*
X50320382Y-97031311D01*
X50295831Y-96985379D01*
X50280710Y-96935530D01*
X50275000Y-96877556D01*
X50275000Y-95622444D01*
X50280710Y-95564470D01*
X50295831Y-95514621D01*
X50320382Y-95468689D01*
X50353426Y-95428426D01*
X50393689Y-95395382D01*
X50439621Y-95370831D01*
X50489470Y-95355710D01*
X50547444Y-95350000D01*
X51552556Y-95350000D01*
X51610530Y-95355710D01*
X51610530Y-95355710D01*
G37*
G36*
X41150000Y-97055000D02*
X39250000Y-97055000D01*
X39250000Y-96055000D01*
X41150000Y-96055000D01*
X41150000Y-97055000D01*
X41150000Y-97055000D01*
G37*
G36*
X46550000Y-97055000D02*
X44650000Y-97055000D01*
X44650000Y-96055000D01*
X46550000Y-96055000D01*
X46550000Y-97055000D01*
X46550000Y-97055000D01*
G37*
G36*
X46550000Y-95785000D02*
X44650000Y-95785000D01*
X44650000Y-94785000D01*
X46550000Y-94785000D01*
X46550000Y-95785000D01*
X46550000Y-95785000D01*
G37*
G36*
X41150000Y-95785000D02*
X39250000Y-95785000D01*
X39250000Y-94785000D01*
X41150000Y-94785000D01*
X41150000Y-95785000D01*
X41150000Y-95785000D01*
G37*
G36*
X67450000Y-95250000D02*
X65350000Y-95250000D01*
X65350000Y-93150000D01*
X67450000Y-93150000D01*
X67450000Y-95250000D01*
X67450000Y-95250000D01*
G37*
G36*
X37060530Y-93355710D02*
X37110379Y-93370831D01*
X37156311Y-93395382D01*
X37196574Y-93428426D01*
X37229618Y-93468689D01*
X37254169Y-93514621D01*
X37269290Y-93564470D01*
X37275000Y-93622444D01*
X37275000Y-94877556D01*
X37269290Y-94935530D01*
X37254169Y-94985379D01*
X37229618Y-95031311D01*
X37196574Y-95071574D01*
X37156311Y-95104618D01*
X37110379Y-95129169D01*
X37060530Y-95144290D01*
X37002556Y-95150000D01*
X35997444Y-95150000D01*
X35939470Y-95144290D01*
X35889621Y-95129169D01*
X35843689Y-95104618D01*
X35803426Y-95071574D01*
X35770382Y-95031311D01*
X35745831Y-94985379D01*
X35730710Y-94935530D01*
X35725000Y-94877556D01*
X35725000Y-93622444D01*
X35730710Y-93564470D01*
X35745831Y-93514621D01*
X35770382Y-93468689D01*
X35803426Y-93428426D01*
X35843689Y-93395382D01*
X35889621Y-93370831D01*
X35939470Y-93355710D01*
X35997444Y-93350000D01*
X37002556Y-93350000D01*
X37060530Y-93355710D01*
X37060530Y-93355710D01*
G37*
G36*
X35010530Y-93355710D02*
X35060379Y-93370831D01*
X35106311Y-93395382D01*
X35146574Y-93428426D01*
X35179618Y-93468689D01*
X35204169Y-93514621D01*
X35219290Y-93564470D01*
X35225000Y-93622444D01*
X35225000Y-94877556D01*
X35219290Y-94935530D01*
X35204169Y-94985379D01*
X35179618Y-95031311D01*
X35146574Y-95071574D01*
X35106311Y-95104618D01*
X35060379Y-95129169D01*
X35010530Y-95144290D01*
X34952556Y-95150000D01*
X33947444Y-95150000D01*
X33889470Y-95144290D01*
X33839621Y-95129169D01*
X33793689Y-95104618D01*
X33753426Y-95071574D01*
X33720382Y-95031311D01*
X33695831Y-94985379D01*
X33680710Y-94935530D01*
X33675000Y-94877556D01*
X33675000Y-93622444D01*
X33680710Y-93564470D01*
X33695831Y-93514621D01*
X33720382Y-93468689D01*
X33753426Y-93428426D01*
X33793689Y-93395382D01*
X33839621Y-93370831D01*
X33889470Y-93355710D01*
X33947444Y-93350000D01*
X34952556Y-93350000D01*
X35010530Y-93355710D01*
X35010530Y-93355710D01*
G37*
G36*
X49560530Y-93105710D02*
X49610379Y-93120831D01*
X49656311Y-93145382D01*
X49696574Y-93178426D01*
X49729618Y-93218689D01*
X49754169Y-93264621D01*
X49769290Y-93314470D01*
X49775000Y-93372444D01*
X49775000Y-94627556D01*
X49769290Y-94685530D01*
X49754169Y-94735379D01*
X49729618Y-94781311D01*
X49696574Y-94821574D01*
X49656311Y-94854618D01*
X49610379Y-94879169D01*
X49560530Y-94894290D01*
X49502556Y-94900000D01*
X48497444Y-94900000D01*
X48439470Y-94894290D01*
X48389621Y-94879169D01*
X48343689Y-94854618D01*
X48303426Y-94821574D01*
X48270382Y-94781311D01*
X48245831Y-94735379D01*
X48230710Y-94685530D01*
X48225000Y-94627556D01*
X48225000Y-93372444D01*
X48230710Y-93314470D01*
X48245831Y-93264621D01*
X48270382Y-93218689D01*
X48303426Y-93178426D01*
X48343689Y-93145382D01*
X48389621Y-93120831D01*
X48439470Y-93105710D01*
X48497444Y-93100000D01*
X49502556Y-93100000D01*
X49560530Y-93105710D01*
X49560530Y-93105710D01*
G37*
G36*
X51610530Y-93105710D02*
X51660379Y-93120831D01*
X51706311Y-93145382D01*
X51746574Y-93178426D01*
X51779618Y-93218689D01*
X51804169Y-93264621D01*
X51819290Y-93314470D01*
X51825000Y-93372444D01*
X51825000Y-94627556D01*
X51819290Y-94685530D01*
X51804169Y-94735379D01*
X51779618Y-94781311D01*
X51746574Y-94821574D01*
X51706311Y-94854618D01*
X51660379Y-94879169D01*
X51610530Y-94894290D01*
X51552556Y-94900000D01*
X50547444Y-94900000D01*
X50489470Y-94894290D01*
X50439621Y-94879169D01*
X50393689Y-94854618D01*
X50353426Y-94821574D01*
X50320382Y-94781311D01*
X50295831Y-94735379D01*
X50280710Y-94685530D01*
X50275000Y-94627556D01*
X50275000Y-93372444D01*
X50280710Y-93314470D01*
X50295831Y-93264621D01*
X50320382Y-93218689D01*
X50353426Y-93178426D01*
X50393689Y-93145382D01*
X50439621Y-93120831D01*
X50489470Y-93105710D01*
X50547444Y-93100000D01*
X51552556Y-93100000D01*
X51610530Y-93105710D01*
X51610530Y-93105710D01*
G37*
G36*
X56310530Y-93105710D02*
X56360379Y-93120831D01*
X56406311Y-93145382D01*
X56446574Y-93178426D01*
X56479618Y-93218689D01*
X56504169Y-93264621D01*
X56519290Y-93314470D01*
X56525000Y-93372444D01*
X56525000Y-94627556D01*
X56519290Y-94685530D01*
X56504169Y-94735379D01*
X56479618Y-94781311D01*
X56446574Y-94821574D01*
X56406311Y-94854618D01*
X56360379Y-94879169D01*
X56310530Y-94894290D01*
X56252556Y-94900000D01*
X55247444Y-94900000D01*
X55189470Y-94894290D01*
X55139621Y-94879169D01*
X55093689Y-94854618D01*
X55053426Y-94821574D01*
X55020382Y-94781311D01*
X54995831Y-94735379D01*
X54980710Y-94685530D01*
X54975000Y-94627556D01*
X54975000Y-93372444D01*
X54980710Y-93314470D01*
X54995831Y-93264621D01*
X55020382Y-93218689D01*
X55053426Y-93178426D01*
X55093689Y-93145382D01*
X55139621Y-93120831D01*
X55189470Y-93105710D01*
X55247444Y-93100000D01*
X56252556Y-93100000D01*
X56310530Y-93105710D01*
X56310530Y-93105710D01*
G37*
G36*
X54260530Y-93105710D02*
X54310379Y-93120831D01*
X54356311Y-93145382D01*
X54396574Y-93178426D01*
X54429618Y-93218689D01*
X54454169Y-93264621D01*
X54469290Y-93314470D01*
X54475000Y-93372444D01*
X54475000Y-94627556D01*
X54469290Y-94685530D01*
X54454169Y-94735379D01*
X54429618Y-94781311D01*
X54396574Y-94821574D01*
X54356311Y-94854618D01*
X54310379Y-94879169D01*
X54260530Y-94894290D01*
X54202556Y-94900000D01*
X53197444Y-94900000D01*
X53139470Y-94894290D01*
X53089621Y-94879169D01*
X53043689Y-94854618D01*
X53003426Y-94821574D01*
X52970382Y-94781311D01*
X52945831Y-94735379D01*
X52930710Y-94685530D01*
X52925000Y-94627556D01*
X52925000Y-93372444D01*
X52930710Y-93314470D01*
X52945831Y-93264621D01*
X52970382Y-93218689D01*
X53003426Y-93178426D01*
X53043689Y-93145382D01*
X53089621Y-93120831D01*
X53139470Y-93105710D01*
X53197444Y-93100000D01*
X54202556Y-93100000D01*
X54260530Y-93105710D01*
X54260530Y-93105710D01*
G37*
G36*
X46550000Y-94515000D02*
X44650000Y-94515000D01*
X44650000Y-93515000D01*
X46550000Y-93515000D01*
X46550000Y-94515000D01*
X46550000Y-94515000D01*
G37*
G36*
X41150000Y-94515000D02*
X39250000Y-94515000D01*
X39250000Y-93515000D01*
X41150000Y-93515000D01*
X41150000Y-94515000D01*
X41150000Y-94515000D01*
G37*
G36*
X60800000Y-94200000D02*
X58000000Y-94200000D01*
X58000000Y-91400000D01*
X60800000Y-91400000D01*
X60800000Y-94200000D01*
X60800000Y-94200000D01*
G37*
G36*
X46550000Y-93245000D02*
X44650000Y-93245000D01*
X44650000Y-92245000D01*
X46550000Y-92245000D01*
X46550000Y-93245000D01*
X46550000Y-93245000D01*
G37*
G36*
X41150000Y-93245000D02*
X39250000Y-93245000D01*
X39250000Y-92245000D01*
X41150000Y-92245000D01*
X41150000Y-93245000D01*
X41150000Y-93245000D01*
G37*
G36*
X66528707Y-90617596D02*
X66605836Y-90625193D01*
X66737787Y-90665220D01*
X66803763Y-90685233D01*
X66986172Y-90782733D01*
X67146054Y-90913946D01*
X67277267Y-91073828D01*
X67374767Y-91256237D01*
X67374767Y-91256238D01*
X67434807Y-91454164D01*
X67455080Y-91660000D01*
X67434807Y-91865836D01*
X67398544Y-91985379D01*
X67374767Y-92063763D01*
X67277267Y-92246172D01*
X67146054Y-92406054D01*
X66986172Y-92537267D01*
X66803763Y-92634767D01*
X66737787Y-92654780D01*
X66605836Y-92694807D01*
X66528707Y-92702403D01*
X66451580Y-92710000D01*
X66348420Y-92710000D01*
X66271293Y-92702403D01*
X66194164Y-92694807D01*
X66062213Y-92654780D01*
X65996237Y-92634767D01*
X65813828Y-92537267D01*
X65653946Y-92406054D01*
X65522733Y-92246172D01*
X65425233Y-92063763D01*
X65401456Y-91985379D01*
X65365193Y-91865836D01*
X65344920Y-91660000D01*
X65365193Y-91454164D01*
X65425233Y-91256238D01*
X65425233Y-91256237D01*
X65522733Y-91073828D01*
X65653946Y-90913946D01*
X65813828Y-90782733D01*
X65996237Y-90685233D01*
X66062213Y-90665220D01*
X66194164Y-90625193D01*
X66271293Y-90617596D01*
X66348420Y-90610000D01*
X66451580Y-90610000D01*
X66528707Y-90617596D01*
X66528707Y-90617596D01*
G37*
G36*
X51610530Y-90855710D02*
X51660379Y-90870831D01*
X51706311Y-90895382D01*
X51746574Y-90928426D01*
X51779618Y-90968689D01*
X51804169Y-91014621D01*
X51819290Y-91064470D01*
X51825000Y-91122444D01*
X51825000Y-92377556D01*
X51819290Y-92435530D01*
X51804169Y-92485379D01*
X51779618Y-92531311D01*
X51746574Y-92571574D01*
X51706311Y-92604618D01*
X51660379Y-92629169D01*
X51610530Y-92644290D01*
X51552556Y-92650000D01*
X50547444Y-92650000D01*
X50489470Y-92644290D01*
X50439621Y-92629169D01*
X50393689Y-92604618D01*
X50353426Y-92571574D01*
X50320382Y-92531311D01*
X50295831Y-92485379D01*
X50280710Y-92435530D01*
X50275000Y-92377556D01*
X50275000Y-91122444D01*
X50280710Y-91064470D01*
X50295831Y-91014621D01*
X50320382Y-90968689D01*
X50353426Y-90928426D01*
X50393689Y-90895382D01*
X50439621Y-90870831D01*
X50489470Y-90855710D01*
X50547444Y-90850000D01*
X51552556Y-90850000D01*
X51610530Y-90855710D01*
X51610530Y-90855710D01*
G37*
G36*
X49560530Y-90855710D02*
X49610379Y-90870831D01*
X49656311Y-90895382D01*
X49696574Y-90928426D01*
X49729618Y-90968689D01*
X49754169Y-91014621D01*
X49769290Y-91064470D01*
X49775000Y-91122444D01*
X49775000Y-92377556D01*
X49769290Y-92435530D01*
X49754169Y-92485379D01*
X49729618Y-92531311D01*
X49696574Y-92571574D01*
X49656311Y-92604618D01*
X49610379Y-92629169D01*
X49560530Y-92644290D01*
X49502556Y-92650000D01*
X48497444Y-92650000D01*
X48439470Y-92644290D01*
X48389621Y-92629169D01*
X48343689Y-92604618D01*
X48303426Y-92571574D01*
X48270382Y-92531311D01*
X48245831Y-92485379D01*
X48230710Y-92435530D01*
X48225000Y-92377556D01*
X48225000Y-91122444D01*
X48230710Y-91064470D01*
X48245831Y-91014621D01*
X48270382Y-90968689D01*
X48303426Y-90928426D01*
X48343689Y-90895382D01*
X48389621Y-90870831D01*
X48439470Y-90855710D01*
X48497444Y-90850000D01*
X49502556Y-90850000D01*
X49560530Y-90855710D01*
X49560530Y-90855710D01*
G37*
G36*
X35035530Y-90355710D02*
X35085379Y-90370831D01*
X35131311Y-90395382D01*
X35171574Y-90428426D01*
X35204618Y-90468689D01*
X35229169Y-90514621D01*
X35244290Y-90564470D01*
X35250000Y-90622444D01*
X35250000Y-91877556D01*
X35244290Y-91935530D01*
X35229169Y-91985379D01*
X35204618Y-92031311D01*
X35171574Y-92071574D01*
X35131311Y-92104618D01*
X35085379Y-92129169D01*
X35035530Y-92144290D01*
X34977556Y-92150000D01*
X33972444Y-92150000D01*
X33914470Y-92144290D01*
X33864621Y-92129169D01*
X33818689Y-92104618D01*
X33778426Y-92071574D01*
X33745382Y-92031311D01*
X33720831Y-91985379D01*
X33705710Y-91935530D01*
X33700000Y-91877556D01*
X33700000Y-90622444D01*
X33705710Y-90564470D01*
X33720831Y-90514621D01*
X33745382Y-90468689D01*
X33778426Y-90428426D01*
X33818689Y-90395382D01*
X33864621Y-90370831D01*
X33914470Y-90355710D01*
X33972444Y-90350000D01*
X34977556Y-90350000D01*
X35035530Y-90355710D01*
X35035530Y-90355710D01*
G37*
G36*
X37085530Y-90355710D02*
X37135379Y-90370831D01*
X37181311Y-90395382D01*
X37221574Y-90428426D01*
X37254618Y-90468689D01*
X37279169Y-90514621D01*
X37294290Y-90564470D01*
X37300000Y-90622444D01*
X37300000Y-91877556D01*
X37294290Y-91935530D01*
X37279169Y-91985379D01*
X37254618Y-92031311D01*
X37221574Y-92071574D01*
X37181311Y-92104618D01*
X37135379Y-92129169D01*
X37085530Y-92144290D01*
X37027556Y-92150000D01*
X36022444Y-92150000D01*
X35964470Y-92144290D01*
X35914621Y-92129169D01*
X35868689Y-92104618D01*
X35828426Y-92071574D01*
X35795382Y-92031311D01*
X35770831Y-91985379D01*
X35755710Y-91935530D01*
X35750000Y-91877556D01*
X35750000Y-90622444D01*
X35755710Y-90564470D01*
X35770831Y-90514621D01*
X35795382Y-90468689D01*
X35828426Y-90428426D01*
X35868689Y-90395382D01*
X35914621Y-90370831D01*
X35964470Y-90355710D01*
X36022444Y-90350000D01*
X37027556Y-90350000D01*
X37085530Y-90355710D01*
X37085530Y-90355710D01*
G37*
G36*
X41150000Y-91975000D02*
X39250000Y-91975000D01*
X39250000Y-90975000D01*
X41150000Y-90975000D01*
X41150000Y-91975000D01*
X41150000Y-91975000D01*
G37*
G36*
X46550000Y-91975000D02*
X44650000Y-91975000D01*
X44650000Y-90975000D01*
X46550000Y-90975000D01*
X46550000Y-91975000D01*
X46550000Y-91975000D01*
G37*
G36*
X53950000Y-91125000D02*
X52550000Y-91125000D01*
X52550000Y-88275000D01*
X53950000Y-88275000D01*
X53950000Y-91125000D01*
X53950000Y-91125000D01*
G37*
G36*
X56650000Y-91125000D02*
X55250000Y-91125000D01*
X55250000Y-88275000D01*
X56650000Y-88275000D01*
X56650000Y-91125000D01*
X56650000Y-91125000D01*
G37*
G36*
X41560530Y-88105710D02*
X41610379Y-88120831D01*
X41656311Y-88145382D01*
X41696574Y-88178426D01*
X41729618Y-88218689D01*
X41754169Y-88264621D01*
X41769290Y-88314470D01*
X41775000Y-88372444D01*
X41775000Y-89627556D01*
X41769290Y-89685530D01*
X41754169Y-89735379D01*
X41729618Y-89781311D01*
X41696574Y-89821574D01*
X41656311Y-89854618D01*
X41610379Y-89879169D01*
X41560530Y-89894290D01*
X41502556Y-89900000D01*
X40497444Y-89900000D01*
X40439470Y-89894290D01*
X40389621Y-89879169D01*
X40343689Y-89854618D01*
X40303426Y-89821574D01*
X40270382Y-89781311D01*
X40245831Y-89735379D01*
X40230710Y-89685530D01*
X40225000Y-89627556D01*
X40225000Y-88372444D01*
X40230710Y-88314470D01*
X40245831Y-88264621D01*
X40270382Y-88218689D01*
X40303426Y-88178426D01*
X40343689Y-88145382D01*
X40389621Y-88120831D01*
X40439470Y-88105710D01*
X40497444Y-88100000D01*
X41502556Y-88100000D01*
X41560530Y-88105710D01*
X41560530Y-88105710D01*
G37*
G36*
X60560530Y-88105710D02*
X60610379Y-88120831D01*
X60656311Y-88145382D01*
X60696574Y-88178426D01*
X60729618Y-88218689D01*
X60754169Y-88264621D01*
X60769290Y-88314470D01*
X60775000Y-88372444D01*
X60775000Y-89627556D01*
X60769290Y-89685530D01*
X60754169Y-89735379D01*
X60729618Y-89781311D01*
X60696574Y-89821574D01*
X60656311Y-89854618D01*
X60610379Y-89879169D01*
X60560530Y-89894290D01*
X60502556Y-89900000D01*
X59497444Y-89900000D01*
X59439470Y-89894290D01*
X59389621Y-89879169D01*
X59343689Y-89854618D01*
X59303426Y-89821574D01*
X59270382Y-89781311D01*
X59245831Y-89735379D01*
X59230710Y-89685530D01*
X59225000Y-89627556D01*
X59225000Y-88372444D01*
X59230710Y-88314470D01*
X59245831Y-88264621D01*
X59270382Y-88218689D01*
X59303426Y-88178426D01*
X59343689Y-88145382D01*
X59389621Y-88120831D01*
X59439470Y-88105710D01*
X59497444Y-88100000D01*
X60502556Y-88100000D01*
X60560530Y-88105710D01*
X60560530Y-88105710D01*
G37*
G36*
X62610530Y-88105710D02*
X62660379Y-88120831D01*
X62706311Y-88145382D01*
X62746574Y-88178426D01*
X62779618Y-88218689D01*
X62804169Y-88264621D01*
X62819290Y-88314470D01*
X62825000Y-88372444D01*
X62825000Y-89627556D01*
X62819290Y-89685530D01*
X62804169Y-89735379D01*
X62779618Y-89781311D01*
X62746574Y-89821574D01*
X62706311Y-89854618D01*
X62660379Y-89879169D01*
X62610530Y-89894290D01*
X62552556Y-89900000D01*
X61547444Y-89900000D01*
X61489470Y-89894290D01*
X61439621Y-89879169D01*
X61393689Y-89854618D01*
X61353426Y-89821574D01*
X61320382Y-89781311D01*
X61295831Y-89735379D01*
X61280710Y-89685530D01*
X61275000Y-89627556D01*
X61275000Y-88372444D01*
X61280710Y-88314470D01*
X61295831Y-88264621D01*
X61320382Y-88218689D01*
X61353426Y-88178426D01*
X61393689Y-88145382D01*
X61439621Y-88120831D01*
X61489470Y-88105710D01*
X61547444Y-88100000D01*
X62552556Y-88100000D01*
X62610530Y-88105710D01*
X62610530Y-88105710D01*
G37*
G36*
X39510530Y-88105710D02*
X39560379Y-88120831D01*
X39606311Y-88145382D01*
X39646574Y-88178426D01*
X39679618Y-88218689D01*
X39704169Y-88264621D01*
X39719290Y-88314470D01*
X39725000Y-88372444D01*
X39725000Y-89627556D01*
X39719290Y-89685530D01*
X39704169Y-89735379D01*
X39679618Y-89781311D01*
X39646574Y-89821574D01*
X39606311Y-89854618D01*
X39560379Y-89879169D01*
X39510530Y-89894290D01*
X39452556Y-89900000D01*
X38447444Y-89900000D01*
X38389470Y-89894290D01*
X38339621Y-89879169D01*
X38293689Y-89854618D01*
X38253426Y-89821574D01*
X38220382Y-89781311D01*
X38195831Y-89735379D01*
X38180710Y-89685530D01*
X38175000Y-89627556D01*
X38175000Y-88372444D01*
X38180710Y-88314470D01*
X38195831Y-88264621D01*
X38220382Y-88218689D01*
X38253426Y-88178426D01*
X38293689Y-88145382D01*
X38339621Y-88120831D01*
X38389470Y-88105710D01*
X38447444Y-88100000D01*
X39452556Y-88100000D01*
X39510530Y-88105710D01*
X39510530Y-88105710D01*
G37*
G36*
X35010530Y-87855710D02*
X35060379Y-87870831D01*
X35106311Y-87895382D01*
X35146574Y-87928426D01*
X35179618Y-87968689D01*
X35204169Y-88014621D01*
X35219290Y-88064470D01*
X35225000Y-88122444D01*
X35225000Y-89377556D01*
X35219290Y-89435530D01*
X35204169Y-89485379D01*
X35179618Y-89531311D01*
X35146574Y-89571574D01*
X35106311Y-89604618D01*
X35060379Y-89629169D01*
X35010530Y-89644290D01*
X34952556Y-89650000D01*
X33947444Y-89650000D01*
X33889470Y-89644290D01*
X33839621Y-89629169D01*
X33793689Y-89604618D01*
X33753426Y-89571574D01*
X33720382Y-89531311D01*
X33695831Y-89485379D01*
X33680710Y-89435530D01*
X33675000Y-89377556D01*
X33675000Y-88122444D01*
X33680710Y-88064470D01*
X33695831Y-88014621D01*
X33720382Y-87968689D01*
X33753426Y-87928426D01*
X33793689Y-87895382D01*
X33839621Y-87870831D01*
X33889470Y-87855710D01*
X33947444Y-87850000D01*
X34952556Y-87850000D01*
X35010530Y-87855710D01*
X35010530Y-87855710D01*
G37*
G36*
X37060530Y-87855710D02*
X37110379Y-87870831D01*
X37156311Y-87895382D01*
X37196574Y-87928426D01*
X37229618Y-87968689D01*
X37254169Y-88014621D01*
X37269290Y-88064470D01*
X37275000Y-88122444D01*
X37275000Y-89377556D01*
X37269290Y-89435530D01*
X37254169Y-89485379D01*
X37229618Y-89531311D01*
X37196574Y-89571574D01*
X37156311Y-89604618D01*
X37110379Y-89629169D01*
X37060530Y-89644290D01*
X37002556Y-89650000D01*
X35997444Y-89650000D01*
X35939470Y-89644290D01*
X35889621Y-89629169D01*
X35843689Y-89604618D01*
X35803426Y-89571574D01*
X35770382Y-89531311D01*
X35745831Y-89485379D01*
X35730710Y-89435530D01*
X35725000Y-89377556D01*
X35725000Y-88122444D01*
X35730710Y-88064470D01*
X35745831Y-88014621D01*
X35770382Y-87968689D01*
X35803426Y-87928426D01*
X35843689Y-87895382D01*
X35889621Y-87870831D01*
X35939470Y-87855710D01*
X35997444Y-87850000D01*
X37002556Y-87850000D01*
X37060530Y-87855710D01*
X37060530Y-87855710D01*
G37*
G36*
X49185530Y-87780710D02*
X49235379Y-87795831D01*
X49281311Y-87820382D01*
X49321574Y-87853426D01*
X49354618Y-87893689D01*
X49379169Y-87939621D01*
X49394290Y-87989470D01*
X49400000Y-88047444D01*
X49400000Y-89052556D01*
X49394290Y-89110530D01*
X49379169Y-89160379D01*
X49354618Y-89206311D01*
X49321574Y-89246574D01*
X49281311Y-89279618D01*
X49235379Y-89304169D01*
X49185530Y-89319290D01*
X49127556Y-89325000D01*
X47872444Y-89325000D01*
X47814470Y-89319290D01*
X47764621Y-89304169D01*
X47718689Y-89279618D01*
X47678426Y-89246574D01*
X47645382Y-89206311D01*
X47620831Y-89160379D01*
X47605710Y-89110530D01*
X47600000Y-89052556D01*
X47600000Y-88047444D01*
X47605710Y-87989470D01*
X47620831Y-87939621D01*
X47645382Y-87893689D01*
X47678426Y-87853426D01*
X47718689Y-87820382D01*
X47764621Y-87795831D01*
X47814470Y-87780710D01*
X47872444Y-87775000D01*
X49127556Y-87775000D01*
X49185530Y-87780710D01*
X49185530Y-87780710D01*
G37*
G36*
X51435530Y-87780710D02*
X51485379Y-87795831D01*
X51531311Y-87820382D01*
X51571574Y-87853426D01*
X51604618Y-87893689D01*
X51629169Y-87939621D01*
X51644290Y-87989470D01*
X51650000Y-88047444D01*
X51650000Y-89052556D01*
X51644290Y-89110530D01*
X51629169Y-89160379D01*
X51604618Y-89206311D01*
X51571574Y-89246574D01*
X51531311Y-89279618D01*
X51485379Y-89304169D01*
X51435530Y-89319290D01*
X51377556Y-89325000D01*
X50122444Y-89325000D01*
X50064470Y-89319290D01*
X50014621Y-89304169D01*
X49968689Y-89279618D01*
X49928426Y-89246574D01*
X49895382Y-89206311D01*
X49870831Y-89160379D01*
X49855710Y-89110530D01*
X49850000Y-89052556D01*
X49850000Y-88047444D01*
X49855710Y-87989470D01*
X49870831Y-87939621D01*
X49895382Y-87893689D01*
X49928426Y-87853426D01*
X49968689Y-87820382D01*
X50014621Y-87795831D01*
X50064470Y-87780710D01*
X50122444Y-87775000D01*
X51377556Y-87775000D01*
X51435530Y-87780710D01*
X51435530Y-87780710D01*
G37*
G36*
X66350000Y-85926409D02*
X66339923Y-85927402D01*
X66316474Y-85934515D01*
X66294863Y-85946066D01*
X66275921Y-85961612D01*
X66260375Y-85980554D01*
X66248824Y-86002165D01*
X66241711Y-86025614D01*
X66239309Y-86050000D01*
X66241711Y-86074386D01*
X66248824Y-86097835D01*
X66254069Y-86108925D01*
X66298053Y-86191211D01*
X66298053Y-86191212D01*
X66339509Y-86327875D01*
X66353507Y-86470000D01*
X66339509Y-86612125D01*
X66320838Y-86673675D01*
X66298053Y-86748789D01*
X66230731Y-86874738D01*
X66140132Y-86985132D01*
X66111812Y-87008374D01*
X66094485Y-87025701D01*
X66080871Y-87046075D01*
X66071493Y-87068714D01*
X66066713Y-87092748D01*
X66066713Y-87117252D01*
X66071493Y-87141286D01*
X66080871Y-87163925D01*
X66094485Y-87184299D01*
X66111812Y-87201626D01*
X66140132Y-87224868D01*
X66230731Y-87335262D01*
X66298053Y-87461211D01*
X66298053Y-87461212D01*
X66339509Y-87597875D01*
X66353507Y-87740000D01*
X66339509Y-87882125D01*
X66326578Y-87924753D01*
X66298053Y-88018789D01*
X66230731Y-88144738D01*
X66140132Y-88255132D01*
X66029738Y-88345731D01*
X65903789Y-88413053D01*
X65858234Y-88426872D01*
X65767125Y-88454509D01*
X65696113Y-88461503D01*
X65660608Y-88465000D01*
X65139392Y-88465000D01*
X65103887Y-88461503D01*
X65032875Y-88454509D01*
X64941766Y-88426872D01*
X64896211Y-88413053D01*
X64770262Y-88345731D01*
X64659868Y-88255132D01*
X64569269Y-88144738D01*
X64501947Y-88018789D01*
X64473422Y-87924753D01*
X64460491Y-87882125D01*
X64446493Y-87740000D01*
X64460491Y-87597875D01*
X64501947Y-87461212D01*
X64501947Y-87461211D01*
X64569269Y-87335262D01*
X64659868Y-87224868D01*
X64688188Y-87201626D01*
X64705515Y-87184299D01*
X64719129Y-87163925D01*
X64728507Y-87141286D01*
X64733287Y-87117252D01*
X64733287Y-87092748D01*
X64728507Y-87068714D01*
X64719129Y-87046075D01*
X64705515Y-87025701D01*
X64688188Y-87008374D01*
X64659868Y-86985132D01*
X64569269Y-86874738D01*
X64501947Y-86748789D01*
X64479162Y-86673675D01*
X64460491Y-86612125D01*
X64446493Y-86470000D01*
X64460491Y-86327875D01*
X64501947Y-86191212D01*
X64501947Y-86191211D01*
X64545931Y-86108925D01*
X64555308Y-86086287D01*
X64560089Y-86062253D01*
X64560089Y-86037749D01*
X64555309Y-86013715D01*
X64545932Y-85991076D01*
X64532318Y-85970702D01*
X64514991Y-85953374D01*
X64494616Y-85939760D01*
X64471978Y-85930383D01*
X64450000Y-85926011D01*
X64450000Y-84475000D01*
X66350000Y-84475000D01*
X66350000Y-85926409D01*
X66350000Y-85926409D01*
G37*
G36*
X51435530Y-85730710D02*
X51485379Y-85745831D01*
X51531311Y-85770382D01*
X51571574Y-85803426D01*
X51604618Y-85843689D01*
X51629169Y-85889621D01*
X51644290Y-85939470D01*
X51650000Y-85997444D01*
X51650000Y-87002556D01*
X51644290Y-87060530D01*
X51629169Y-87110379D01*
X51604618Y-87156311D01*
X51571574Y-87196574D01*
X51531311Y-87229618D01*
X51485379Y-87254169D01*
X51435530Y-87269290D01*
X51377556Y-87275000D01*
X50122444Y-87275000D01*
X50064470Y-87269290D01*
X50014621Y-87254169D01*
X49968689Y-87229618D01*
X49928426Y-87196574D01*
X49895382Y-87156311D01*
X49870831Y-87110379D01*
X49855710Y-87060530D01*
X49850000Y-87002556D01*
X49850000Y-85997444D01*
X49855710Y-85939470D01*
X49870831Y-85889621D01*
X49895382Y-85843689D01*
X49928426Y-85803426D01*
X49968689Y-85770382D01*
X50014621Y-85745831D01*
X50064470Y-85730710D01*
X50122444Y-85725000D01*
X51377556Y-85725000D01*
X51435530Y-85730710D01*
X51435530Y-85730710D01*
G37*
G36*
X49185530Y-85730710D02*
X49235379Y-85745831D01*
X49281311Y-85770382D01*
X49321574Y-85803426D01*
X49354618Y-85843689D01*
X49379169Y-85889621D01*
X49394290Y-85939470D01*
X49400000Y-85997444D01*
X49400000Y-87002556D01*
X49394290Y-87060530D01*
X49379169Y-87110379D01*
X49354618Y-87156311D01*
X49321574Y-87196574D01*
X49281311Y-87229618D01*
X49235379Y-87254169D01*
X49185530Y-87269290D01*
X49127556Y-87275000D01*
X47872444Y-87275000D01*
X47814470Y-87269290D01*
X47764621Y-87254169D01*
X47718689Y-87229618D01*
X47678426Y-87196574D01*
X47645382Y-87156311D01*
X47620831Y-87110379D01*
X47605710Y-87060530D01*
X47600000Y-87002556D01*
X47600000Y-85997444D01*
X47605710Y-85939470D01*
X47620831Y-85889621D01*
X47645382Y-85843689D01*
X47678426Y-85803426D01*
X47718689Y-85770382D01*
X47764621Y-85745831D01*
X47814470Y-85730710D01*
X47872444Y-85725000D01*
X49127556Y-85725000D01*
X49185530Y-85730710D01*
X49185530Y-85730710D01*
G37*
G36*
X61200000Y-87200000D02*
X59200000Y-87200000D01*
X59200000Y-85200000D01*
X61200000Y-85200000D01*
X61200000Y-87200000D01*
X61200000Y-87200000D01*
G37*
G36*
X57875770Y-85215372D02*
X57991689Y-85238429D01*
X58173678Y-85313811D01*
X58337463Y-85423249D01*
X58476751Y-85562537D01*
X58586189Y-85726322D01*
X58661571Y-85908311D01*
X58672173Y-85961612D01*
X58699270Y-86097835D01*
X58700000Y-86101509D01*
X58700000Y-86298491D01*
X58661571Y-86491689D01*
X58586189Y-86673678D01*
X58476751Y-86837463D01*
X58337463Y-86976751D01*
X58173678Y-87086189D01*
X57991689Y-87161571D01*
X57877426Y-87184299D01*
X57798493Y-87200000D01*
X57601507Y-87200000D01*
X57522574Y-87184299D01*
X57408311Y-87161571D01*
X57226322Y-87086189D01*
X57062537Y-86976751D01*
X56923249Y-86837463D01*
X56813811Y-86673678D01*
X56738429Y-86491689D01*
X56700000Y-86298491D01*
X56700000Y-86101509D01*
X56700731Y-86097835D01*
X56727827Y-85961612D01*
X56738429Y-85908311D01*
X56813811Y-85726322D01*
X56923249Y-85562537D01*
X57062537Y-85423249D01*
X57226322Y-85313811D01*
X57408311Y-85238429D01*
X57524230Y-85215372D01*
X57601507Y-85200000D01*
X57798493Y-85200000D01*
X57875770Y-85215372D01*
X57875770Y-85215372D01*
G37*
G36*
X53560530Y-85355710D02*
X53610379Y-85370831D01*
X53656311Y-85395382D01*
X53696574Y-85428426D01*
X53729618Y-85468689D01*
X53754169Y-85514621D01*
X53769290Y-85564470D01*
X53775000Y-85622444D01*
X53775000Y-86877556D01*
X53769290Y-86935530D01*
X53754169Y-86985379D01*
X53729618Y-87031311D01*
X53696574Y-87071574D01*
X53656311Y-87104618D01*
X53610379Y-87129169D01*
X53560530Y-87144290D01*
X53502556Y-87150000D01*
X52497444Y-87150000D01*
X52439470Y-87144290D01*
X52389621Y-87129169D01*
X52343689Y-87104618D01*
X52303426Y-87071574D01*
X52270382Y-87031311D01*
X52245831Y-86985379D01*
X52230710Y-86935530D01*
X52225000Y-86877556D01*
X52225000Y-85622444D01*
X52230710Y-85564470D01*
X52245831Y-85514621D01*
X52270382Y-85468689D01*
X52303426Y-85428426D01*
X52343689Y-85395382D01*
X52389621Y-85370831D01*
X52439470Y-85355710D01*
X52497444Y-85350000D01*
X53502556Y-85350000D01*
X53560530Y-85355710D01*
X53560530Y-85355710D01*
G37*
G36*
X55610530Y-85355710D02*
X55660379Y-85370831D01*
X55706311Y-85395382D01*
X55746574Y-85428426D01*
X55779618Y-85468689D01*
X55804169Y-85514621D01*
X55819290Y-85564470D01*
X55825000Y-85622444D01*
X55825000Y-86877556D01*
X55819290Y-86935530D01*
X55804169Y-86985379D01*
X55779618Y-87031311D01*
X55746574Y-87071574D01*
X55706311Y-87104618D01*
X55660379Y-87129169D01*
X55610530Y-87144290D01*
X55552556Y-87150000D01*
X54547444Y-87150000D01*
X54489470Y-87144290D01*
X54439621Y-87129169D01*
X54393689Y-87104618D01*
X54353426Y-87071574D01*
X54320382Y-87031311D01*
X54295831Y-86985379D01*
X54280710Y-86935530D01*
X54275000Y-86877556D01*
X54275000Y-85622444D01*
X54280710Y-85564470D01*
X54295831Y-85514621D01*
X54320382Y-85468689D01*
X54353426Y-85428426D01*
X54393689Y-85395382D01*
X54439621Y-85370831D01*
X54489470Y-85355710D01*
X54547444Y-85350000D01*
X55552556Y-85350000D01*
X55610530Y-85355710D01*
X55610530Y-85355710D01*
G37*
G36*
X46560530Y-85355710D02*
X46610379Y-85370831D01*
X46656311Y-85395382D01*
X46696574Y-85428426D01*
X46729618Y-85468689D01*
X46754169Y-85514621D01*
X46769290Y-85564470D01*
X46775000Y-85622444D01*
X46775000Y-86877556D01*
X46769290Y-86935530D01*
X46754169Y-86985379D01*
X46729618Y-87031311D01*
X46696574Y-87071574D01*
X46656311Y-87104618D01*
X46610379Y-87129169D01*
X46560530Y-87144290D01*
X46502556Y-87150000D01*
X45497444Y-87150000D01*
X45439470Y-87144290D01*
X45389621Y-87129169D01*
X45343689Y-87104618D01*
X45303426Y-87071574D01*
X45270382Y-87031311D01*
X45245831Y-86985379D01*
X45230710Y-86935530D01*
X45225000Y-86877556D01*
X45225000Y-85622444D01*
X45230710Y-85564470D01*
X45245831Y-85514621D01*
X45270382Y-85468689D01*
X45303426Y-85428426D01*
X45343689Y-85395382D01*
X45389621Y-85370831D01*
X45439470Y-85355710D01*
X45497444Y-85350000D01*
X46502556Y-85350000D01*
X46560530Y-85355710D01*
X46560530Y-85355710D01*
G37*
G36*
X44510530Y-85355710D02*
X44560379Y-85370831D01*
X44606311Y-85395382D01*
X44646574Y-85428426D01*
X44679618Y-85468689D01*
X44704169Y-85514621D01*
X44719290Y-85564470D01*
X44725000Y-85622444D01*
X44725000Y-86877556D01*
X44719290Y-86935530D01*
X44704169Y-86985379D01*
X44679618Y-87031311D01*
X44646574Y-87071574D01*
X44606311Y-87104618D01*
X44560379Y-87129169D01*
X44510530Y-87144290D01*
X44452556Y-87150000D01*
X43447444Y-87150000D01*
X43389470Y-87144290D01*
X43339621Y-87129169D01*
X43293689Y-87104618D01*
X43253426Y-87071574D01*
X43220382Y-87031311D01*
X43195831Y-86985379D01*
X43180710Y-86935530D01*
X43175000Y-86877556D01*
X43175000Y-85622444D01*
X43180710Y-85564470D01*
X43195831Y-85514621D01*
X43220382Y-85468689D01*
X43253426Y-85428426D01*
X43293689Y-85395382D01*
X43339621Y-85370831D01*
X43389470Y-85355710D01*
X43447444Y-85350000D01*
X44452556Y-85350000D01*
X44510530Y-85355710D01*
X44510530Y-85355710D01*
G37*
G36*
X53560530Y-82855710D02*
X53610379Y-82870831D01*
X53656311Y-82895382D01*
X53696574Y-82928426D01*
X53729618Y-82968689D01*
X53754169Y-83014621D01*
X53769290Y-83064470D01*
X53775000Y-83122444D01*
X53775000Y-84377556D01*
X53769290Y-84435530D01*
X53754169Y-84485379D01*
X53729618Y-84531311D01*
X53696574Y-84571574D01*
X53656311Y-84604618D01*
X53610379Y-84629169D01*
X53560530Y-84644290D01*
X53502556Y-84650000D01*
X52497444Y-84650000D01*
X52439470Y-84644290D01*
X52389621Y-84629169D01*
X52343689Y-84604618D01*
X52303426Y-84571574D01*
X52270382Y-84531311D01*
X52245831Y-84485379D01*
X52230710Y-84435530D01*
X52225000Y-84377556D01*
X52225000Y-83122444D01*
X52230710Y-83064470D01*
X52245831Y-83014621D01*
X52270382Y-82968689D01*
X52303426Y-82928426D01*
X52343689Y-82895382D01*
X52389621Y-82870831D01*
X52439470Y-82855710D01*
X52497444Y-82850000D01*
X53502556Y-82850000D01*
X53560530Y-82855710D01*
X53560530Y-82855710D01*
G37*
G36*
X55610530Y-82855710D02*
X55660379Y-82870831D01*
X55706311Y-82895382D01*
X55746574Y-82928426D01*
X55779618Y-82968689D01*
X55804169Y-83014621D01*
X55819290Y-83064470D01*
X55825000Y-83122444D01*
X55825000Y-84377556D01*
X55819290Y-84435530D01*
X55804169Y-84485379D01*
X55779618Y-84531311D01*
X55746574Y-84571574D01*
X55706311Y-84604618D01*
X55660379Y-84629169D01*
X55610530Y-84644290D01*
X55552556Y-84650000D01*
X54547444Y-84650000D01*
X54489470Y-84644290D01*
X54439621Y-84629169D01*
X54393689Y-84604618D01*
X54353426Y-84571574D01*
X54320382Y-84531311D01*
X54295831Y-84485379D01*
X54280710Y-84435530D01*
X54275000Y-84377556D01*
X54275000Y-83122444D01*
X54280710Y-83064470D01*
X54295831Y-83014621D01*
X54320382Y-82968689D01*
X54353426Y-82928426D01*
X54393689Y-82895382D01*
X54439621Y-82870831D01*
X54489470Y-82855710D01*
X54547444Y-82850000D01*
X55552556Y-82850000D01*
X55610530Y-82855710D01*
X55610530Y-82855710D01*
G37*
G36*
X61450000Y-79600000D02*
X60150000Y-79600000D01*
X60150000Y-78000000D01*
X61450000Y-78000000D01*
X61450000Y-79600000D01*
X61450000Y-79600000D01*
G37*
G36*
X56050000Y-79600000D02*
X54750000Y-79600000D01*
X54750000Y-78000000D01*
X56050000Y-78000000D01*
X56050000Y-79600000D01*
X56050000Y-79600000D01*
G37*
G36*
X59350000Y-79600000D02*
X58050000Y-79600000D01*
X58050000Y-78000000D01*
X59350000Y-78000000D01*
X59350000Y-79600000D01*
X59350000Y-79600000D01*
G37*
G36*
X64750000Y-79600000D02*
X63450000Y-79600000D01*
X63450000Y-78000000D01*
X64750000Y-78000000D01*
X64750000Y-79600000D01*
X64750000Y-79600000D01*
G37*
G36*
X40700000Y-76020608D02*
X40702402Y-76044994D01*
X40709515Y-76068443D01*
X40721066Y-76090054D01*
X40736612Y-76108996D01*
X40755554Y-76124542D01*
X40777165Y-76136093D01*
X40800614Y-76143206D01*
X40825000Y-76145608D01*
X40849386Y-76143206D01*
X40872835Y-76136093D01*
X40894446Y-76124542D01*
X40913388Y-76108996D01*
X40928934Y-76090054D01*
X40940481Y-76068450D01*
X40948121Y-76050006D01*
X41052087Y-75894410D01*
X41184410Y-75762087D01*
X41340006Y-75658121D01*
X41512895Y-75586508D01*
X41650548Y-75559127D01*
X41696432Y-75550000D01*
X41883568Y-75550000D01*
X41929452Y-75559127D01*
X42067105Y-75586508D01*
X42239994Y-75658121D01*
X42395590Y-75762087D01*
X42527913Y-75894410D01*
X42631879Y-76050006D01*
X42694518Y-76201229D01*
X42706067Y-76222835D01*
X42721612Y-76241777D01*
X42740554Y-76257322D01*
X42762165Y-76268873D01*
X42785614Y-76275986D01*
X42810000Y-76278388D01*
X42834387Y-76275986D01*
X42857836Y-76268873D01*
X42879447Y-76257321D01*
X42898389Y-76241776D01*
X42913934Y-76222834D01*
X42925482Y-76201229D01*
X42988121Y-76050006D01*
X43092087Y-75894410D01*
X43224410Y-75762087D01*
X43380006Y-75658121D01*
X43552895Y-75586508D01*
X43690548Y-75559127D01*
X43736432Y-75550000D01*
X43923568Y-75550000D01*
X43969452Y-75559127D01*
X44107105Y-75586508D01*
X44279994Y-75658121D01*
X44435590Y-75762087D01*
X44567913Y-75894410D01*
X44671879Y-76050006D01*
X44734518Y-76201229D01*
X44746067Y-76222835D01*
X44761612Y-76241777D01*
X44780554Y-76257322D01*
X44802165Y-76268873D01*
X44825614Y-76275986D01*
X44850000Y-76278388D01*
X44874387Y-76275986D01*
X44897836Y-76268873D01*
X44919447Y-76257321D01*
X44938389Y-76241776D01*
X44953934Y-76222834D01*
X44965482Y-76201229D01*
X45028121Y-76050006D01*
X45132087Y-75894410D01*
X45264410Y-75762087D01*
X45420006Y-75658121D01*
X45592895Y-75586508D01*
X45730548Y-75559127D01*
X45776432Y-75550000D01*
X45963568Y-75550000D01*
X46009452Y-75559127D01*
X46147105Y-75586508D01*
X46319994Y-75658121D01*
X46475590Y-75762087D01*
X46607913Y-75894410D01*
X46711879Y-76050006D01*
X46783492Y-76222895D01*
X46820000Y-76406433D01*
X46820000Y-76593567D01*
X46783492Y-76777105D01*
X46711879Y-76949994D01*
X46607913Y-77105590D01*
X46572348Y-77141155D01*
X46556802Y-77160097D01*
X46545251Y-77181708D01*
X46538138Y-77205157D01*
X46535736Y-77229543D01*
X46538138Y-77253929D01*
X46545251Y-77277378D01*
X46556802Y-77298989D01*
X46572348Y-77317931D01*
X46591290Y-77333477D01*
X46612901Y-77345028D01*
X46636350Y-77352141D01*
X46660736Y-77354543D01*
X46685122Y-77352141D01*
X46796432Y-77330000D01*
X46983568Y-77330000D01*
X47029452Y-77339127D01*
X47167105Y-77366508D01*
X47339994Y-77438121D01*
X47495590Y-77542087D01*
X47627913Y-77674410D01*
X47731879Y-77830006D01*
X47803492Y-78002895D01*
X47840000Y-78186433D01*
X47840000Y-78373567D01*
X47803492Y-78557105D01*
X47731879Y-78729994D01*
X47627913Y-78885590D01*
X47495590Y-79017913D01*
X47339994Y-79121879D01*
X47167105Y-79193492D01*
X47029452Y-79220873D01*
X46983568Y-79230000D01*
X46796432Y-79230000D01*
X46750548Y-79220873D01*
X46612895Y-79193492D01*
X46440006Y-79121879D01*
X46284410Y-79017913D01*
X46152087Y-78885590D01*
X46048121Y-78729994D01*
X45985482Y-78578771D01*
X45973933Y-78557165D01*
X45958388Y-78538223D01*
X45939446Y-78522678D01*
X45917835Y-78511127D01*
X45894386Y-78504014D01*
X45870000Y-78501612D01*
X45845613Y-78504014D01*
X45822164Y-78511127D01*
X45800553Y-78522679D01*
X45781611Y-78538224D01*
X45766066Y-78557166D01*
X45754518Y-78578771D01*
X45691879Y-78729994D01*
X45587913Y-78885590D01*
X45455590Y-79017913D01*
X45299994Y-79121879D01*
X45127105Y-79193492D01*
X44989452Y-79220873D01*
X44943568Y-79230000D01*
X44756432Y-79230000D01*
X44710548Y-79220873D01*
X44572895Y-79193492D01*
X44400006Y-79121879D01*
X44244410Y-79017913D01*
X44112087Y-78885590D01*
X44008121Y-78729994D01*
X43945482Y-78578771D01*
X43933933Y-78557165D01*
X43918388Y-78538223D01*
X43899446Y-78522678D01*
X43877835Y-78511127D01*
X43854386Y-78504014D01*
X43830000Y-78501612D01*
X43805613Y-78504014D01*
X43782164Y-78511127D01*
X43760553Y-78522679D01*
X43741611Y-78538224D01*
X43726066Y-78557166D01*
X43714518Y-78578771D01*
X43651879Y-78729994D01*
X43547913Y-78885590D01*
X43415590Y-79017913D01*
X43259994Y-79121879D01*
X43087105Y-79193492D01*
X42949452Y-79220873D01*
X42903568Y-79230000D01*
X42716432Y-79230000D01*
X42670548Y-79220873D01*
X42532895Y-79193492D01*
X42360006Y-79121879D01*
X42204410Y-79017913D01*
X42072087Y-78885590D01*
X41968121Y-78729994D01*
X41905482Y-78578771D01*
X41893933Y-78557165D01*
X41878388Y-78538223D01*
X41859446Y-78522678D01*
X41837835Y-78511127D01*
X41814386Y-78504014D01*
X41790000Y-78501612D01*
X41765613Y-78504014D01*
X41742164Y-78511127D01*
X41720553Y-78522679D01*
X41701611Y-78538224D01*
X41686066Y-78557166D01*
X41674518Y-78578771D01*
X41611879Y-78729994D01*
X41507913Y-78885590D01*
X41375590Y-79017913D01*
X41219994Y-79121879D01*
X41047105Y-79193492D01*
X40909452Y-79220873D01*
X40863568Y-79230000D01*
X40676432Y-79230000D01*
X40630548Y-79220873D01*
X40492895Y-79193492D01*
X40320006Y-79121879D01*
X40164410Y-79017913D01*
X40032087Y-78885590D01*
X39928121Y-78729994D01*
X39856508Y-78557105D01*
X39820000Y-78373567D01*
X39820000Y-78186433D01*
X39856508Y-78002895D01*
X39928121Y-77830006D01*
X40032087Y-77674410D01*
X40043109Y-77663388D01*
X40058655Y-77644446D01*
X40070206Y-77622835D01*
X40077319Y-77599386D01*
X40079721Y-77575000D01*
X40077319Y-77550614D01*
X40077272Y-77550457D01*
X41435736Y-77550457D01*
X41438138Y-77574843D01*
X41445251Y-77598292D01*
X41456802Y-77619903D01*
X41472348Y-77638845D01*
X41507913Y-77674410D01*
X41611879Y-77830006D01*
X41674518Y-77981229D01*
X41686067Y-78002835D01*
X41701612Y-78021777D01*
X41720554Y-78037322D01*
X41742165Y-78048873D01*
X41765614Y-78055986D01*
X41790000Y-78058388D01*
X41814387Y-78055986D01*
X41837836Y-78048873D01*
X41859447Y-78037321D01*
X41878389Y-78021776D01*
X41893934Y-78002834D01*
X41905482Y-77981229D01*
X41968121Y-77830006D01*
X42072087Y-77674410D01*
X42107652Y-77638845D01*
X42123198Y-77619903D01*
X42134749Y-77598292D01*
X42141862Y-77574843D01*
X42144264Y-77550457D01*
X43475736Y-77550457D01*
X43478138Y-77574843D01*
X43485251Y-77598292D01*
X43496802Y-77619903D01*
X43512348Y-77638845D01*
X43547913Y-77674410D01*
X43651879Y-77830006D01*
X43714518Y-77981229D01*
X43726067Y-78002835D01*
X43741612Y-78021777D01*
X43760554Y-78037322D01*
X43782165Y-78048873D01*
X43805614Y-78055986D01*
X43830000Y-78058388D01*
X43854387Y-78055986D01*
X43877836Y-78048873D01*
X43899447Y-78037321D01*
X43918389Y-78021776D01*
X43933934Y-78002834D01*
X43945482Y-77981229D01*
X44008121Y-77830006D01*
X44112087Y-77674410D01*
X44147652Y-77638845D01*
X44163198Y-77619903D01*
X44174749Y-77598292D01*
X44181862Y-77574843D01*
X44184264Y-77550457D01*
X45515736Y-77550457D01*
X45518138Y-77574843D01*
X45525251Y-77598292D01*
X45536802Y-77619903D01*
X45552348Y-77638845D01*
X45587913Y-77674410D01*
X45691879Y-77830006D01*
X45754518Y-77981229D01*
X45766067Y-78002835D01*
X45781612Y-78021777D01*
X45800554Y-78037322D01*
X45822165Y-78048873D01*
X45845614Y-78055986D01*
X45870000Y-78058388D01*
X45894387Y-78055986D01*
X45917836Y-78048873D01*
X45939447Y-78037321D01*
X45958389Y-78021776D01*
X45973934Y-78002834D01*
X45985482Y-77981229D01*
X46048121Y-77830006D01*
X46152087Y-77674410D01*
X46187652Y-77638845D01*
X46203198Y-77619903D01*
X46214749Y-77598292D01*
X46221862Y-77574843D01*
X46224264Y-77550457D01*
X46221862Y-77526071D01*
X46214749Y-77502622D01*
X46203198Y-77481011D01*
X46187652Y-77462069D01*
X46168710Y-77446523D01*
X46147099Y-77434972D01*
X46123650Y-77427859D01*
X46099264Y-77425457D01*
X46074878Y-77427859D01*
X45963568Y-77450000D01*
X45776432Y-77450000D01*
X45665122Y-77427859D01*
X45640736Y-77425457D01*
X45616350Y-77427859D01*
X45592901Y-77434972D01*
X45571290Y-77446523D01*
X45552348Y-77462069D01*
X45536802Y-77481011D01*
X45525251Y-77502622D01*
X45518138Y-77526071D01*
X45515736Y-77550457D01*
X44184264Y-77550457D01*
X44181862Y-77526071D01*
X44174749Y-77502622D01*
X44163198Y-77481011D01*
X44147652Y-77462069D01*
X44128710Y-77446523D01*
X44107099Y-77434972D01*
X44083650Y-77427859D01*
X44059264Y-77425457D01*
X44034878Y-77427859D01*
X43923568Y-77450000D01*
X43736432Y-77450000D01*
X43625122Y-77427859D01*
X43600736Y-77425457D01*
X43576350Y-77427859D01*
X43552901Y-77434972D01*
X43531290Y-77446523D01*
X43512348Y-77462069D01*
X43496802Y-77481011D01*
X43485251Y-77502622D01*
X43478138Y-77526071D01*
X43475736Y-77550457D01*
X42144264Y-77550457D01*
X42141862Y-77526071D01*
X42134749Y-77502622D01*
X42123198Y-77481011D01*
X42107652Y-77462069D01*
X42088710Y-77446523D01*
X42067099Y-77434972D01*
X42043650Y-77427859D01*
X42019264Y-77425457D01*
X41994878Y-77427859D01*
X41883568Y-77450000D01*
X41696432Y-77450000D01*
X41585122Y-77427859D01*
X41560736Y-77425457D01*
X41536350Y-77427859D01*
X41512901Y-77434972D01*
X41491290Y-77446523D01*
X41472348Y-77462069D01*
X41456802Y-77481011D01*
X41445251Y-77502622D01*
X41438138Y-77526071D01*
X41435736Y-77550457D01*
X40077272Y-77550457D01*
X40070206Y-77527165D01*
X40058655Y-77505554D01*
X40043109Y-77486612D01*
X40024167Y-77471066D01*
X40002556Y-77459515D01*
X39979107Y-77452402D01*
X39954721Y-77450000D01*
X38800000Y-77450000D01*
X38800000Y-76979392D01*
X40700000Y-76979392D01*
X40700000Y-77205000D01*
X40702402Y-77229386D01*
X40709515Y-77252835D01*
X40721066Y-77274446D01*
X40736612Y-77293388D01*
X40755554Y-77308934D01*
X40777165Y-77320485D01*
X40800614Y-77327598D01*
X40825000Y-77330000D01*
X40863568Y-77330000D01*
X40974878Y-77352141D01*
X40999264Y-77354543D01*
X41023650Y-77352141D01*
X41047099Y-77345028D01*
X41068710Y-77333477D01*
X41087652Y-77317931D01*
X41103198Y-77298989D01*
X41114749Y-77277378D01*
X41121862Y-77253929D01*
X41124264Y-77229543D01*
X42455736Y-77229543D01*
X42458138Y-77253929D01*
X42465251Y-77277378D01*
X42476802Y-77298989D01*
X42492348Y-77317931D01*
X42511290Y-77333477D01*
X42532901Y-77345028D01*
X42556350Y-77352141D01*
X42580736Y-77354543D01*
X42605122Y-77352141D01*
X42716432Y-77330000D01*
X42903568Y-77330000D01*
X43014878Y-77352141D01*
X43039264Y-77354543D01*
X43063650Y-77352141D01*
X43087099Y-77345028D01*
X43108710Y-77333477D01*
X43127652Y-77317931D01*
X43143198Y-77298989D01*
X43154749Y-77277378D01*
X43161862Y-77253929D01*
X43164264Y-77229543D01*
X44495736Y-77229543D01*
X44498138Y-77253929D01*
X44505251Y-77277378D01*
X44516802Y-77298989D01*
X44532348Y-77317931D01*
X44551290Y-77333477D01*
X44572901Y-77345028D01*
X44596350Y-77352141D01*
X44620736Y-77354543D01*
X44645122Y-77352141D01*
X44756432Y-77330000D01*
X44943568Y-77330000D01*
X45054878Y-77352141D01*
X45079264Y-77354543D01*
X45103650Y-77352141D01*
X45127099Y-77345028D01*
X45148710Y-77333477D01*
X45167652Y-77317931D01*
X45183198Y-77298989D01*
X45194749Y-77277378D01*
X45201862Y-77253929D01*
X45204264Y-77229543D01*
X45201862Y-77205157D01*
X45194749Y-77181708D01*
X45183198Y-77160097D01*
X45167652Y-77141155D01*
X45132087Y-77105590D01*
X45028121Y-76949994D01*
X44965482Y-76798771D01*
X44953933Y-76777165D01*
X44938388Y-76758223D01*
X44919446Y-76742678D01*
X44897835Y-76731127D01*
X44874386Y-76724014D01*
X44850000Y-76721612D01*
X44825613Y-76724014D01*
X44802164Y-76731127D01*
X44780553Y-76742679D01*
X44761611Y-76758224D01*
X44746066Y-76777166D01*
X44734518Y-76798771D01*
X44671879Y-76949994D01*
X44567913Y-77105590D01*
X44532348Y-77141155D01*
X44516802Y-77160097D01*
X44505251Y-77181708D01*
X44498138Y-77205157D01*
X44495736Y-77229543D01*
X43164264Y-77229543D01*
X43161862Y-77205157D01*
X43154749Y-77181708D01*
X43143198Y-77160097D01*
X43127652Y-77141155D01*
X43092087Y-77105590D01*
X42988121Y-76949994D01*
X42925482Y-76798771D01*
X42913933Y-76777165D01*
X42898388Y-76758223D01*
X42879446Y-76742678D01*
X42857835Y-76731127D01*
X42834386Y-76724014D01*
X42810000Y-76721612D01*
X42785613Y-76724014D01*
X42762164Y-76731127D01*
X42740553Y-76742679D01*
X42721611Y-76758224D01*
X42706066Y-76777166D01*
X42694518Y-76798771D01*
X42631879Y-76949994D01*
X42527913Y-77105590D01*
X42492348Y-77141155D01*
X42476802Y-77160097D01*
X42465251Y-77181708D01*
X42458138Y-77205157D01*
X42455736Y-77229543D01*
X41124264Y-77229543D01*
X41121862Y-77205157D01*
X41114749Y-77181708D01*
X41103198Y-77160097D01*
X41087652Y-77141155D01*
X41052087Y-77105590D01*
X40948121Y-76949994D01*
X40940481Y-76931550D01*
X40928934Y-76909946D01*
X40913389Y-76891004D01*
X40894447Y-76875459D01*
X40872836Y-76863907D01*
X40849387Y-76856794D01*
X40825000Y-76854392D01*
X40800614Y-76856794D01*
X40777165Y-76863907D01*
X40755554Y-76875458D01*
X40736612Y-76891003D01*
X40721067Y-76909945D01*
X40709515Y-76931556D01*
X40702402Y-76955005D01*
X40700000Y-76979392D01*
X38800000Y-76979392D01*
X38800000Y-75550000D01*
X40700000Y-75550000D01*
X40700000Y-76020608D01*
X40700000Y-76020608D01*
G37*
G36*
X51790026Y-76236115D02*
X52008412Y-76326573D01*
X52204958Y-76457901D01*
X52372099Y-76625042D01*
X52503427Y-76821588D01*
X52593885Y-77039974D01*
X52640000Y-77271809D01*
X52640000Y-77508191D01*
X52593885Y-77740026D01*
X52503427Y-77958412D01*
X52372099Y-78154958D01*
X52204958Y-78322099D01*
X52008412Y-78453427D01*
X51790026Y-78543885D01*
X51558191Y-78590000D01*
X51321809Y-78590000D01*
X51089974Y-78543885D01*
X50871588Y-78453427D01*
X50675042Y-78322099D01*
X50507901Y-78154958D01*
X50376573Y-77958412D01*
X50286115Y-77740026D01*
X50240000Y-77508191D01*
X50240000Y-77271809D01*
X50286115Y-77039974D01*
X50376573Y-76821588D01*
X50507901Y-76625042D01*
X50675042Y-76457901D01*
X50871588Y-76326573D01*
X51089974Y-76236115D01*
X51321809Y-76190000D01*
X51558191Y-76190000D01*
X51790026Y-76236115D01*
X51790026Y-76236115D01*
G37*
G36*
X35530026Y-76236115D02*
X35748412Y-76326573D01*
X35944958Y-76457901D01*
X36112099Y-76625042D01*
X36243427Y-76821588D01*
X36333885Y-77039974D01*
X36380000Y-77271809D01*
X36380000Y-77508191D01*
X36333885Y-77740026D01*
X36243427Y-77958412D01*
X36112099Y-78154958D01*
X35944958Y-78322099D01*
X35748412Y-78453427D01*
X35530026Y-78543885D01*
X35298191Y-78590000D01*
X35061809Y-78590000D01*
X34829974Y-78543885D01*
X34611588Y-78453427D01*
X34415042Y-78322099D01*
X34247901Y-78154958D01*
X34116573Y-77958412D01*
X34026115Y-77740026D01*
X33980000Y-77508191D01*
X33980000Y-77271809D01*
X34026115Y-77039974D01*
X34116573Y-76821588D01*
X34247901Y-76625042D01*
X34415042Y-76457901D01*
X34611588Y-76326573D01*
X34829974Y-76236115D01*
X35061809Y-76190000D01*
X35298191Y-76190000D01*
X35530026Y-76236115D01*
X35530026Y-76236115D01*
G37*
G36*
X54285530Y-74680710D02*
X54335379Y-74695831D01*
X54381311Y-74720382D01*
X54421574Y-74753426D01*
X54454618Y-74793689D01*
X54479169Y-74839621D01*
X54494290Y-74889470D01*
X54500000Y-74947444D01*
X54500000Y-75952556D01*
X54494290Y-76010530D01*
X54479169Y-76060379D01*
X54454618Y-76106311D01*
X54421574Y-76146574D01*
X54381311Y-76179618D01*
X54335379Y-76204169D01*
X54285530Y-76219290D01*
X54227556Y-76225000D01*
X52972444Y-76225000D01*
X52914470Y-76219290D01*
X52864621Y-76204169D01*
X52818689Y-76179618D01*
X52778426Y-76146574D01*
X52745382Y-76106311D01*
X52720831Y-76060379D01*
X52705710Y-76010530D01*
X52700000Y-75952556D01*
X52700000Y-74947444D01*
X52705710Y-74889470D01*
X52720831Y-74839621D01*
X52745382Y-74793689D01*
X52778426Y-74753426D01*
X52818689Y-74720382D01*
X52864621Y-74695831D01*
X52914470Y-74680710D01*
X52972444Y-74675000D01*
X54227556Y-74675000D01*
X54285530Y-74680710D01*
X54285530Y-74680710D01*
G37*
G36*
X50006719Y-72168213D02*
X50192333Y-72205134D01*
X50524461Y-72342706D01*
X50821356Y-72541085D01*
X50823372Y-72542432D01*
X51077568Y-72796628D01*
X51077570Y-72796631D01*
X51277294Y-73095539D01*
X51414866Y-73427667D01*
X51485000Y-73780253D01*
X51485000Y-74139747D01*
X51414866Y-74492333D01*
X51277294Y-74824461D01*
X51195119Y-74947444D01*
X51077568Y-75123372D01*
X50823372Y-75377568D01*
X50823369Y-75377570D01*
X50524461Y-75577294D01*
X50192333Y-75714866D01*
X50016040Y-75749933D01*
X49839748Y-75785000D01*
X49480252Y-75785000D01*
X49303960Y-75749933D01*
X49127667Y-75714866D01*
X48795539Y-75577294D01*
X48496631Y-75377570D01*
X48496628Y-75377568D01*
X48242432Y-75123372D01*
X48124881Y-74947444D01*
X48042706Y-74824461D01*
X47905134Y-74492333D01*
X47835000Y-74139747D01*
X47835000Y-73780253D01*
X47905134Y-73427667D01*
X48042706Y-73095539D01*
X48242430Y-72796631D01*
X48242432Y-72796628D01*
X48496628Y-72542432D01*
X48498644Y-72541085D01*
X48795539Y-72342706D01*
X49127667Y-72205134D01*
X49313281Y-72168213D01*
X49480252Y-72135000D01*
X49839748Y-72135000D01*
X50006719Y-72168213D01*
X50006719Y-72168213D01*
G37*
G36*
X37306719Y-72168213D02*
X37492333Y-72205134D01*
X37824461Y-72342706D01*
X38121356Y-72541085D01*
X38123372Y-72542432D01*
X38377568Y-72796628D01*
X38377570Y-72796631D01*
X38577294Y-73095539D01*
X38714866Y-73427667D01*
X38785000Y-73780253D01*
X38785000Y-74139747D01*
X38714866Y-74492333D01*
X38577294Y-74824461D01*
X38495119Y-74947444D01*
X38377568Y-75123372D01*
X38123372Y-75377568D01*
X38123369Y-75377570D01*
X37824461Y-75577294D01*
X37492333Y-75714866D01*
X37316040Y-75749933D01*
X37139748Y-75785000D01*
X36780252Y-75785000D01*
X36603960Y-75749933D01*
X36427667Y-75714866D01*
X36095539Y-75577294D01*
X35796631Y-75377570D01*
X35796628Y-75377568D01*
X35542432Y-75123372D01*
X35424881Y-74947444D01*
X35342706Y-74824461D01*
X35205134Y-74492333D01*
X35135000Y-74139747D01*
X35135000Y-73780253D01*
X35205134Y-73427667D01*
X35342706Y-73095539D01*
X35542430Y-72796631D01*
X35542432Y-72796628D01*
X35796628Y-72542432D01*
X35798644Y-72541085D01*
X36095539Y-72342706D01*
X36427667Y-72205134D01*
X36613281Y-72168213D01*
X36780252Y-72135000D01*
X37139748Y-72135000D01*
X37306719Y-72168213D01*
X37306719Y-72168213D01*
G37*
G36*
X54285530Y-72630710D02*
X54335379Y-72645831D01*
X54381311Y-72670382D01*
X54421574Y-72703426D01*
X54454618Y-72743689D01*
X54479169Y-72789621D01*
X54494290Y-72839470D01*
X54500000Y-72897444D01*
X54500000Y-73902556D01*
X54494290Y-73960530D01*
X54479169Y-74010379D01*
X54454618Y-74056311D01*
X54421574Y-74096574D01*
X54381311Y-74129618D01*
X54335379Y-74154169D01*
X54285530Y-74169290D01*
X54227556Y-74175000D01*
X52972444Y-74175000D01*
X52914470Y-74169290D01*
X52864621Y-74154169D01*
X52818689Y-74129618D01*
X52778426Y-74096574D01*
X52745382Y-74056311D01*
X52720831Y-74010379D01*
X52705710Y-73960530D01*
X52700000Y-73902556D01*
X52700000Y-72897444D01*
X52705710Y-72839470D01*
X52720831Y-72789621D01*
X52745382Y-72743689D01*
X52778426Y-72703426D01*
X52818689Y-72670382D01*
X52864621Y-72645831D01*
X52914470Y-72630710D01*
X52972444Y-72625000D01*
X54227556Y-72625000D01*
X54285530Y-72630710D01*
X54285530Y-72630710D01*
G37*
G36*
X66560530Y-71855710D02*
X66610379Y-71870831D01*
X66656311Y-71895382D01*
X66696574Y-71928426D01*
X66729618Y-71968689D01*
X66754169Y-72014621D01*
X66769290Y-72064470D01*
X66775000Y-72122444D01*
X66775000Y-73377556D01*
X66769290Y-73435530D01*
X66754169Y-73485379D01*
X66729618Y-73531311D01*
X66696574Y-73571574D01*
X66656311Y-73604618D01*
X66610379Y-73629169D01*
X66560530Y-73644290D01*
X66502556Y-73650000D01*
X65497444Y-73650000D01*
X65439470Y-73644290D01*
X65389621Y-73629169D01*
X65343689Y-73604618D01*
X65303426Y-73571574D01*
X65270382Y-73531311D01*
X65245831Y-73485379D01*
X65230710Y-73435530D01*
X65225000Y-73377556D01*
X65225000Y-72122444D01*
X65230710Y-72064470D01*
X65245831Y-72014621D01*
X65270382Y-71968689D01*
X65303426Y-71928426D01*
X65343689Y-71895382D01*
X65389621Y-71870831D01*
X65439470Y-71855710D01*
X65497444Y-71850000D01*
X66502556Y-71850000D01*
X66560530Y-71855710D01*
X66560530Y-71855710D01*
G37*
G36*
X64510530Y-71855710D02*
X64560379Y-71870831D01*
X64606311Y-71895382D01*
X64646574Y-71928426D01*
X64679618Y-71968689D01*
X64704169Y-72014621D01*
X64719290Y-72064470D01*
X64725000Y-72122444D01*
X64725000Y-73377556D01*
X64719290Y-73435530D01*
X64704169Y-73485379D01*
X64679618Y-73531311D01*
X64646574Y-73571574D01*
X64606311Y-73604618D01*
X64560379Y-73629169D01*
X64510530Y-73644290D01*
X64452556Y-73650000D01*
X63447444Y-73650000D01*
X63389470Y-73644290D01*
X63339621Y-73629169D01*
X63293689Y-73604618D01*
X63253426Y-73571574D01*
X63220382Y-73531311D01*
X63195831Y-73485379D01*
X63180710Y-73435530D01*
X63175000Y-73377556D01*
X63175000Y-72122444D01*
X63180710Y-72064470D01*
X63195831Y-72014621D01*
X63220382Y-71968689D01*
X63253426Y-71928426D01*
X63293689Y-71895382D01*
X63339621Y-71870831D01*
X63389470Y-71855710D01*
X63447444Y-71850000D01*
X64452556Y-71850000D01*
X64510530Y-71855710D01*
X64510530Y-71855710D01*
G37*
G36*
X54285530Y-70680710D02*
X54335379Y-70695831D01*
X54381311Y-70720382D01*
X54421574Y-70753426D01*
X54454618Y-70793689D01*
X54479169Y-70839621D01*
X54494290Y-70889470D01*
X54500000Y-70947444D01*
X54500000Y-71952556D01*
X54494290Y-72010530D01*
X54479169Y-72060379D01*
X54454618Y-72106311D01*
X54421574Y-72146574D01*
X54381311Y-72179618D01*
X54335379Y-72204169D01*
X54285530Y-72219290D01*
X54227556Y-72225000D01*
X52972444Y-72225000D01*
X52914470Y-72219290D01*
X52864621Y-72204169D01*
X52818689Y-72179618D01*
X52778426Y-72146574D01*
X52745382Y-72106311D01*
X52720831Y-72060379D01*
X52705710Y-72010530D01*
X52700000Y-71952556D01*
X52700000Y-70947444D01*
X52705710Y-70889470D01*
X52720831Y-70839621D01*
X52745382Y-70793689D01*
X52778426Y-70753426D01*
X52818689Y-70720382D01*
X52864621Y-70695831D01*
X52914470Y-70680710D01*
X52972444Y-70675000D01*
X54227556Y-70675000D01*
X54285530Y-70680710D01*
X54285530Y-70680710D01*
G37*
G36*
X64510530Y-69705710D02*
X64560379Y-69720831D01*
X64606311Y-69745382D01*
X64646574Y-69778426D01*
X64679618Y-69818689D01*
X64704169Y-69864621D01*
X64719290Y-69914470D01*
X64725000Y-69972444D01*
X64725000Y-71227556D01*
X64719290Y-71285530D01*
X64704169Y-71335379D01*
X64679618Y-71381311D01*
X64646574Y-71421574D01*
X64606311Y-71454618D01*
X64560379Y-71479169D01*
X64510530Y-71494290D01*
X64452556Y-71500000D01*
X63447444Y-71500000D01*
X63389470Y-71494290D01*
X63339621Y-71479169D01*
X63293689Y-71454618D01*
X63253426Y-71421574D01*
X63220382Y-71381311D01*
X63195831Y-71335379D01*
X63180710Y-71285530D01*
X63175000Y-71227556D01*
X63175000Y-69972444D01*
X63180710Y-69914470D01*
X63195831Y-69864621D01*
X63220382Y-69818689D01*
X63253426Y-69778426D01*
X63293689Y-69745382D01*
X63339621Y-69720831D01*
X63389470Y-69705710D01*
X63447444Y-69700000D01*
X64452556Y-69700000D01*
X64510530Y-69705710D01*
X64510530Y-69705710D01*
G37*
G36*
X66560530Y-69705710D02*
X66610379Y-69720831D01*
X66656311Y-69745382D01*
X66696574Y-69778426D01*
X66729618Y-69818689D01*
X66754169Y-69864621D01*
X66769290Y-69914470D01*
X66775000Y-69972444D01*
X66775000Y-71227556D01*
X66769290Y-71285530D01*
X66754169Y-71335379D01*
X66729618Y-71381311D01*
X66696574Y-71421574D01*
X66656311Y-71454618D01*
X66610379Y-71479169D01*
X66560530Y-71494290D01*
X66502556Y-71500000D01*
X65497444Y-71500000D01*
X65439470Y-71494290D01*
X65389621Y-71479169D01*
X65343689Y-71454618D01*
X65303426Y-71421574D01*
X65270382Y-71381311D01*
X65245831Y-71335379D01*
X65230710Y-71285530D01*
X65225000Y-71227556D01*
X65225000Y-69972444D01*
X65230710Y-69914470D01*
X65245831Y-69864621D01*
X65270382Y-69818689D01*
X65303426Y-69778426D01*
X65343689Y-69745382D01*
X65389621Y-69720831D01*
X65439470Y-69705710D01*
X65497444Y-69700000D01*
X66502556Y-69700000D01*
X66560530Y-69705710D01*
X66560530Y-69705710D01*
G37*
G36*
X54285530Y-68630710D02*
X54335379Y-68645831D01*
X54381311Y-68670382D01*
X54421574Y-68703426D01*
X54454618Y-68743689D01*
X54479169Y-68789621D01*
X54494290Y-68839470D01*
X54500000Y-68897444D01*
X54500000Y-69902556D01*
X54494290Y-69960530D01*
X54479169Y-70010379D01*
X54454618Y-70056311D01*
X54421574Y-70096574D01*
X54381311Y-70129618D01*
X54335379Y-70154169D01*
X54285530Y-70169290D01*
X54227556Y-70175000D01*
X52972444Y-70175000D01*
X52914470Y-70169290D01*
X52864621Y-70154169D01*
X52818689Y-70129618D01*
X52778426Y-70096574D01*
X52745382Y-70056311D01*
X52720831Y-70010379D01*
X52705710Y-69960530D01*
X52700000Y-69902556D01*
X52700000Y-68897444D01*
X52705710Y-68839470D01*
X52720831Y-68789621D01*
X52745382Y-68743689D01*
X52778426Y-68703426D01*
X52818689Y-68670382D01*
X52864621Y-68645831D01*
X52914470Y-68630710D01*
X52972444Y-68625000D01*
X54227556Y-68625000D01*
X54285530Y-68630710D01*
X54285530Y-68630710D01*
G37*
M02*
