G04 #@! TF.GenerationSoftware,KiCad,Pcbnew,5.0.2-bee76a0~70~ubuntu18.04.1*
G04 #@! TF.CreationDate,2019-08-17T16:59:23+02:00*
G04 #@! TF.ProjectId,HAN_ESP_TSS721,48414e5f-4553-4505-9f54-53533732312e,rev?*
G04 #@! TF.SameCoordinates,Original*
G04 #@! TF.FileFunction,Copper,L2,Bot*
G04 #@! TF.FilePolarity,Positive*
%FSLAX46Y46*%
G04 Gerber Fmt 4.6, Leading zero omitted, Abs format (unit mm)*
G04 Created by KiCad (PCBNEW 5.0.2-bee76a0~70~ubuntu18.04.1) date Sat 17 Aug 2019 04:59:23 PM CEST*
%MOMM*%
%LPD*%
G01*
G04 APERTURE LIST*
G04 #@! TA.AperFunction,ComponentPad*
%ADD10R,2.400000X2.400000*%
G04 #@! TD*
G04 #@! TA.AperFunction,ComponentPad*
%ADD11C,2.400000*%
G04 #@! TD*
G04 #@! TA.AperFunction,ComponentPad*
%ADD12O,1.700000X1.700000*%
G04 #@! TD*
G04 #@! TA.AperFunction,ComponentPad*
%ADD13R,1.700000X1.700000*%
G04 #@! TD*
G04 #@! TA.AperFunction,SMDPad,CuDef*
%ADD14R,1.500000X0.600000*%
G04 #@! TD*
G04 #@! TA.AperFunction,SMDPad,CuDef*
%ADD15C,0.500000*%
G04 #@! TD*
G04 #@! TA.AperFunction,Conductor*
%ADD16C,0.100000*%
G04 #@! TD*
G04 #@! TA.AperFunction,SMDPad,CuDef*
%ADD17C,1.150000*%
G04 #@! TD*
G04 #@! TA.AperFunction,ComponentPad*
%ADD18R,1.600000X1.600000*%
G04 #@! TD*
G04 #@! TA.AperFunction,ComponentPad*
%ADD19C,1.600000*%
G04 #@! TD*
G04 #@! TA.AperFunction,SMDPad,CuDef*
%ADD20R,0.450000X1.500000*%
G04 #@! TD*
G04 #@! TA.AperFunction,SMDPad,CuDef*
%ADD21R,0.900000X1.200000*%
G04 #@! TD*
G04 #@! TA.AperFunction,ComponentPad*
%ADD22R,1.500000X1.500000*%
G04 #@! TD*
G04 #@! TA.AperFunction,ComponentPad*
%ADD23C,1.500000*%
G04 #@! TD*
G04 #@! TA.AperFunction,ComponentPad*
%ADD24C,2.000000*%
G04 #@! TD*
G04 #@! TA.AperFunction,SMDPad,CuDef*
%ADD25R,1.000000X0.550000*%
G04 #@! TD*
G04 #@! TA.AperFunction,ComponentPad*
%ADD26O,1.500000X1.050000*%
G04 #@! TD*
G04 #@! TA.AperFunction,ComponentPad*
%ADD27R,1.500000X1.050000*%
G04 #@! TD*
G04 #@! TA.AperFunction,ViaPad*
%ADD28C,0.600000*%
G04 #@! TD*
G04 #@! TA.AperFunction,Conductor*
%ADD29C,0.250000*%
G04 #@! TD*
G04 #@! TA.AperFunction,Conductor*
%ADD30C,0.600000*%
G04 #@! TD*
G04 #@! TA.AperFunction,Conductor*
%ADD31C,0.254000*%
G04 #@! TD*
G04 APERTURE END LIST*
D10*
G04 #@! TO.P,C8,1*
G04 #@! TO.N,+3V3*
X59400000Y-92800000D03*
D11*
G04 #@! TO.P,C8,2*
G04 #@! TO.N,GND*
X59400000Y-104800000D03*
G04 #@! TD*
D12*
G04 #@! TO.P,J2,6*
G04 #@! TO.N,GND*
X66600000Y-99100000D03*
G04 #@! TO.P,J2,5*
G04 #@! TO.N,Net-(J2-Pad5)*
X66600000Y-101640000D03*
G04 #@! TO.P,J2,4*
G04 #@! TO.N,+3V3*
X66600000Y-104180000D03*
G04 #@! TO.P,J2,3*
G04 #@! TO.N,ESP_RX*
X66600000Y-106720000D03*
G04 #@! TO.P,J2,2*
G04 #@! TO.N,ESP_TX*
X66600000Y-109260000D03*
D13*
G04 #@! TO.P,J2,1*
G04 #@! TO.N,DTR*
X66600000Y-111800000D03*
G04 #@! TD*
D14*
G04 #@! TO.P,U3,1*
G04 #@! TO.N,Net-(R12-Pad1)*
X40200000Y-100365000D03*
G04 #@! TO.P,U3,2*
G04 #@! TO.N,Net-(U3-Pad2)*
X40200000Y-99095000D03*
G04 #@! TO.P,U3,3*
G04 #@! TO.N,Net-(C9-Pad1)*
X40200000Y-97825000D03*
G04 #@! TO.P,U3,4*
G04 #@! TO.N,Net-(R13-Pad1)*
X40200000Y-96555000D03*
G04 #@! TO.P,U3,5*
G04 #@! TO.N,POWER_FAIL*
X40200000Y-95285000D03*
G04 #@! TO.P,U3,6*
G04 #@! TO.N,Net-(C11-Pad1)*
X40200000Y-94015000D03*
G04 #@! TO.P,U3,7*
G04 #@! TO.N,Net-(U3-Pad7)*
X40200000Y-92745000D03*
G04 #@! TO.P,U3,8*
G04 #@! TO.N,HAN_TX*
X40200000Y-91475000D03*
G04 #@! TO.P,U3,9*
G04 #@! TO.N,+3V3*
X45600000Y-91475000D03*
G04 #@! TO.P,U3,10*
G04 #@! TO.N,Net-(U3-Pad10)*
X45600000Y-92745000D03*
G04 #@! TO.P,U3,11*
G04 #@! TO.N,Net-(C12-Pad1)*
X45600000Y-94015000D03*
G04 #@! TO.P,U3,12*
G04 #@! TO.N,Net-(U3-Pad12)*
X45600000Y-95285000D03*
G04 #@! TO.P,U3,13*
G04 #@! TO.N,Net-(U3-Pad13)*
X45600000Y-96555000D03*
G04 #@! TO.P,U3,14*
G04 #@! TO.N,Net-(R15-Pad1)*
X45600000Y-97825000D03*
G04 #@! TO.P,U3,15*
G04 #@! TO.N,GND*
X45600000Y-99095000D03*
G04 #@! TO.P,U3,16*
G04 #@! TO.N,Net-(R11-Pad2)*
X45600000Y-100365000D03*
G04 #@! TD*
D13*
G04 #@! TO.P,JP1,1*
G04 #@! TO.N,HAN_TX*
X66400000Y-94200000D03*
D12*
G04 #@! TO.P,JP1,2*
G04 #@! TO.N,ESP_RX*
X66400000Y-91660000D03*
G04 #@! TD*
D15*
G04 #@! TO.P,JP2,1*
G04 #@! TO.N,Net-(JP2-Pad1)*
X59750000Y-97750000D03*
D16*
G04 #@! TD*
G04 #@! TO.N,Net-(JP2-Pad1)*
G04 #@! TO.C,JP2*
G36*
X59000000Y-98250000D02*
X59000000Y-97750000D01*
X59000602Y-97750000D01*
X59000602Y-97725466D01*
X59005412Y-97676635D01*
X59014984Y-97628510D01*
X59029228Y-97581555D01*
X59048005Y-97536222D01*
X59071136Y-97492949D01*
X59098396Y-97452150D01*
X59129524Y-97414221D01*
X59164221Y-97379524D01*
X59202150Y-97348396D01*
X59242949Y-97321136D01*
X59286222Y-97298005D01*
X59331555Y-97279228D01*
X59378510Y-97264984D01*
X59426635Y-97255412D01*
X59475466Y-97250602D01*
X59500000Y-97250602D01*
X59500000Y-97250000D01*
X60000000Y-97250000D01*
X60000000Y-97250602D01*
X60024534Y-97250602D01*
X60073365Y-97255412D01*
X60121490Y-97264984D01*
X60168445Y-97279228D01*
X60213778Y-97298005D01*
X60257051Y-97321136D01*
X60297850Y-97348396D01*
X60335779Y-97379524D01*
X60370476Y-97414221D01*
X60401604Y-97452150D01*
X60428864Y-97492949D01*
X60451995Y-97536222D01*
X60470772Y-97581555D01*
X60485016Y-97628510D01*
X60494588Y-97676635D01*
X60499398Y-97725466D01*
X60499398Y-97750000D01*
X60500000Y-97750000D01*
X60500000Y-98250000D01*
X59000000Y-98250000D01*
X59000000Y-98250000D01*
G37*
D15*
G04 #@! TO.P,JP2,2*
G04 #@! TO.N,ESP_RESET*
X59750000Y-99050000D03*
D16*
G04 #@! TD*
G04 #@! TO.N,ESP_RESET*
G04 #@! TO.C,JP2*
G36*
X60499398Y-99050000D02*
X60499398Y-99074534D01*
X60494588Y-99123365D01*
X60485016Y-99171490D01*
X60470772Y-99218445D01*
X60451995Y-99263778D01*
X60428864Y-99307051D01*
X60401604Y-99347850D01*
X60370476Y-99385779D01*
X60335779Y-99420476D01*
X60297850Y-99451604D01*
X60257051Y-99478864D01*
X60213778Y-99501995D01*
X60168445Y-99520772D01*
X60121490Y-99535016D01*
X60073365Y-99544588D01*
X60024534Y-99549398D01*
X60000000Y-99549398D01*
X60000000Y-99550000D01*
X59500000Y-99550000D01*
X59500000Y-99549398D01*
X59475466Y-99549398D01*
X59426635Y-99544588D01*
X59378510Y-99535016D01*
X59331555Y-99520772D01*
X59286222Y-99501995D01*
X59242949Y-99478864D01*
X59202150Y-99451604D01*
X59164221Y-99420476D01*
X59129524Y-99385779D01*
X59098396Y-99347850D01*
X59071136Y-99307051D01*
X59048005Y-99263778D01*
X59029228Y-99218445D01*
X59014984Y-99171490D01*
X59005412Y-99123365D01*
X59000602Y-99074534D01*
X59000602Y-99050000D01*
X59000000Y-99050000D01*
X59000000Y-98550000D01*
X60500000Y-98550000D01*
X60500000Y-99050000D01*
X60499398Y-99050000D01*
X60499398Y-99050000D01*
G37*
G04 #@! TO.N,GND*
G04 #@! TO.C,R13*
G36*
X34824505Y-90551204D02*
X34848773Y-90554804D01*
X34872572Y-90560765D01*
X34895671Y-90569030D01*
X34917850Y-90579520D01*
X34938893Y-90592132D01*
X34958599Y-90606747D01*
X34976777Y-90623223D01*
X34993253Y-90641401D01*
X35007868Y-90661107D01*
X35020480Y-90682150D01*
X35030970Y-90704329D01*
X35039235Y-90727428D01*
X35045196Y-90751227D01*
X35048796Y-90775495D01*
X35050000Y-90799999D01*
X35050000Y-91700001D01*
X35048796Y-91724505D01*
X35045196Y-91748773D01*
X35039235Y-91772572D01*
X35030970Y-91795671D01*
X35020480Y-91817850D01*
X35007868Y-91838893D01*
X34993253Y-91858599D01*
X34976777Y-91876777D01*
X34958599Y-91893253D01*
X34938893Y-91907868D01*
X34917850Y-91920480D01*
X34895671Y-91930970D01*
X34872572Y-91939235D01*
X34848773Y-91945196D01*
X34824505Y-91948796D01*
X34800001Y-91950000D01*
X34149999Y-91950000D01*
X34125495Y-91948796D01*
X34101227Y-91945196D01*
X34077428Y-91939235D01*
X34054329Y-91930970D01*
X34032150Y-91920480D01*
X34011107Y-91907868D01*
X33991401Y-91893253D01*
X33973223Y-91876777D01*
X33956747Y-91858599D01*
X33942132Y-91838893D01*
X33929520Y-91817850D01*
X33919030Y-91795671D01*
X33910765Y-91772572D01*
X33904804Y-91748773D01*
X33901204Y-91724505D01*
X33900000Y-91700001D01*
X33900000Y-90799999D01*
X33901204Y-90775495D01*
X33904804Y-90751227D01*
X33910765Y-90727428D01*
X33919030Y-90704329D01*
X33929520Y-90682150D01*
X33942132Y-90661107D01*
X33956747Y-90641401D01*
X33973223Y-90623223D01*
X33991401Y-90606747D01*
X34011107Y-90592132D01*
X34032150Y-90579520D01*
X34054329Y-90569030D01*
X34077428Y-90560765D01*
X34101227Y-90554804D01*
X34125495Y-90551204D01*
X34149999Y-90550000D01*
X34800001Y-90550000D01*
X34824505Y-90551204D01*
X34824505Y-90551204D01*
G37*
D17*
G04 #@! TD*
G04 #@! TO.P,R13,2*
G04 #@! TO.N,GND*
X34475000Y-91250000D03*
D16*
G04 #@! TO.N,Net-(R13-Pad1)*
G04 #@! TO.C,R13*
G36*
X36874505Y-90551204D02*
X36898773Y-90554804D01*
X36922572Y-90560765D01*
X36945671Y-90569030D01*
X36967850Y-90579520D01*
X36988893Y-90592132D01*
X37008599Y-90606747D01*
X37026777Y-90623223D01*
X37043253Y-90641401D01*
X37057868Y-90661107D01*
X37070480Y-90682150D01*
X37080970Y-90704329D01*
X37089235Y-90727428D01*
X37095196Y-90751227D01*
X37098796Y-90775495D01*
X37100000Y-90799999D01*
X37100000Y-91700001D01*
X37098796Y-91724505D01*
X37095196Y-91748773D01*
X37089235Y-91772572D01*
X37080970Y-91795671D01*
X37070480Y-91817850D01*
X37057868Y-91838893D01*
X37043253Y-91858599D01*
X37026777Y-91876777D01*
X37008599Y-91893253D01*
X36988893Y-91907868D01*
X36967850Y-91920480D01*
X36945671Y-91930970D01*
X36922572Y-91939235D01*
X36898773Y-91945196D01*
X36874505Y-91948796D01*
X36850001Y-91950000D01*
X36199999Y-91950000D01*
X36175495Y-91948796D01*
X36151227Y-91945196D01*
X36127428Y-91939235D01*
X36104329Y-91930970D01*
X36082150Y-91920480D01*
X36061107Y-91907868D01*
X36041401Y-91893253D01*
X36023223Y-91876777D01*
X36006747Y-91858599D01*
X35992132Y-91838893D01*
X35979520Y-91817850D01*
X35969030Y-91795671D01*
X35960765Y-91772572D01*
X35954804Y-91748773D01*
X35951204Y-91724505D01*
X35950000Y-91700001D01*
X35950000Y-90799999D01*
X35951204Y-90775495D01*
X35954804Y-90751227D01*
X35960765Y-90727428D01*
X35969030Y-90704329D01*
X35979520Y-90682150D01*
X35992132Y-90661107D01*
X36006747Y-90641401D01*
X36023223Y-90623223D01*
X36041401Y-90606747D01*
X36061107Y-90592132D01*
X36082150Y-90579520D01*
X36104329Y-90569030D01*
X36127428Y-90560765D01*
X36151227Y-90554804D01*
X36175495Y-90551204D01*
X36199999Y-90550000D01*
X36850001Y-90550000D01*
X36874505Y-90551204D01*
X36874505Y-90551204D01*
G37*
D17*
G04 #@! TD*
G04 #@! TO.P,R13,1*
G04 #@! TO.N,Net-(R13-Pad1)*
X36525000Y-91250000D03*
D16*
G04 #@! TO.N,Net-(R15-Pad1)*
G04 #@! TO.C,R15*
G36*
X49349505Y-97801204D02*
X49373773Y-97804804D01*
X49397572Y-97810765D01*
X49420671Y-97819030D01*
X49442850Y-97829520D01*
X49463893Y-97842132D01*
X49483599Y-97856747D01*
X49501777Y-97873223D01*
X49518253Y-97891401D01*
X49532868Y-97911107D01*
X49545480Y-97932150D01*
X49555970Y-97954329D01*
X49564235Y-97977428D01*
X49570196Y-98001227D01*
X49573796Y-98025495D01*
X49575000Y-98049999D01*
X49575000Y-98950001D01*
X49573796Y-98974505D01*
X49570196Y-98998773D01*
X49564235Y-99022572D01*
X49555970Y-99045671D01*
X49545480Y-99067850D01*
X49532868Y-99088893D01*
X49518253Y-99108599D01*
X49501777Y-99126777D01*
X49483599Y-99143253D01*
X49463893Y-99157868D01*
X49442850Y-99170480D01*
X49420671Y-99180970D01*
X49397572Y-99189235D01*
X49373773Y-99195196D01*
X49349505Y-99198796D01*
X49325001Y-99200000D01*
X48674999Y-99200000D01*
X48650495Y-99198796D01*
X48626227Y-99195196D01*
X48602428Y-99189235D01*
X48579329Y-99180970D01*
X48557150Y-99170480D01*
X48536107Y-99157868D01*
X48516401Y-99143253D01*
X48498223Y-99126777D01*
X48481747Y-99108599D01*
X48467132Y-99088893D01*
X48454520Y-99067850D01*
X48444030Y-99045671D01*
X48435765Y-99022572D01*
X48429804Y-98998773D01*
X48426204Y-98974505D01*
X48425000Y-98950001D01*
X48425000Y-98049999D01*
X48426204Y-98025495D01*
X48429804Y-98001227D01*
X48435765Y-97977428D01*
X48444030Y-97954329D01*
X48454520Y-97932150D01*
X48467132Y-97911107D01*
X48481747Y-97891401D01*
X48498223Y-97873223D01*
X48516401Y-97856747D01*
X48536107Y-97842132D01*
X48557150Y-97829520D01*
X48579329Y-97819030D01*
X48602428Y-97810765D01*
X48626227Y-97804804D01*
X48650495Y-97801204D01*
X48674999Y-97800000D01*
X49325001Y-97800000D01*
X49349505Y-97801204D01*
X49349505Y-97801204D01*
G37*
D17*
G04 #@! TD*
G04 #@! TO.P,R15,1*
G04 #@! TO.N,Net-(R15-Pad1)*
X49000000Y-98500000D03*
D16*
G04 #@! TO.N,GND*
G04 #@! TO.C,R15*
G36*
X51399505Y-97801204D02*
X51423773Y-97804804D01*
X51447572Y-97810765D01*
X51470671Y-97819030D01*
X51492850Y-97829520D01*
X51513893Y-97842132D01*
X51533599Y-97856747D01*
X51551777Y-97873223D01*
X51568253Y-97891401D01*
X51582868Y-97911107D01*
X51595480Y-97932150D01*
X51605970Y-97954329D01*
X51614235Y-97977428D01*
X51620196Y-98001227D01*
X51623796Y-98025495D01*
X51625000Y-98049999D01*
X51625000Y-98950001D01*
X51623796Y-98974505D01*
X51620196Y-98998773D01*
X51614235Y-99022572D01*
X51605970Y-99045671D01*
X51595480Y-99067850D01*
X51582868Y-99088893D01*
X51568253Y-99108599D01*
X51551777Y-99126777D01*
X51533599Y-99143253D01*
X51513893Y-99157868D01*
X51492850Y-99170480D01*
X51470671Y-99180970D01*
X51447572Y-99189235D01*
X51423773Y-99195196D01*
X51399505Y-99198796D01*
X51375001Y-99200000D01*
X50724999Y-99200000D01*
X50700495Y-99198796D01*
X50676227Y-99195196D01*
X50652428Y-99189235D01*
X50629329Y-99180970D01*
X50607150Y-99170480D01*
X50586107Y-99157868D01*
X50566401Y-99143253D01*
X50548223Y-99126777D01*
X50531747Y-99108599D01*
X50517132Y-99088893D01*
X50504520Y-99067850D01*
X50494030Y-99045671D01*
X50485765Y-99022572D01*
X50479804Y-98998773D01*
X50476204Y-98974505D01*
X50475000Y-98950001D01*
X50475000Y-98049999D01*
X50476204Y-98025495D01*
X50479804Y-98001227D01*
X50485765Y-97977428D01*
X50494030Y-97954329D01*
X50504520Y-97932150D01*
X50517132Y-97911107D01*
X50531747Y-97891401D01*
X50548223Y-97873223D01*
X50566401Y-97856747D01*
X50586107Y-97842132D01*
X50607150Y-97829520D01*
X50629329Y-97819030D01*
X50652428Y-97810765D01*
X50676227Y-97804804D01*
X50700495Y-97801204D01*
X50724999Y-97800000D01*
X51375001Y-97800000D01*
X51399505Y-97801204D01*
X51399505Y-97801204D01*
G37*
D17*
G04 #@! TD*
G04 #@! TO.P,R15,2*
G04 #@! TO.N,GND*
X51050000Y-98500000D03*
D16*
G04 #@! TO.N,Net-(R18-Pad1)*
G04 #@! TO.C,R18*
G36*
X34799505Y-88051204D02*
X34823773Y-88054804D01*
X34847572Y-88060765D01*
X34870671Y-88069030D01*
X34892850Y-88079520D01*
X34913893Y-88092132D01*
X34933599Y-88106747D01*
X34951777Y-88123223D01*
X34968253Y-88141401D01*
X34982868Y-88161107D01*
X34995480Y-88182150D01*
X35005970Y-88204329D01*
X35014235Y-88227428D01*
X35020196Y-88251227D01*
X35023796Y-88275495D01*
X35025000Y-88299999D01*
X35025000Y-89200001D01*
X35023796Y-89224505D01*
X35020196Y-89248773D01*
X35014235Y-89272572D01*
X35005970Y-89295671D01*
X34995480Y-89317850D01*
X34982868Y-89338893D01*
X34968253Y-89358599D01*
X34951777Y-89376777D01*
X34933599Y-89393253D01*
X34913893Y-89407868D01*
X34892850Y-89420480D01*
X34870671Y-89430970D01*
X34847572Y-89439235D01*
X34823773Y-89445196D01*
X34799505Y-89448796D01*
X34775001Y-89450000D01*
X34124999Y-89450000D01*
X34100495Y-89448796D01*
X34076227Y-89445196D01*
X34052428Y-89439235D01*
X34029329Y-89430970D01*
X34007150Y-89420480D01*
X33986107Y-89407868D01*
X33966401Y-89393253D01*
X33948223Y-89376777D01*
X33931747Y-89358599D01*
X33917132Y-89338893D01*
X33904520Y-89317850D01*
X33894030Y-89295671D01*
X33885765Y-89272572D01*
X33879804Y-89248773D01*
X33876204Y-89224505D01*
X33875000Y-89200001D01*
X33875000Y-88299999D01*
X33876204Y-88275495D01*
X33879804Y-88251227D01*
X33885765Y-88227428D01*
X33894030Y-88204329D01*
X33904520Y-88182150D01*
X33917132Y-88161107D01*
X33931747Y-88141401D01*
X33948223Y-88123223D01*
X33966401Y-88106747D01*
X33986107Y-88092132D01*
X34007150Y-88079520D01*
X34029329Y-88069030D01*
X34052428Y-88060765D01*
X34076227Y-88054804D01*
X34100495Y-88051204D01*
X34124999Y-88050000D01*
X34775001Y-88050000D01*
X34799505Y-88051204D01*
X34799505Y-88051204D01*
G37*
D17*
G04 #@! TD*
G04 #@! TO.P,R18,1*
G04 #@! TO.N,Net-(R18-Pad1)*
X34450000Y-88750000D03*
D16*
G04 #@! TO.N,+3V3*
G04 #@! TO.C,R18*
G36*
X36849505Y-88051204D02*
X36873773Y-88054804D01*
X36897572Y-88060765D01*
X36920671Y-88069030D01*
X36942850Y-88079520D01*
X36963893Y-88092132D01*
X36983599Y-88106747D01*
X37001777Y-88123223D01*
X37018253Y-88141401D01*
X37032868Y-88161107D01*
X37045480Y-88182150D01*
X37055970Y-88204329D01*
X37064235Y-88227428D01*
X37070196Y-88251227D01*
X37073796Y-88275495D01*
X37075000Y-88299999D01*
X37075000Y-89200001D01*
X37073796Y-89224505D01*
X37070196Y-89248773D01*
X37064235Y-89272572D01*
X37055970Y-89295671D01*
X37045480Y-89317850D01*
X37032868Y-89338893D01*
X37018253Y-89358599D01*
X37001777Y-89376777D01*
X36983599Y-89393253D01*
X36963893Y-89407868D01*
X36942850Y-89420480D01*
X36920671Y-89430970D01*
X36897572Y-89439235D01*
X36873773Y-89445196D01*
X36849505Y-89448796D01*
X36825001Y-89450000D01*
X36174999Y-89450000D01*
X36150495Y-89448796D01*
X36126227Y-89445196D01*
X36102428Y-89439235D01*
X36079329Y-89430970D01*
X36057150Y-89420480D01*
X36036107Y-89407868D01*
X36016401Y-89393253D01*
X35998223Y-89376777D01*
X35981747Y-89358599D01*
X35967132Y-89338893D01*
X35954520Y-89317850D01*
X35944030Y-89295671D01*
X35935765Y-89272572D01*
X35929804Y-89248773D01*
X35926204Y-89224505D01*
X35925000Y-89200001D01*
X35925000Y-88299999D01*
X35926204Y-88275495D01*
X35929804Y-88251227D01*
X35935765Y-88227428D01*
X35944030Y-88204329D01*
X35954520Y-88182150D01*
X35967132Y-88161107D01*
X35981747Y-88141401D01*
X35998223Y-88123223D01*
X36016401Y-88106747D01*
X36036107Y-88092132D01*
X36057150Y-88079520D01*
X36079329Y-88069030D01*
X36102428Y-88060765D01*
X36126227Y-88054804D01*
X36150495Y-88051204D01*
X36174999Y-88050000D01*
X36825001Y-88050000D01*
X36849505Y-88051204D01*
X36849505Y-88051204D01*
G37*
D17*
G04 #@! TD*
G04 #@! TO.P,R18,2*
G04 #@! TO.N,+3V3*
X36500000Y-88750000D03*
D16*
G04 #@! TO.N,ESP_PROG*
G04 #@! TO.C,R17*
G36*
X43799505Y-104801204D02*
X43823773Y-104804804D01*
X43847572Y-104810765D01*
X43870671Y-104819030D01*
X43892850Y-104829520D01*
X43913893Y-104842132D01*
X43933599Y-104856747D01*
X43951777Y-104873223D01*
X43968253Y-104891401D01*
X43982868Y-104911107D01*
X43995480Y-104932150D01*
X44005970Y-104954329D01*
X44014235Y-104977428D01*
X44020196Y-105001227D01*
X44023796Y-105025495D01*
X44025000Y-105049999D01*
X44025000Y-105950001D01*
X44023796Y-105974505D01*
X44020196Y-105998773D01*
X44014235Y-106022572D01*
X44005970Y-106045671D01*
X43995480Y-106067850D01*
X43982868Y-106088893D01*
X43968253Y-106108599D01*
X43951777Y-106126777D01*
X43933599Y-106143253D01*
X43913893Y-106157868D01*
X43892850Y-106170480D01*
X43870671Y-106180970D01*
X43847572Y-106189235D01*
X43823773Y-106195196D01*
X43799505Y-106198796D01*
X43775001Y-106200000D01*
X43124999Y-106200000D01*
X43100495Y-106198796D01*
X43076227Y-106195196D01*
X43052428Y-106189235D01*
X43029329Y-106180970D01*
X43007150Y-106170480D01*
X42986107Y-106157868D01*
X42966401Y-106143253D01*
X42948223Y-106126777D01*
X42931747Y-106108599D01*
X42917132Y-106088893D01*
X42904520Y-106067850D01*
X42894030Y-106045671D01*
X42885765Y-106022572D01*
X42879804Y-105998773D01*
X42876204Y-105974505D01*
X42875000Y-105950001D01*
X42875000Y-105049999D01*
X42876204Y-105025495D01*
X42879804Y-105001227D01*
X42885765Y-104977428D01*
X42894030Y-104954329D01*
X42904520Y-104932150D01*
X42917132Y-104911107D01*
X42931747Y-104891401D01*
X42948223Y-104873223D01*
X42966401Y-104856747D01*
X42986107Y-104842132D01*
X43007150Y-104829520D01*
X43029329Y-104819030D01*
X43052428Y-104810765D01*
X43076227Y-104804804D01*
X43100495Y-104801204D01*
X43124999Y-104800000D01*
X43775001Y-104800000D01*
X43799505Y-104801204D01*
X43799505Y-104801204D01*
G37*
D17*
G04 #@! TD*
G04 #@! TO.P,R17,2*
G04 #@! TO.N,ESP_PROG*
X43450000Y-105500000D03*
D16*
G04 #@! TO.N,+3V3*
G04 #@! TO.C,R17*
G36*
X45849505Y-104801204D02*
X45873773Y-104804804D01*
X45897572Y-104810765D01*
X45920671Y-104819030D01*
X45942850Y-104829520D01*
X45963893Y-104842132D01*
X45983599Y-104856747D01*
X46001777Y-104873223D01*
X46018253Y-104891401D01*
X46032868Y-104911107D01*
X46045480Y-104932150D01*
X46055970Y-104954329D01*
X46064235Y-104977428D01*
X46070196Y-105001227D01*
X46073796Y-105025495D01*
X46075000Y-105049999D01*
X46075000Y-105950001D01*
X46073796Y-105974505D01*
X46070196Y-105998773D01*
X46064235Y-106022572D01*
X46055970Y-106045671D01*
X46045480Y-106067850D01*
X46032868Y-106088893D01*
X46018253Y-106108599D01*
X46001777Y-106126777D01*
X45983599Y-106143253D01*
X45963893Y-106157868D01*
X45942850Y-106170480D01*
X45920671Y-106180970D01*
X45897572Y-106189235D01*
X45873773Y-106195196D01*
X45849505Y-106198796D01*
X45825001Y-106200000D01*
X45174999Y-106200000D01*
X45150495Y-106198796D01*
X45126227Y-106195196D01*
X45102428Y-106189235D01*
X45079329Y-106180970D01*
X45057150Y-106170480D01*
X45036107Y-106157868D01*
X45016401Y-106143253D01*
X44998223Y-106126777D01*
X44981747Y-106108599D01*
X44967132Y-106088893D01*
X44954520Y-106067850D01*
X44944030Y-106045671D01*
X44935765Y-106022572D01*
X44929804Y-105998773D01*
X44926204Y-105974505D01*
X44925000Y-105950001D01*
X44925000Y-105049999D01*
X44926204Y-105025495D01*
X44929804Y-105001227D01*
X44935765Y-104977428D01*
X44944030Y-104954329D01*
X44954520Y-104932150D01*
X44967132Y-104911107D01*
X44981747Y-104891401D01*
X44998223Y-104873223D01*
X45016401Y-104856747D01*
X45036107Y-104842132D01*
X45057150Y-104829520D01*
X45079329Y-104819030D01*
X45102428Y-104810765D01*
X45126227Y-104804804D01*
X45150495Y-104801204D01*
X45174999Y-104800000D01*
X45825001Y-104800000D01*
X45849505Y-104801204D01*
X45849505Y-104801204D01*
G37*
D17*
G04 #@! TD*
G04 #@! TO.P,R17,1*
G04 #@! TO.N,+3V3*
X45500000Y-105500000D03*
D16*
G04 #@! TO.N,GND*
G04 #@! TO.C,R19*
G36*
X36849505Y-93551204D02*
X36873773Y-93554804D01*
X36897572Y-93560765D01*
X36920671Y-93569030D01*
X36942850Y-93579520D01*
X36963893Y-93592132D01*
X36983599Y-93606747D01*
X37001777Y-93623223D01*
X37018253Y-93641401D01*
X37032868Y-93661107D01*
X37045480Y-93682150D01*
X37055970Y-93704329D01*
X37064235Y-93727428D01*
X37070196Y-93751227D01*
X37073796Y-93775495D01*
X37075000Y-93799999D01*
X37075000Y-94700001D01*
X37073796Y-94724505D01*
X37070196Y-94748773D01*
X37064235Y-94772572D01*
X37055970Y-94795671D01*
X37045480Y-94817850D01*
X37032868Y-94838893D01*
X37018253Y-94858599D01*
X37001777Y-94876777D01*
X36983599Y-94893253D01*
X36963893Y-94907868D01*
X36942850Y-94920480D01*
X36920671Y-94930970D01*
X36897572Y-94939235D01*
X36873773Y-94945196D01*
X36849505Y-94948796D01*
X36825001Y-94950000D01*
X36174999Y-94950000D01*
X36150495Y-94948796D01*
X36126227Y-94945196D01*
X36102428Y-94939235D01*
X36079329Y-94930970D01*
X36057150Y-94920480D01*
X36036107Y-94907868D01*
X36016401Y-94893253D01*
X35998223Y-94876777D01*
X35981747Y-94858599D01*
X35967132Y-94838893D01*
X35954520Y-94817850D01*
X35944030Y-94795671D01*
X35935765Y-94772572D01*
X35929804Y-94748773D01*
X35926204Y-94724505D01*
X35925000Y-94700001D01*
X35925000Y-93799999D01*
X35926204Y-93775495D01*
X35929804Y-93751227D01*
X35935765Y-93727428D01*
X35944030Y-93704329D01*
X35954520Y-93682150D01*
X35967132Y-93661107D01*
X35981747Y-93641401D01*
X35998223Y-93623223D01*
X36016401Y-93606747D01*
X36036107Y-93592132D01*
X36057150Y-93579520D01*
X36079329Y-93569030D01*
X36102428Y-93560765D01*
X36126227Y-93554804D01*
X36150495Y-93551204D01*
X36174999Y-93550000D01*
X36825001Y-93550000D01*
X36849505Y-93551204D01*
X36849505Y-93551204D01*
G37*
D17*
G04 #@! TD*
G04 #@! TO.P,R19,1*
G04 #@! TO.N,GND*
X36500000Y-94250000D03*
D16*
G04 #@! TO.N,Net-(R19-Pad2)*
G04 #@! TO.C,R19*
G36*
X34799505Y-93551204D02*
X34823773Y-93554804D01*
X34847572Y-93560765D01*
X34870671Y-93569030D01*
X34892850Y-93579520D01*
X34913893Y-93592132D01*
X34933599Y-93606747D01*
X34951777Y-93623223D01*
X34968253Y-93641401D01*
X34982868Y-93661107D01*
X34995480Y-93682150D01*
X35005970Y-93704329D01*
X35014235Y-93727428D01*
X35020196Y-93751227D01*
X35023796Y-93775495D01*
X35025000Y-93799999D01*
X35025000Y-94700001D01*
X35023796Y-94724505D01*
X35020196Y-94748773D01*
X35014235Y-94772572D01*
X35005970Y-94795671D01*
X34995480Y-94817850D01*
X34982868Y-94838893D01*
X34968253Y-94858599D01*
X34951777Y-94876777D01*
X34933599Y-94893253D01*
X34913893Y-94907868D01*
X34892850Y-94920480D01*
X34870671Y-94930970D01*
X34847572Y-94939235D01*
X34823773Y-94945196D01*
X34799505Y-94948796D01*
X34775001Y-94950000D01*
X34124999Y-94950000D01*
X34100495Y-94948796D01*
X34076227Y-94945196D01*
X34052428Y-94939235D01*
X34029329Y-94930970D01*
X34007150Y-94920480D01*
X33986107Y-94907868D01*
X33966401Y-94893253D01*
X33948223Y-94876777D01*
X33931747Y-94858599D01*
X33917132Y-94838893D01*
X33904520Y-94817850D01*
X33894030Y-94795671D01*
X33885765Y-94772572D01*
X33879804Y-94748773D01*
X33876204Y-94724505D01*
X33875000Y-94700001D01*
X33875000Y-93799999D01*
X33876204Y-93775495D01*
X33879804Y-93751227D01*
X33885765Y-93727428D01*
X33894030Y-93704329D01*
X33904520Y-93682150D01*
X33917132Y-93661107D01*
X33931747Y-93641401D01*
X33948223Y-93623223D01*
X33966401Y-93606747D01*
X33986107Y-93592132D01*
X34007150Y-93579520D01*
X34029329Y-93569030D01*
X34052428Y-93560765D01*
X34076227Y-93554804D01*
X34100495Y-93551204D01*
X34124999Y-93550000D01*
X34775001Y-93550000D01*
X34799505Y-93551204D01*
X34799505Y-93551204D01*
G37*
D17*
G04 #@! TD*
G04 #@! TO.P,R19,2*
G04 #@! TO.N,Net-(R19-Pad2)*
X34450000Y-94250000D03*
D16*
G04 #@! TO.N,+3V3*
G04 #@! TO.C,R20*
G36*
X48474505Y-102401204D02*
X48498773Y-102404804D01*
X48522572Y-102410765D01*
X48545671Y-102419030D01*
X48567850Y-102429520D01*
X48588893Y-102442132D01*
X48608599Y-102456747D01*
X48626777Y-102473223D01*
X48643253Y-102491401D01*
X48657868Y-102511107D01*
X48670480Y-102532150D01*
X48680970Y-102554329D01*
X48689235Y-102577428D01*
X48695196Y-102601227D01*
X48698796Y-102625495D01*
X48700000Y-102649999D01*
X48700000Y-103300001D01*
X48698796Y-103324505D01*
X48695196Y-103348773D01*
X48689235Y-103372572D01*
X48680970Y-103395671D01*
X48670480Y-103417850D01*
X48657868Y-103438893D01*
X48643253Y-103458599D01*
X48626777Y-103476777D01*
X48608599Y-103493253D01*
X48588893Y-103507868D01*
X48567850Y-103520480D01*
X48545671Y-103530970D01*
X48522572Y-103539235D01*
X48498773Y-103545196D01*
X48474505Y-103548796D01*
X48450001Y-103550000D01*
X47549999Y-103550000D01*
X47525495Y-103548796D01*
X47501227Y-103545196D01*
X47477428Y-103539235D01*
X47454329Y-103530970D01*
X47432150Y-103520480D01*
X47411107Y-103507868D01*
X47391401Y-103493253D01*
X47373223Y-103476777D01*
X47356747Y-103458599D01*
X47342132Y-103438893D01*
X47329520Y-103417850D01*
X47319030Y-103395671D01*
X47310765Y-103372572D01*
X47304804Y-103348773D01*
X47301204Y-103324505D01*
X47300000Y-103300001D01*
X47300000Y-102649999D01*
X47301204Y-102625495D01*
X47304804Y-102601227D01*
X47310765Y-102577428D01*
X47319030Y-102554329D01*
X47329520Y-102532150D01*
X47342132Y-102511107D01*
X47356747Y-102491401D01*
X47373223Y-102473223D01*
X47391401Y-102456747D01*
X47411107Y-102442132D01*
X47432150Y-102429520D01*
X47454329Y-102419030D01*
X47477428Y-102410765D01*
X47501227Y-102404804D01*
X47525495Y-102401204D01*
X47549999Y-102400000D01*
X48450001Y-102400000D01*
X48474505Y-102401204D01*
X48474505Y-102401204D01*
G37*
D17*
G04 #@! TD*
G04 #@! TO.P,R20,2*
G04 #@! TO.N,+3V3*
X48000000Y-102975000D03*
D16*
G04 #@! TO.N,ESP_RESET*
G04 #@! TO.C,R20*
G36*
X48474505Y-104451204D02*
X48498773Y-104454804D01*
X48522572Y-104460765D01*
X48545671Y-104469030D01*
X48567850Y-104479520D01*
X48588893Y-104492132D01*
X48608599Y-104506747D01*
X48626777Y-104523223D01*
X48643253Y-104541401D01*
X48657868Y-104561107D01*
X48670480Y-104582150D01*
X48680970Y-104604329D01*
X48689235Y-104627428D01*
X48695196Y-104651227D01*
X48698796Y-104675495D01*
X48700000Y-104699999D01*
X48700000Y-105350001D01*
X48698796Y-105374505D01*
X48695196Y-105398773D01*
X48689235Y-105422572D01*
X48680970Y-105445671D01*
X48670480Y-105467850D01*
X48657868Y-105488893D01*
X48643253Y-105508599D01*
X48626777Y-105526777D01*
X48608599Y-105543253D01*
X48588893Y-105557868D01*
X48567850Y-105570480D01*
X48545671Y-105580970D01*
X48522572Y-105589235D01*
X48498773Y-105595196D01*
X48474505Y-105598796D01*
X48450001Y-105600000D01*
X47549999Y-105600000D01*
X47525495Y-105598796D01*
X47501227Y-105595196D01*
X47477428Y-105589235D01*
X47454329Y-105580970D01*
X47432150Y-105570480D01*
X47411107Y-105557868D01*
X47391401Y-105543253D01*
X47373223Y-105526777D01*
X47356747Y-105508599D01*
X47342132Y-105488893D01*
X47329520Y-105467850D01*
X47319030Y-105445671D01*
X47310765Y-105422572D01*
X47304804Y-105398773D01*
X47301204Y-105374505D01*
X47300000Y-105350001D01*
X47300000Y-104699999D01*
X47301204Y-104675495D01*
X47304804Y-104651227D01*
X47310765Y-104627428D01*
X47319030Y-104604329D01*
X47329520Y-104582150D01*
X47342132Y-104561107D01*
X47356747Y-104541401D01*
X47373223Y-104523223D01*
X47391401Y-104506747D01*
X47411107Y-104492132D01*
X47432150Y-104479520D01*
X47454329Y-104469030D01*
X47477428Y-104460765D01*
X47501227Y-104454804D01*
X47525495Y-104451204D01*
X47549999Y-104450000D01*
X48450001Y-104450000D01*
X48474505Y-104451204D01*
X48474505Y-104451204D01*
G37*
D17*
G04 #@! TD*
G04 #@! TO.P,R20,1*
G04 #@! TO.N,ESP_RESET*
X48000000Y-105025000D03*
D16*
G04 #@! TO.N,HAN1*
G04 #@! TO.C,R11*
G36*
X44299505Y-85551204D02*
X44323773Y-85554804D01*
X44347572Y-85560765D01*
X44370671Y-85569030D01*
X44392850Y-85579520D01*
X44413893Y-85592132D01*
X44433599Y-85606747D01*
X44451777Y-85623223D01*
X44468253Y-85641401D01*
X44482868Y-85661107D01*
X44495480Y-85682150D01*
X44505970Y-85704329D01*
X44514235Y-85727428D01*
X44520196Y-85751227D01*
X44523796Y-85775495D01*
X44525000Y-85799999D01*
X44525000Y-86700001D01*
X44523796Y-86724505D01*
X44520196Y-86748773D01*
X44514235Y-86772572D01*
X44505970Y-86795671D01*
X44495480Y-86817850D01*
X44482868Y-86838893D01*
X44468253Y-86858599D01*
X44451777Y-86876777D01*
X44433599Y-86893253D01*
X44413893Y-86907868D01*
X44392850Y-86920480D01*
X44370671Y-86930970D01*
X44347572Y-86939235D01*
X44323773Y-86945196D01*
X44299505Y-86948796D01*
X44275001Y-86950000D01*
X43624999Y-86950000D01*
X43600495Y-86948796D01*
X43576227Y-86945196D01*
X43552428Y-86939235D01*
X43529329Y-86930970D01*
X43507150Y-86920480D01*
X43486107Y-86907868D01*
X43466401Y-86893253D01*
X43448223Y-86876777D01*
X43431747Y-86858599D01*
X43417132Y-86838893D01*
X43404520Y-86817850D01*
X43394030Y-86795671D01*
X43385765Y-86772572D01*
X43379804Y-86748773D01*
X43376204Y-86724505D01*
X43375000Y-86700001D01*
X43375000Y-85799999D01*
X43376204Y-85775495D01*
X43379804Y-85751227D01*
X43385765Y-85727428D01*
X43394030Y-85704329D01*
X43404520Y-85682150D01*
X43417132Y-85661107D01*
X43431747Y-85641401D01*
X43448223Y-85623223D01*
X43466401Y-85606747D01*
X43486107Y-85592132D01*
X43507150Y-85579520D01*
X43529329Y-85569030D01*
X43552428Y-85560765D01*
X43576227Y-85554804D01*
X43600495Y-85551204D01*
X43624999Y-85550000D01*
X44275001Y-85550000D01*
X44299505Y-85551204D01*
X44299505Y-85551204D01*
G37*
D17*
G04 #@! TD*
G04 #@! TO.P,R11,1*
G04 #@! TO.N,HAN1*
X43950000Y-86250000D03*
D16*
G04 #@! TO.N,Net-(R11-Pad2)*
G04 #@! TO.C,R11*
G36*
X46349505Y-85551204D02*
X46373773Y-85554804D01*
X46397572Y-85560765D01*
X46420671Y-85569030D01*
X46442850Y-85579520D01*
X46463893Y-85592132D01*
X46483599Y-85606747D01*
X46501777Y-85623223D01*
X46518253Y-85641401D01*
X46532868Y-85661107D01*
X46545480Y-85682150D01*
X46555970Y-85704329D01*
X46564235Y-85727428D01*
X46570196Y-85751227D01*
X46573796Y-85775495D01*
X46575000Y-85799999D01*
X46575000Y-86700001D01*
X46573796Y-86724505D01*
X46570196Y-86748773D01*
X46564235Y-86772572D01*
X46555970Y-86795671D01*
X46545480Y-86817850D01*
X46532868Y-86838893D01*
X46518253Y-86858599D01*
X46501777Y-86876777D01*
X46483599Y-86893253D01*
X46463893Y-86907868D01*
X46442850Y-86920480D01*
X46420671Y-86930970D01*
X46397572Y-86939235D01*
X46373773Y-86945196D01*
X46349505Y-86948796D01*
X46325001Y-86950000D01*
X45674999Y-86950000D01*
X45650495Y-86948796D01*
X45626227Y-86945196D01*
X45602428Y-86939235D01*
X45579329Y-86930970D01*
X45557150Y-86920480D01*
X45536107Y-86907868D01*
X45516401Y-86893253D01*
X45498223Y-86876777D01*
X45481747Y-86858599D01*
X45467132Y-86838893D01*
X45454520Y-86817850D01*
X45444030Y-86795671D01*
X45435765Y-86772572D01*
X45429804Y-86748773D01*
X45426204Y-86724505D01*
X45425000Y-86700001D01*
X45425000Y-85799999D01*
X45426204Y-85775495D01*
X45429804Y-85751227D01*
X45435765Y-85727428D01*
X45444030Y-85704329D01*
X45454520Y-85682150D01*
X45467132Y-85661107D01*
X45481747Y-85641401D01*
X45498223Y-85623223D01*
X45516401Y-85606747D01*
X45536107Y-85592132D01*
X45557150Y-85579520D01*
X45579329Y-85569030D01*
X45602428Y-85560765D01*
X45626227Y-85554804D01*
X45650495Y-85551204D01*
X45674999Y-85550000D01*
X46325001Y-85550000D01*
X46349505Y-85551204D01*
X46349505Y-85551204D01*
G37*
D17*
G04 #@! TD*
G04 #@! TO.P,R11,2*
G04 #@! TO.N,Net-(R11-Pad2)*
X46000000Y-86250000D03*
D16*
G04 #@! TO.N,GND*
G04 #@! TO.C,R12*
G36*
X34849505Y-98551204D02*
X34873773Y-98554804D01*
X34897572Y-98560765D01*
X34920671Y-98569030D01*
X34942850Y-98579520D01*
X34963893Y-98592132D01*
X34983599Y-98606747D01*
X35001777Y-98623223D01*
X35018253Y-98641401D01*
X35032868Y-98661107D01*
X35045480Y-98682150D01*
X35055970Y-98704329D01*
X35064235Y-98727428D01*
X35070196Y-98751227D01*
X35073796Y-98775495D01*
X35075000Y-98799999D01*
X35075000Y-99700001D01*
X35073796Y-99724505D01*
X35070196Y-99748773D01*
X35064235Y-99772572D01*
X35055970Y-99795671D01*
X35045480Y-99817850D01*
X35032868Y-99838893D01*
X35018253Y-99858599D01*
X35001777Y-99876777D01*
X34983599Y-99893253D01*
X34963893Y-99907868D01*
X34942850Y-99920480D01*
X34920671Y-99930970D01*
X34897572Y-99939235D01*
X34873773Y-99945196D01*
X34849505Y-99948796D01*
X34825001Y-99950000D01*
X34174999Y-99950000D01*
X34150495Y-99948796D01*
X34126227Y-99945196D01*
X34102428Y-99939235D01*
X34079329Y-99930970D01*
X34057150Y-99920480D01*
X34036107Y-99907868D01*
X34016401Y-99893253D01*
X33998223Y-99876777D01*
X33981747Y-99858599D01*
X33967132Y-99838893D01*
X33954520Y-99817850D01*
X33944030Y-99795671D01*
X33935765Y-99772572D01*
X33929804Y-99748773D01*
X33926204Y-99724505D01*
X33925000Y-99700001D01*
X33925000Y-98799999D01*
X33926204Y-98775495D01*
X33929804Y-98751227D01*
X33935765Y-98727428D01*
X33944030Y-98704329D01*
X33954520Y-98682150D01*
X33967132Y-98661107D01*
X33981747Y-98641401D01*
X33998223Y-98623223D01*
X34016401Y-98606747D01*
X34036107Y-98592132D01*
X34057150Y-98579520D01*
X34079329Y-98569030D01*
X34102428Y-98560765D01*
X34126227Y-98554804D01*
X34150495Y-98551204D01*
X34174999Y-98550000D01*
X34825001Y-98550000D01*
X34849505Y-98551204D01*
X34849505Y-98551204D01*
G37*
D17*
G04 #@! TD*
G04 #@! TO.P,R12,2*
G04 #@! TO.N,GND*
X34500000Y-99250000D03*
D16*
G04 #@! TO.N,Net-(R12-Pad1)*
G04 #@! TO.C,R12*
G36*
X36899505Y-98551204D02*
X36923773Y-98554804D01*
X36947572Y-98560765D01*
X36970671Y-98569030D01*
X36992850Y-98579520D01*
X37013893Y-98592132D01*
X37033599Y-98606747D01*
X37051777Y-98623223D01*
X37068253Y-98641401D01*
X37082868Y-98661107D01*
X37095480Y-98682150D01*
X37105970Y-98704329D01*
X37114235Y-98727428D01*
X37120196Y-98751227D01*
X37123796Y-98775495D01*
X37125000Y-98799999D01*
X37125000Y-99700001D01*
X37123796Y-99724505D01*
X37120196Y-99748773D01*
X37114235Y-99772572D01*
X37105970Y-99795671D01*
X37095480Y-99817850D01*
X37082868Y-99838893D01*
X37068253Y-99858599D01*
X37051777Y-99876777D01*
X37033599Y-99893253D01*
X37013893Y-99907868D01*
X36992850Y-99920480D01*
X36970671Y-99930970D01*
X36947572Y-99939235D01*
X36923773Y-99945196D01*
X36899505Y-99948796D01*
X36875001Y-99950000D01*
X36224999Y-99950000D01*
X36200495Y-99948796D01*
X36176227Y-99945196D01*
X36152428Y-99939235D01*
X36129329Y-99930970D01*
X36107150Y-99920480D01*
X36086107Y-99907868D01*
X36066401Y-99893253D01*
X36048223Y-99876777D01*
X36031747Y-99858599D01*
X36017132Y-99838893D01*
X36004520Y-99817850D01*
X35994030Y-99795671D01*
X35985765Y-99772572D01*
X35979804Y-99748773D01*
X35976204Y-99724505D01*
X35975000Y-99700001D01*
X35975000Y-98799999D01*
X35976204Y-98775495D01*
X35979804Y-98751227D01*
X35985765Y-98727428D01*
X35994030Y-98704329D01*
X36004520Y-98682150D01*
X36017132Y-98661107D01*
X36031747Y-98641401D01*
X36048223Y-98623223D01*
X36066401Y-98606747D01*
X36086107Y-98592132D01*
X36107150Y-98579520D01*
X36129329Y-98569030D01*
X36152428Y-98560765D01*
X36176227Y-98554804D01*
X36200495Y-98551204D01*
X36224999Y-98550000D01*
X36875001Y-98550000D01*
X36899505Y-98551204D01*
X36899505Y-98551204D01*
G37*
D17*
G04 #@! TD*
G04 #@! TO.P,R12,1*
G04 #@! TO.N,Net-(R12-Pad1)*
X36550000Y-99250000D03*
D16*
G04 #@! TO.N,Net-(C12-Pad1)*
G04 #@! TO.C,R16*
G36*
X49349505Y-95551204D02*
X49373773Y-95554804D01*
X49397572Y-95560765D01*
X49420671Y-95569030D01*
X49442850Y-95579520D01*
X49463893Y-95592132D01*
X49483599Y-95606747D01*
X49501777Y-95623223D01*
X49518253Y-95641401D01*
X49532868Y-95661107D01*
X49545480Y-95682150D01*
X49555970Y-95704329D01*
X49564235Y-95727428D01*
X49570196Y-95751227D01*
X49573796Y-95775495D01*
X49575000Y-95799999D01*
X49575000Y-96700001D01*
X49573796Y-96724505D01*
X49570196Y-96748773D01*
X49564235Y-96772572D01*
X49555970Y-96795671D01*
X49545480Y-96817850D01*
X49532868Y-96838893D01*
X49518253Y-96858599D01*
X49501777Y-96876777D01*
X49483599Y-96893253D01*
X49463893Y-96907868D01*
X49442850Y-96920480D01*
X49420671Y-96930970D01*
X49397572Y-96939235D01*
X49373773Y-96945196D01*
X49349505Y-96948796D01*
X49325001Y-96950000D01*
X48674999Y-96950000D01*
X48650495Y-96948796D01*
X48626227Y-96945196D01*
X48602428Y-96939235D01*
X48579329Y-96930970D01*
X48557150Y-96920480D01*
X48536107Y-96907868D01*
X48516401Y-96893253D01*
X48498223Y-96876777D01*
X48481747Y-96858599D01*
X48467132Y-96838893D01*
X48454520Y-96817850D01*
X48444030Y-96795671D01*
X48435765Y-96772572D01*
X48429804Y-96748773D01*
X48426204Y-96724505D01*
X48425000Y-96700001D01*
X48425000Y-95799999D01*
X48426204Y-95775495D01*
X48429804Y-95751227D01*
X48435765Y-95727428D01*
X48444030Y-95704329D01*
X48454520Y-95682150D01*
X48467132Y-95661107D01*
X48481747Y-95641401D01*
X48498223Y-95623223D01*
X48516401Y-95606747D01*
X48536107Y-95592132D01*
X48557150Y-95579520D01*
X48579329Y-95569030D01*
X48602428Y-95560765D01*
X48626227Y-95554804D01*
X48650495Y-95551204D01*
X48674999Y-95550000D01*
X49325001Y-95550000D01*
X49349505Y-95551204D01*
X49349505Y-95551204D01*
G37*
D17*
G04 #@! TD*
G04 #@! TO.P,R16,2*
G04 #@! TO.N,Net-(C12-Pad1)*
X49000000Y-96250000D03*
D16*
G04 #@! TO.N,GND*
G04 #@! TO.C,R16*
G36*
X51399505Y-95551204D02*
X51423773Y-95554804D01*
X51447572Y-95560765D01*
X51470671Y-95569030D01*
X51492850Y-95579520D01*
X51513893Y-95592132D01*
X51533599Y-95606747D01*
X51551777Y-95623223D01*
X51568253Y-95641401D01*
X51582868Y-95661107D01*
X51595480Y-95682150D01*
X51605970Y-95704329D01*
X51614235Y-95727428D01*
X51620196Y-95751227D01*
X51623796Y-95775495D01*
X51625000Y-95799999D01*
X51625000Y-96700001D01*
X51623796Y-96724505D01*
X51620196Y-96748773D01*
X51614235Y-96772572D01*
X51605970Y-96795671D01*
X51595480Y-96817850D01*
X51582868Y-96838893D01*
X51568253Y-96858599D01*
X51551777Y-96876777D01*
X51533599Y-96893253D01*
X51513893Y-96907868D01*
X51492850Y-96920480D01*
X51470671Y-96930970D01*
X51447572Y-96939235D01*
X51423773Y-96945196D01*
X51399505Y-96948796D01*
X51375001Y-96950000D01*
X50724999Y-96950000D01*
X50700495Y-96948796D01*
X50676227Y-96945196D01*
X50652428Y-96939235D01*
X50629329Y-96930970D01*
X50607150Y-96920480D01*
X50586107Y-96907868D01*
X50566401Y-96893253D01*
X50548223Y-96876777D01*
X50531747Y-96858599D01*
X50517132Y-96838893D01*
X50504520Y-96817850D01*
X50494030Y-96795671D01*
X50485765Y-96772572D01*
X50479804Y-96748773D01*
X50476204Y-96724505D01*
X50475000Y-96700001D01*
X50475000Y-95799999D01*
X50476204Y-95775495D01*
X50479804Y-95751227D01*
X50485765Y-95727428D01*
X50494030Y-95704329D01*
X50504520Y-95682150D01*
X50517132Y-95661107D01*
X50531747Y-95641401D01*
X50548223Y-95623223D01*
X50566401Y-95606747D01*
X50586107Y-95592132D01*
X50607150Y-95579520D01*
X50629329Y-95569030D01*
X50652428Y-95560765D01*
X50676227Y-95554804D01*
X50700495Y-95551204D01*
X50724999Y-95550000D01*
X51375001Y-95550000D01*
X51399505Y-95551204D01*
X51399505Y-95551204D01*
G37*
D17*
G04 #@! TD*
G04 #@! TO.P,R16,1*
G04 #@! TO.N,GND*
X51050000Y-96250000D03*
D16*
G04 #@! TO.N,+3V3*
G04 #@! TO.C,R14*
G36*
X60349505Y-88301204D02*
X60373773Y-88304804D01*
X60397572Y-88310765D01*
X60420671Y-88319030D01*
X60442850Y-88329520D01*
X60463893Y-88342132D01*
X60483599Y-88356747D01*
X60501777Y-88373223D01*
X60518253Y-88391401D01*
X60532868Y-88411107D01*
X60545480Y-88432150D01*
X60555970Y-88454329D01*
X60564235Y-88477428D01*
X60570196Y-88501227D01*
X60573796Y-88525495D01*
X60575000Y-88549999D01*
X60575000Y-89450001D01*
X60573796Y-89474505D01*
X60570196Y-89498773D01*
X60564235Y-89522572D01*
X60555970Y-89545671D01*
X60545480Y-89567850D01*
X60532868Y-89588893D01*
X60518253Y-89608599D01*
X60501777Y-89626777D01*
X60483599Y-89643253D01*
X60463893Y-89657868D01*
X60442850Y-89670480D01*
X60420671Y-89680970D01*
X60397572Y-89689235D01*
X60373773Y-89695196D01*
X60349505Y-89698796D01*
X60325001Y-89700000D01*
X59674999Y-89700000D01*
X59650495Y-89698796D01*
X59626227Y-89695196D01*
X59602428Y-89689235D01*
X59579329Y-89680970D01*
X59557150Y-89670480D01*
X59536107Y-89657868D01*
X59516401Y-89643253D01*
X59498223Y-89626777D01*
X59481747Y-89608599D01*
X59467132Y-89588893D01*
X59454520Y-89567850D01*
X59444030Y-89545671D01*
X59435765Y-89522572D01*
X59429804Y-89498773D01*
X59426204Y-89474505D01*
X59425000Y-89450001D01*
X59425000Y-88549999D01*
X59426204Y-88525495D01*
X59429804Y-88501227D01*
X59435765Y-88477428D01*
X59444030Y-88454329D01*
X59454520Y-88432150D01*
X59467132Y-88411107D01*
X59481747Y-88391401D01*
X59498223Y-88373223D01*
X59516401Y-88356747D01*
X59536107Y-88342132D01*
X59557150Y-88329520D01*
X59579329Y-88319030D01*
X59602428Y-88310765D01*
X59626227Y-88304804D01*
X59650495Y-88301204D01*
X59674999Y-88300000D01*
X60325001Y-88300000D01*
X60349505Y-88301204D01*
X60349505Y-88301204D01*
G37*
D17*
G04 #@! TD*
G04 #@! TO.P,R14,1*
G04 #@! TO.N,+3V3*
X60000000Y-89000000D03*
D16*
G04 #@! TO.N,ESP_Temp*
G04 #@! TO.C,R14*
G36*
X62399505Y-88301204D02*
X62423773Y-88304804D01*
X62447572Y-88310765D01*
X62470671Y-88319030D01*
X62492850Y-88329520D01*
X62513893Y-88342132D01*
X62533599Y-88356747D01*
X62551777Y-88373223D01*
X62568253Y-88391401D01*
X62582868Y-88411107D01*
X62595480Y-88432150D01*
X62605970Y-88454329D01*
X62614235Y-88477428D01*
X62620196Y-88501227D01*
X62623796Y-88525495D01*
X62625000Y-88549999D01*
X62625000Y-89450001D01*
X62623796Y-89474505D01*
X62620196Y-89498773D01*
X62614235Y-89522572D01*
X62605970Y-89545671D01*
X62595480Y-89567850D01*
X62582868Y-89588893D01*
X62568253Y-89608599D01*
X62551777Y-89626777D01*
X62533599Y-89643253D01*
X62513893Y-89657868D01*
X62492850Y-89670480D01*
X62470671Y-89680970D01*
X62447572Y-89689235D01*
X62423773Y-89695196D01*
X62399505Y-89698796D01*
X62375001Y-89700000D01*
X61724999Y-89700000D01*
X61700495Y-89698796D01*
X61676227Y-89695196D01*
X61652428Y-89689235D01*
X61629329Y-89680970D01*
X61607150Y-89670480D01*
X61586107Y-89657868D01*
X61566401Y-89643253D01*
X61548223Y-89626777D01*
X61531747Y-89608599D01*
X61517132Y-89588893D01*
X61504520Y-89567850D01*
X61494030Y-89545671D01*
X61485765Y-89522572D01*
X61479804Y-89498773D01*
X61476204Y-89474505D01*
X61475000Y-89450001D01*
X61475000Y-88549999D01*
X61476204Y-88525495D01*
X61479804Y-88501227D01*
X61485765Y-88477428D01*
X61494030Y-88454329D01*
X61504520Y-88432150D01*
X61517132Y-88411107D01*
X61531747Y-88391401D01*
X61548223Y-88373223D01*
X61566401Y-88356747D01*
X61586107Y-88342132D01*
X61607150Y-88329520D01*
X61629329Y-88319030D01*
X61652428Y-88310765D01*
X61676227Y-88304804D01*
X61700495Y-88301204D01*
X61724999Y-88300000D01*
X62375001Y-88300000D01*
X62399505Y-88301204D01*
X62399505Y-88301204D01*
G37*
D17*
G04 #@! TD*
G04 #@! TO.P,R14,2*
G04 #@! TO.N,ESP_Temp*
X62050000Y-89000000D03*
D16*
G04 #@! TO.N,Net-(C5-Pad1)*
G04 #@! TO.C,R4*
G36*
X51474505Y-102401204D02*
X51498773Y-102404804D01*
X51522572Y-102410765D01*
X51545671Y-102419030D01*
X51567850Y-102429520D01*
X51588893Y-102442132D01*
X51608599Y-102456747D01*
X51626777Y-102473223D01*
X51643253Y-102491401D01*
X51657868Y-102511107D01*
X51670480Y-102532150D01*
X51680970Y-102554329D01*
X51689235Y-102577428D01*
X51695196Y-102601227D01*
X51698796Y-102625495D01*
X51700000Y-102649999D01*
X51700000Y-103300001D01*
X51698796Y-103324505D01*
X51695196Y-103348773D01*
X51689235Y-103372572D01*
X51680970Y-103395671D01*
X51670480Y-103417850D01*
X51657868Y-103438893D01*
X51643253Y-103458599D01*
X51626777Y-103476777D01*
X51608599Y-103493253D01*
X51588893Y-103507868D01*
X51567850Y-103520480D01*
X51545671Y-103530970D01*
X51522572Y-103539235D01*
X51498773Y-103545196D01*
X51474505Y-103548796D01*
X51450001Y-103550000D01*
X50549999Y-103550000D01*
X50525495Y-103548796D01*
X50501227Y-103545196D01*
X50477428Y-103539235D01*
X50454329Y-103530970D01*
X50432150Y-103520480D01*
X50411107Y-103507868D01*
X50391401Y-103493253D01*
X50373223Y-103476777D01*
X50356747Y-103458599D01*
X50342132Y-103438893D01*
X50329520Y-103417850D01*
X50319030Y-103395671D01*
X50310765Y-103372572D01*
X50304804Y-103348773D01*
X50301204Y-103324505D01*
X50300000Y-103300001D01*
X50300000Y-102649999D01*
X50301204Y-102625495D01*
X50304804Y-102601227D01*
X50310765Y-102577428D01*
X50319030Y-102554329D01*
X50329520Y-102532150D01*
X50342132Y-102511107D01*
X50356747Y-102491401D01*
X50373223Y-102473223D01*
X50391401Y-102456747D01*
X50411107Y-102442132D01*
X50432150Y-102429520D01*
X50454329Y-102419030D01*
X50477428Y-102410765D01*
X50501227Y-102404804D01*
X50525495Y-102401204D01*
X50549999Y-102400000D01*
X51450001Y-102400000D01*
X51474505Y-102401204D01*
X51474505Y-102401204D01*
G37*
D17*
G04 #@! TD*
G04 #@! TO.P,R4,1*
G04 #@! TO.N,Net-(C5-Pad1)*
X51000000Y-102975000D03*
D16*
G04 #@! TO.N,Net-(D2-Pad3)*
G04 #@! TO.C,R4*
G36*
X51474505Y-104451204D02*
X51498773Y-104454804D01*
X51522572Y-104460765D01*
X51545671Y-104469030D01*
X51567850Y-104479520D01*
X51588893Y-104492132D01*
X51608599Y-104506747D01*
X51626777Y-104523223D01*
X51643253Y-104541401D01*
X51657868Y-104561107D01*
X51670480Y-104582150D01*
X51680970Y-104604329D01*
X51689235Y-104627428D01*
X51695196Y-104651227D01*
X51698796Y-104675495D01*
X51700000Y-104699999D01*
X51700000Y-105350001D01*
X51698796Y-105374505D01*
X51695196Y-105398773D01*
X51689235Y-105422572D01*
X51680970Y-105445671D01*
X51670480Y-105467850D01*
X51657868Y-105488893D01*
X51643253Y-105508599D01*
X51626777Y-105526777D01*
X51608599Y-105543253D01*
X51588893Y-105557868D01*
X51567850Y-105570480D01*
X51545671Y-105580970D01*
X51522572Y-105589235D01*
X51498773Y-105595196D01*
X51474505Y-105598796D01*
X51450001Y-105600000D01*
X50549999Y-105600000D01*
X50525495Y-105598796D01*
X50501227Y-105595196D01*
X50477428Y-105589235D01*
X50454329Y-105580970D01*
X50432150Y-105570480D01*
X50411107Y-105557868D01*
X50391401Y-105543253D01*
X50373223Y-105526777D01*
X50356747Y-105508599D01*
X50342132Y-105488893D01*
X50329520Y-105467850D01*
X50319030Y-105445671D01*
X50310765Y-105422572D01*
X50304804Y-105398773D01*
X50301204Y-105374505D01*
X50300000Y-105350001D01*
X50300000Y-104699999D01*
X50301204Y-104675495D01*
X50304804Y-104651227D01*
X50310765Y-104627428D01*
X50319030Y-104604329D01*
X50329520Y-104582150D01*
X50342132Y-104561107D01*
X50356747Y-104541401D01*
X50373223Y-104523223D01*
X50391401Y-104506747D01*
X50411107Y-104492132D01*
X50432150Y-104479520D01*
X50454329Y-104469030D01*
X50477428Y-104460765D01*
X50501227Y-104454804D01*
X50525495Y-104451204D01*
X50549999Y-104450000D01*
X51450001Y-104450000D01*
X51474505Y-104451204D01*
X51474505Y-104451204D01*
G37*
D17*
G04 #@! TD*
G04 #@! TO.P,R4,2*
G04 #@! TO.N,Net-(D2-Pad3)*
X51000000Y-105025000D03*
D16*
G04 #@! TO.N,Net-(C4-Pad2)*
G04 #@! TO.C,R5*
G36*
X36899505Y-101301204D02*
X36923773Y-101304804D01*
X36947572Y-101310765D01*
X36970671Y-101319030D01*
X36992850Y-101329520D01*
X37013893Y-101342132D01*
X37033599Y-101356747D01*
X37051777Y-101373223D01*
X37068253Y-101391401D01*
X37082868Y-101411107D01*
X37095480Y-101432150D01*
X37105970Y-101454329D01*
X37114235Y-101477428D01*
X37120196Y-101501227D01*
X37123796Y-101525495D01*
X37125000Y-101549999D01*
X37125000Y-102450001D01*
X37123796Y-102474505D01*
X37120196Y-102498773D01*
X37114235Y-102522572D01*
X37105970Y-102545671D01*
X37095480Y-102567850D01*
X37082868Y-102588893D01*
X37068253Y-102608599D01*
X37051777Y-102626777D01*
X37033599Y-102643253D01*
X37013893Y-102657868D01*
X36992850Y-102670480D01*
X36970671Y-102680970D01*
X36947572Y-102689235D01*
X36923773Y-102695196D01*
X36899505Y-102698796D01*
X36875001Y-102700000D01*
X36224999Y-102700000D01*
X36200495Y-102698796D01*
X36176227Y-102695196D01*
X36152428Y-102689235D01*
X36129329Y-102680970D01*
X36107150Y-102670480D01*
X36086107Y-102657868D01*
X36066401Y-102643253D01*
X36048223Y-102626777D01*
X36031747Y-102608599D01*
X36017132Y-102588893D01*
X36004520Y-102567850D01*
X35994030Y-102545671D01*
X35985765Y-102522572D01*
X35979804Y-102498773D01*
X35976204Y-102474505D01*
X35975000Y-102450001D01*
X35975000Y-101549999D01*
X35976204Y-101525495D01*
X35979804Y-101501227D01*
X35985765Y-101477428D01*
X35994030Y-101454329D01*
X36004520Y-101432150D01*
X36017132Y-101411107D01*
X36031747Y-101391401D01*
X36048223Y-101373223D01*
X36066401Y-101356747D01*
X36086107Y-101342132D01*
X36107150Y-101329520D01*
X36129329Y-101319030D01*
X36152428Y-101310765D01*
X36176227Y-101304804D01*
X36200495Y-101301204D01*
X36224999Y-101300000D01*
X36875001Y-101300000D01*
X36899505Y-101301204D01*
X36899505Y-101301204D01*
G37*
D17*
G04 #@! TD*
G04 #@! TO.P,R5,1*
G04 #@! TO.N,Net-(C4-Pad2)*
X36550000Y-102000000D03*
D16*
G04 #@! TO.N,GND*
G04 #@! TO.C,R5*
G36*
X34849505Y-101301204D02*
X34873773Y-101304804D01*
X34897572Y-101310765D01*
X34920671Y-101319030D01*
X34942850Y-101329520D01*
X34963893Y-101342132D01*
X34983599Y-101356747D01*
X35001777Y-101373223D01*
X35018253Y-101391401D01*
X35032868Y-101411107D01*
X35045480Y-101432150D01*
X35055970Y-101454329D01*
X35064235Y-101477428D01*
X35070196Y-101501227D01*
X35073796Y-101525495D01*
X35075000Y-101549999D01*
X35075000Y-102450001D01*
X35073796Y-102474505D01*
X35070196Y-102498773D01*
X35064235Y-102522572D01*
X35055970Y-102545671D01*
X35045480Y-102567850D01*
X35032868Y-102588893D01*
X35018253Y-102608599D01*
X35001777Y-102626777D01*
X34983599Y-102643253D01*
X34963893Y-102657868D01*
X34942850Y-102670480D01*
X34920671Y-102680970D01*
X34897572Y-102689235D01*
X34873773Y-102695196D01*
X34849505Y-102698796D01*
X34825001Y-102700000D01*
X34174999Y-102700000D01*
X34150495Y-102698796D01*
X34126227Y-102695196D01*
X34102428Y-102689235D01*
X34079329Y-102680970D01*
X34057150Y-102670480D01*
X34036107Y-102657868D01*
X34016401Y-102643253D01*
X33998223Y-102626777D01*
X33981747Y-102608599D01*
X33967132Y-102588893D01*
X33954520Y-102567850D01*
X33944030Y-102545671D01*
X33935765Y-102522572D01*
X33929804Y-102498773D01*
X33926204Y-102474505D01*
X33925000Y-102450001D01*
X33925000Y-101549999D01*
X33926204Y-101525495D01*
X33929804Y-101501227D01*
X33935765Y-101477428D01*
X33944030Y-101454329D01*
X33954520Y-101432150D01*
X33967132Y-101411107D01*
X33981747Y-101391401D01*
X33998223Y-101373223D01*
X34016401Y-101356747D01*
X34036107Y-101342132D01*
X34057150Y-101329520D01*
X34079329Y-101319030D01*
X34102428Y-101310765D01*
X34126227Y-101304804D01*
X34150495Y-101301204D01*
X34174999Y-101300000D01*
X34825001Y-101300000D01*
X34849505Y-101301204D01*
X34849505Y-101301204D01*
G37*
D17*
G04 #@! TD*
G04 #@! TO.P,R5,2*
G04 #@! TO.N,GND*
X34500000Y-102000000D03*
D16*
G04 #@! TO.N,Net-(C5-Pad1)*
G04 #@! TO.C,R10*
G36*
X51399505Y-100051204D02*
X51423773Y-100054804D01*
X51447572Y-100060765D01*
X51470671Y-100069030D01*
X51492850Y-100079520D01*
X51513893Y-100092132D01*
X51533599Y-100106747D01*
X51551777Y-100123223D01*
X51568253Y-100141401D01*
X51582868Y-100161107D01*
X51595480Y-100182150D01*
X51605970Y-100204329D01*
X51614235Y-100227428D01*
X51620196Y-100251227D01*
X51623796Y-100275495D01*
X51625000Y-100299999D01*
X51625000Y-101200001D01*
X51623796Y-101224505D01*
X51620196Y-101248773D01*
X51614235Y-101272572D01*
X51605970Y-101295671D01*
X51595480Y-101317850D01*
X51582868Y-101338893D01*
X51568253Y-101358599D01*
X51551777Y-101376777D01*
X51533599Y-101393253D01*
X51513893Y-101407868D01*
X51492850Y-101420480D01*
X51470671Y-101430970D01*
X51447572Y-101439235D01*
X51423773Y-101445196D01*
X51399505Y-101448796D01*
X51375001Y-101450000D01*
X50724999Y-101450000D01*
X50700495Y-101448796D01*
X50676227Y-101445196D01*
X50652428Y-101439235D01*
X50629329Y-101430970D01*
X50607150Y-101420480D01*
X50586107Y-101407868D01*
X50566401Y-101393253D01*
X50548223Y-101376777D01*
X50531747Y-101358599D01*
X50517132Y-101338893D01*
X50504520Y-101317850D01*
X50494030Y-101295671D01*
X50485765Y-101272572D01*
X50479804Y-101248773D01*
X50476204Y-101224505D01*
X50475000Y-101200001D01*
X50475000Y-100299999D01*
X50476204Y-100275495D01*
X50479804Y-100251227D01*
X50485765Y-100227428D01*
X50494030Y-100204329D01*
X50504520Y-100182150D01*
X50517132Y-100161107D01*
X50531747Y-100141401D01*
X50548223Y-100123223D01*
X50566401Y-100106747D01*
X50586107Y-100092132D01*
X50607150Y-100079520D01*
X50629329Y-100069030D01*
X50652428Y-100060765D01*
X50676227Y-100054804D01*
X50700495Y-100051204D01*
X50724999Y-100050000D01*
X51375001Y-100050000D01*
X51399505Y-100051204D01*
X51399505Y-100051204D01*
G37*
D17*
G04 #@! TD*
G04 #@! TO.P,R10,2*
G04 #@! TO.N,Net-(C5-Pad1)*
X51050000Y-100750000D03*
D16*
G04 #@! TO.N,+3V3*
G04 #@! TO.C,R10*
G36*
X49349505Y-100051204D02*
X49373773Y-100054804D01*
X49397572Y-100060765D01*
X49420671Y-100069030D01*
X49442850Y-100079520D01*
X49463893Y-100092132D01*
X49483599Y-100106747D01*
X49501777Y-100123223D01*
X49518253Y-100141401D01*
X49532868Y-100161107D01*
X49545480Y-100182150D01*
X49555970Y-100204329D01*
X49564235Y-100227428D01*
X49570196Y-100251227D01*
X49573796Y-100275495D01*
X49575000Y-100299999D01*
X49575000Y-101200001D01*
X49573796Y-101224505D01*
X49570196Y-101248773D01*
X49564235Y-101272572D01*
X49555970Y-101295671D01*
X49545480Y-101317850D01*
X49532868Y-101338893D01*
X49518253Y-101358599D01*
X49501777Y-101376777D01*
X49483599Y-101393253D01*
X49463893Y-101407868D01*
X49442850Y-101420480D01*
X49420671Y-101430970D01*
X49397572Y-101439235D01*
X49373773Y-101445196D01*
X49349505Y-101448796D01*
X49325001Y-101450000D01*
X48674999Y-101450000D01*
X48650495Y-101448796D01*
X48626227Y-101445196D01*
X48602428Y-101439235D01*
X48579329Y-101430970D01*
X48557150Y-101420480D01*
X48536107Y-101407868D01*
X48516401Y-101393253D01*
X48498223Y-101376777D01*
X48481747Y-101358599D01*
X48467132Y-101338893D01*
X48454520Y-101317850D01*
X48444030Y-101295671D01*
X48435765Y-101272572D01*
X48429804Y-101248773D01*
X48426204Y-101224505D01*
X48425000Y-101200001D01*
X48425000Y-100299999D01*
X48426204Y-100275495D01*
X48429804Y-100251227D01*
X48435765Y-100227428D01*
X48444030Y-100204329D01*
X48454520Y-100182150D01*
X48467132Y-100161107D01*
X48481747Y-100141401D01*
X48498223Y-100123223D01*
X48516401Y-100106747D01*
X48536107Y-100092132D01*
X48557150Y-100079520D01*
X48579329Y-100069030D01*
X48602428Y-100060765D01*
X48626227Y-100054804D01*
X48650495Y-100051204D01*
X48674999Y-100050000D01*
X49325001Y-100050000D01*
X49349505Y-100051204D01*
X49349505Y-100051204D01*
G37*
D17*
G04 #@! TD*
G04 #@! TO.P,R10,1*
G04 #@! TO.N,+3V3*
X49000000Y-100750000D03*
D18*
G04 #@! TO.P,C2,1*
G04 #@! TO.N,Net-(C2-Pad1)*
X60200000Y-86200000D03*
D19*
G04 #@! TO.P,C2,2*
G04 #@! TO.N,GND*
X57700000Y-86200000D03*
G04 #@! TD*
D20*
G04 #@! TO.P,D2,3*
G04 #@! TO.N,Net-(D2-Pad3)*
X54850000Y-106160000D03*
G04 #@! TO.P,D2,2*
G04 #@! TO.N,Net-(D2-Pad2)*
X55500000Y-103500000D03*
G04 #@! TO.P,D2,1*
G04 #@! TO.N,DTR*
X54200000Y-103500000D03*
G04 #@! TD*
D21*
G04 #@! TO.P,D1,2*
G04 #@! TO.N,HAN1*
X55400000Y-78800000D03*
G04 #@! TO.P,D1,1*
G04 #@! TO.N,Net-(D1-Pad1)*
X58700000Y-78800000D03*
G04 #@! TD*
G04 #@! TO.P,D3,1*
G04 #@! TO.N,Net-(C2-Pad1)*
X64100000Y-78800000D03*
G04 #@! TO.P,D3,2*
G04 #@! TO.N,Net-(D1-Pad1)*
X60800000Y-78800000D03*
G04 #@! TD*
D20*
G04 #@! TO.P,Q1,1*
G04 #@! TO.N,Net-(C5-Pad1)*
X40650000Y-105580000D03*
G04 #@! TO.P,Q1,2*
G04 #@! TO.N,ESP_PROG*
X39350000Y-105580000D03*
G04 #@! TO.P,Q1,3*
G04 #@! TO.N,Net-(C4-Pad2)*
X40000000Y-102920000D03*
G04 #@! TD*
D16*
G04 #@! TO.N,Net-(C2-Pad1)*
G04 #@! TO.C,R7*
G36*
X54074505Y-68826204D02*
X54098773Y-68829804D01*
X54122572Y-68835765D01*
X54145671Y-68844030D01*
X54167850Y-68854520D01*
X54188893Y-68867132D01*
X54208599Y-68881747D01*
X54226777Y-68898223D01*
X54243253Y-68916401D01*
X54257868Y-68936107D01*
X54270480Y-68957150D01*
X54280970Y-68979329D01*
X54289235Y-69002428D01*
X54295196Y-69026227D01*
X54298796Y-69050495D01*
X54300000Y-69074999D01*
X54300000Y-69725001D01*
X54298796Y-69749505D01*
X54295196Y-69773773D01*
X54289235Y-69797572D01*
X54280970Y-69820671D01*
X54270480Y-69842850D01*
X54257868Y-69863893D01*
X54243253Y-69883599D01*
X54226777Y-69901777D01*
X54208599Y-69918253D01*
X54188893Y-69932868D01*
X54167850Y-69945480D01*
X54145671Y-69955970D01*
X54122572Y-69964235D01*
X54098773Y-69970196D01*
X54074505Y-69973796D01*
X54050001Y-69975000D01*
X53149999Y-69975000D01*
X53125495Y-69973796D01*
X53101227Y-69970196D01*
X53077428Y-69964235D01*
X53054329Y-69955970D01*
X53032150Y-69945480D01*
X53011107Y-69932868D01*
X52991401Y-69918253D01*
X52973223Y-69901777D01*
X52956747Y-69883599D01*
X52942132Y-69863893D01*
X52929520Y-69842850D01*
X52919030Y-69820671D01*
X52910765Y-69797572D01*
X52904804Y-69773773D01*
X52901204Y-69749505D01*
X52900000Y-69725001D01*
X52900000Y-69074999D01*
X52901204Y-69050495D01*
X52904804Y-69026227D01*
X52910765Y-69002428D01*
X52919030Y-68979329D01*
X52929520Y-68957150D01*
X52942132Y-68936107D01*
X52956747Y-68916401D01*
X52973223Y-68898223D01*
X52991401Y-68881747D01*
X53011107Y-68867132D01*
X53032150Y-68854520D01*
X53054329Y-68844030D01*
X53077428Y-68835765D01*
X53101227Y-68829804D01*
X53125495Y-68826204D01*
X53149999Y-68825000D01*
X54050001Y-68825000D01*
X54074505Y-68826204D01*
X54074505Y-68826204D01*
G37*
D17*
G04 #@! TD*
G04 #@! TO.P,R7,1*
G04 #@! TO.N,Net-(C2-Pad1)*
X53600000Y-69400000D03*
D16*
G04 #@! TO.N,Net-(C7-Pad2)*
G04 #@! TO.C,R7*
G36*
X54074505Y-70876204D02*
X54098773Y-70879804D01*
X54122572Y-70885765D01*
X54145671Y-70894030D01*
X54167850Y-70904520D01*
X54188893Y-70917132D01*
X54208599Y-70931747D01*
X54226777Y-70948223D01*
X54243253Y-70966401D01*
X54257868Y-70986107D01*
X54270480Y-71007150D01*
X54280970Y-71029329D01*
X54289235Y-71052428D01*
X54295196Y-71076227D01*
X54298796Y-71100495D01*
X54300000Y-71124999D01*
X54300000Y-71775001D01*
X54298796Y-71799505D01*
X54295196Y-71823773D01*
X54289235Y-71847572D01*
X54280970Y-71870671D01*
X54270480Y-71892850D01*
X54257868Y-71913893D01*
X54243253Y-71933599D01*
X54226777Y-71951777D01*
X54208599Y-71968253D01*
X54188893Y-71982868D01*
X54167850Y-71995480D01*
X54145671Y-72005970D01*
X54122572Y-72014235D01*
X54098773Y-72020196D01*
X54074505Y-72023796D01*
X54050001Y-72025000D01*
X53149999Y-72025000D01*
X53125495Y-72023796D01*
X53101227Y-72020196D01*
X53077428Y-72014235D01*
X53054329Y-72005970D01*
X53032150Y-71995480D01*
X53011107Y-71982868D01*
X52991401Y-71968253D01*
X52973223Y-71951777D01*
X52956747Y-71933599D01*
X52942132Y-71913893D01*
X52929520Y-71892850D01*
X52919030Y-71870671D01*
X52910765Y-71847572D01*
X52904804Y-71823773D01*
X52901204Y-71799505D01*
X52900000Y-71775001D01*
X52900000Y-71124999D01*
X52901204Y-71100495D01*
X52904804Y-71076227D01*
X52910765Y-71052428D01*
X52919030Y-71029329D01*
X52929520Y-71007150D01*
X52942132Y-70986107D01*
X52956747Y-70966401D01*
X52973223Y-70948223D01*
X52991401Y-70931747D01*
X53011107Y-70917132D01*
X53032150Y-70904520D01*
X53054329Y-70894030D01*
X53077428Y-70885765D01*
X53101227Y-70879804D01*
X53125495Y-70876204D01*
X53149999Y-70875000D01*
X54050001Y-70875000D01*
X54074505Y-70876204D01*
X54074505Y-70876204D01*
G37*
D17*
G04 #@! TD*
G04 #@! TO.P,R7,2*
G04 #@! TO.N,Net-(C7-Pad2)*
X53600000Y-71450000D03*
D16*
G04 #@! TO.N,GND*
G04 #@! TO.C,R8*
G36*
X66349505Y-72051204D02*
X66373773Y-72054804D01*
X66397572Y-72060765D01*
X66420671Y-72069030D01*
X66442850Y-72079520D01*
X66463893Y-72092132D01*
X66483599Y-72106747D01*
X66501777Y-72123223D01*
X66518253Y-72141401D01*
X66532868Y-72161107D01*
X66545480Y-72182150D01*
X66555970Y-72204329D01*
X66564235Y-72227428D01*
X66570196Y-72251227D01*
X66573796Y-72275495D01*
X66575000Y-72299999D01*
X66575000Y-73200001D01*
X66573796Y-73224505D01*
X66570196Y-73248773D01*
X66564235Y-73272572D01*
X66555970Y-73295671D01*
X66545480Y-73317850D01*
X66532868Y-73338893D01*
X66518253Y-73358599D01*
X66501777Y-73376777D01*
X66483599Y-73393253D01*
X66463893Y-73407868D01*
X66442850Y-73420480D01*
X66420671Y-73430970D01*
X66397572Y-73439235D01*
X66373773Y-73445196D01*
X66349505Y-73448796D01*
X66325001Y-73450000D01*
X65674999Y-73450000D01*
X65650495Y-73448796D01*
X65626227Y-73445196D01*
X65602428Y-73439235D01*
X65579329Y-73430970D01*
X65557150Y-73420480D01*
X65536107Y-73407868D01*
X65516401Y-73393253D01*
X65498223Y-73376777D01*
X65481747Y-73358599D01*
X65467132Y-73338893D01*
X65454520Y-73317850D01*
X65444030Y-73295671D01*
X65435765Y-73272572D01*
X65429804Y-73248773D01*
X65426204Y-73224505D01*
X65425000Y-73200001D01*
X65425000Y-72299999D01*
X65426204Y-72275495D01*
X65429804Y-72251227D01*
X65435765Y-72227428D01*
X65444030Y-72204329D01*
X65454520Y-72182150D01*
X65467132Y-72161107D01*
X65481747Y-72141401D01*
X65498223Y-72123223D01*
X65516401Y-72106747D01*
X65536107Y-72092132D01*
X65557150Y-72079520D01*
X65579329Y-72069030D01*
X65602428Y-72060765D01*
X65626227Y-72054804D01*
X65650495Y-72051204D01*
X65674999Y-72050000D01*
X66325001Y-72050000D01*
X66349505Y-72051204D01*
X66349505Y-72051204D01*
G37*
D17*
G04 #@! TD*
G04 #@! TO.P,R8,2*
G04 #@! TO.N,GND*
X66000000Y-72750000D03*
D16*
G04 #@! TO.N,Net-(R8-Pad1)*
G04 #@! TO.C,R8*
G36*
X64299505Y-72051204D02*
X64323773Y-72054804D01*
X64347572Y-72060765D01*
X64370671Y-72069030D01*
X64392850Y-72079520D01*
X64413893Y-72092132D01*
X64433599Y-72106747D01*
X64451777Y-72123223D01*
X64468253Y-72141401D01*
X64482868Y-72161107D01*
X64495480Y-72182150D01*
X64505970Y-72204329D01*
X64514235Y-72227428D01*
X64520196Y-72251227D01*
X64523796Y-72275495D01*
X64525000Y-72299999D01*
X64525000Y-73200001D01*
X64523796Y-73224505D01*
X64520196Y-73248773D01*
X64514235Y-73272572D01*
X64505970Y-73295671D01*
X64495480Y-73317850D01*
X64482868Y-73338893D01*
X64468253Y-73358599D01*
X64451777Y-73376777D01*
X64433599Y-73393253D01*
X64413893Y-73407868D01*
X64392850Y-73420480D01*
X64370671Y-73430970D01*
X64347572Y-73439235D01*
X64323773Y-73445196D01*
X64299505Y-73448796D01*
X64275001Y-73450000D01*
X63624999Y-73450000D01*
X63600495Y-73448796D01*
X63576227Y-73445196D01*
X63552428Y-73439235D01*
X63529329Y-73430970D01*
X63507150Y-73420480D01*
X63486107Y-73407868D01*
X63466401Y-73393253D01*
X63448223Y-73376777D01*
X63431747Y-73358599D01*
X63417132Y-73338893D01*
X63404520Y-73317850D01*
X63394030Y-73295671D01*
X63385765Y-73272572D01*
X63379804Y-73248773D01*
X63376204Y-73224505D01*
X63375000Y-73200001D01*
X63375000Y-72299999D01*
X63376204Y-72275495D01*
X63379804Y-72251227D01*
X63385765Y-72227428D01*
X63394030Y-72204329D01*
X63404520Y-72182150D01*
X63417132Y-72161107D01*
X63431747Y-72141401D01*
X63448223Y-72123223D01*
X63466401Y-72106747D01*
X63486107Y-72092132D01*
X63507150Y-72079520D01*
X63529329Y-72069030D01*
X63552428Y-72060765D01*
X63576227Y-72054804D01*
X63600495Y-72051204D01*
X63624999Y-72050000D01*
X64275001Y-72050000D01*
X64299505Y-72051204D01*
X64299505Y-72051204D01*
G37*
D17*
G04 #@! TD*
G04 #@! TO.P,R8,1*
G04 #@! TO.N,Net-(R8-Pad1)*
X63950000Y-72750000D03*
D22*
G04 #@! TO.P,J1,1*
G04 #@! TO.N,HAN1*
X39750000Y-76500000D03*
D23*
G04 #@! TO.P,J1,3*
G04 #@! TO.N,Net-(J1-Pad3)*
X41790000Y-76500000D03*
G04 #@! TO.P,J1,5*
G04 #@! TO.N,Net-(J1-Pad5)*
X43830000Y-76500000D03*
G04 #@! TO.P,J1,7*
G04 #@! TO.N,Net-(J1-Pad7)*
X45870000Y-76500000D03*
G04 #@! TO.P,J1,2*
G04 #@! TO.N,GND*
X40770000Y-78280000D03*
G04 #@! TO.P,J1,4*
G04 #@! TO.N,Net-(J1-Pad4)*
X42810000Y-78280000D03*
G04 #@! TO.P,J1,6*
G04 #@! TO.N,Net-(J1-Pad6)*
X44850000Y-78280000D03*
G04 #@! TO.P,J1,8*
G04 #@! TO.N,Net-(J1-Pad8)*
X46890000Y-78280000D03*
D24*
G04 #@! TO.P,J1,SH*
G04 #@! TO.N,Net-(J1-PadSH)*
X51440000Y-77390000D03*
X35180000Y-77390000D03*
G04 #@! TD*
D16*
G04 #@! TO.N,DTR*
G04 #@! TO.C,C1*
G36*
X56149505Y-100301204D02*
X56173773Y-100304804D01*
X56197572Y-100310765D01*
X56220671Y-100319030D01*
X56242850Y-100329520D01*
X56263893Y-100342132D01*
X56283599Y-100356747D01*
X56301777Y-100373223D01*
X56318253Y-100391401D01*
X56332868Y-100411107D01*
X56345480Y-100432150D01*
X56355970Y-100454329D01*
X56364235Y-100477428D01*
X56370196Y-100501227D01*
X56373796Y-100525495D01*
X56375000Y-100549999D01*
X56375000Y-101450001D01*
X56373796Y-101474505D01*
X56370196Y-101498773D01*
X56364235Y-101522572D01*
X56355970Y-101545671D01*
X56345480Y-101567850D01*
X56332868Y-101588893D01*
X56318253Y-101608599D01*
X56301777Y-101626777D01*
X56283599Y-101643253D01*
X56263893Y-101657868D01*
X56242850Y-101670480D01*
X56220671Y-101680970D01*
X56197572Y-101689235D01*
X56173773Y-101695196D01*
X56149505Y-101698796D01*
X56125001Y-101700000D01*
X55474999Y-101700000D01*
X55450495Y-101698796D01*
X55426227Y-101695196D01*
X55402428Y-101689235D01*
X55379329Y-101680970D01*
X55357150Y-101670480D01*
X55336107Y-101657868D01*
X55316401Y-101643253D01*
X55298223Y-101626777D01*
X55281747Y-101608599D01*
X55267132Y-101588893D01*
X55254520Y-101567850D01*
X55244030Y-101545671D01*
X55235765Y-101522572D01*
X55229804Y-101498773D01*
X55226204Y-101474505D01*
X55225000Y-101450001D01*
X55225000Y-100549999D01*
X55226204Y-100525495D01*
X55229804Y-100501227D01*
X55235765Y-100477428D01*
X55244030Y-100454329D01*
X55254520Y-100432150D01*
X55267132Y-100411107D01*
X55281747Y-100391401D01*
X55298223Y-100373223D01*
X55316401Y-100356747D01*
X55336107Y-100342132D01*
X55357150Y-100329520D01*
X55379329Y-100319030D01*
X55402428Y-100310765D01*
X55426227Y-100304804D01*
X55450495Y-100301204D01*
X55474999Y-100300000D01*
X56125001Y-100300000D01*
X56149505Y-100301204D01*
X56149505Y-100301204D01*
G37*
D17*
G04 #@! TD*
G04 #@! TO.P,C1,2*
G04 #@! TO.N,DTR*
X55800000Y-101000000D03*
D16*
G04 #@! TO.N,ESP_RESET*
G04 #@! TO.C,C1*
G36*
X54099505Y-100301204D02*
X54123773Y-100304804D01*
X54147572Y-100310765D01*
X54170671Y-100319030D01*
X54192850Y-100329520D01*
X54213893Y-100342132D01*
X54233599Y-100356747D01*
X54251777Y-100373223D01*
X54268253Y-100391401D01*
X54282868Y-100411107D01*
X54295480Y-100432150D01*
X54305970Y-100454329D01*
X54314235Y-100477428D01*
X54320196Y-100501227D01*
X54323796Y-100525495D01*
X54325000Y-100549999D01*
X54325000Y-101450001D01*
X54323796Y-101474505D01*
X54320196Y-101498773D01*
X54314235Y-101522572D01*
X54305970Y-101545671D01*
X54295480Y-101567850D01*
X54282868Y-101588893D01*
X54268253Y-101608599D01*
X54251777Y-101626777D01*
X54233599Y-101643253D01*
X54213893Y-101657868D01*
X54192850Y-101670480D01*
X54170671Y-101680970D01*
X54147572Y-101689235D01*
X54123773Y-101695196D01*
X54099505Y-101698796D01*
X54075001Y-101700000D01*
X53424999Y-101700000D01*
X53400495Y-101698796D01*
X53376227Y-101695196D01*
X53352428Y-101689235D01*
X53329329Y-101680970D01*
X53307150Y-101670480D01*
X53286107Y-101657868D01*
X53266401Y-101643253D01*
X53248223Y-101626777D01*
X53231747Y-101608599D01*
X53217132Y-101588893D01*
X53204520Y-101567850D01*
X53194030Y-101545671D01*
X53185765Y-101522572D01*
X53179804Y-101498773D01*
X53176204Y-101474505D01*
X53175000Y-101450001D01*
X53175000Y-100549999D01*
X53176204Y-100525495D01*
X53179804Y-100501227D01*
X53185765Y-100477428D01*
X53194030Y-100454329D01*
X53204520Y-100432150D01*
X53217132Y-100411107D01*
X53231747Y-100391401D01*
X53248223Y-100373223D01*
X53266401Y-100356747D01*
X53286107Y-100342132D01*
X53307150Y-100329520D01*
X53329329Y-100319030D01*
X53352428Y-100310765D01*
X53376227Y-100304804D01*
X53400495Y-100301204D01*
X53424999Y-100300000D01*
X54075001Y-100300000D01*
X54099505Y-100301204D01*
X54099505Y-100301204D01*
G37*
D17*
G04 #@! TD*
G04 #@! TO.P,C1,1*
G04 #@! TO.N,ESP_RESET*
X53750000Y-101000000D03*
D16*
G04 #@! TO.N,+3V3*
G04 #@! TO.C,C4*
G36*
X45874505Y-101801204D02*
X45898773Y-101804804D01*
X45922572Y-101810765D01*
X45945671Y-101819030D01*
X45967850Y-101829520D01*
X45988893Y-101842132D01*
X46008599Y-101856747D01*
X46026777Y-101873223D01*
X46043253Y-101891401D01*
X46057868Y-101911107D01*
X46070480Y-101932150D01*
X46080970Y-101954329D01*
X46089235Y-101977428D01*
X46095196Y-102001227D01*
X46098796Y-102025495D01*
X46100000Y-102049999D01*
X46100000Y-102950001D01*
X46098796Y-102974505D01*
X46095196Y-102998773D01*
X46089235Y-103022572D01*
X46080970Y-103045671D01*
X46070480Y-103067850D01*
X46057868Y-103088893D01*
X46043253Y-103108599D01*
X46026777Y-103126777D01*
X46008599Y-103143253D01*
X45988893Y-103157868D01*
X45967850Y-103170480D01*
X45945671Y-103180970D01*
X45922572Y-103189235D01*
X45898773Y-103195196D01*
X45874505Y-103198796D01*
X45850001Y-103200000D01*
X45199999Y-103200000D01*
X45175495Y-103198796D01*
X45151227Y-103195196D01*
X45127428Y-103189235D01*
X45104329Y-103180970D01*
X45082150Y-103170480D01*
X45061107Y-103157868D01*
X45041401Y-103143253D01*
X45023223Y-103126777D01*
X45006747Y-103108599D01*
X44992132Y-103088893D01*
X44979520Y-103067850D01*
X44969030Y-103045671D01*
X44960765Y-103022572D01*
X44954804Y-102998773D01*
X44951204Y-102974505D01*
X44950000Y-102950001D01*
X44950000Y-102049999D01*
X44951204Y-102025495D01*
X44954804Y-102001227D01*
X44960765Y-101977428D01*
X44969030Y-101954329D01*
X44979520Y-101932150D01*
X44992132Y-101911107D01*
X45006747Y-101891401D01*
X45023223Y-101873223D01*
X45041401Y-101856747D01*
X45061107Y-101842132D01*
X45082150Y-101829520D01*
X45104329Y-101819030D01*
X45127428Y-101810765D01*
X45151227Y-101804804D01*
X45175495Y-101801204D01*
X45199999Y-101800000D01*
X45850001Y-101800000D01*
X45874505Y-101801204D01*
X45874505Y-101801204D01*
G37*
D17*
G04 #@! TD*
G04 #@! TO.P,C4,1*
G04 #@! TO.N,+3V3*
X45525000Y-102500000D03*
D16*
G04 #@! TO.N,Net-(C4-Pad2)*
G04 #@! TO.C,C4*
G36*
X43824505Y-101801204D02*
X43848773Y-101804804D01*
X43872572Y-101810765D01*
X43895671Y-101819030D01*
X43917850Y-101829520D01*
X43938893Y-101842132D01*
X43958599Y-101856747D01*
X43976777Y-101873223D01*
X43993253Y-101891401D01*
X44007868Y-101911107D01*
X44020480Y-101932150D01*
X44030970Y-101954329D01*
X44039235Y-101977428D01*
X44045196Y-102001227D01*
X44048796Y-102025495D01*
X44050000Y-102049999D01*
X44050000Y-102950001D01*
X44048796Y-102974505D01*
X44045196Y-102998773D01*
X44039235Y-103022572D01*
X44030970Y-103045671D01*
X44020480Y-103067850D01*
X44007868Y-103088893D01*
X43993253Y-103108599D01*
X43976777Y-103126777D01*
X43958599Y-103143253D01*
X43938893Y-103157868D01*
X43917850Y-103170480D01*
X43895671Y-103180970D01*
X43872572Y-103189235D01*
X43848773Y-103195196D01*
X43824505Y-103198796D01*
X43800001Y-103200000D01*
X43149999Y-103200000D01*
X43125495Y-103198796D01*
X43101227Y-103195196D01*
X43077428Y-103189235D01*
X43054329Y-103180970D01*
X43032150Y-103170480D01*
X43011107Y-103157868D01*
X42991401Y-103143253D01*
X42973223Y-103126777D01*
X42956747Y-103108599D01*
X42942132Y-103088893D01*
X42929520Y-103067850D01*
X42919030Y-103045671D01*
X42910765Y-103022572D01*
X42904804Y-102998773D01*
X42901204Y-102974505D01*
X42900000Y-102950001D01*
X42900000Y-102049999D01*
X42901204Y-102025495D01*
X42904804Y-102001227D01*
X42910765Y-101977428D01*
X42919030Y-101954329D01*
X42929520Y-101932150D01*
X42942132Y-101911107D01*
X42956747Y-101891401D01*
X42973223Y-101873223D01*
X42991401Y-101856747D01*
X43011107Y-101842132D01*
X43032150Y-101829520D01*
X43054329Y-101819030D01*
X43077428Y-101810765D01*
X43101227Y-101804804D01*
X43125495Y-101801204D01*
X43149999Y-101800000D01*
X43800001Y-101800000D01*
X43824505Y-101801204D01*
X43824505Y-101801204D01*
G37*
D17*
G04 #@! TD*
G04 #@! TO.P,C4,2*
G04 #@! TO.N,Net-(C4-Pad2)*
X43475000Y-102500000D03*
D16*
G04 #@! TO.N,Net-(C5-Pad1)*
G04 #@! TO.C,C5*
G36*
X56149505Y-97301204D02*
X56173773Y-97304804D01*
X56197572Y-97310765D01*
X56220671Y-97319030D01*
X56242850Y-97329520D01*
X56263893Y-97342132D01*
X56283599Y-97356747D01*
X56301777Y-97373223D01*
X56318253Y-97391401D01*
X56332868Y-97411107D01*
X56345480Y-97432150D01*
X56355970Y-97454329D01*
X56364235Y-97477428D01*
X56370196Y-97501227D01*
X56373796Y-97525495D01*
X56375000Y-97549999D01*
X56375000Y-98450001D01*
X56373796Y-98474505D01*
X56370196Y-98498773D01*
X56364235Y-98522572D01*
X56355970Y-98545671D01*
X56345480Y-98567850D01*
X56332868Y-98588893D01*
X56318253Y-98608599D01*
X56301777Y-98626777D01*
X56283599Y-98643253D01*
X56263893Y-98657868D01*
X56242850Y-98670480D01*
X56220671Y-98680970D01*
X56197572Y-98689235D01*
X56173773Y-98695196D01*
X56149505Y-98698796D01*
X56125001Y-98700000D01*
X55474999Y-98700000D01*
X55450495Y-98698796D01*
X55426227Y-98695196D01*
X55402428Y-98689235D01*
X55379329Y-98680970D01*
X55357150Y-98670480D01*
X55336107Y-98657868D01*
X55316401Y-98643253D01*
X55298223Y-98626777D01*
X55281747Y-98608599D01*
X55267132Y-98588893D01*
X55254520Y-98567850D01*
X55244030Y-98545671D01*
X55235765Y-98522572D01*
X55229804Y-98498773D01*
X55226204Y-98474505D01*
X55225000Y-98450001D01*
X55225000Y-97549999D01*
X55226204Y-97525495D01*
X55229804Y-97501227D01*
X55235765Y-97477428D01*
X55244030Y-97454329D01*
X55254520Y-97432150D01*
X55267132Y-97411107D01*
X55281747Y-97391401D01*
X55298223Y-97373223D01*
X55316401Y-97356747D01*
X55336107Y-97342132D01*
X55357150Y-97329520D01*
X55379329Y-97319030D01*
X55402428Y-97310765D01*
X55426227Y-97304804D01*
X55450495Y-97301204D01*
X55474999Y-97300000D01*
X56125001Y-97300000D01*
X56149505Y-97301204D01*
X56149505Y-97301204D01*
G37*
D17*
G04 #@! TD*
G04 #@! TO.P,C5,1*
G04 #@! TO.N,Net-(C5-Pad1)*
X55800000Y-98000000D03*
D16*
G04 #@! TO.N,GND*
G04 #@! TO.C,C5*
G36*
X54099505Y-97301204D02*
X54123773Y-97304804D01*
X54147572Y-97310765D01*
X54170671Y-97319030D01*
X54192850Y-97329520D01*
X54213893Y-97342132D01*
X54233599Y-97356747D01*
X54251777Y-97373223D01*
X54268253Y-97391401D01*
X54282868Y-97411107D01*
X54295480Y-97432150D01*
X54305970Y-97454329D01*
X54314235Y-97477428D01*
X54320196Y-97501227D01*
X54323796Y-97525495D01*
X54325000Y-97549999D01*
X54325000Y-98450001D01*
X54323796Y-98474505D01*
X54320196Y-98498773D01*
X54314235Y-98522572D01*
X54305970Y-98545671D01*
X54295480Y-98567850D01*
X54282868Y-98588893D01*
X54268253Y-98608599D01*
X54251777Y-98626777D01*
X54233599Y-98643253D01*
X54213893Y-98657868D01*
X54192850Y-98670480D01*
X54170671Y-98680970D01*
X54147572Y-98689235D01*
X54123773Y-98695196D01*
X54099505Y-98698796D01*
X54075001Y-98700000D01*
X53424999Y-98700000D01*
X53400495Y-98698796D01*
X53376227Y-98695196D01*
X53352428Y-98689235D01*
X53329329Y-98680970D01*
X53307150Y-98670480D01*
X53286107Y-98657868D01*
X53266401Y-98643253D01*
X53248223Y-98626777D01*
X53231747Y-98608599D01*
X53217132Y-98588893D01*
X53204520Y-98567850D01*
X53194030Y-98545671D01*
X53185765Y-98522572D01*
X53179804Y-98498773D01*
X53176204Y-98474505D01*
X53175000Y-98450001D01*
X53175000Y-97549999D01*
X53176204Y-97525495D01*
X53179804Y-97501227D01*
X53185765Y-97477428D01*
X53194030Y-97454329D01*
X53204520Y-97432150D01*
X53217132Y-97411107D01*
X53231747Y-97391401D01*
X53248223Y-97373223D01*
X53266401Y-97356747D01*
X53286107Y-97342132D01*
X53307150Y-97329520D01*
X53329329Y-97319030D01*
X53352428Y-97310765D01*
X53376227Y-97304804D01*
X53400495Y-97301204D01*
X53424999Y-97300000D01*
X54075001Y-97300000D01*
X54099505Y-97301204D01*
X54099505Y-97301204D01*
G37*
D17*
G04 #@! TD*
G04 #@! TO.P,C5,2*
G04 #@! TO.N,GND*
X53750000Y-98000000D03*
D16*
G04 #@! TO.N,Net-(C6-Pad1)*
G04 #@! TO.C,C6*
G36*
X64299505Y-69901204D02*
X64323773Y-69904804D01*
X64347572Y-69910765D01*
X64370671Y-69919030D01*
X64392850Y-69929520D01*
X64413893Y-69942132D01*
X64433599Y-69956747D01*
X64451777Y-69973223D01*
X64468253Y-69991401D01*
X64482868Y-70011107D01*
X64495480Y-70032150D01*
X64505970Y-70054329D01*
X64514235Y-70077428D01*
X64520196Y-70101227D01*
X64523796Y-70125495D01*
X64525000Y-70149999D01*
X64525000Y-71050001D01*
X64523796Y-71074505D01*
X64520196Y-71098773D01*
X64514235Y-71122572D01*
X64505970Y-71145671D01*
X64495480Y-71167850D01*
X64482868Y-71188893D01*
X64468253Y-71208599D01*
X64451777Y-71226777D01*
X64433599Y-71243253D01*
X64413893Y-71257868D01*
X64392850Y-71270480D01*
X64370671Y-71280970D01*
X64347572Y-71289235D01*
X64323773Y-71295196D01*
X64299505Y-71298796D01*
X64275001Y-71300000D01*
X63624999Y-71300000D01*
X63600495Y-71298796D01*
X63576227Y-71295196D01*
X63552428Y-71289235D01*
X63529329Y-71280970D01*
X63507150Y-71270480D01*
X63486107Y-71257868D01*
X63466401Y-71243253D01*
X63448223Y-71226777D01*
X63431747Y-71208599D01*
X63417132Y-71188893D01*
X63404520Y-71167850D01*
X63394030Y-71145671D01*
X63385765Y-71122572D01*
X63379804Y-71098773D01*
X63376204Y-71074505D01*
X63375000Y-71050001D01*
X63375000Y-70149999D01*
X63376204Y-70125495D01*
X63379804Y-70101227D01*
X63385765Y-70077428D01*
X63394030Y-70054329D01*
X63404520Y-70032150D01*
X63417132Y-70011107D01*
X63431747Y-69991401D01*
X63448223Y-69973223D01*
X63466401Y-69956747D01*
X63486107Y-69942132D01*
X63507150Y-69929520D01*
X63529329Y-69919030D01*
X63552428Y-69910765D01*
X63576227Y-69904804D01*
X63600495Y-69901204D01*
X63624999Y-69900000D01*
X64275001Y-69900000D01*
X64299505Y-69901204D01*
X64299505Y-69901204D01*
G37*
D17*
G04 #@! TD*
G04 #@! TO.P,C6,1*
G04 #@! TO.N,Net-(C6-Pad1)*
X63950000Y-70600000D03*
D16*
G04 #@! TO.N,GND*
G04 #@! TO.C,C6*
G36*
X66349505Y-69901204D02*
X66373773Y-69904804D01*
X66397572Y-69910765D01*
X66420671Y-69919030D01*
X66442850Y-69929520D01*
X66463893Y-69942132D01*
X66483599Y-69956747D01*
X66501777Y-69973223D01*
X66518253Y-69991401D01*
X66532868Y-70011107D01*
X66545480Y-70032150D01*
X66555970Y-70054329D01*
X66564235Y-70077428D01*
X66570196Y-70101227D01*
X66573796Y-70125495D01*
X66575000Y-70149999D01*
X66575000Y-71050001D01*
X66573796Y-71074505D01*
X66570196Y-71098773D01*
X66564235Y-71122572D01*
X66555970Y-71145671D01*
X66545480Y-71167850D01*
X66532868Y-71188893D01*
X66518253Y-71208599D01*
X66501777Y-71226777D01*
X66483599Y-71243253D01*
X66463893Y-71257868D01*
X66442850Y-71270480D01*
X66420671Y-71280970D01*
X66397572Y-71289235D01*
X66373773Y-71295196D01*
X66349505Y-71298796D01*
X66325001Y-71300000D01*
X65674999Y-71300000D01*
X65650495Y-71298796D01*
X65626227Y-71295196D01*
X65602428Y-71289235D01*
X65579329Y-71280970D01*
X65557150Y-71270480D01*
X65536107Y-71257868D01*
X65516401Y-71243253D01*
X65498223Y-71226777D01*
X65481747Y-71208599D01*
X65467132Y-71188893D01*
X65454520Y-71167850D01*
X65444030Y-71145671D01*
X65435765Y-71122572D01*
X65429804Y-71098773D01*
X65426204Y-71074505D01*
X65425000Y-71050001D01*
X65425000Y-70149999D01*
X65426204Y-70125495D01*
X65429804Y-70101227D01*
X65435765Y-70077428D01*
X65444030Y-70054329D01*
X65454520Y-70032150D01*
X65467132Y-70011107D01*
X65481747Y-69991401D01*
X65498223Y-69973223D01*
X65516401Y-69956747D01*
X65536107Y-69942132D01*
X65557150Y-69929520D01*
X65579329Y-69919030D01*
X65602428Y-69910765D01*
X65626227Y-69904804D01*
X65650495Y-69901204D01*
X65674999Y-69900000D01*
X66325001Y-69900000D01*
X66349505Y-69901204D01*
X66349505Y-69901204D01*
G37*
D17*
G04 #@! TD*
G04 #@! TO.P,C6,2*
G04 #@! TO.N,GND*
X66000000Y-70600000D03*
D16*
G04 #@! TO.N,Net-(C7-Pad2)*
G04 #@! TO.C,C7*
G36*
X54074505Y-72826204D02*
X54098773Y-72829804D01*
X54122572Y-72835765D01*
X54145671Y-72844030D01*
X54167850Y-72854520D01*
X54188893Y-72867132D01*
X54208599Y-72881747D01*
X54226777Y-72898223D01*
X54243253Y-72916401D01*
X54257868Y-72936107D01*
X54270480Y-72957150D01*
X54280970Y-72979329D01*
X54289235Y-73002428D01*
X54295196Y-73026227D01*
X54298796Y-73050495D01*
X54300000Y-73074999D01*
X54300000Y-73725001D01*
X54298796Y-73749505D01*
X54295196Y-73773773D01*
X54289235Y-73797572D01*
X54280970Y-73820671D01*
X54270480Y-73842850D01*
X54257868Y-73863893D01*
X54243253Y-73883599D01*
X54226777Y-73901777D01*
X54208599Y-73918253D01*
X54188893Y-73932868D01*
X54167850Y-73945480D01*
X54145671Y-73955970D01*
X54122572Y-73964235D01*
X54098773Y-73970196D01*
X54074505Y-73973796D01*
X54050001Y-73975000D01*
X53149999Y-73975000D01*
X53125495Y-73973796D01*
X53101227Y-73970196D01*
X53077428Y-73964235D01*
X53054329Y-73955970D01*
X53032150Y-73945480D01*
X53011107Y-73932868D01*
X52991401Y-73918253D01*
X52973223Y-73901777D01*
X52956747Y-73883599D01*
X52942132Y-73863893D01*
X52929520Y-73842850D01*
X52919030Y-73820671D01*
X52910765Y-73797572D01*
X52904804Y-73773773D01*
X52901204Y-73749505D01*
X52900000Y-73725001D01*
X52900000Y-73074999D01*
X52901204Y-73050495D01*
X52904804Y-73026227D01*
X52910765Y-73002428D01*
X52919030Y-72979329D01*
X52929520Y-72957150D01*
X52942132Y-72936107D01*
X52956747Y-72916401D01*
X52973223Y-72898223D01*
X52991401Y-72881747D01*
X53011107Y-72867132D01*
X53032150Y-72854520D01*
X53054329Y-72844030D01*
X53077428Y-72835765D01*
X53101227Y-72829804D01*
X53125495Y-72826204D01*
X53149999Y-72825000D01*
X54050001Y-72825000D01*
X54074505Y-72826204D01*
X54074505Y-72826204D01*
G37*
D17*
G04 #@! TD*
G04 #@! TO.P,C7,2*
G04 #@! TO.N,Net-(C7-Pad2)*
X53600000Y-73400000D03*
D16*
G04 #@! TO.N,GND*
G04 #@! TO.C,C7*
G36*
X54074505Y-74876204D02*
X54098773Y-74879804D01*
X54122572Y-74885765D01*
X54145671Y-74894030D01*
X54167850Y-74904520D01*
X54188893Y-74917132D01*
X54208599Y-74931747D01*
X54226777Y-74948223D01*
X54243253Y-74966401D01*
X54257868Y-74986107D01*
X54270480Y-75007150D01*
X54280970Y-75029329D01*
X54289235Y-75052428D01*
X54295196Y-75076227D01*
X54298796Y-75100495D01*
X54300000Y-75124999D01*
X54300000Y-75775001D01*
X54298796Y-75799505D01*
X54295196Y-75823773D01*
X54289235Y-75847572D01*
X54280970Y-75870671D01*
X54270480Y-75892850D01*
X54257868Y-75913893D01*
X54243253Y-75933599D01*
X54226777Y-75951777D01*
X54208599Y-75968253D01*
X54188893Y-75982868D01*
X54167850Y-75995480D01*
X54145671Y-76005970D01*
X54122572Y-76014235D01*
X54098773Y-76020196D01*
X54074505Y-76023796D01*
X54050001Y-76025000D01*
X53149999Y-76025000D01*
X53125495Y-76023796D01*
X53101227Y-76020196D01*
X53077428Y-76014235D01*
X53054329Y-76005970D01*
X53032150Y-75995480D01*
X53011107Y-75982868D01*
X52991401Y-75968253D01*
X52973223Y-75951777D01*
X52956747Y-75933599D01*
X52942132Y-75913893D01*
X52929520Y-75892850D01*
X52919030Y-75870671D01*
X52910765Y-75847572D01*
X52904804Y-75823773D01*
X52901204Y-75799505D01*
X52900000Y-75775001D01*
X52900000Y-75124999D01*
X52901204Y-75100495D01*
X52904804Y-75076227D01*
X52910765Y-75052428D01*
X52919030Y-75029329D01*
X52929520Y-75007150D01*
X52942132Y-74986107D01*
X52956747Y-74966401D01*
X52973223Y-74948223D01*
X52991401Y-74931747D01*
X53011107Y-74917132D01*
X53032150Y-74904520D01*
X53054329Y-74894030D01*
X53077428Y-74885765D01*
X53101227Y-74879804D01*
X53125495Y-74876204D01*
X53149999Y-74875000D01*
X54050001Y-74875000D01*
X54074505Y-74876204D01*
X54074505Y-74876204D01*
G37*
D17*
G04 #@! TD*
G04 #@! TO.P,C7,1*
G04 #@! TO.N,GND*
X53600000Y-75450000D03*
D16*
G04 #@! TO.N,GND*
G04 #@! TO.C,C11*
G36*
X41349505Y-88301204D02*
X41373773Y-88304804D01*
X41397572Y-88310765D01*
X41420671Y-88319030D01*
X41442850Y-88329520D01*
X41463893Y-88342132D01*
X41483599Y-88356747D01*
X41501777Y-88373223D01*
X41518253Y-88391401D01*
X41532868Y-88411107D01*
X41545480Y-88432150D01*
X41555970Y-88454329D01*
X41564235Y-88477428D01*
X41570196Y-88501227D01*
X41573796Y-88525495D01*
X41575000Y-88549999D01*
X41575000Y-89450001D01*
X41573796Y-89474505D01*
X41570196Y-89498773D01*
X41564235Y-89522572D01*
X41555970Y-89545671D01*
X41545480Y-89567850D01*
X41532868Y-89588893D01*
X41518253Y-89608599D01*
X41501777Y-89626777D01*
X41483599Y-89643253D01*
X41463893Y-89657868D01*
X41442850Y-89670480D01*
X41420671Y-89680970D01*
X41397572Y-89689235D01*
X41373773Y-89695196D01*
X41349505Y-89698796D01*
X41325001Y-89700000D01*
X40674999Y-89700000D01*
X40650495Y-89698796D01*
X40626227Y-89695196D01*
X40602428Y-89689235D01*
X40579329Y-89680970D01*
X40557150Y-89670480D01*
X40536107Y-89657868D01*
X40516401Y-89643253D01*
X40498223Y-89626777D01*
X40481747Y-89608599D01*
X40467132Y-89588893D01*
X40454520Y-89567850D01*
X40444030Y-89545671D01*
X40435765Y-89522572D01*
X40429804Y-89498773D01*
X40426204Y-89474505D01*
X40425000Y-89450001D01*
X40425000Y-88549999D01*
X40426204Y-88525495D01*
X40429804Y-88501227D01*
X40435765Y-88477428D01*
X40444030Y-88454329D01*
X40454520Y-88432150D01*
X40467132Y-88411107D01*
X40481747Y-88391401D01*
X40498223Y-88373223D01*
X40516401Y-88356747D01*
X40536107Y-88342132D01*
X40557150Y-88329520D01*
X40579329Y-88319030D01*
X40602428Y-88310765D01*
X40626227Y-88304804D01*
X40650495Y-88301204D01*
X40674999Y-88300000D01*
X41325001Y-88300000D01*
X41349505Y-88301204D01*
X41349505Y-88301204D01*
G37*
D17*
G04 #@! TD*
G04 #@! TO.P,C11,2*
G04 #@! TO.N,GND*
X41000000Y-89000000D03*
D16*
G04 #@! TO.N,Net-(C11-Pad1)*
G04 #@! TO.C,C11*
G36*
X39299505Y-88301204D02*
X39323773Y-88304804D01*
X39347572Y-88310765D01*
X39370671Y-88319030D01*
X39392850Y-88329520D01*
X39413893Y-88342132D01*
X39433599Y-88356747D01*
X39451777Y-88373223D01*
X39468253Y-88391401D01*
X39482868Y-88411107D01*
X39495480Y-88432150D01*
X39505970Y-88454329D01*
X39514235Y-88477428D01*
X39520196Y-88501227D01*
X39523796Y-88525495D01*
X39525000Y-88549999D01*
X39525000Y-89450001D01*
X39523796Y-89474505D01*
X39520196Y-89498773D01*
X39514235Y-89522572D01*
X39505970Y-89545671D01*
X39495480Y-89567850D01*
X39482868Y-89588893D01*
X39468253Y-89608599D01*
X39451777Y-89626777D01*
X39433599Y-89643253D01*
X39413893Y-89657868D01*
X39392850Y-89670480D01*
X39370671Y-89680970D01*
X39347572Y-89689235D01*
X39323773Y-89695196D01*
X39299505Y-89698796D01*
X39275001Y-89700000D01*
X38624999Y-89700000D01*
X38600495Y-89698796D01*
X38576227Y-89695196D01*
X38552428Y-89689235D01*
X38529329Y-89680970D01*
X38507150Y-89670480D01*
X38486107Y-89657868D01*
X38466401Y-89643253D01*
X38448223Y-89626777D01*
X38431747Y-89608599D01*
X38417132Y-89588893D01*
X38404520Y-89567850D01*
X38394030Y-89545671D01*
X38385765Y-89522572D01*
X38379804Y-89498773D01*
X38376204Y-89474505D01*
X38375000Y-89450001D01*
X38375000Y-88549999D01*
X38376204Y-88525495D01*
X38379804Y-88501227D01*
X38385765Y-88477428D01*
X38394030Y-88454329D01*
X38404520Y-88432150D01*
X38417132Y-88411107D01*
X38431747Y-88391401D01*
X38448223Y-88373223D01*
X38466401Y-88356747D01*
X38486107Y-88342132D01*
X38507150Y-88329520D01*
X38529329Y-88319030D01*
X38552428Y-88310765D01*
X38576227Y-88304804D01*
X38600495Y-88301204D01*
X38624999Y-88300000D01*
X39275001Y-88300000D01*
X39299505Y-88301204D01*
X39299505Y-88301204D01*
G37*
D17*
G04 #@! TD*
G04 #@! TO.P,C11,1*
G04 #@! TO.N,Net-(C11-Pad1)*
X38950000Y-89000000D03*
D16*
G04 #@! TO.N,GND*
G04 #@! TO.C,C12*
G36*
X51399505Y-93301204D02*
X51423773Y-93304804D01*
X51447572Y-93310765D01*
X51470671Y-93319030D01*
X51492850Y-93329520D01*
X51513893Y-93342132D01*
X51533599Y-93356747D01*
X51551777Y-93373223D01*
X51568253Y-93391401D01*
X51582868Y-93411107D01*
X51595480Y-93432150D01*
X51605970Y-93454329D01*
X51614235Y-93477428D01*
X51620196Y-93501227D01*
X51623796Y-93525495D01*
X51625000Y-93549999D01*
X51625000Y-94450001D01*
X51623796Y-94474505D01*
X51620196Y-94498773D01*
X51614235Y-94522572D01*
X51605970Y-94545671D01*
X51595480Y-94567850D01*
X51582868Y-94588893D01*
X51568253Y-94608599D01*
X51551777Y-94626777D01*
X51533599Y-94643253D01*
X51513893Y-94657868D01*
X51492850Y-94670480D01*
X51470671Y-94680970D01*
X51447572Y-94689235D01*
X51423773Y-94695196D01*
X51399505Y-94698796D01*
X51375001Y-94700000D01*
X50724999Y-94700000D01*
X50700495Y-94698796D01*
X50676227Y-94695196D01*
X50652428Y-94689235D01*
X50629329Y-94680970D01*
X50607150Y-94670480D01*
X50586107Y-94657868D01*
X50566401Y-94643253D01*
X50548223Y-94626777D01*
X50531747Y-94608599D01*
X50517132Y-94588893D01*
X50504520Y-94567850D01*
X50494030Y-94545671D01*
X50485765Y-94522572D01*
X50479804Y-94498773D01*
X50476204Y-94474505D01*
X50475000Y-94450001D01*
X50475000Y-93549999D01*
X50476204Y-93525495D01*
X50479804Y-93501227D01*
X50485765Y-93477428D01*
X50494030Y-93454329D01*
X50504520Y-93432150D01*
X50517132Y-93411107D01*
X50531747Y-93391401D01*
X50548223Y-93373223D01*
X50566401Y-93356747D01*
X50586107Y-93342132D01*
X50607150Y-93329520D01*
X50629329Y-93319030D01*
X50652428Y-93310765D01*
X50676227Y-93304804D01*
X50700495Y-93301204D01*
X50724999Y-93300000D01*
X51375001Y-93300000D01*
X51399505Y-93301204D01*
X51399505Y-93301204D01*
G37*
D17*
G04 #@! TD*
G04 #@! TO.P,C12,2*
G04 #@! TO.N,GND*
X51050000Y-94000000D03*
D16*
G04 #@! TO.N,Net-(C12-Pad1)*
G04 #@! TO.C,C12*
G36*
X49349505Y-93301204D02*
X49373773Y-93304804D01*
X49397572Y-93310765D01*
X49420671Y-93319030D01*
X49442850Y-93329520D01*
X49463893Y-93342132D01*
X49483599Y-93356747D01*
X49501777Y-93373223D01*
X49518253Y-93391401D01*
X49532868Y-93411107D01*
X49545480Y-93432150D01*
X49555970Y-93454329D01*
X49564235Y-93477428D01*
X49570196Y-93501227D01*
X49573796Y-93525495D01*
X49575000Y-93549999D01*
X49575000Y-94450001D01*
X49573796Y-94474505D01*
X49570196Y-94498773D01*
X49564235Y-94522572D01*
X49555970Y-94545671D01*
X49545480Y-94567850D01*
X49532868Y-94588893D01*
X49518253Y-94608599D01*
X49501777Y-94626777D01*
X49483599Y-94643253D01*
X49463893Y-94657868D01*
X49442850Y-94670480D01*
X49420671Y-94680970D01*
X49397572Y-94689235D01*
X49373773Y-94695196D01*
X49349505Y-94698796D01*
X49325001Y-94700000D01*
X48674999Y-94700000D01*
X48650495Y-94698796D01*
X48626227Y-94695196D01*
X48602428Y-94689235D01*
X48579329Y-94680970D01*
X48557150Y-94670480D01*
X48536107Y-94657868D01*
X48516401Y-94643253D01*
X48498223Y-94626777D01*
X48481747Y-94608599D01*
X48467132Y-94588893D01*
X48454520Y-94567850D01*
X48444030Y-94545671D01*
X48435765Y-94522572D01*
X48429804Y-94498773D01*
X48426204Y-94474505D01*
X48425000Y-94450001D01*
X48425000Y-93549999D01*
X48426204Y-93525495D01*
X48429804Y-93501227D01*
X48435765Y-93477428D01*
X48444030Y-93454329D01*
X48454520Y-93432150D01*
X48467132Y-93411107D01*
X48481747Y-93391401D01*
X48498223Y-93373223D01*
X48516401Y-93356747D01*
X48536107Y-93342132D01*
X48557150Y-93329520D01*
X48579329Y-93319030D01*
X48602428Y-93310765D01*
X48626227Y-93304804D01*
X48650495Y-93301204D01*
X48674999Y-93300000D01*
X49325001Y-93300000D01*
X49349505Y-93301204D01*
X49349505Y-93301204D01*
G37*
D17*
G04 #@! TD*
G04 #@! TO.P,C12,1*
G04 #@! TO.N,Net-(C12-Pad1)*
X49000000Y-94000000D03*
D16*
G04 #@! TO.N,Net-(R1-Pad1)*
G04 #@! TO.C,R1*
G36*
X48974505Y-85926204D02*
X48998773Y-85929804D01*
X49022572Y-85935765D01*
X49045671Y-85944030D01*
X49067850Y-85954520D01*
X49088893Y-85967132D01*
X49108599Y-85981747D01*
X49126777Y-85998223D01*
X49143253Y-86016401D01*
X49157868Y-86036107D01*
X49170480Y-86057150D01*
X49180970Y-86079329D01*
X49189235Y-86102428D01*
X49195196Y-86126227D01*
X49198796Y-86150495D01*
X49200000Y-86174999D01*
X49200000Y-86825001D01*
X49198796Y-86849505D01*
X49195196Y-86873773D01*
X49189235Y-86897572D01*
X49180970Y-86920671D01*
X49170480Y-86942850D01*
X49157868Y-86963893D01*
X49143253Y-86983599D01*
X49126777Y-87001777D01*
X49108599Y-87018253D01*
X49088893Y-87032868D01*
X49067850Y-87045480D01*
X49045671Y-87055970D01*
X49022572Y-87064235D01*
X48998773Y-87070196D01*
X48974505Y-87073796D01*
X48950001Y-87075000D01*
X48049999Y-87075000D01*
X48025495Y-87073796D01*
X48001227Y-87070196D01*
X47977428Y-87064235D01*
X47954329Y-87055970D01*
X47932150Y-87045480D01*
X47911107Y-87032868D01*
X47891401Y-87018253D01*
X47873223Y-87001777D01*
X47856747Y-86983599D01*
X47842132Y-86963893D01*
X47829520Y-86942850D01*
X47819030Y-86920671D01*
X47810765Y-86897572D01*
X47804804Y-86873773D01*
X47801204Y-86849505D01*
X47800000Y-86825001D01*
X47800000Y-86174999D01*
X47801204Y-86150495D01*
X47804804Y-86126227D01*
X47810765Y-86102428D01*
X47819030Y-86079329D01*
X47829520Y-86057150D01*
X47842132Y-86036107D01*
X47856747Y-86016401D01*
X47873223Y-85998223D01*
X47891401Y-85981747D01*
X47911107Y-85967132D01*
X47932150Y-85954520D01*
X47954329Y-85944030D01*
X47977428Y-85935765D01*
X48001227Y-85929804D01*
X48025495Y-85926204D01*
X48049999Y-85925000D01*
X48950001Y-85925000D01*
X48974505Y-85926204D01*
X48974505Y-85926204D01*
G37*
D17*
G04 #@! TD*
G04 #@! TO.P,R1,1*
G04 #@! TO.N,Net-(R1-Pad1)*
X48500000Y-86500000D03*
D16*
G04 #@! TO.N,+3V3*
G04 #@! TO.C,R1*
G36*
X48974505Y-87976204D02*
X48998773Y-87979804D01*
X49022572Y-87985765D01*
X49045671Y-87994030D01*
X49067850Y-88004520D01*
X49088893Y-88017132D01*
X49108599Y-88031747D01*
X49126777Y-88048223D01*
X49143253Y-88066401D01*
X49157868Y-88086107D01*
X49170480Y-88107150D01*
X49180970Y-88129329D01*
X49189235Y-88152428D01*
X49195196Y-88176227D01*
X49198796Y-88200495D01*
X49200000Y-88224999D01*
X49200000Y-88875001D01*
X49198796Y-88899505D01*
X49195196Y-88923773D01*
X49189235Y-88947572D01*
X49180970Y-88970671D01*
X49170480Y-88992850D01*
X49157868Y-89013893D01*
X49143253Y-89033599D01*
X49126777Y-89051777D01*
X49108599Y-89068253D01*
X49088893Y-89082868D01*
X49067850Y-89095480D01*
X49045671Y-89105970D01*
X49022572Y-89114235D01*
X48998773Y-89120196D01*
X48974505Y-89123796D01*
X48950001Y-89125000D01*
X48049999Y-89125000D01*
X48025495Y-89123796D01*
X48001227Y-89120196D01*
X47977428Y-89114235D01*
X47954329Y-89105970D01*
X47932150Y-89095480D01*
X47911107Y-89082868D01*
X47891401Y-89068253D01*
X47873223Y-89051777D01*
X47856747Y-89033599D01*
X47842132Y-89013893D01*
X47829520Y-88992850D01*
X47819030Y-88970671D01*
X47810765Y-88947572D01*
X47804804Y-88923773D01*
X47801204Y-88899505D01*
X47800000Y-88875001D01*
X47800000Y-88224999D01*
X47801204Y-88200495D01*
X47804804Y-88176227D01*
X47810765Y-88152428D01*
X47819030Y-88129329D01*
X47829520Y-88107150D01*
X47842132Y-88086107D01*
X47856747Y-88066401D01*
X47873223Y-88048223D01*
X47891401Y-88031747D01*
X47911107Y-88017132D01*
X47932150Y-88004520D01*
X47954329Y-87994030D01*
X47977428Y-87985765D01*
X48001227Y-87979804D01*
X48025495Y-87976204D01*
X48049999Y-87975000D01*
X48950001Y-87975000D01*
X48974505Y-87976204D01*
X48974505Y-87976204D01*
G37*
D17*
G04 #@! TD*
G04 #@! TO.P,R1,2*
G04 #@! TO.N,+3V3*
X48500000Y-88550000D03*
D16*
G04 #@! TO.N,GND*
G04 #@! TO.C,R2*
G36*
X55399505Y-83051204D02*
X55423773Y-83054804D01*
X55447572Y-83060765D01*
X55470671Y-83069030D01*
X55492850Y-83079520D01*
X55513893Y-83092132D01*
X55533599Y-83106747D01*
X55551777Y-83123223D01*
X55568253Y-83141401D01*
X55582868Y-83161107D01*
X55595480Y-83182150D01*
X55605970Y-83204329D01*
X55614235Y-83227428D01*
X55620196Y-83251227D01*
X55623796Y-83275495D01*
X55625000Y-83299999D01*
X55625000Y-84200001D01*
X55623796Y-84224505D01*
X55620196Y-84248773D01*
X55614235Y-84272572D01*
X55605970Y-84295671D01*
X55595480Y-84317850D01*
X55582868Y-84338893D01*
X55568253Y-84358599D01*
X55551777Y-84376777D01*
X55533599Y-84393253D01*
X55513893Y-84407868D01*
X55492850Y-84420480D01*
X55470671Y-84430970D01*
X55447572Y-84439235D01*
X55423773Y-84445196D01*
X55399505Y-84448796D01*
X55375001Y-84450000D01*
X54724999Y-84450000D01*
X54700495Y-84448796D01*
X54676227Y-84445196D01*
X54652428Y-84439235D01*
X54629329Y-84430970D01*
X54607150Y-84420480D01*
X54586107Y-84407868D01*
X54566401Y-84393253D01*
X54548223Y-84376777D01*
X54531747Y-84358599D01*
X54517132Y-84338893D01*
X54504520Y-84317850D01*
X54494030Y-84295671D01*
X54485765Y-84272572D01*
X54479804Y-84248773D01*
X54476204Y-84224505D01*
X54475000Y-84200001D01*
X54475000Y-83299999D01*
X54476204Y-83275495D01*
X54479804Y-83251227D01*
X54485765Y-83227428D01*
X54494030Y-83204329D01*
X54504520Y-83182150D01*
X54517132Y-83161107D01*
X54531747Y-83141401D01*
X54548223Y-83123223D01*
X54566401Y-83106747D01*
X54586107Y-83092132D01*
X54607150Y-83079520D01*
X54629329Y-83069030D01*
X54652428Y-83060765D01*
X54676227Y-83054804D01*
X54700495Y-83051204D01*
X54724999Y-83050000D01*
X55375001Y-83050000D01*
X55399505Y-83051204D01*
X55399505Y-83051204D01*
G37*
D17*
G04 #@! TD*
G04 #@! TO.P,R2,2*
G04 #@! TO.N,GND*
X55050000Y-83750000D03*
D16*
G04 #@! TO.N,Net-(R1-Pad1)*
G04 #@! TO.C,R2*
G36*
X53349505Y-83051204D02*
X53373773Y-83054804D01*
X53397572Y-83060765D01*
X53420671Y-83069030D01*
X53442850Y-83079520D01*
X53463893Y-83092132D01*
X53483599Y-83106747D01*
X53501777Y-83123223D01*
X53518253Y-83141401D01*
X53532868Y-83161107D01*
X53545480Y-83182150D01*
X53555970Y-83204329D01*
X53564235Y-83227428D01*
X53570196Y-83251227D01*
X53573796Y-83275495D01*
X53575000Y-83299999D01*
X53575000Y-84200001D01*
X53573796Y-84224505D01*
X53570196Y-84248773D01*
X53564235Y-84272572D01*
X53555970Y-84295671D01*
X53545480Y-84317850D01*
X53532868Y-84338893D01*
X53518253Y-84358599D01*
X53501777Y-84376777D01*
X53483599Y-84393253D01*
X53463893Y-84407868D01*
X53442850Y-84420480D01*
X53420671Y-84430970D01*
X53397572Y-84439235D01*
X53373773Y-84445196D01*
X53349505Y-84448796D01*
X53325001Y-84450000D01*
X52674999Y-84450000D01*
X52650495Y-84448796D01*
X52626227Y-84445196D01*
X52602428Y-84439235D01*
X52579329Y-84430970D01*
X52557150Y-84420480D01*
X52536107Y-84407868D01*
X52516401Y-84393253D01*
X52498223Y-84376777D01*
X52481747Y-84358599D01*
X52467132Y-84338893D01*
X52454520Y-84317850D01*
X52444030Y-84295671D01*
X52435765Y-84272572D01*
X52429804Y-84248773D01*
X52426204Y-84224505D01*
X52425000Y-84200001D01*
X52425000Y-83299999D01*
X52426204Y-83275495D01*
X52429804Y-83251227D01*
X52435765Y-83227428D01*
X52444030Y-83204329D01*
X52454520Y-83182150D01*
X52467132Y-83161107D01*
X52481747Y-83141401D01*
X52498223Y-83123223D01*
X52516401Y-83106747D01*
X52536107Y-83092132D01*
X52557150Y-83079520D01*
X52579329Y-83069030D01*
X52602428Y-83060765D01*
X52626227Y-83054804D01*
X52650495Y-83051204D01*
X52674999Y-83050000D01*
X53325001Y-83050000D01*
X53349505Y-83051204D01*
X53349505Y-83051204D01*
G37*
D17*
G04 #@! TD*
G04 #@! TO.P,R2,1*
G04 #@! TO.N,Net-(R1-Pad1)*
X53000000Y-83750000D03*
D16*
G04 #@! TO.N,+3V3*
G04 #@! TO.C,R3*
G36*
X56099505Y-93301204D02*
X56123773Y-93304804D01*
X56147572Y-93310765D01*
X56170671Y-93319030D01*
X56192850Y-93329520D01*
X56213893Y-93342132D01*
X56233599Y-93356747D01*
X56251777Y-93373223D01*
X56268253Y-93391401D01*
X56282868Y-93411107D01*
X56295480Y-93432150D01*
X56305970Y-93454329D01*
X56314235Y-93477428D01*
X56320196Y-93501227D01*
X56323796Y-93525495D01*
X56325000Y-93549999D01*
X56325000Y-94450001D01*
X56323796Y-94474505D01*
X56320196Y-94498773D01*
X56314235Y-94522572D01*
X56305970Y-94545671D01*
X56295480Y-94567850D01*
X56282868Y-94588893D01*
X56268253Y-94608599D01*
X56251777Y-94626777D01*
X56233599Y-94643253D01*
X56213893Y-94657868D01*
X56192850Y-94670480D01*
X56170671Y-94680970D01*
X56147572Y-94689235D01*
X56123773Y-94695196D01*
X56099505Y-94698796D01*
X56075001Y-94700000D01*
X55424999Y-94700000D01*
X55400495Y-94698796D01*
X55376227Y-94695196D01*
X55352428Y-94689235D01*
X55329329Y-94680970D01*
X55307150Y-94670480D01*
X55286107Y-94657868D01*
X55266401Y-94643253D01*
X55248223Y-94626777D01*
X55231747Y-94608599D01*
X55217132Y-94588893D01*
X55204520Y-94567850D01*
X55194030Y-94545671D01*
X55185765Y-94522572D01*
X55179804Y-94498773D01*
X55176204Y-94474505D01*
X55175000Y-94450001D01*
X55175000Y-93549999D01*
X55176204Y-93525495D01*
X55179804Y-93501227D01*
X55185765Y-93477428D01*
X55194030Y-93454329D01*
X55204520Y-93432150D01*
X55217132Y-93411107D01*
X55231747Y-93391401D01*
X55248223Y-93373223D01*
X55266401Y-93356747D01*
X55286107Y-93342132D01*
X55307150Y-93329520D01*
X55329329Y-93319030D01*
X55352428Y-93310765D01*
X55376227Y-93304804D01*
X55400495Y-93301204D01*
X55424999Y-93300000D01*
X56075001Y-93300000D01*
X56099505Y-93301204D01*
X56099505Y-93301204D01*
G37*
D17*
G04 #@! TD*
G04 #@! TO.P,R3,1*
G04 #@! TO.N,+3V3*
X55750000Y-94000000D03*
D16*
G04 #@! TO.N,Net-(R3-Pad2)*
G04 #@! TO.C,R3*
G36*
X54049505Y-93301204D02*
X54073773Y-93304804D01*
X54097572Y-93310765D01*
X54120671Y-93319030D01*
X54142850Y-93329520D01*
X54163893Y-93342132D01*
X54183599Y-93356747D01*
X54201777Y-93373223D01*
X54218253Y-93391401D01*
X54232868Y-93411107D01*
X54245480Y-93432150D01*
X54255970Y-93454329D01*
X54264235Y-93477428D01*
X54270196Y-93501227D01*
X54273796Y-93525495D01*
X54275000Y-93549999D01*
X54275000Y-94450001D01*
X54273796Y-94474505D01*
X54270196Y-94498773D01*
X54264235Y-94522572D01*
X54255970Y-94545671D01*
X54245480Y-94567850D01*
X54232868Y-94588893D01*
X54218253Y-94608599D01*
X54201777Y-94626777D01*
X54183599Y-94643253D01*
X54163893Y-94657868D01*
X54142850Y-94670480D01*
X54120671Y-94680970D01*
X54097572Y-94689235D01*
X54073773Y-94695196D01*
X54049505Y-94698796D01*
X54025001Y-94700000D01*
X53374999Y-94700000D01*
X53350495Y-94698796D01*
X53326227Y-94695196D01*
X53302428Y-94689235D01*
X53279329Y-94680970D01*
X53257150Y-94670480D01*
X53236107Y-94657868D01*
X53216401Y-94643253D01*
X53198223Y-94626777D01*
X53181747Y-94608599D01*
X53167132Y-94588893D01*
X53154520Y-94567850D01*
X53144030Y-94545671D01*
X53135765Y-94522572D01*
X53129804Y-94498773D01*
X53126204Y-94474505D01*
X53125000Y-94450001D01*
X53125000Y-93549999D01*
X53126204Y-93525495D01*
X53129804Y-93501227D01*
X53135765Y-93477428D01*
X53144030Y-93454329D01*
X53154520Y-93432150D01*
X53167132Y-93411107D01*
X53181747Y-93391401D01*
X53198223Y-93373223D01*
X53216401Y-93356747D01*
X53236107Y-93342132D01*
X53257150Y-93329520D01*
X53279329Y-93319030D01*
X53302428Y-93310765D01*
X53326227Y-93304804D01*
X53350495Y-93301204D01*
X53374999Y-93300000D01*
X54025001Y-93300000D01*
X54049505Y-93301204D01*
X54049505Y-93301204D01*
G37*
D17*
G04 #@! TD*
G04 #@! TO.P,R3,2*
G04 #@! TO.N,Net-(R3-Pad2)*
X53700000Y-94000000D03*
D16*
G04 #@! TO.N,CH_PD*
G04 #@! TO.C,R6*
G36*
X55399505Y-85551204D02*
X55423773Y-85554804D01*
X55447572Y-85560765D01*
X55470671Y-85569030D01*
X55492850Y-85579520D01*
X55513893Y-85592132D01*
X55533599Y-85606747D01*
X55551777Y-85623223D01*
X55568253Y-85641401D01*
X55582868Y-85661107D01*
X55595480Y-85682150D01*
X55605970Y-85704329D01*
X55614235Y-85727428D01*
X55620196Y-85751227D01*
X55623796Y-85775495D01*
X55625000Y-85799999D01*
X55625000Y-86700001D01*
X55623796Y-86724505D01*
X55620196Y-86748773D01*
X55614235Y-86772572D01*
X55605970Y-86795671D01*
X55595480Y-86817850D01*
X55582868Y-86838893D01*
X55568253Y-86858599D01*
X55551777Y-86876777D01*
X55533599Y-86893253D01*
X55513893Y-86907868D01*
X55492850Y-86920480D01*
X55470671Y-86930970D01*
X55447572Y-86939235D01*
X55423773Y-86945196D01*
X55399505Y-86948796D01*
X55375001Y-86950000D01*
X54724999Y-86950000D01*
X54700495Y-86948796D01*
X54676227Y-86945196D01*
X54652428Y-86939235D01*
X54629329Y-86930970D01*
X54607150Y-86920480D01*
X54586107Y-86907868D01*
X54566401Y-86893253D01*
X54548223Y-86876777D01*
X54531747Y-86858599D01*
X54517132Y-86838893D01*
X54504520Y-86817850D01*
X54494030Y-86795671D01*
X54485765Y-86772572D01*
X54479804Y-86748773D01*
X54476204Y-86724505D01*
X54475000Y-86700001D01*
X54475000Y-85799999D01*
X54476204Y-85775495D01*
X54479804Y-85751227D01*
X54485765Y-85727428D01*
X54494030Y-85704329D01*
X54504520Y-85682150D01*
X54517132Y-85661107D01*
X54531747Y-85641401D01*
X54548223Y-85623223D01*
X54566401Y-85606747D01*
X54586107Y-85592132D01*
X54607150Y-85579520D01*
X54629329Y-85569030D01*
X54652428Y-85560765D01*
X54676227Y-85554804D01*
X54700495Y-85551204D01*
X54724999Y-85550000D01*
X55375001Y-85550000D01*
X55399505Y-85551204D01*
X55399505Y-85551204D01*
G37*
D17*
G04 #@! TD*
G04 #@! TO.P,R6,1*
G04 #@! TO.N,CH_PD*
X55050000Y-86250000D03*
D16*
G04 #@! TO.N,Net-(R1-Pad1)*
G04 #@! TO.C,R6*
G36*
X53349505Y-85551204D02*
X53373773Y-85554804D01*
X53397572Y-85560765D01*
X53420671Y-85569030D01*
X53442850Y-85579520D01*
X53463893Y-85592132D01*
X53483599Y-85606747D01*
X53501777Y-85623223D01*
X53518253Y-85641401D01*
X53532868Y-85661107D01*
X53545480Y-85682150D01*
X53555970Y-85704329D01*
X53564235Y-85727428D01*
X53570196Y-85751227D01*
X53573796Y-85775495D01*
X53575000Y-85799999D01*
X53575000Y-86700001D01*
X53573796Y-86724505D01*
X53570196Y-86748773D01*
X53564235Y-86772572D01*
X53555970Y-86795671D01*
X53545480Y-86817850D01*
X53532868Y-86838893D01*
X53518253Y-86858599D01*
X53501777Y-86876777D01*
X53483599Y-86893253D01*
X53463893Y-86907868D01*
X53442850Y-86920480D01*
X53420671Y-86930970D01*
X53397572Y-86939235D01*
X53373773Y-86945196D01*
X53349505Y-86948796D01*
X53325001Y-86950000D01*
X52674999Y-86950000D01*
X52650495Y-86948796D01*
X52626227Y-86945196D01*
X52602428Y-86939235D01*
X52579329Y-86930970D01*
X52557150Y-86920480D01*
X52536107Y-86907868D01*
X52516401Y-86893253D01*
X52498223Y-86876777D01*
X52481747Y-86858599D01*
X52467132Y-86838893D01*
X52454520Y-86817850D01*
X52444030Y-86795671D01*
X52435765Y-86772572D01*
X52429804Y-86748773D01*
X52426204Y-86724505D01*
X52425000Y-86700001D01*
X52425000Y-85799999D01*
X52426204Y-85775495D01*
X52429804Y-85751227D01*
X52435765Y-85727428D01*
X52444030Y-85704329D01*
X52454520Y-85682150D01*
X52467132Y-85661107D01*
X52481747Y-85641401D01*
X52498223Y-85623223D01*
X52516401Y-85606747D01*
X52536107Y-85592132D01*
X52557150Y-85579520D01*
X52579329Y-85569030D01*
X52602428Y-85560765D01*
X52626227Y-85554804D01*
X52650495Y-85551204D01*
X52674999Y-85550000D01*
X53325001Y-85550000D01*
X53349505Y-85551204D01*
X53349505Y-85551204D01*
G37*
D17*
G04 #@! TD*
G04 #@! TO.P,R6,2*
G04 #@! TO.N,Net-(R1-Pad1)*
X53000000Y-86250000D03*
D16*
G04 #@! TO.N,CH_PD*
G04 #@! TO.C,R9*
G36*
X51399505Y-91051204D02*
X51423773Y-91054804D01*
X51447572Y-91060765D01*
X51470671Y-91069030D01*
X51492850Y-91079520D01*
X51513893Y-91092132D01*
X51533599Y-91106747D01*
X51551777Y-91123223D01*
X51568253Y-91141401D01*
X51582868Y-91161107D01*
X51595480Y-91182150D01*
X51605970Y-91204329D01*
X51614235Y-91227428D01*
X51620196Y-91251227D01*
X51623796Y-91275495D01*
X51625000Y-91299999D01*
X51625000Y-92200001D01*
X51623796Y-92224505D01*
X51620196Y-92248773D01*
X51614235Y-92272572D01*
X51605970Y-92295671D01*
X51595480Y-92317850D01*
X51582868Y-92338893D01*
X51568253Y-92358599D01*
X51551777Y-92376777D01*
X51533599Y-92393253D01*
X51513893Y-92407868D01*
X51492850Y-92420480D01*
X51470671Y-92430970D01*
X51447572Y-92439235D01*
X51423773Y-92445196D01*
X51399505Y-92448796D01*
X51375001Y-92450000D01*
X50724999Y-92450000D01*
X50700495Y-92448796D01*
X50676227Y-92445196D01*
X50652428Y-92439235D01*
X50629329Y-92430970D01*
X50607150Y-92420480D01*
X50586107Y-92407868D01*
X50566401Y-92393253D01*
X50548223Y-92376777D01*
X50531747Y-92358599D01*
X50517132Y-92338893D01*
X50504520Y-92317850D01*
X50494030Y-92295671D01*
X50485765Y-92272572D01*
X50479804Y-92248773D01*
X50476204Y-92224505D01*
X50475000Y-92200001D01*
X50475000Y-91299999D01*
X50476204Y-91275495D01*
X50479804Y-91251227D01*
X50485765Y-91227428D01*
X50494030Y-91204329D01*
X50504520Y-91182150D01*
X50517132Y-91161107D01*
X50531747Y-91141401D01*
X50548223Y-91123223D01*
X50566401Y-91106747D01*
X50586107Y-91092132D01*
X50607150Y-91079520D01*
X50629329Y-91069030D01*
X50652428Y-91060765D01*
X50676227Y-91054804D01*
X50700495Y-91051204D01*
X50724999Y-91050000D01*
X51375001Y-91050000D01*
X51399505Y-91051204D01*
X51399505Y-91051204D01*
G37*
D17*
G04 #@! TD*
G04 #@! TO.P,R9,2*
G04 #@! TO.N,CH_PD*
X51050000Y-91750000D03*
D16*
G04 #@! TO.N,+3V3*
G04 #@! TO.C,R9*
G36*
X49349505Y-91051204D02*
X49373773Y-91054804D01*
X49397572Y-91060765D01*
X49420671Y-91069030D01*
X49442850Y-91079520D01*
X49463893Y-91092132D01*
X49483599Y-91106747D01*
X49501777Y-91123223D01*
X49518253Y-91141401D01*
X49532868Y-91161107D01*
X49545480Y-91182150D01*
X49555970Y-91204329D01*
X49564235Y-91227428D01*
X49570196Y-91251227D01*
X49573796Y-91275495D01*
X49575000Y-91299999D01*
X49575000Y-92200001D01*
X49573796Y-92224505D01*
X49570196Y-92248773D01*
X49564235Y-92272572D01*
X49555970Y-92295671D01*
X49545480Y-92317850D01*
X49532868Y-92338893D01*
X49518253Y-92358599D01*
X49501777Y-92376777D01*
X49483599Y-92393253D01*
X49463893Y-92407868D01*
X49442850Y-92420480D01*
X49420671Y-92430970D01*
X49397572Y-92439235D01*
X49373773Y-92445196D01*
X49349505Y-92448796D01*
X49325001Y-92450000D01*
X48674999Y-92450000D01*
X48650495Y-92448796D01*
X48626227Y-92445196D01*
X48602428Y-92439235D01*
X48579329Y-92430970D01*
X48557150Y-92420480D01*
X48536107Y-92407868D01*
X48516401Y-92393253D01*
X48498223Y-92376777D01*
X48481747Y-92358599D01*
X48467132Y-92338893D01*
X48454520Y-92317850D01*
X48444030Y-92295671D01*
X48435765Y-92272572D01*
X48429804Y-92248773D01*
X48426204Y-92224505D01*
X48425000Y-92200001D01*
X48425000Y-91299999D01*
X48426204Y-91275495D01*
X48429804Y-91251227D01*
X48435765Y-91227428D01*
X48444030Y-91204329D01*
X48454520Y-91182150D01*
X48467132Y-91161107D01*
X48481747Y-91141401D01*
X48498223Y-91123223D01*
X48516401Y-91106747D01*
X48536107Y-91092132D01*
X48557150Y-91079520D01*
X48579329Y-91069030D01*
X48602428Y-91060765D01*
X48626227Y-91054804D01*
X48650495Y-91051204D01*
X48674999Y-91050000D01*
X49325001Y-91050000D01*
X49349505Y-91051204D01*
X49349505Y-91051204D01*
G37*
D17*
G04 #@! TD*
G04 #@! TO.P,R9,1*
G04 #@! TO.N,+3V3*
X49000000Y-91750000D03*
D25*
G04 #@! TO.P,U1,3*
G04 #@! TO.N,MR*
X55950000Y-90650000D03*
G04 #@! TO.P,U1,2*
G04 #@! TO.N,GND*
X55950000Y-89700000D03*
G04 #@! TO.P,U1,1*
G04 #@! TO.N,CH_PD*
X55950000Y-88750000D03*
G04 #@! TO.P,U1,4*
G04 #@! TO.N,Net-(R3-Pad2)*
X53250000Y-90650000D03*
G04 #@! TO.P,U1,5*
G04 #@! TO.N,Net-(R1-Pad1)*
X53250000Y-89700000D03*
G04 #@! TO.P,U1,6*
G04 #@! TO.N,+3V3*
X53250000Y-88750000D03*
G04 #@! TD*
D26*
G04 #@! TO.P,U4,2*
G04 #@! TO.N,ESP_Temp*
X65400000Y-86470000D03*
G04 #@! TO.P,U4,3*
G04 #@! TO.N,+3V3*
X65400000Y-87740000D03*
D27*
G04 #@! TO.P,U4,1*
G04 #@! TO.N,GND*
X65400000Y-85200000D03*
G04 #@! TD*
D16*
G04 #@! TO.N,Net-(C9-Pad1)*
G04 #@! TO.C,C9*
G36*
X36849505Y-96051204D02*
X36873773Y-96054804D01*
X36897572Y-96060765D01*
X36920671Y-96069030D01*
X36942850Y-96079520D01*
X36963893Y-96092132D01*
X36983599Y-96106747D01*
X37001777Y-96123223D01*
X37018253Y-96141401D01*
X37032868Y-96161107D01*
X37045480Y-96182150D01*
X37055970Y-96204329D01*
X37064235Y-96227428D01*
X37070196Y-96251227D01*
X37073796Y-96275495D01*
X37075000Y-96299999D01*
X37075000Y-97200001D01*
X37073796Y-97224505D01*
X37070196Y-97248773D01*
X37064235Y-97272572D01*
X37055970Y-97295671D01*
X37045480Y-97317850D01*
X37032868Y-97338893D01*
X37018253Y-97358599D01*
X37001777Y-97376777D01*
X36983599Y-97393253D01*
X36963893Y-97407868D01*
X36942850Y-97420480D01*
X36920671Y-97430970D01*
X36897572Y-97439235D01*
X36873773Y-97445196D01*
X36849505Y-97448796D01*
X36825001Y-97450000D01*
X36174999Y-97450000D01*
X36150495Y-97448796D01*
X36126227Y-97445196D01*
X36102428Y-97439235D01*
X36079329Y-97430970D01*
X36057150Y-97420480D01*
X36036107Y-97407868D01*
X36016401Y-97393253D01*
X35998223Y-97376777D01*
X35981747Y-97358599D01*
X35967132Y-97338893D01*
X35954520Y-97317850D01*
X35944030Y-97295671D01*
X35935765Y-97272572D01*
X35929804Y-97248773D01*
X35926204Y-97224505D01*
X35925000Y-97200001D01*
X35925000Y-96299999D01*
X35926204Y-96275495D01*
X35929804Y-96251227D01*
X35935765Y-96227428D01*
X35944030Y-96204329D01*
X35954520Y-96182150D01*
X35967132Y-96161107D01*
X35981747Y-96141401D01*
X35998223Y-96123223D01*
X36016401Y-96106747D01*
X36036107Y-96092132D01*
X36057150Y-96079520D01*
X36079329Y-96069030D01*
X36102428Y-96060765D01*
X36126227Y-96054804D01*
X36150495Y-96051204D01*
X36174999Y-96050000D01*
X36825001Y-96050000D01*
X36849505Y-96051204D01*
X36849505Y-96051204D01*
G37*
D17*
G04 #@! TD*
G04 #@! TO.P,C9,1*
G04 #@! TO.N,Net-(C9-Pad1)*
X36500000Y-96750000D03*
D16*
G04 #@! TO.N,GND*
G04 #@! TO.C,C9*
G36*
X34799505Y-96051204D02*
X34823773Y-96054804D01*
X34847572Y-96060765D01*
X34870671Y-96069030D01*
X34892850Y-96079520D01*
X34913893Y-96092132D01*
X34933599Y-96106747D01*
X34951777Y-96123223D01*
X34968253Y-96141401D01*
X34982868Y-96161107D01*
X34995480Y-96182150D01*
X35005970Y-96204329D01*
X35014235Y-96227428D01*
X35020196Y-96251227D01*
X35023796Y-96275495D01*
X35025000Y-96299999D01*
X35025000Y-97200001D01*
X35023796Y-97224505D01*
X35020196Y-97248773D01*
X35014235Y-97272572D01*
X35005970Y-97295671D01*
X34995480Y-97317850D01*
X34982868Y-97338893D01*
X34968253Y-97358599D01*
X34951777Y-97376777D01*
X34933599Y-97393253D01*
X34913893Y-97407868D01*
X34892850Y-97420480D01*
X34870671Y-97430970D01*
X34847572Y-97439235D01*
X34823773Y-97445196D01*
X34799505Y-97448796D01*
X34775001Y-97450000D01*
X34124999Y-97450000D01*
X34100495Y-97448796D01*
X34076227Y-97445196D01*
X34052428Y-97439235D01*
X34029329Y-97430970D01*
X34007150Y-97420480D01*
X33986107Y-97407868D01*
X33966401Y-97393253D01*
X33948223Y-97376777D01*
X33931747Y-97358599D01*
X33917132Y-97338893D01*
X33904520Y-97317850D01*
X33894030Y-97295671D01*
X33885765Y-97272572D01*
X33879804Y-97248773D01*
X33876204Y-97224505D01*
X33875000Y-97200001D01*
X33875000Y-96299999D01*
X33876204Y-96275495D01*
X33879804Y-96251227D01*
X33885765Y-96227428D01*
X33894030Y-96204329D01*
X33904520Y-96182150D01*
X33917132Y-96161107D01*
X33931747Y-96141401D01*
X33948223Y-96123223D01*
X33966401Y-96106747D01*
X33986107Y-96092132D01*
X34007150Y-96079520D01*
X34029329Y-96069030D01*
X34052428Y-96060765D01*
X34076227Y-96054804D01*
X34100495Y-96051204D01*
X34124999Y-96050000D01*
X34775001Y-96050000D01*
X34799505Y-96051204D01*
X34799505Y-96051204D01*
G37*
D17*
G04 #@! TD*
G04 #@! TO.P,C9,2*
G04 #@! TO.N,GND*
X34450000Y-96750000D03*
D16*
G04 #@! TO.N,GND*
G04 #@! TO.C,C13*
G36*
X51224505Y-85926204D02*
X51248773Y-85929804D01*
X51272572Y-85935765D01*
X51295671Y-85944030D01*
X51317850Y-85954520D01*
X51338893Y-85967132D01*
X51358599Y-85981747D01*
X51376777Y-85998223D01*
X51393253Y-86016401D01*
X51407868Y-86036107D01*
X51420480Y-86057150D01*
X51430970Y-86079329D01*
X51439235Y-86102428D01*
X51445196Y-86126227D01*
X51448796Y-86150495D01*
X51450000Y-86174999D01*
X51450000Y-86825001D01*
X51448796Y-86849505D01*
X51445196Y-86873773D01*
X51439235Y-86897572D01*
X51430970Y-86920671D01*
X51420480Y-86942850D01*
X51407868Y-86963893D01*
X51393253Y-86983599D01*
X51376777Y-87001777D01*
X51358599Y-87018253D01*
X51338893Y-87032868D01*
X51317850Y-87045480D01*
X51295671Y-87055970D01*
X51272572Y-87064235D01*
X51248773Y-87070196D01*
X51224505Y-87073796D01*
X51200001Y-87075000D01*
X50299999Y-87075000D01*
X50275495Y-87073796D01*
X50251227Y-87070196D01*
X50227428Y-87064235D01*
X50204329Y-87055970D01*
X50182150Y-87045480D01*
X50161107Y-87032868D01*
X50141401Y-87018253D01*
X50123223Y-87001777D01*
X50106747Y-86983599D01*
X50092132Y-86963893D01*
X50079520Y-86942850D01*
X50069030Y-86920671D01*
X50060765Y-86897572D01*
X50054804Y-86873773D01*
X50051204Y-86849505D01*
X50050000Y-86825001D01*
X50050000Y-86174999D01*
X50051204Y-86150495D01*
X50054804Y-86126227D01*
X50060765Y-86102428D01*
X50069030Y-86079329D01*
X50079520Y-86057150D01*
X50092132Y-86036107D01*
X50106747Y-86016401D01*
X50123223Y-85998223D01*
X50141401Y-85981747D01*
X50161107Y-85967132D01*
X50182150Y-85954520D01*
X50204329Y-85944030D01*
X50227428Y-85935765D01*
X50251227Y-85929804D01*
X50275495Y-85926204D01*
X50299999Y-85925000D01*
X51200001Y-85925000D01*
X51224505Y-85926204D01*
X51224505Y-85926204D01*
G37*
D17*
G04 #@! TD*
G04 #@! TO.P,C13,1*
G04 #@! TO.N,GND*
X50750000Y-86500000D03*
D16*
G04 #@! TO.N,+3V3*
G04 #@! TO.C,C13*
G36*
X51224505Y-87976204D02*
X51248773Y-87979804D01*
X51272572Y-87985765D01*
X51295671Y-87994030D01*
X51317850Y-88004520D01*
X51338893Y-88017132D01*
X51358599Y-88031747D01*
X51376777Y-88048223D01*
X51393253Y-88066401D01*
X51407868Y-88086107D01*
X51420480Y-88107150D01*
X51430970Y-88129329D01*
X51439235Y-88152428D01*
X51445196Y-88176227D01*
X51448796Y-88200495D01*
X51450000Y-88224999D01*
X51450000Y-88875001D01*
X51448796Y-88899505D01*
X51445196Y-88923773D01*
X51439235Y-88947572D01*
X51430970Y-88970671D01*
X51420480Y-88992850D01*
X51407868Y-89013893D01*
X51393253Y-89033599D01*
X51376777Y-89051777D01*
X51358599Y-89068253D01*
X51338893Y-89082868D01*
X51317850Y-89095480D01*
X51295671Y-89105970D01*
X51272572Y-89114235D01*
X51248773Y-89120196D01*
X51224505Y-89123796D01*
X51200001Y-89125000D01*
X50299999Y-89125000D01*
X50275495Y-89123796D01*
X50251227Y-89120196D01*
X50227428Y-89114235D01*
X50204329Y-89105970D01*
X50182150Y-89095480D01*
X50161107Y-89082868D01*
X50141401Y-89068253D01*
X50123223Y-89051777D01*
X50106747Y-89033599D01*
X50092132Y-89013893D01*
X50079520Y-88992850D01*
X50069030Y-88970671D01*
X50060765Y-88947572D01*
X50054804Y-88923773D01*
X50051204Y-88899505D01*
X50050000Y-88875001D01*
X50050000Y-88224999D01*
X50051204Y-88200495D01*
X50054804Y-88176227D01*
X50060765Y-88152428D01*
X50069030Y-88129329D01*
X50079520Y-88107150D01*
X50092132Y-88086107D01*
X50106747Y-88066401D01*
X50123223Y-88048223D01*
X50141401Y-88031747D01*
X50161107Y-88017132D01*
X50182150Y-88004520D01*
X50204329Y-87994030D01*
X50227428Y-87985765D01*
X50251227Y-87979804D01*
X50275495Y-87976204D01*
X50299999Y-87975000D01*
X51200001Y-87975000D01*
X51224505Y-87976204D01*
X51224505Y-87976204D01*
G37*
D17*
G04 #@! TD*
G04 #@! TO.P,C13,2*
G04 #@! TO.N,+3V3*
X50750000Y-88550000D03*
D28*
G04 #@! TO.N,GND*
X35500000Y-87000000D03*
X38250000Y-96250000D03*
X59750000Y-102000000D03*
X56750000Y-102500000D03*
X42250000Y-98000000D03*
X47500000Y-99750000D03*
X58500000Y-72000000D03*
X58750000Y-71250000D03*
X58500000Y-70500000D03*
X55250000Y-96500000D03*
X60250000Y-111000000D03*
X56500000Y-111000000D03*
X33500000Y-92500000D03*
X59750000Y-107500000D03*
G04 #@! TO.N,Net-(C2-Pad1)*
X65300000Y-76800000D03*
X60750000Y-68700000D03*
G04 #@! TO.N,HAN_TX*
X41749964Y-92500000D03*
G04 #@! TO.N,+3V3*
X47500000Y-93000000D03*
X37750000Y-87250000D03*
X47000000Y-101500000D03*
X46500000Y-104375000D03*
G04 #@! TO.N,ESP_RESET*
X57750000Y-106500000D03*
X49002976Y-105991039D03*
G04 #@! TO.N,ESP_PROG*
X54000014Y-108250000D03*
X38250000Y-104000000D03*
G04 #@! TO.N,ESP_TX*
X48500000Y-106849970D03*
G04 #@! TO.N,ESP_Temp*
X37625000Y-101000000D03*
X57500000Y-90750000D03*
X43499976Y-88000000D03*
G04 #@! TO.N,Net-(C6-Pad1)*
X62300000Y-69900000D03*
G04 #@! TO.N,DTR*
X63499992Y-108250000D03*
G04 #@! TO.N,Net-(R18-Pad1)*
X33250000Y-96000000D03*
G04 #@! TO.N,Net-(C7-Pad2)*
X55300000Y-70025010D03*
G04 #@! TO.N,Net-(JP2-Pad1)*
X52875000Y-96575850D03*
G04 #@! TO.N,CH_PD*
X53500000Y-95874990D03*
G04 #@! TO.N,Net-(R8-Pad1)*
X62300000Y-71300000D03*
G04 #@! TO.N,Net-(R19-Pad2)*
X37750000Y-94250000D03*
G04 #@! TO.N,MR*
X61750000Y-107500000D03*
X56959314Y-93290686D03*
X57750000Y-94625000D03*
G04 #@! TO.N,POWER_FAIL*
X41750012Y-95250000D03*
G04 #@! TD*
D29*
G04 #@! TO.N,GND*
X36500000Y-94250000D02*
X38250000Y-96000000D01*
X38250000Y-96000000D02*
X38250000Y-96250000D01*
X37724990Y-95724990D02*
X35475010Y-95724990D01*
X35073372Y-96126628D02*
X34450000Y-96750000D01*
X35475010Y-95724990D02*
X35073372Y-96126628D01*
X38250000Y-96250000D02*
X37724990Y-95724990D01*
X57700000Y-88360002D02*
X57700000Y-87331370D01*
X57700000Y-87331370D02*
X57700000Y-86200000D01*
X56360002Y-89700000D02*
X57700000Y-88360002D01*
X55950000Y-89700000D02*
X56360002Y-89700000D01*
X51050000Y-94000000D02*
X51050000Y-96250000D01*
X51050000Y-96250000D02*
X51050000Y-98500000D01*
X53250000Y-98500000D02*
X53750000Y-98000000D01*
X51050000Y-98500000D02*
X53250000Y-98500000D01*
X53750000Y-98000000D02*
X55250000Y-96500000D01*
G04 #@! TO.N,Net-(R1-Pad1)*
X52500000Y-86750000D02*
X53000000Y-86250000D01*
X54000000Y-89700000D02*
X54500000Y-89200000D01*
X53250000Y-89700000D02*
X54000000Y-89700000D01*
X54500000Y-87750000D02*
X53000000Y-86250000D01*
X54500000Y-89200000D02*
X54500000Y-87750000D01*
X53000000Y-86250000D02*
X53000000Y-83750000D01*
X52376628Y-86873372D02*
X53000000Y-86250000D01*
X51849990Y-87400010D02*
X52376628Y-86873372D01*
X49400010Y-87400010D02*
X51849990Y-87400010D01*
X48500000Y-86500000D02*
X49400010Y-87400010D01*
D30*
G04 #@! TO.N,Net-(C2-Pad1)*
X64100000Y-78800000D02*
X64100000Y-78650000D01*
X64100000Y-78800000D02*
X64100000Y-78000000D01*
X64100000Y-78000000D02*
X65300000Y-76800000D01*
X64100000Y-78800000D02*
X64100000Y-80700000D01*
X60200000Y-84600000D02*
X60200000Y-86200000D01*
X64100000Y-80700000D02*
X60200000Y-84600000D01*
D29*
X54300000Y-68700000D02*
X60325736Y-68700000D01*
X53600000Y-69400000D02*
X54300000Y-68700000D01*
X60325736Y-68700000D02*
X60750000Y-68700000D01*
G04 #@! TO.N,HAN_TX*
X40200000Y-91475000D02*
X40650000Y-91475000D01*
X40650000Y-91475000D02*
X41675000Y-92500000D01*
X41675000Y-92500000D02*
X41749964Y-92500000D01*
G04 #@! TO.N,+3V3*
X60623372Y-89623372D02*
X60000000Y-89000000D01*
X61025010Y-90025010D02*
X60623372Y-89623372D01*
X62613180Y-90025010D02*
X61025010Y-90025010D01*
X64898190Y-87740000D02*
X62613180Y-90025010D01*
X65400000Y-87740000D02*
X64898190Y-87740000D01*
X60000000Y-92200000D02*
X59400000Y-92800000D01*
X60000000Y-89000000D02*
X60000000Y-92200000D01*
X58200000Y-94000000D02*
X59400000Y-92800000D01*
X55750000Y-94000000D02*
X58200000Y-94000000D01*
X53200000Y-88800000D02*
X53250000Y-88750000D01*
X47975000Y-103000000D02*
X48000000Y-102975000D01*
X45500000Y-103000000D02*
X47975000Y-103000000D01*
X48000000Y-101750000D02*
X49000000Y-100750000D01*
X48000000Y-102975000D02*
X48000000Y-101750000D01*
X49000000Y-91750000D02*
X48750000Y-91750000D01*
X48750000Y-91750000D02*
X47500000Y-93000000D01*
X49000000Y-91750000D02*
X50750000Y-90000000D01*
X47500000Y-92925000D02*
X47500000Y-93000000D01*
X46050000Y-91475000D02*
X47500000Y-92925000D01*
X45600000Y-91475000D02*
X46050000Y-91475000D01*
D30*
X59400000Y-94600000D02*
X63750000Y-98950000D01*
X59400000Y-92800000D02*
X59400000Y-94600000D01*
X63750000Y-101330000D02*
X66600000Y-104180000D01*
X63750000Y-98950000D02*
X63750000Y-101330000D01*
D29*
X49623372Y-92373372D02*
X49000000Y-91750000D01*
X49900010Y-92650010D02*
X49623372Y-92373372D01*
X49900010Y-99849990D02*
X49900010Y-92650010D01*
X49000000Y-100750000D02*
X49900010Y-99849990D01*
X37750000Y-87500000D02*
X36500000Y-88750000D01*
X37750000Y-87250000D02*
X37750000Y-87500000D01*
X45525000Y-102500000D02*
X46000000Y-102500000D01*
X46000000Y-102500000D02*
X47000000Y-101500000D01*
X46500000Y-104500000D02*
X45500000Y-105500000D01*
X46500000Y-104375000D02*
X46500000Y-104500000D01*
X50750000Y-90000000D02*
X50750000Y-88550000D01*
X53050000Y-88550000D02*
X53250000Y-88750000D01*
X50750000Y-88550000D02*
X53050000Y-88550000D01*
X48500000Y-88550000D02*
X50750000Y-88550000D01*
G04 #@! TO.N,ESP_RESET*
X59750000Y-99050000D02*
X57750000Y-101050000D01*
X57750000Y-101050000D02*
X57750000Y-106500000D01*
X55700000Y-99050000D02*
X59750000Y-99050000D01*
X53750000Y-101000000D02*
X55700000Y-99050000D01*
X48966039Y-105991039D02*
X49002976Y-105991039D01*
X48000000Y-105025000D02*
X48966039Y-105991039D01*
G04 #@! TO.N,ESP_PROG*
X39350000Y-106105000D02*
X39350000Y-105580000D01*
X39900001Y-106655001D02*
X39350000Y-106105000D01*
X41619999Y-106655001D02*
X39900001Y-106655001D01*
X42775000Y-105500000D02*
X41619999Y-106655001D01*
X43450000Y-105500000D02*
X42775000Y-105500000D01*
X38250000Y-104480000D02*
X39350000Y-105580000D01*
X38250000Y-104000000D02*
X38250000Y-104480000D01*
X53700015Y-107950001D02*
X54000014Y-108250000D01*
X44224990Y-107474990D02*
X53225004Y-107474990D01*
X53225004Y-107474990D02*
X53700015Y-107950001D01*
X43450000Y-105500000D02*
X43450000Y-106700000D01*
X43450000Y-106700000D02*
X44224990Y-107474990D01*
G04 #@! TO.N,ESP_TX*
X48924264Y-106849970D02*
X48500000Y-106849970D01*
X55935016Y-109260000D02*
X53524986Y-106849970D01*
X66600000Y-109260000D02*
X55935016Y-109260000D01*
X53524986Y-106849970D02*
X48924264Y-106849970D01*
G04 #@! TO.N,Net-(C5-Pad1)*
X51000000Y-100800000D02*
X51050000Y-100750000D01*
X51000000Y-102975000D02*
X51000000Y-100800000D01*
X54774990Y-99025010D02*
X55176628Y-98623372D01*
X53449990Y-99025010D02*
X54774990Y-99025010D01*
X51725000Y-100750000D02*
X53449990Y-99025010D01*
X55176628Y-98623372D02*
X55800000Y-98000000D01*
X51050000Y-100750000D02*
X51725000Y-100750000D01*
X48813190Y-103750000D02*
X50225000Y-103750000D01*
X50376628Y-103598372D02*
X51000000Y-102975000D01*
X41125000Y-105580000D02*
X42955000Y-103750000D01*
X50225000Y-103750000D02*
X50376628Y-103598372D01*
X40650000Y-105580000D02*
X41125000Y-105580000D01*
X42955000Y-103750000D02*
X47186810Y-103750000D01*
X47186810Y-103750000D02*
X47311820Y-103875010D01*
X47311820Y-103875010D02*
X48688180Y-103875010D01*
X48688180Y-103875010D02*
X48813190Y-103750000D01*
G04 #@! TO.N,ESP_Temp*
X64580000Y-86470000D02*
X65400000Y-86470000D01*
X62050000Y-89000000D02*
X64580000Y-86470000D01*
X61426628Y-88376628D02*
X62050000Y-89000000D01*
X60800000Y-87750000D02*
X61426628Y-88376628D01*
X59250000Y-87750000D02*
X60800000Y-87750000D01*
X57500000Y-90750000D02*
X57500000Y-89500000D01*
X57500000Y-89500000D02*
X59250000Y-87750000D01*
X41500000Y-101000000D02*
X43499976Y-99000024D01*
X43499976Y-88424264D02*
X43499976Y-88000000D01*
X43499976Y-99000024D02*
X43499976Y-88424264D01*
X37625000Y-101000000D02*
X41500000Y-101000000D01*
G04 #@! TO.N,Net-(C4-Pad2)*
X40000000Y-102395000D02*
X40000000Y-102920000D01*
X39160000Y-101920000D02*
X39525000Y-101920000D01*
X39525000Y-101920000D02*
X40000000Y-102395000D01*
X39080000Y-102000000D02*
X39160000Y-101920000D01*
X36550000Y-102000000D02*
X39080000Y-102000000D01*
X43370000Y-102920000D02*
X43450000Y-103000000D01*
X40000000Y-102920000D02*
X43370000Y-102920000D01*
G04 #@! TO.N,Net-(C6-Pad1)*
X63750000Y-70600000D02*
X63000000Y-70600000D01*
X63000000Y-70600000D02*
X62300000Y-69900000D01*
D30*
G04 #@! TO.N,HAN1*
X39750000Y-76500000D02*
X38400000Y-76500000D01*
X38400000Y-76500000D02*
X37800000Y-77100000D01*
X37800000Y-77100000D02*
X37800000Y-79000000D01*
X37800000Y-79000000D02*
X39600000Y-80800000D01*
X45400000Y-80800000D02*
X39600000Y-80800000D01*
X55400000Y-78800000D02*
X54350000Y-78800000D01*
X54350000Y-78800000D02*
X50599999Y-82550001D01*
X47150001Y-82550001D02*
X45400000Y-80800000D01*
X50599999Y-82550001D02*
X47150001Y-82550001D01*
D29*
X43950000Y-85450000D02*
X45400000Y-84000000D01*
X43950000Y-86250000D02*
X43950000Y-85450000D01*
X45400000Y-84000000D02*
X45400000Y-80800000D01*
G04 #@! TO.N,Net-(D2-Pad3)*
X52135000Y-106160000D02*
X51000000Y-105025000D01*
X54850000Y-106160000D02*
X52135000Y-106160000D01*
G04 #@! TO.N,DTR*
X55176628Y-101623372D02*
X55800000Y-101000000D01*
X54200000Y-102600000D02*
X55176628Y-101623372D01*
X54200000Y-103500000D02*
X54200000Y-102600000D01*
X54200000Y-103500000D02*
X54200000Y-104025000D01*
X54200000Y-104025000D02*
X58425000Y-108250000D01*
X63075728Y-108250000D02*
X63499992Y-108250000D01*
X58425000Y-108250000D02*
X63075728Y-108250000D01*
G04 #@! TO.N,Net-(C12-Pad1)*
X48985000Y-94015000D02*
X49000000Y-94000000D01*
X45600000Y-94015000D02*
X48985000Y-94015000D01*
X49000000Y-96250000D02*
X49000000Y-94000000D01*
G04 #@! TO.N,Net-(R18-Pad1)*
X32750000Y-95500000D02*
X33250000Y-96000000D01*
X34450000Y-88750000D02*
X32750000Y-90450000D01*
X32750000Y-90450000D02*
X32750000Y-95500000D01*
G04 #@! TO.N,Net-(C7-Pad2)*
X53600000Y-71450000D02*
X53600000Y-73400000D01*
X53600000Y-71450000D02*
X55024990Y-70025010D01*
X55024990Y-70025010D02*
X55300000Y-70025010D01*
G04 #@! TO.N,Net-(C9-Pad1)*
X38250000Y-97825000D02*
X40200000Y-97825000D01*
X36500000Y-96750000D02*
X37175000Y-96750000D01*
X37175000Y-96750000D02*
X38250000Y-97825000D01*
G04 #@! TO.N,Net-(C11-Pad1)*
X39750000Y-94015000D02*
X40200000Y-94015000D01*
X38950000Y-93215000D02*
X39750000Y-94015000D01*
X38950000Y-89000000D02*
X38950000Y-93215000D01*
D30*
G04 #@! TO.N,Net-(D1-Pad1)*
X58700000Y-78800000D02*
X60800000Y-78800000D01*
D29*
G04 #@! TO.N,Net-(JP2-Pad1)*
X59750000Y-97750000D02*
X58500000Y-96500000D01*
X52950850Y-96500000D02*
X52875000Y-96575850D01*
X57874999Y-95874999D02*
X58500000Y-96500000D01*
X54949999Y-95874999D02*
X57874999Y-95874999D01*
X54249148Y-96575850D02*
X54949999Y-95874999D01*
X52875000Y-96575850D02*
X54249148Y-96575850D01*
G04 #@! TO.N,Net-(R3-Pad2)*
X53250000Y-93550000D02*
X53700000Y-94000000D01*
X53250000Y-90650000D02*
X53250000Y-93550000D01*
G04 #@! TO.N,CH_PD*
X55950000Y-88225000D02*
X55950000Y-88750000D01*
X55950000Y-86475000D02*
X55950000Y-88225000D01*
X55725000Y-86250000D02*
X55950000Y-86475000D01*
X55050000Y-86250000D02*
X55725000Y-86250000D01*
X54950010Y-88999990D02*
X54950010Y-93049990D01*
X55200000Y-88750000D02*
X54950010Y-88999990D01*
X53799999Y-95574991D02*
X53500000Y-95874990D01*
X51050000Y-91750000D02*
X52750000Y-93450000D01*
X54600010Y-93399990D02*
X54600010Y-94774980D01*
X52750000Y-93450000D02*
X52750000Y-95124990D01*
X54950010Y-93049990D02*
X54600010Y-93399990D01*
X53200001Y-95574991D02*
X53500000Y-95874990D01*
X52750000Y-95124990D02*
X53200001Y-95574991D01*
X54600010Y-94774980D02*
X53799999Y-95574991D01*
X55950000Y-88750000D02*
X55200000Y-88750000D01*
G04 #@! TO.N,Net-(R8-Pad1)*
X63675000Y-72700000D02*
X63675000Y-72675000D01*
X63675000Y-72675000D02*
X62300000Y-71300000D01*
G04 #@! TO.N,Net-(R11-Pad2)*
X44250000Y-99465000D02*
X44250000Y-90600000D01*
X45150000Y-100365000D02*
X44250000Y-99465000D01*
X45600000Y-100365000D02*
X45150000Y-100365000D01*
X46000000Y-86250000D02*
X46000000Y-88850000D01*
X44250000Y-90600000D02*
X46000000Y-88850000D01*
G04 #@! TO.N,Net-(R12-Pad1)*
X37665000Y-100365000D02*
X40200000Y-100365000D01*
X36550000Y-99250000D02*
X37665000Y-100365000D01*
G04 #@! TO.N,Net-(R13-Pad1)*
X36525000Y-92050400D02*
X38500000Y-94025400D01*
X36525000Y-91250000D02*
X36525000Y-92050400D01*
X39750000Y-96555000D02*
X40200000Y-96555000D01*
X38500000Y-95305000D02*
X39750000Y-96555000D01*
X38500000Y-94025400D02*
X38500000Y-95305000D01*
G04 #@! TO.N,Net-(R15-Pad1)*
X48325000Y-97825000D02*
X49000000Y-98500000D01*
X45600000Y-97825000D02*
X48325000Y-97825000D01*
G04 #@! TO.N,Net-(R19-Pad2)*
X37750000Y-93911810D02*
X37750000Y-94250000D01*
X37063180Y-93224990D02*
X37750000Y-93911810D01*
X34450000Y-94250000D02*
X35475010Y-93224990D01*
X35475010Y-93224990D02*
X37063180Y-93224990D01*
G04 #@! TO.N,MR*
X55950000Y-90650000D02*
X55950000Y-92281372D01*
X55950000Y-92281372D02*
X56959314Y-93290686D01*
X61750000Y-107500000D02*
X61750000Y-99000000D01*
X61750000Y-99000000D02*
X61750000Y-98750000D01*
X61750000Y-98000000D02*
X61750000Y-99000000D01*
X58674999Y-94924999D02*
X61750000Y-98000000D01*
X57750000Y-94625000D02*
X58049999Y-94924999D01*
X58049999Y-94924999D02*
X58674999Y-94924999D01*
G04 #@! TO.N,POWER_FAIL*
X41715012Y-95285000D02*
X41750012Y-95250000D01*
X40200000Y-95285000D02*
X41715012Y-95285000D01*
G04 #@! TD*
D31*
G04 #@! TO.N,GND*
G36*
X52320873Y-68731564D02*
X52252560Y-69074999D01*
X52252560Y-69725001D01*
X52320873Y-70068436D01*
X52515414Y-70359586D01*
X52613313Y-70425000D01*
X52515414Y-70490414D01*
X52320873Y-70781564D01*
X52252560Y-71124999D01*
X52252560Y-71775001D01*
X52320873Y-72118436D01*
X52515414Y-72409586D01*
X52538483Y-72425000D01*
X52515414Y-72440414D01*
X52320873Y-72731564D01*
X52252560Y-73074999D01*
X52252560Y-73725001D01*
X52320873Y-74068436D01*
X52515414Y-74359586D01*
X52516597Y-74360377D01*
X52361673Y-74515302D01*
X52265000Y-74748691D01*
X52265000Y-75164250D01*
X52423750Y-75323000D01*
X53473000Y-75323000D01*
X53473000Y-75303000D01*
X53727000Y-75303000D01*
X53727000Y-75323000D01*
X54776250Y-75323000D01*
X54935000Y-75164250D01*
X54935000Y-74748691D01*
X54838327Y-74515302D01*
X54683403Y-74360377D01*
X54684586Y-74359586D01*
X54879127Y-74068436D01*
X54947440Y-73725001D01*
X54947440Y-73074999D01*
X54879127Y-72731564D01*
X54684586Y-72440414D01*
X54661517Y-72425000D01*
X54684586Y-72409586D01*
X54879127Y-72118436D01*
X54947440Y-71775001D01*
X54947440Y-71177362D01*
X55164792Y-70960010D01*
X55485983Y-70960010D01*
X55829635Y-70817665D01*
X56092655Y-70554645D01*
X56235000Y-70210993D01*
X56235000Y-69839027D01*
X56183220Y-69714017D01*
X61365000Y-69714017D01*
X61365000Y-70085983D01*
X61507345Y-70429635D01*
X61677710Y-70600000D01*
X61507345Y-70770365D01*
X61365000Y-71114017D01*
X61365000Y-71485983D01*
X61507345Y-71829635D01*
X61770365Y-72092655D01*
X62114017Y-72235000D01*
X62160199Y-72235000D01*
X62727560Y-72802362D01*
X62727560Y-73200001D01*
X62795873Y-73543436D01*
X62990414Y-73834586D01*
X63281564Y-74029127D01*
X63624999Y-74097440D01*
X64275001Y-74097440D01*
X64618436Y-74029127D01*
X64909586Y-73834586D01*
X64910377Y-73833403D01*
X65065302Y-73988327D01*
X65298691Y-74085000D01*
X65714250Y-74085000D01*
X65873000Y-73926250D01*
X65873000Y-72877000D01*
X66127000Y-72877000D01*
X66127000Y-73926250D01*
X66285750Y-74085000D01*
X66701309Y-74085000D01*
X66934698Y-73988327D01*
X67113327Y-73809699D01*
X67210000Y-73576310D01*
X67210000Y-73035750D01*
X67051250Y-72877000D01*
X66127000Y-72877000D01*
X65873000Y-72877000D01*
X65853000Y-72877000D01*
X65853000Y-72623000D01*
X65873000Y-72623000D01*
X65873000Y-70727000D01*
X66127000Y-70727000D01*
X66127000Y-72623000D01*
X67051250Y-72623000D01*
X67210000Y-72464250D01*
X67210000Y-71923690D01*
X67113327Y-71690301D01*
X67098026Y-71675000D01*
X67113327Y-71659699D01*
X67210000Y-71426310D01*
X67210000Y-70885750D01*
X67051250Y-70727000D01*
X66127000Y-70727000D01*
X65873000Y-70727000D01*
X65853000Y-70727000D01*
X65853000Y-70473000D01*
X65873000Y-70473000D01*
X65873000Y-69423750D01*
X66127000Y-69423750D01*
X66127000Y-70473000D01*
X67051250Y-70473000D01*
X67210000Y-70314250D01*
X67210000Y-69773690D01*
X67113327Y-69540301D01*
X66934698Y-69361673D01*
X66701309Y-69265000D01*
X66285750Y-69265000D01*
X66127000Y-69423750D01*
X65873000Y-69423750D01*
X65714250Y-69265000D01*
X65298691Y-69265000D01*
X65065302Y-69361673D01*
X64910377Y-69516597D01*
X64909586Y-69515414D01*
X64618436Y-69320873D01*
X64275001Y-69252560D01*
X63624999Y-69252560D01*
X63281564Y-69320873D01*
X63117549Y-69430465D01*
X63092655Y-69370365D01*
X62829635Y-69107345D01*
X62485983Y-68965000D01*
X62114017Y-68965000D01*
X61770365Y-69107345D01*
X61507345Y-69370365D01*
X61365000Y-69714017D01*
X56183220Y-69714017D01*
X56092655Y-69495375D01*
X56057280Y-69460000D01*
X60187710Y-69460000D01*
X60220365Y-69492655D01*
X60564017Y-69635000D01*
X60935983Y-69635000D01*
X61279635Y-69492655D01*
X61542655Y-69229635D01*
X61685000Y-68885983D01*
X61685000Y-68710000D01*
X68290000Y-68710000D01*
X68290001Y-114290000D01*
X52107000Y-114290000D01*
X52107000Y-108234990D01*
X52910203Y-108234990D01*
X53065014Y-108389801D01*
X53065014Y-108435983D01*
X53207359Y-108779635D01*
X53470379Y-109042655D01*
X53814031Y-109185000D01*
X54185997Y-109185000D01*
X54529649Y-109042655D01*
X54586259Y-108986045D01*
X55344687Y-109744473D01*
X55387087Y-109807929D01*
X55638479Y-109975904D01*
X55860164Y-110020000D01*
X55860168Y-110020000D01*
X55935015Y-110034888D01*
X56009862Y-110020000D01*
X65321822Y-110020000D01*
X65529375Y-110330625D01*
X65547619Y-110342816D01*
X65502235Y-110351843D01*
X65292191Y-110492191D01*
X65151843Y-110702235D01*
X65102560Y-110950000D01*
X65102560Y-112650000D01*
X65151843Y-112897765D01*
X65292191Y-113107809D01*
X65502235Y-113248157D01*
X65750000Y-113297440D01*
X67450000Y-113297440D01*
X67697765Y-113248157D01*
X67907809Y-113107809D01*
X68048157Y-112897765D01*
X68097440Y-112650000D01*
X68097440Y-110950000D01*
X68048157Y-110702235D01*
X67907809Y-110492191D01*
X67697765Y-110351843D01*
X67652381Y-110342816D01*
X67670625Y-110330625D01*
X67998839Y-109839418D01*
X68114092Y-109260000D01*
X67998839Y-108680582D01*
X67670625Y-108189375D01*
X67372239Y-107990000D01*
X67670625Y-107790625D01*
X67998839Y-107299418D01*
X68114092Y-106720000D01*
X67998839Y-106140582D01*
X67670625Y-105649375D01*
X67372239Y-105450000D01*
X67670625Y-105250625D01*
X67998839Y-104759418D01*
X68114092Y-104180000D01*
X67998839Y-103600582D01*
X67670625Y-103109375D01*
X67372239Y-102910000D01*
X67670625Y-102710625D01*
X67998839Y-102219418D01*
X68114092Y-101640000D01*
X67998839Y-101060582D01*
X67670625Y-100569375D01*
X67351522Y-100356157D01*
X67481358Y-100295183D01*
X67871645Y-99866924D01*
X68041476Y-99456890D01*
X67920155Y-99227000D01*
X66727000Y-99227000D01*
X66727000Y-99247000D01*
X66473000Y-99247000D01*
X66473000Y-99227000D01*
X65279845Y-99227000D01*
X65158524Y-99456890D01*
X65328355Y-99866924D01*
X65718642Y-100295183D01*
X65848478Y-100356157D01*
X65529375Y-100569375D01*
X65201161Y-101060582D01*
X65135081Y-101392792D01*
X64685000Y-100942711D01*
X64685000Y-99042086D01*
X64703317Y-98950000D01*
X64672175Y-98793436D01*
X64662165Y-98743110D01*
X65158524Y-98743110D01*
X65279845Y-98973000D01*
X66473000Y-98973000D01*
X66473000Y-97779181D01*
X66727000Y-97779181D01*
X66727000Y-98973000D01*
X67920155Y-98973000D01*
X68041476Y-98743110D01*
X67871645Y-98333076D01*
X67481358Y-97904817D01*
X66956892Y-97658514D01*
X66727000Y-97779181D01*
X66473000Y-97779181D01*
X66243108Y-97658514D01*
X65718642Y-97904817D01*
X65328355Y-98333076D01*
X65158524Y-98743110D01*
X64662165Y-98743110D01*
X64630750Y-98585181D01*
X64424097Y-98275903D01*
X64346031Y-98223741D01*
X60741570Y-94619280D01*
X60847765Y-94598157D01*
X61057809Y-94457809D01*
X61198157Y-94247765D01*
X61247440Y-94000000D01*
X61247440Y-91660000D01*
X64885908Y-91660000D01*
X65001161Y-92239418D01*
X65329375Y-92730625D01*
X65347619Y-92742816D01*
X65302235Y-92751843D01*
X65092191Y-92892191D01*
X64951843Y-93102235D01*
X64902560Y-93350000D01*
X64902560Y-95050000D01*
X64951843Y-95297765D01*
X65092191Y-95507809D01*
X65302235Y-95648157D01*
X65550000Y-95697440D01*
X67250000Y-95697440D01*
X67497765Y-95648157D01*
X67707809Y-95507809D01*
X67848157Y-95297765D01*
X67897440Y-95050000D01*
X67897440Y-93350000D01*
X67848157Y-93102235D01*
X67707809Y-92892191D01*
X67497765Y-92751843D01*
X67452381Y-92742816D01*
X67470625Y-92730625D01*
X67798839Y-92239418D01*
X67914092Y-91660000D01*
X67798839Y-91080582D01*
X67470625Y-90589375D01*
X66979418Y-90261161D01*
X66546256Y-90175000D01*
X66253744Y-90175000D01*
X65820582Y-90261161D01*
X65329375Y-90589375D01*
X65001161Y-91080582D01*
X64885908Y-91660000D01*
X61247440Y-91660000D01*
X61247440Y-91600000D01*
X61198157Y-91352235D01*
X61057809Y-91142191D01*
X60847765Y-91001843D01*
X60760000Y-90984386D01*
X60760000Y-90747185D01*
X60950158Y-90785010D01*
X60950163Y-90785010D01*
X61025010Y-90799898D01*
X61099857Y-90785010D01*
X62538333Y-90785010D01*
X62613180Y-90799898D01*
X62688027Y-90785010D01*
X62688032Y-90785010D01*
X62909717Y-90740914D01*
X63161109Y-90572939D01*
X63203511Y-90509480D01*
X64854098Y-88858893D01*
X65060754Y-88900000D01*
X65739246Y-88900000D01*
X66077609Y-88832695D01*
X66461313Y-88576313D01*
X66717695Y-88192609D01*
X66807725Y-87740000D01*
X66717695Y-87287391D01*
X66595826Y-87105000D01*
X66717695Y-86922609D01*
X66807725Y-86470000D01*
X66717695Y-86017391D01*
X66716776Y-86016016D01*
X66785000Y-85851309D01*
X66785000Y-85485750D01*
X66626250Y-85327000D01*
X65824710Y-85327000D01*
X65739246Y-85310000D01*
X65060754Y-85310000D01*
X64975290Y-85327000D01*
X64173750Y-85327000D01*
X64015000Y-85485750D01*
X64015000Y-85851309D01*
X64041657Y-85915666D01*
X64032071Y-85922071D01*
X63989673Y-85985524D01*
X62322638Y-87652560D01*
X61777362Y-87652560D01*
X61507798Y-87382996D01*
X61598157Y-87247765D01*
X61647440Y-87000000D01*
X61647440Y-85400000D01*
X61598157Y-85152235D01*
X61457809Y-84942191D01*
X61291334Y-84830955D01*
X61573598Y-84548691D01*
X64015000Y-84548691D01*
X64015000Y-84914250D01*
X64173750Y-85073000D01*
X65273000Y-85073000D01*
X65273000Y-84198750D01*
X65527000Y-84198750D01*
X65527000Y-85073000D01*
X66626250Y-85073000D01*
X66785000Y-84914250D01*
X66785000Y-84548691D01*
X66688327Y-84315302D01*
X66509699Y-84136673D01*
X66276310Y-84040000D01*
X65685750Y-84040000D01*
X65527000Y-84198750D01*
X65273000Y-84198750D01*
X65114250Y-84040000D01*
X64523690Y-84040000D01*
X64290301Y-84136673D01*
X64111673Y-84315302D01*
X64015000Y-84548691D01*
X61573598Y-84548691D01*
X64696031Y-81426259D01*
X64774097Y-81374097D01*
X64980750Y-81064819D01*
X65035000Y-80792086D01*
X65053317Y-80700000D01*
X65035000Y-80607914D01*
X65035000Y-79817115D01*
X65148157Y-79647765D01*
X65197440Y-79400000D01*
X65197440Y-78224849D01*
X66026259Y-77396031D01*
X66092655Y-77329635D01*
X66128588Y-77242885D01*
X66180750Y-77164819D01*
X66199067Y-77072734D01*
X66235000Y-76985983D01*
X66235000Y-76892083D01*
X66253316Y-76800001D01*
X66235000Y-76707919D01*
X66235000Y-76614017D01*
X66199066Y-76527265D01*
X66180750Y-76435182D01*
X66128589Y-76357119D01*
X66092655Y-76270365D01*
X66026255Y-76203965D01*
X65974096Y-76125904D01*
X65896035Y-76073745D01*
X65829635Y-76007345D01*
X65742881Y-75971411D01*
X65664818Y-75919250D01*
X65572735Y-75900934D01*
X65485983Y-75865000D01*
X65392081Y-75865000D01*
X65299999Y-75846684D01*
X65207917Y-75865000D01*
X65114017Y-75865000D01*
X65027266Y-75900933D01*
X64935181Y-75919250D01*
X64857115Y-75971412D01*
X64770365Y-76007345D01*
X64703969Y-76073741D01*
X63503970Y-77273741D01*
X63425904Y-77325903D01*
X63373742Y-77403969D01*
X63373741Y-77403970D01*
X63219250Y-77635182D01*
X63198850Y-77737742D01*
X63192191Y-77742191D01*
X63051843Y-77952235D01*
X63002560Y-78200000D01*
X63002560Y-79400000D01*
X63051843Y-79647765D01*
X63165001Y-79817116D01*
X63165001Y-80312709D01*
X59603972Y-83873739D01*
X59525903Y-83925903D01*
X59343593Y-84198750D01*
X59319250Y-84235182D01*
X59246683Y-84600000D01*
X59265000Y-84692086D01*
X59265000Y-84779413D01*
X59152235Y-84801843D01*
X58942191Y-84942191D01*
X58801843Y-85152235D01*
X58755307Y-85386187D01*
X58707745Y-85371861D01*
X57879605Y-86200000D01*
X57893748Y-86214142D01*
X57714142Y-86393748D01*
X57700000Y-86379605D01*
X57685858Y-86393748D01*
X57506252Y-86214142D01*
X57520395Y-86200000D01*
X56692255Y-85371861D01*
X56446136Y-85445995D01*
X56327065Y-85777264D01*
X56315331Y-85765530D01*
X56272929Y-85702071D01*
X56249900Y-85686684D01*
X56204127Y-85456564D01*
X56027521Y-85192255D01*
X56871861Y-85192255D01*
X57700000Y-86020395D01*
X58528139Y-85192255D01*
X58454005Y-84946136D01*
X57916777Y-84753035D01*
X57346546Y-84780222D01*
X56945995Y-84946136D01*
X56871861Y-85192255D01*
X56027521Y-85192255D01*
X56009586Y-85165414D01*
X55836455Y-85049731D01*
X55984698Y-84988327D01*
X56163327Y-84809699D01*
X56260000Y-84576310D01*
X56260000Y-84035750D01*
X56101250Y-83877000D01*
X55177000Y-83877000D01*
X55177000Y-83897000D01*
X54923000Y-83897000D01*
X54923000Y-83877000D01*
X54903000Y-83877000D01*
X54903000Y-83623000D01*
X54923000Y-83623000D01*
X54923000Y-82573750D01*
X55177000Y-82573750D01*
X55177000Y-83623000D01*
X56101250Y-83623000D01*
X56260000Y-83464250D01*
X56260000Y-82923690D01*
X56163327Y-82690301D01*
X55984698Y-82511673D01*
X55751309Y-82415000D01*
X55335750Y-82415000D01*
X55177000Y-82573750D01*
X54923000Y-82573750D01*
X54764250Y-82415000D01*
X54348691Y-82415000D01*
X54115302Y-82511673D01*
X53960377Y-82666597D01*
X53959586Y-82665414D01*
X53668436Y-82470873D01*
X53325001Y-82402560D01*
X52674999Y-82402560D01*
X52331564Y-82470873D01*
X52040414Y-82665414D01*
X51845873Y-82956564D01*
X51777560Y-83299999D01*
X51777560Y-84200001D01*
X51845873Y-84543436D01*
X52040414Y-84834586D01*
X52240001Y-84967946D01*
X52240000Y-85032054D01*
X52040414Y-85165414D01*
X51859378Y-85436352D01*
X51809699Y-85386673D01*
X51576310Y-85290000D01*
X51035750Y-85290000D01*
X50877000Y-85448750D01*
X50877000Y-86373000D01*
X50897000Y-86373000D01*
X50897000Y-86627000D01*
X50877000Y-86627000D01*
X50877000Y-86640010D01*
X50623000Y-86640010D01*
X50623000Y-86627000D01*
X50603000Y-86627000D01*
X50603000Y-86373000D01*
X50623000Y-86373000D01*
X50623000Y-85448750D01*
X50464250Y-85290000D01*
X49923690Y-85290000D01*
X49690301Y-85386673D01*
X49555797Y-85521178D01*
X49293436Y-85345873D01*
X48950001Y-85277560D01*
X48049999Y-85277560D01*
X47706564Y-85345873D01*
X47415414Y-85540414D01*
X47222440Y-85829219D01*
X47222440Y-85799999D01*
X47154127Y-85456564D01*
X46959586Y-85165414D01*
X46668436Y-84970873D01*
X46325001Y-84902560D01*
X45674999Y-84902560D01*
X45546727Y-84928075D01*
X45884473Y-84590329D01*
X45947929Y-84547929D01*
X46103366Y-84315302D01*
X46115904Y-84296538D01*
X46147703Y-84136673D01*
X46160000Y-84074852D01*
X46160000Y-84074848D01*
X46174888Y-84000000D01*
X46160000Y-83925152D01*
X46160000Y-82882290D01*
X46423742Y-83146032D01*
X46475904Y-83224098D01*
X46553970Y-83276260D01*
X46785182Y-83430751D01*
X47150000Y-83503318D01*
X47242086Y-83485001D01*
X50507913Y-83485001D01*
X50599999Y-83503318D01*
X50692085Y-83485001D01*
X50964818Y-83430751D01*
X51274096Y-83224098D01*
X51326260Y-83146029D01*
X54565498Y-79906792D01*
X54702235Y-79998157D01*
X54950000Y-80047440D01*
X55850000Y-80047440D01*
X56097765Y-79998157D01*
X56307809Y-79857809D01*
X56448157Y-79647765D01*
X56497440Y-79400000D01*
X56497440Y-78200000D01*
X57602560Y-78200000D01*
X57602560Y-79400000D01*
X57651843Y-79647765D01*
X57792191Y-79857809D01*
X58002235Y-79998157D01*
X58250000Y-80047440D01*
X59150000Y-80047440D01*
X59397765Y-79998157D01*
X59607809Y-79857809D01*
X59689868Y-79735000D01*
X59810132Y-79735000D01*
X59892191Y-79857809D01*
X60102235Y-79998157D01*
X60350000Y-80047440D01*
X61250000Y-80047440D01*
X61497765Y-79998157D01*
X61707809Y-79857809D01*
X61848157Y-79647765D01*
X61897440Y-79400000D01*
X61897440Y-78200000D01*
X61848157Y-77952235D01*
X61707809Y-77742191D01*
X61497765Y-77601843D01*
X61250000Y-77552560D01*
X60350000Y-77552560D01*
X60102235Y-77601843D01*
X59892191Y-77742191D01*
X59810132Y-77865000D01*
X59689868Y-77865000D01*
X59607809Y-77742191D01*
X59397765Y-77601843D01*
X59150000Y-77552560D01*
X58250000Y-77552560D01*
X58002235Y-77601843D01*
X57792191Y-77742191D01*
X57651843Y-77952235D01*
X57602560Y-78200000D01*
X56497440Y-78200000D01*
X56448157Y-77952235D01*
X56307809Y-77742191D01*
X56097765Y-77601843D01*
X55850000Y-77552560D01*
X54950000Y-77552560D01*
X54702235Y-77601843D01*
X54492191Y-77742191D01*
X54413880Y-77859391D01*
X54349999Y-77846684D01*
X54257917Y-77865000D01*
X54257914Y-77865000D01*
X53985181Y-77919250D01*
X53675903Y-78125903D01*
X53623741Y-78203969D01*
X50212710Y-81615001D01*
X47537291Y-81615001D01*
X46126261Y-80203972D01*
X46074097Y-80125903D01*
X45764819Y-79919250D01*
X45492086Y-79865000D01*
X45400000Y-79846683D01*
X45307914Y-79865000D01*
X39987290Y-79865000D01*
X39373807Y-79251517D01*
X39978088Y-79251517D01*
X40046077Y-79492460D01*
X40565171Y-79677201D01*
X41115448Y-79649230D01*
X41493923Y-79492460D01*
X41561912Y-79251517D01*
X40770000Y-78459605D01*
X39978088Y-79251517D01*
X39373807Y-79251517D01*
X38735000Y-78612711D01*
X38735000Y-77836641D01*
X38752235Y-77848157D01*
X39000000Y-77897440D01*
X39436052Y-77897440D01*
X39372799Y-78075171D01*
X39400770Y-78625448D01*
X39557540Y-79003923D01*
X39798483Y-79071912D01*
X40590395Y-78280000D01*
X40576253Y-78265858D01*
X40755858Y-78086253D01*
X40770000Y-78100395D01*
X40784143Y-78086253D01*
X40963748Y-78265858D01*
X40949605Y-78280000D01*
X41566350Y-78896745D01*
X41635853Y-79064540D01*
X42025460Y-79454147D01*
X42534506Y-79665000D01*
X43085494Y-79665000D01*
X43594540Y-79454147D01*
X43830000Y-79218687D01*
X44065460Y-79454147D01*
X44574506Y-79665000D01*
X45125494Y-79665000D01*
X45634540Y-79454147D01*
X45870000Y-79218687D01*
X46105460Y-79454147D01*
X46614506Y-79665000D01*
X47165494Y-79665000D01*
X47674540Y-79454147D01*
X48064147Y-79064540D01*
X48275000Y-78555494D01*
X48275000Y-78004506D01*
X48064147Y-77495460D01*
X47674540Y-77105853D01*
X47199641Y-76909144D01*
X47255000Y-76775494D01*
X47255000Y-76224506D01*
X47044147Y-75715460D01*
X46654540Y-75325853D01*
X46145494Y-75115000D01*
X45594506Y-75115000D01*
X45085460Y-75325853D01*
X44850000Y-75561313D01*
X44614540Y-75325853D01*
X44105494Y-75115000D01*
X43554506Y-75115000D01*
X43045460Y-75325853D01*
X42810000Y-75561313D01*
X42574540Y-75325853D01*
X42065494Y-75115000D01*
X41514506Y-75115000D01*
X41005460Y-75325853D01*
X40990379Y-75340934D01*
X40957809Y-75292191D01*
X40747765Y-75151843D01*
X40500000Y-75102560D01*
X39000000Y-75102560D01*
X38926921Y-75117096D01*
X39220000Y-74409542D01*
X39220000Y-73510458D01*
X47400000Y-73510458D01*
X47400000Y-74409542D01*
X47744065Y-75240187D01*
X48379813Y-75875935D01*
X49210458Y-76220000D01*
X50109542Y-76220000D01*
X50430852Y-76086909D01*
X50053914Y-76463847D01*
X49805000Y-77064778D01*
X49805000Y-77715222D01*
X50053914Y-78316153D01*
X50513847Y-78776086D01*
X51114778Y-79025000D01*
X51765222Y-79025000D01*
X52366153Y-78776086D01*
X52826086Y-78316153D01*
X53075000Y-77715222D01*
X53075000Y-77064778D01*
X52907335Y-76660000D01*
X53314250Y-76660000D01*
X53473000Y-76501250D01*
X53473000Y-75577000D01*
X53727000Y-75577000D01*
X53727000Y-76501250D01*
X53885750Y-76660000D01*
X54426310Y-76660000D01*
X54659699Y-76563327D01*
X54838327Y-76384698D01*
X54935000Y-76151309D01*
X54935000Y-75735750D01*
X54776250Y-75577000D01*
X53727000Y-75577000D01*
X53473000Y-75577000D01*
X52423750Y-75577000D01*
X52265000Y-75735750D01*
X52265000Y-75962015D01*
X51765222Y-75755000D01*
X51114778Y-75755000D01*
X51023181Y-75792941D01*
X51575935Y-75240187D01*
X51920000Y-74409542D01*
X51920000Y-73510458D01*
X51575935Y-72679813D01*
X50940187Y-72044065D01*
X50109542Y-71700000D01*
X49210458Y-71700000D01*
X48379813Y-72044065D01*
X47744065Y-72679813D01*
X47400000Y-73510458D01*
X39220000Y-73510458D01*
X38875935Y-72679813D01*
X38240187Y-72044065D01*
X37409542Y-71700000D01*
X36510458Y-71700000D01*
X35679813Y-72044065D01*
X35044065Y-72679813D01*
X34700000Y-73510458D01*
X34700000Y-74409542D01*
X35044065Y-75240187D01*
X35596819Y-75792941D01*
X35505222Y-75755000D01*
X34854778Y-75755000D01*
X34253847Y-76003914D01*
X33793914Y-76463847D01*
X33545000Y-77064778D01*
X33545000Y-77715222D01*
X33793914Y-78316153D01*
X34253847Y-78776086D01*
X34854778Y-79025000D01*
X35505222Y-79025000D01*
X36106153Y-78776086D01*
X36566086Y-78316153D01*
X36815000Y-77715222D01*
X36815000Y-77064778D01*
X36566086Y-76463847D01*
X36189148Y-76086909D01*
X36510458Y-76220000D01*
X37357711Y-76220000D01*
X37203972Y-76373739D01*
X37125903Y-76425903D01*
X37000210Y-76614017D01*
X36919250Y-76735182D01*
X36846683Y-77100000D01*
X36865000Y-77192086D01*
X36865001Y-78907910D01*
X36846683Y-79000000D01*
X36919250Y-79364818D01*
X36919251Y-79364819D01*
X37125904Y-79674097D01*
X37203970Y-79726259D01*
X38873740Y-81396030D01*
X38925903Y-81474097D01*
X39235181Y-81680750D01*
X39507914Y-81735000D01*
X39507918Y-81735000D01*
X39599999Y-81753316D01*
X39692080Y-81735000D01*
X44640001Y-81735000D01*
X44640000Y-83685198D01*
X43465528Y-84859671D01*
X43402072Y-84902071D01*
X43367525Y-84953774D01*
X43281564Y-84970873D01*
X42990414Y-85165414D01*
X42795873Y-85456564D01*
X42727560Y-85799999D01*
X42727560Y-86700001D01*
X42795873Y-87043436D01*
X42931408Y-87246278D01*
X42707321Y-87470365D01*
X42564976Y-87814017D01*
X42564976Y-88185983D01*
X42707321Y-88529635D01*
X42739977Y-88562291D01*
X42739976Y-98685222D01*
X41558079Y-99867119D01*
X41548157Y-99817235D01*
X41489868Y-99730000D01*
X41548157Y-99642765D01*
X41597440Y-99395000D01*
X41597440Y-98795000D01*
X41548157Y-98547235D01*
X41489868Y-98460000D01*
X41548157Y-98372765D01*
X41597440Y-98125000D01*
X41597440Y-97525000D01*
X41548157Y-97277235D01*
X41489868Y-97190000D01*
X41548157Y-97102765D01*
X41597440Y-96855000D01*
X41597440Y-96255000D01*
X41583516Y-96185000D01*
X41935995Y-96185000D01*
X42279647Y-96042655D01*
X42542667Y-95779635D01*
X42685012Y-95435983D01*
X42685012Y-95064017D01*
X42542667Y-94720365D01*
X42279647Y-94457345D01*
X41935995Y-94315000D01*
X41597440Y-94315000D01*
X41597440Y-93715000D01*
X41548157Y-93467235D01*
X41512320Y-93413601D01*
X41563981Y-93435000D01*
X41935947Y-93435000D01*
X42279599Y-93292655D01*
X42542619Y-93029635D01*
X42684964Y-92685983D01*
X42684964Y-92314017D01*
X42542619Y-91970365D01*
X42279599Y-91707345D01*
X41935947Y-91565000D01*
X41814802Y-91565000D01*
X41597440Y-91347639D01*
X41597440Y-91175000D01*
X41548157Y-90927235D01*
X41407809Y-90717191D01*
X41197765Y-90576843D01*
X40950000Y-90527560D01*
X39710000Y-90527560D01*
X39710000Y-90217946D01*
X39909586Y-90084586D01*
X39910377Y-90083403D01*
X40065302Y-90238327D01*
X40298691Y-90335000D01*
X40714250Y-90335000D01*
X40873000Y-90176250D01*
X40873000Y-89127000D01*
X41127000Y-89127000D01*
X41127000Y-90176250D01*
X41285750Y-90335000D01*
X41701309Y-90335000D01*
X41934698Y-90238327D01*
X42113327Y-90059699D01*
X42210000Y-89826310D01*
X42210000Y-89285750D01*
X42051250Y-89127000D01*
X41127000Y-89127000D01*
X40873000Y-89127000D01*
X40853000Y-89127000D01*
X40853000Y-88873000D01*
X40873000Y-88873000D01*
X40873000Y-87823750D01*
X41127000Y-87823750D01*
X41127000Y-88873000D01*
X42051250Y-88873000D01*
X42210000Y-88714250D01*
X42210000Y-88173690D01*
X42113327Y-87940301D01*
X41934698Y-87761673D01*
X41701309Y-87665000D01*
X41285750Y-87665000D01*
X41127000Y-87823750D01*
X40873000Y-87823750D01*
X40714250Y-87665000D01*
X40298691Y-87665000D01*
X40065302Y-87761673D01*
X39910377Y-87916597D01*
X39909586Y-87915414D01*
X39618436Y-87720873D01*
X39275001Y-87652560D01*
X38624999Y-87652560D01*
X38592624Y-87659000D01*
X38685000Y-87435983D01*
X38685000Y-87064017D01*
X38542655Y-86720365D01*
X38279635Y-86457345D01*
X37935983Y-86315000D01*
X37564017Y-86315000D01*
X37220365Y-86457345D01*
X36957345Y-86720365D01*
X36815000Y-87064017D01*
X36815000Y-87360198D01*
X36772638Y-87402560D01*
X36174999Y-87402560D01*
X35831564Y-87470873D01*
X35540414Y-87665414D01*
X35475000Y-87763313D01*
X35409586Y-87665414D01*
X35118436Y-87470873D01*
X34775001Y-87402560D01*
X34124999Y-87402560D01*
X33781564Y-87470873D01*
X33490414Y-87665414D01*
X33295873Y-87956564D01*
X33227560Y-88299999D01*
X33227560Y-88897638D01*
X32710000Y-89415199D01*
X32710000Y-68710000D01*
X52335282Y-68710000D01*
X52320873Y-68731564D01*
X52320873Y-68731564D01*
G37*
X52320873Y-68731564D02*
X52252560Y-69074999D01*
X52252560Y-69725001D01*
X52320873Y-70068436D01*
X52515414Y-70359586D01*
X52613313Y-70425000D01*
X52515414Y-70490414D01*
X52320873Y-70781564D01*
X52252560Y-71124999D01*
X52252560Y-71775001D01*
X52320873Y-72118436D01*
X52515414Y-72409586D01*
X52538483Y-72425000D01*
X52515414Y-72440414D01*
X52320873Y-72731564D01*
X52252560Y-73074999D01*
X52252560Y-73725001D01*
X52320873Y-74068436D01*
X52515414Y-74359586D01*
X52516597Y-74360377D01*
X52361673Y-74515302D01*
X52265000Y-74748691D01*
X52265000Y-75164250D01*
X52423750Y-75323000D01*
X53473000Y-75323000D01*
X53473000Y-75303000D01*
X53727000Y-75303000D01*
X53727000Y-75323000D01*
X54776250Y-75323000D01*
X54935000Y-75164250D01*
X54935000Y-74748691D01*
X54838327Y-74515302D01*
X54683403Y-74360377D01*
X54684586Y-74359586D01*
X54879127Y-74068436D01*
X54947440Y-73725001D01*
X54947440Y-73074999D01*
X54879127Y-72731564D01*
X54684586Y-72440414D01*
X54661517Y-72425000D01*
X54684586Y-72409586D01*
X54879127Y-72118436D01*
X54947440Y-71775001D01*
X54947440Y-71177362D01*
X55164792Y-70960010D01*
X55485983Y-70960010D01*
X55829635Y-70817665D01*
X56092655Y-70554645D01*
X56235000Y-70210993D01*
X56235000Y-69839027D01*
X56183220Y-69714017D01*
X61365000Y-69714017D01*
X61365000Y-70085983D01*
X61507345Y-70429635D01*
X61677710Y-70600000D01*
X61507345Y-70770365D01*
X61365000Y-71114017D01*
X61365000Y-71485983D01*
X61507345Y-71829635D01*
X61770365Y-72092655D01*
X62114017Y-72235000D01*
X62160199Y-72235000D01*
X62727560Y-72802362D01*
X62727560Y-73200001D01*
X62795873Y-73543436D01*
X62990414Y-73834586D01*
X63281564Y-74029127D01*
X63624999Y-74097440D01*
X64275001Y-74097440D01*
X64618436Y-74029127D01*
X64909586Y-73834586D01*
X64910377Y-73833403D01*
X65065302Y-73988327D01*
X65298691Y-74085000D01*
X65714250Y-74085000D01*
X65873000Y-73926250D01*
X65873000Y-72877000D01*
X66127000Y-72877000D01*
X66127000Y-73926250D01*
X66285750Y-74085000D01*
X66701309Y-74085000D01*
X66934698Y-73988327D01*
X67113327Y-73809699D01*
X67210000Y-73576310D01*
X67210000Y-73035750D01*
X67051250Y-72877000D01*
X66127000Y-72877000D01*
X65873000Y-72877000D01*
X65853000Y-72877000D01*
X65853000Y-72623000D01*
X65873000Y-72623000D01*
X65873000Y-70727000D01*
X66127000Y-70727000D01*
X66127000Y-72623000D01*
X67051250Y-72623000D01*
X67210000Y-72464250D01*
X67210000Y-71923690D01*
X67113327Y-71690301D01*
X67098026Y-71675000D01*
X67113327Y-71659699D01*
X67210000Y-71426310D01*
X67210000Y-70885750D01*
X67051250Y-70727000D01*
X66127000Y-70727000D01*
X65873000Y-70727000D01*
X65853000Y-70727000D01*
X65853000Y-70473000D01*
X65873000Y-70473000D01*
X65873000Y-69423750D01*
X66127000Y-69423750D01*
X66127000Y-70473000D01*
X67051250Y-70473000D01*
X67210000Y-70314250D01*
X67210000Y-69773690D01*
X67113327Y-69540301D01*
X66934698Y-69361673D01*
X66701309Y-69265000D01*
X66285750Y-69265000D01*
X66127000Y-69423750D01*
X65873000Y-69423750D01*
X65714250Y-69265000D01*
X65298691Y-69265000D01*
X65065302Y-69361673D01*
X64910377Y-69516597D01*
X64909586Y-69515414D01*
X64618436Y-69320873D01*
X64275001Y-69252560D01*
X63624999Y-69252560D01*
X63281564Y-69320873D01*
X63117549Y-69430465D01*
X63092655Y-69370365D01*
X62829635Y-69107345D01*
X62485983Y-68965000D01*
X62114017Y-68965000D01*
X61770365Y-69107345D01*
X61507345Y-69370365D01*
X61365000Y-69714017D01*
X56183220Y-69714017D01*
X56092655Y-69495375D01*
X56057280Y-69460000D01*
X60187710Y-69460000D01*
X60220365Y-69492655D01*
X60564017Y-69635000D01*
X60935983Y-69635000D01*
X61279635Y-69492655D01*
X61542655Y-69229635D01*
X61685000Y-68885983D01*
X61685000Y-68710000D01*
X68290000Y-68710000D01*
X68290001Y-114290000D01*
X52107000Y-114290000D01*
X52107000Y-108234990D01*
X52910203Y-108234990D01*
X53065014Y-108389801D01*
X53065014Y-108435983D01*
X53207359Y-108779635D01*
X53470379Y-109042655D01*
X53814031Y-109185000D01*
X54185997Y-109185000D01*
X54529649Y-109042655D01*
X54586259Y-108986045D01*
X55344687Y-109744473D01*
X55387087Y-109807929D01*
X55638479Y-109975904D01*
X55860164Y-110020000D01*
X55860168Y-110020000D01*
X55935015Y-110034888D01*
X56009862Y-110020000D01*
X65321822Y-110020000D01*
X65529375Y-110330625D01*
X65547619Y-110342816D01*
X65502235Y-110351843D01*
X65292191Y-110492191D01*
X65151843Y-110702235D01*
X65102560Y-110950000D01*
X65102560Y-112650000D01*
X65151843Y-112897765D01*
X65292191Y-113107809D01*
X65502235Y-113248157D01*
X65750000Y-113297440D01*
X67450000Y-113297440D01*
X67697765Y-113248157D01*
X67907809Y-113107809D01*
X68048157Y-112897765D01*
X68097440Y-112650000D01*
X68097440Y-110950000D01*
X68048157Y-110702235D01*
X67907809Y-110492191D01*
X67697765Y-110351843D01*
X67652381Y-110342816D01*
X67670625Y-110330625D01*
X67998839Y-109839418D01*
X68114092Y-109260000D01*
X67998839Y-108680582D01*
X67670625Y-108189375D01*
X67372239Y-107990000D01*
X67670625Y-107790625D01*
X67998839Y-107299418D01*
X68114092Y-106720000D01*
X67998839Y-106140582D01*
X67670625Y-105649375D01*
X67372239Y-105450000D01*
X67670625Y-105250625D01*
X67998839Y-104759418D01*
X68114092Y-104180000D01*
X67998839Y-103600582D01*
X67670625Y-103109375D01*
X67372239Y-102910000D01*
X67670625Y-102710625D01*
X67998839Y-102219418D01*
X68114092Y-101640000D01*
X67998839Y-101060582D01*
X67670625Y-100569375D01*
X67351522Y-100356157D01*
X67481358Y-100295183D01*
X67871645Y-99866924D01*
X68041476Y-99456890D01*
X67920155Y-99227000D01*
X66727000Y-99227000D01*
X66727000Y-99247000D01*
X66473000Y-99247000D01*
X66473000Y-99227000D01*
X65279845Y-99227000D01*
X65158524Y-99456890D01*
X65328355Y-99866924D01*
X65718642Y-100295183D01*
X65848478Y-100356157D01*
X65529375Y-100569375D01*
X65201161Y-101060582D01*
X65135081Y-101392792D01*
X64685000Y-100942711D01*
X64685000Y-99042086D01*
X64703317Y-98950000D01*
X64672175Y-98793436D01*
X64662165Y-98743110D01*
X65158524Y-98743110D01*
X65279845Y-98973000D01*
X66473000Y-98973000D01*
X66473000Y-97779181D01*
X66727000Y-97779181D01*
X66727000Y-98973000D01*
X67920155Y-98973000D01*
X68041476Y-98743110D01*
X67871645Y-98333076D01*
X67481358Y-97904817D01*
X66956892Y-97658514D01*
X66727000Y-97779181D01*
X66473000Y-97779181D01*
X66243108Y-97658514D01*
X65718642Y-97904817D01*
X65328355Y-98333076D01*
X65158524Y-98743110D01*
X64662165Y-98743110D01*
X64630750Y-98585181D01*
X64424097Y-98275903D01*
X64346031Y-98223741D01*
X60741570Y-94619280D01*
X60847765Y-94598157D01*
X61057809Y-94457809D01*
X61198157Y-94247765D01*
X61247440Y-94000000D01*
X61247440Y-91660000D01*
X64885908Y-91660000D01*
X65001161Y-92239418D01*
X65329375Y-92730625D01*
X65347619Y-92742816D01*
X65302235Y-92751843D01*
X65092191Y-92892191D01*
X64951843Y-93102235D01*
X64902560Y-93350000D01*
X64902560Y-95050000D01*
X64951843Y-95297765D01*
X65092191Y-95507809D01*
X65302235Y-95648157D01*
X65550000Y-95697440D01*
X67250000Y-95697440D01*
X67497765Y-95648157D01*
X67707809Y-95507809D01*
X67848157Y-95297765D01*
X67897440Y-95050000D01*
X67897440Y-93350000D01*
X67848157Y-93102235D01*
X67707809Y-92892191D01*
X67497765Y-92751843D01*
X67452381Y-92742816D01*
X67470625Y-92730625D01*
X67798839Y-92239418D01*
X67914092Y-91660000D01*
X67798839Y-91080582D01*
X67470625Y-90589375D01*
X66979418Y-90261161D01*
X66546256Y-90175000D01*
X66253744Y-90175000D01*
X65820582Y-90261161D01*
X65329375Y-90589375D01*
X65001161Y-91080582D01*
X64885908Y-91660000D01*
X61247440Y-91660000D01*
X61247440Y-91600000D01*
X61198157Y-91352235D01*
X61057809Y-91142191D01*
X60847765Y-91001843D01*
X60760000Y-90984386D01*
X60760000Y-90747185D01*
X60950158Y-90785010D01*
X60950163Y-90785010D01*
X61025010Y-90799898D01*
X61099857Y-90785010D01*
X62538333Y-90785010D01*
X62613180Y-90799898D01*
X62688027Y-90785010D01*
X62688032Y-90785010D01*
X62909717Y-90740914D01*
X63161109Y-90572939D01*
X63203511Y-90509480D01*
X64854098Y-88858893D01*
X65060754Y-88900000D01*
X65739246Y-88900000D01*
X66077609Y-88832695D01*
X66461313Y-88576313D01*
X66717695Y-88192609D01*
X66807725Y-87740000D01*
X66717695Y-87287391D01*
X66595826Y-87105000D01*
X66717695Y-86922609D01*
X66807725Y-86470000D01*
X66717695Y-86017391D01*
X66716776Y-86016016D01*
X66785000Y-85851309D01*
X66785000Y-85485750D01*
X66626250Y-85327000D01*
X65824710Y-85327000D01*
X65739246Y-85310000D01*
X65060754Y-85310000D01*
X64975290Y-85327000D01*
X64173750Y-85327000D01*
X64015000Y-85485750D01*
X64015000Y-85851309D01*
X64041657Y-85915666D01*
X64032071Y-85922071D01*
X63989673Y-85985524D01*
X62322638Y-87652560D01*
X61777362Y-87652560D01*
X61507798Y-87382996D01*
X61598157Y-87247765D01*
X61647440Y-87000000D01*
X61647440Y-85400000D01*
X61598157Y-85152235D01*
X61457809Y-84942191D01*
X61291334Y-84830955D01*
X61573598Y-84548691D01*
X64015000Y-84548691D01*
X64015000Y-84914250D01*
X64173750Y-85073000D01*
X65273000Y-85073000D01*
X65273000Y-84198750D01*
X65527000Y-84198750D01*
X65527000Y-85073000D01*
X66626250Y-85073000D01*
X66785000Y-84914250D01*
X66785000Y-84548691D01*
X66688327Y-84315302D01*
X66509699Y-84136673D01*
X66276310Y-84040000D01*
X65685750Y-84040000D01*
X65527000Y-84198750D01*
X65273000Y-84198750D01*
X65114250Y-84040000D01*
X64523690Y-84040000D01*
X64290301Y-84136673D01*
X64111673Y-84315302D01*
X64015000Y-84548691D01*
X61573598Y-84548691D01*
X64696031Y-81426259D01*
X64774097Y-81374097D01*
X64980750Y-81064819D01*
X65035000Y-80792086D01*
X65053317Y-80700000D01*
X65035000Y-80607914D01*
X65035000Y-79817115D01*
X65148157Y-79647765D01*
X65197440Y-79400000D01*
X65197440Y-78224849D01*
X66026259Y-77396031D01*
X66092655Y-77329635D01*
X66128588Y-77242885D01*
X66180750Y-77164819D01*
X66199067Y-77072734D01*
X66235000Y-76985983D01*
X66235000Y-76892083D01*
X66253316Y-76800001D01*
X66235000Y-76707919D01*
X66235000Y-76614017D01*
X66199066Y-76527265D01*
X66180750Y-76435182D01*
X66128589Y-76357119D01*
X66092655Y-76270365D01*
X66026255Y-76203965D01*
X65974096Y-76125904D01*
X65896035Y-76073745D01*
X65829635Y-76007345D01*
X65742881Y-75971411D01*
X65664818Y-75919250D01*
X65572735Y-75900934D01*
X65485983Y-75865000D01*
X65392081Y-75865000D01*
X65299999Y-75846684D01*
X65207917Y-75865000D01*
X65114017Y-75865000D01*
X65027266Y-75900933D01*
X64935181Y-75919250D01*
X64857115Y-75971412D01*
X64770365Y-76007345D01*
X64703969Y-76073741D01*
X63503970Y-77273741D01*
X63425904Y-77325903D01*
X63373742Y-77403969D01*
X63373741Y-77403970D01*
X63219250Y-77635182D01*
X63198850Y-77737742D01*
X63192191Y-77742191D01*
X63051843Y-77952235D01*
X63002560Y-78200000D01*
X63002560Y-79400000D01*
X63051843Y-79647765D01*
X63165001Y-79817116D01*
X63165001Y-80312709D01*
X59603972Y-83873739D01*
X59525903Y-83925903D01*
X59343593Y-84198750D01*
X59319250Y-84235182D01*
X59246683Y-84600000D01*
X59265000Y-84692086D01*
X59265000Y-84779413D01*
X59152235Y-84801843D01*
X58942191Y-84942191D01*
X58801843Y-85152235D01*
X58755307Y-85386187D01*
X58707745Y-85371861D01*
X57879605Y-86200000D01*
X57893748Y-86214142D01*
X57714142Y-86393748D01*
X57700000Y-86379605D01*
X57685858Y-86393748D01*
X57506252Y-86214142D01*
X57520395Y-86200000D01*
X56692255Y-85371861D01*
X56446136Y-85445995D01*
X56327065Y-85777264D01*
X56315331Y-85765530D01*
X56272929Y-85702071D01*
X56249900Y-85686684D01*
X56204127Y-85456564D01*
X56027521Y-85192255D01*
X56871861Y-85192255D01*
X57700000Y-86020395D01*
X58528139Y-85192255D01*
X58454005Y-84946136D01*
X57916777Y-84753035D01*
X57346546Y-84780222D01*
X56945995Y-84946136D01*
X56871861Y-85192255D01*
X56027521Y-85192255D01*
X56009586Y-85165414D01*
X55836455Y-85049731D01*
X55984698Y-84988327D01*
X56163327Y-84809699D01*
X56260000Y-84576310D01*
X56260000Y-84035750D01*
X56101250Y-83877000D01*
X55177000Y-83877000D01*
X55177000Y-83897000D01*
X54923000Y-83897000D01*
X54923000Y-83877000D01*
X54903000Y-83877000D01*
X54903000Y-83623000D01*
X54923000Y-83623000D01*
X54923000Y-82573750D01*
X55177000Y-82573750D01*
X55177000Y-83623000D01*
X56101250Y-83623000D01*
X56260000Y-83464250D01*
X56260000Y-82923690D01*
X56163327Y-82690301D01*
X55984698Y-82511673D01*
X55751309Y-82415000D01*
X55335750Y-82415000D01*
X55177000Y-82573750D01*
X54923000Y-82573750D01*
X54764250Y-82415000D01*
X54348691Y-82415000D01*
X54115302Y-82511673D01*
X53960377Y-82666597D01*
X53959586Y-82665414D01*
X53668436Y-82470873D01*
X53325001Y-82402560D01*
X52674999Y-82402560D01*
X52331564Y-82470873D01*
X52040414Y-82665414D01*
X51845873Y-82956564D01*
X51777560Y-83299999D01*
X51777560Y-84200001D01*
X51845873Y-84543436D01*
X52040414Y-84834586D01*
X52240001Y-84967946D01*
X52240000Y-85032054D01*
X52040414Y-85165414D01*
X51859378Y-85436352D01*
X51809699Y-85386673D01*
X51576310Y-85290000D01*
X51035750Y-85290000D01*
X50877000Y-85448750D01*
X50877000Y-86373000D01*
X50897000Y-86373000D01*
X50897000Y-86627000D01*
X50877000Y-86627000D01*
X50877000Y-86640010D01*
X50623000Y-86640010D01*
X50623000Y-86627000D01*
X50603000Y-86627000D01*
X50603000Y-86373000D01*
X50623000Y-86373000D01*
X50623000Y-85448750D01*
X50464250Y-85290000D01*
X49923690Y-85290000D01*
X49690301Y-85386673D01*
X49555797Y-85521178D01*
X49293436Y-85345873D01*
X48950001Y-85277560D01*
X48049999Y-85277560D01*
X47706564Y-85345873D01*
X47415414Y-85540414D01*
X47222440Y-85829219D01*
X47222440Y-85799999D01*
X47154127Y-85456564D01*
X46959586Y-85165414D01*
X46668436Y-84970873D01*
X46325001Y-84902560D01*
X45674999Y-84902560D01*
X45546727Y-84928075D01*
X45884473Y-84590329D01*
X45947929Y-84547929D01*
X46103366Y-84315302D01*
X46115904Y-84296538D01*
X46147703Y-84136673D01*
X46160000Y-84074852D01*
X46160000Y-84074848D01*
X46174888Y-84000000D01*
X46160000Y-83925152D01*
X46160000Y-82882290D01*
X46423742Y-83146032D01*
X46475904Y-83224098D01*
X46553970Y-83276260D01*
X46785182Y-83430751D01*
X47150000Y-83503318D01*
X47242086Y-83485001D01*
X50507913Y-83485001D01*
X50599999Y-83503318D01*
X50692085Y-83485001D01*
X50964818Y-83430751D01*
X51274096Y-83224098D01*
X51326260Y-83146029D01*
X54565498Y-79906792D01*
X54702235Y-79998157D01*
X54950000Y-80047440D01*
X55850000Y-80047440D01*
X56097765Y-79998157D01*
X56307809Y-79857809D01*
X56448157Y-79647765D01*
X56497440Y-79400000D01*
X56497440Y-78200000D01*
X57602560Y-78200000D01*
X57602560Y-79400000D01*
X57651843Y-79647765D01*
X57792191Y-79857809D01*
X58002235Y-79998157D01*
X58250000Y-80047440D01*
X59150000Y-80047440D01*
X59397765Y-79998157D01*
X59607809Y-79857809D01*
X59689868Y-79735000D01*
X59810132Y-79735000D01*
X59892191Y-79857809D01*
X60102235Y-79998157D01*
X60350000Y-80047440D01*
X61250000Y-80047440D01*
X61497765Y-79998157D01*
X61707809Y-79857809D01*
X61848157Y-79647765D01*
X61897440Y-79400000D01*
X61897440Y-78200000D01*
X61848157Y-77952235D01*
X61707809Y-77742191D01*
X61497765Y-77601843D01*
X61250000Y-77552560D01*
X60350000Y-77552560D01*
X60102235Y-77601843D01*
X59892191Y-77742191D01*
X59810132Y-77865000D01*
X59689868Y-77865000D01*
X59607809Y-77742191D01*
X59397765Y-77601843D01*
X59150000Y-77552560D01*
X58250000Y-77552560D01*
X58002235Y-77601843D01*
X57792191Y-77742191D01*
X57651843Y-77952235D01*
X57602560Y-78200000D01*
X56497440Y-78200000D01*
X56448157Y-77952235D01*
X56307809Y-77742191D01*
X56097765Y-77601843D01*
X55850000Y-77552560D01*
X54950000Y-77552560D01*
X54702235Y-77601843D01*
X54492191Y-77742191D01*
X54413880Y-77859391D01*
X54349999Y-77846684D01*
X54257917Y-77865000D01*
X54257914Y-77865000D01*
X53985181Y-77919250D01*
X53675903Y-78125903D01*
X53623741Y-78203969D01*
X50212710Y-81615001D01*
X47537291Y-81615001D01*
X46126261Y-80203972D01*
X46074097Y-80125903D01*
X45764819Y-79919250D01*
X45492086Y-79865000D01*
X45400000Y-79846683D01*
X45307914Y-79865000D01*
X39987290Y-79865000D01*
X39373807Y-79251517D01*
X39978088Y-79251517D01*
X40046077Y-79492460D01*
X40565171Y-79677201D01*
X41115448Y-79649230D01*
X41493923Y-79492460D01*
X41561912Y-79251517D01*
X40770000Y-78459605D01*
X39978088Y-79251517D01*
X39373807Y-79251517D01*
X38735000Y-78612711D01*
X38735000Y-77836641D01*
X38752235Y-77848157D01*
X39000000Y-77897440D01*
X39436052Y-77897440D01*
X39372799Y-78075171D01*
X39400770Y-78625448D01*
X39557540Y-79003923D01*
X39798483Y-79071912D01*
X40590395Y-78280000D01*
X40576253Y-78265858D01*
X40755858Y-78086253D01*
X40770000Y-78100395D01*
X40784143Y-78086253D01*
X40963748Y-78265858D01*
X40949605Y-78280000D01*
X41566350Y-78896745D01*
X41635853Y-79064540D01*
X42025460Y-79454147D01*
X42534506Y-79665000D01*
X43085494Y-79665000D01*
X43594540Y-79454147D01*
X43830000Y-79218687D01*
X44065460Y-79454147D01*
X44574506Y-79665000D01*
X45125494Y-79665000D01*
X45634540Y-79454147D01*
X45870000Y-79218687D01*
X46105460Y-79454147D01*
X46614506Y-79665000D01*
X47165494Y-79665000D01*
X47674540Y-79454147D01*
X48064147Y-79064540D01*
X48275000Y-78555494D01*
X48275000Y-78004506D01*
X48064147Y-77495460D01*
X47674540Y-77105853D01*
X47199641Y-76909144D01*
X47255000Y-76775494D01*
X47255000Y-76224506D01*
X47044147Y-75715460D01*
X46654540Y-75325853D01*
X46145494Y-75115000D01*
X45594506Y-75115000D01*
X45085460Y-75325853D01*
X44850000Y-75561313D01*
X44614540Y-75325853D01*
X44105494Y-75115000D01*
X43554506Y-75115000D01*
X43045460Y-75325853D01*
X42810000Y-75561313D01*
X42574540Y-75325853D01*
X42065494Y-75115000D01*
X41514506Y-75115000D01*
X41005460Y-75325853D01*
X40990379Y-75340934D01*
X40957809Y-75292191D01*
X40747765Y-75151843D01*
X40500000Y-75102560D01*
X39000000Y-75102560D01*
X38926921Y-75117096D01*
X39220000Y-74409542D01*
X39220000Y-73510458D01*
X47400000Y-73510458D01*
X47400000Y-74409542D01*
X47744065Y-75240187D01*
X48379813Y-75875935D01*
X49210458Y-76220000D01*
X50109542Y-76220000D01*
X50430852Y-76086909D01*
X50053914Y-76463847D01*
X49805000Y-77064778D01*
X49805000Y-77715222D01*
X50053914Y-78316153D01*
X50513847Y-78776086D01*
X51114778Y-79025000D01*
X51765222Y-79025000D01*
X52366153Y-78776086D01*
X52826086Y-78316153D01*
X53075000Y-77715222D01*
X53075000Y-77064778D01*
X52907335Y-76660000D01*
X53314250Y-76660000D01*
X53473000Y-76501250D01*
X53473000Y-75577000D01*
X53727000Y-75577000D01*
X53727000Y-76501250D01*
X53885750Y-76660000D01*
X54426310Y-76660000D01*
X54659699Y-76563327D01*
X54838327Y-76384698D01*
X54935000Y-76151309D01*
X54935000Y-75735750D01*
X54776250Y-75577000D01*
X53727000Y-75577000D01*
X53473000Y-75577000D01*
X52423750Y-75577000D01*
X52265000Y-75735750D01*
X52265000Y-75962015D01*
X51765222Y-75755000D01*
X51114778Y-75755000D01*
X51023181Y-75792941D01*
X51575935Y-75240187D01*
X51920000Y-74409542D01*
X51920000Y-73510458D01*
X51575935Y-72679813D01*
X50940187Y-72044065D01*
X50109542Y-71700000D01*
X49210458Y-71700000D01*
X48379813Y-72044065D01*
X47744065Y-72679813D01*
X47400000Y-73510458D01*
X39220000Y-73510458D01*
X38875935Y-72679813D01*
X38240187Y-72044065D01*
X37409542Y-71700000D01*
X36510458Y-71700000D01*
X35679813Y-72044065D01*
X35044065Y-72679813D01*
X34700000Y-73510458D01*
X34700000Y-74409542D01*
X35044065Y-75240187D01*
X35596819Y-75792941D01*
X35505222Y-75755000D01*
X34854778Y-75755000D01*
X34253847Y-76003914D01*
X33793914Y-76463847D01*
X33545000Y-77064778D01*
X33545000Y-77715222D01*
X33793914Y-78316153D01*
X34253847Y-78776086D01*
X34854778Y-79025000D01*
X35505222Y-79025000D01*
X36106153Y-78776086D01*
X36566086Y-78316153D01*
X36815000Y-77715222D01*
X36815000Y-77064778D01*
X36566086Y-76463847D01*
X36189148Y-76086909D01*
X36510458Y-76220000D01*
X37357711Y-76220000D01*
X37203972Y-76373739D01*
X37125903Y-76425903D01*
X37000210Y-76614017D01*
X36919250Y-76735182D01*
X36846683Y-77100000D01*
X36865000Y-77192086D01*
X36865001Y-78907910D01*
X36846683Y-79000000D01*
X36919250Y-79364818D01*
X36919251Y-79364819D01*
X37125904Y-79674097D01*
X37203970Y-79726259D01*
X38873740Y-81396030D01*
X38925903Y-81474097D01*
X39235181Y-81680750D01*
X39507914Y-81735000D01*
X39507918Y-81735000D01*
X39599999Y-81753316D01*
X39692080Y-81735000D01*
X44640001Y-81735000D01*
X44640000Y-83685198D01*
X43465528Y-84859671D01*
X43402072Y-84902071D01*
X43367525Y-84953774D01*
X43281564Y-84970873D01*
X42990414Y-85165414D01*
X42795873Y-85456564D01*
X42727560Y-85799999D01*
X42727560Y-86700001D01*
X42795873Y-87043436D01*
X42931408Y-87246278D01*
X42707321Y-87470365D01*
X42564976Y-87814017D01*
X42564976Y-88185983D01*
X42707321Y-88529635D01*
X42739977Y-88562291D01*
X42739976Y-98685222D01*
X41558079Y-99867119D01*
X41548157Y-99817235D01*
X41489868Y-99730000D01*
X41548157Y-99642765D01*
X41597440Y-99395000D01*
X41597440Y-98795000D01*
X41548157Y-98547235D01*
X41489868Y-98460000D01*
X41548157Y-98372765D01*
X41597440Y-98125000D01*
X41597440Y-97525000D01*
X41548157Y-97277235D01*
X41489868Y-97190000D01*
X41548157Y-97102765D01*
X41597440Y-96855000D01*
X41597440Y-96255000D01*
X41583516Y-96185000D01*
X41935995Y-96185000D01*
X42279647Y-96042655D01*
X42542667Y-95779635D01*
X42685012Y-95435983D01*
X42685012Y-95064017D01*
X42542667Y-94720365D01*
X42279647Y-94457345D01*
X41935995Y-94315000D01*
X41597440Y-94315000D01*
X41597440Y-93715000D01*
X41548157Y-93467235D01*
X41512320Y-93413601D01*
X41563981Y-93435000D01*
X41935947Y-93435000D01*
X42279599Y-93292655D01*
X42542619Y-93029635D01*
X42684964Y-92685983D01*
X42684964Y-92314017D01*
X42542619Y-91970365D01*
X42279599Y-91707345D01*
X41935947Y-91565000D01*
X41814802Y-91565000D01*
X41597440Y-91347639D01*
X41597440Y-91175000D01*
X41548157Y-90927235D01*
X41407809Y-90717191D01*
X41197765Y-90576843D01*
X40950000Y-90527560D01*
X39710000Y-90527560D01*
X39710000Y-90217946D01*
X39909586Y-90084586D01*
X39910377Y-90083403D01*
X40065302Y-90238327D01*
X40298691Y-90335000D01*
X40714250Y-90335000D01*
X40873000Y-90176250D01*
X40873000Y-89127000D01*
X41127000Y-89127000D01*
X41127000Y-90176250D01*
X41285750Y-90335000D01*
X41701309Y-90335000D01*
X41934698Y-90238327D01*
X42113327Y-90059699D01*
X42210000Y-89826310D01*
X42210000Y-89285750D01*
X42051250Y-89127000D01*
X41127000Y-89127000D01*
X40873000Y-89127000D01*
X40853000Y-89127000D01*
X40853000Y-88873000D01*
X40873000Y-88873000D01*
X40873000Y-87823750D01*
X41127000Y-87823750D01*
X41127000Y-88873000D01*
X42051250Y-88873000D01*
X42210000Y-88714250D01*
X42210000Y-88173690D01*
X42113327Y-87940301D01*
X41934698Y-87761673D01*
X41701309Y-87665000D01*
X41285750Y-87665000D01*
X41127000Y-87823750D01*
X40873000Y-87823750D01*
X40714250Y-87665000D01*
X40298691Y-87665000D01*
X40065302Y-87761673D01*
X39910377Y-87916597D01*
X39909586Y-87915414D01*
X39618436Y-87720873D01*
X39275001Y-87652560D01*
X38624999Y-87652560D01*
X38592624Y-87659000D01*
X38685000Y-87435983D01*
X38685000Y-87064017D01*
X38542655Y-86720365D01*
X38279635Y-86457345D01*
X37935983Y-86315000D01*
X37564017Y-86315000D01*
X37220365Y-86457345D01*
X36957345Y-86720365D01*
X36815000Y-87064017D01*
X36815000Y-87360198D01*
X36772638Y-87402560D01*
X36174999Y-87402560D01*
X35831564Y-87470873D01*
X35540414Y-87665414D01*
X35475000Y-87763313D01*
X35409586Y-87665414D01*
X35118436Y-87470873D01*
X34775001Y-87402560D01*
X34124999Y-87402560D01*
X33781564Y-87470873D01*
X33490414Y-87665414D01*
X33295873Y-87956564D01*
X33227560Y-88299999D01*
X33227560Y-88897638D01*
X32710000Y-89415199D01*
X32710000Y-68710000D01*
X52335282Y-68710000D01*
X52320873Y-68731564D01*
G36*
X34577000Y-96623000D02*
X34597000Y-96623000D01*
X34597000Y-96877000D01*
X34577000Y-96877000D01*
X34577000Y-97926250D01*
X34675750Y-98025000D01*
X34627000Y-98073750D01*
X34627000Y-99123000D01*
X34647000Y-99123000D01*
X34647000Y-99377000D01*
X34627000Y-99377000D01*
X34627000Y-100426250D01*
X34785750Y-100585000D01*
X35201309Y-100585000D01*
X35434698Y-100488327D01*
X35589623Y-100333403D01*
X35590414Y-100334586D01*
X35881564Y-100529127D01*
X36224999Y-100597440D01*
X36779709Y-100597440D01*
X36756878Y-100652560D01*
X36224999Y-100652560D01*
X35881564Y-100720873D01*
X35590414Y-100915414D01*
X35589623Y-100916597D01*
X35434698Y-100761673D01*
X35201309Y-100665000D01*
X34785750Y-100665000D01*
X34627000Y-100823750D01*
X34627000Y-101873000D01*
X34647000Y-101873000D01*
X34647000Y-102127000D01*
X34627000Y-102127000D01*
X34627000Y-103176250D01*
X34785750Y-103335000D01*
X35201309Y-103335000D01*
X35434698Y-103238327D01*
X35589623Y-103083403D01*
X35590414Y-103084586D01*
X35881564Y-103279127D01*
X36224999Y-103347440D01*
X36875001Y-103347440D01*
X37218436Y-103279127D01*
X37509586Y-103084586D01*
X37704127Y-102793436D01*
X37710778Y-102760000D01*
X39005153Y-102760000D01*
X39080000Y-102774888D01*
X39127560Y-102765428D01*
X39127560Y-103670000D01*
X39129605Y-103680282D01*
X39042655Y-103470365D01*
X38779635Y-103207345D01*
X38435983Y-103065000D01*
X38064017Y-103065000D01*
X37720365Y-103207345D01*
X37457345Y-103470365D01*
X37315000Y-103814017D01*
X37315000Y-104185983D01*
X37457345Y-104529635D01*
X37491847Y-104564137D01*
X37534096Y-104776537D01*
X37702072Y-105027929D01*
X37765528Y-105070329D01*
X38477560Y-105782362D01*
X38477560Y-106330000D01*
X38526843Y-106577765D01*
X38667191Y-106787809D01*
X38877235Y-106928157D01*
X39125000Y-106977440D01*
X39147638Y-106977440D01*
X39309672Y-107139474D01*
X39352072Y-107202930D01*
X39603464Y-107370905D01*
X39825149Y-107415001D01*
X39825154Y-107415001D01*
X39900001Y-107429889D01*
X39974848Y-107415001D01*
X41545152Y-107415001D01*
X41619999Y-107429889D01*
X41694846Y-107415001D01*
X41694851Y-107415001D01*
X41916536Y-107370905D01*
X42167928Y-107202930D01*
X42210330Y-107139471D01*
X42655145Y-106694656D01*
X42676947Y-106709224D01*
X42734097Y-106996537D01*
X42855650Y-107178453D01*
X42902072Y-107247929D01*
X42965527Y-107290329D01*
X43329797Y-107654599D01*
X32710000Y-107632010D01*
X32710000Y-102285750D01*
X33290000Y-102285750D01*
X33290000Y-102826310D01*
X33386673Y-103059699D01*
X33565302Y-103238327D01*
X33798691Y-103335000D01*
X34214250Y-103335000D01*
X34373000Y-103176250D01*
X34373000Y-102127000D01*
X33448750Y-102127000D01*
X33290000Y-102285750D01*
X32710000Y-102285750D01*
X32710000Y-101173690D01*
X33290000Y-101173690D01*
X33290000Y-101714250D01*
X33448750Y-101873000D01*
X34373000Y-101873000D01*
X34373000Y-100823750D01*
X34214250Y-100665000D01*
X33798691Y-100665000D01*
X33565302Y-100761673D01*
X33386673Y-100940301D01*
X33290000Y-101173690D01*
X32710000Y-101173690D01*
X32710000Y-99535750D01*
X33290000Y-99535750D01*
X33290000Y-100076310D01*
X33386673Y-100309699D01*
X33565302Y-100488327D01*
X33798691Y-100585000D01*
X34214250Y-100585000D01*
X34373000Y-100426250D01*
X34373000Y-99377000D01*
X33448750Y-99377000D01*
X33290000Y-99535750D01*
X32710000Y-99535750D01*
X32710000Y-96782290D01*
X32720365Y-96792655D01*
X33064017Y-96935000D01*
X33340750Y-96935000D01*
X33240000Y-97035750D01*
X33240000Y-97576310D01*
X33336673Y-97809699D01*
X33515302Y-97988327D01*
X33568483Y-98010355D01*
X33565302Y-98011673D01*
X33386673Y-98190301D01*
X33290000Y-98423690D01*
X33290000Y-98964250D01*
X33448750Y-99123000D01*
X34373000Y-99123000D01*
X34373000Y-98073750D01*
X34274250Y-97975000D01*
X34323000Y-97926250D01*
X34323000Y-96877000D01*
X34303000Y-96877000D01*
X34303000Y-96623000D01*
X34323000Y-96623000D01*
X34323000Y-96603000D01*
X34577000Y-96603000D01*
X34577000Y-96623000D01*
X34577000Y-96623000D01*
G37*
X34577000Y-96623000D02*
X34597000Y-96623000D01*
X34597000Y-96877000D01*
X34577000Y-96877000D01*
X34577000Y-97926250D01*
X34675750Y-98025000D01*
X34627000Y-98073750D01*
X34627000Y-99123000D01*
X34647000Y-99123000D01*
X34647000Y-99377000D01*
X34627000Y-99377000D01*
X34627000Y-100426250D01*
X34785750Y-100585000D01*
X35201309Y-100585000D01*
X35434698Y-100488327D01*
X35589623Y-100333403D01*
X35590414Y-100334586D01*
X35881564Y-100529127D01*
X36224999Y-100597440D01*
X36779709Y-100597440D01*
X36756878Y-100652560D01*
X36224999Y-100652560D01*
X35881564Y-100720873D01*
X35590414Y-100915414D01*
X35589623Y-100916597D01*
X35434698Y-100761673D01*
X35201309Y-100665000D01*
X34785750Y-100665000D01*
X34627000Y-100823750D01*
X34627000Y-101873000D01*
X34647000Y-101873000D01*
X34647000Y-102127000D01*
X34627000Y-102127000D01*
X34627000Y-103176250D01*
X34785750Y-103335000D01*
X35201309Y-103335000D01*
X35434698Y-103238327D01*
X35589623Y-103083403D01*
X35590414Y-103084586D01*
X35881564Y-103279127D01*
X36224999Y-103347440D01*
X36875001Y-103347440D01*
X37218436Y-103279127D01*
X37509586Y-103084586D01*
X37704127Y-102793436D01*
X37710778Y-102760000D01*
X39005153Y-102760000D01*
X39080000Y-102774888D01*
X39127560Y-102765428D01*
X39127560Y-103670000D01*
X39129605Y-103680282D01*
X39042655Y-103470365D01*
X38779635Y-103207345D01*
X38435983Y-103065000D01*
X38064017Y-103065000D01*
X37720365Y-103207345D01*
X37457345Y-103470365D01*
X37315000Y-103814017D01*
X37315000Y-104185983D01*
X37457345Y-104529635D01*
X37491847Y-104564137D01*
X37534096Y-104776537D01*
X37702072Y-105027929D01*
X37765528Y-105070329D01*
X38477560Y-105782362D01*
X38477560Y-106330000D01*
X38526843Y-106577765D01*
X38667191Y-106787809D01*
X38877235Y-106928157D01*
X39125000Y-106977440D01*
X39147638Y-106977440D01*
X39309672Y-107139474D01*
X39352072Y-107202930D01*
X39603464Y-107370905D01*
X39825149Y-107415001D01*
X39825154Y-107415001D01*
X39900001Y-107429889D01*
X39974848Y-107415001D01*
X41545152Y-107415001D01*
X41619999Y-107429889D01*
X41694846Y-107415001D01*
X41694851Y-107415001D01*
X41916536Y-107370905D01*
X42167928Y-107202930D01*
X42210330Y-107139471D01*
X42655145Y-106694656D01*
X42676947Y-106709224D01*
X42734097Y-106996537D01*
X42855650Y-107178453D01*
X42902072Y-107247929D01*
X42965527Y-107290329D01*
X43329797Y-107654599D01*
X32710000Y-107632010D01*
X32710000Y-102285750D01*
X33290000Y-102285750D01*
X33290000Y-102826310D01*
X33386673Y-103059699D01*
X33565302Y-103238327D01*
X33798691Y-103335000D01*
X34214250Y-103335000D01*
X34373000Y-103176250D01*
X34373000Y-102127000D01*
X33448750Y-102127000D01*
X33290000Y-102285750D01*
X32710000Y-102285750D01*
X32710000Y-101173690D01*
X33290000Y-101173690D01*
X33290000Y-101714250D01*
X33448750Y-101873000D01*
X34373000Y-101873000D01*
X34373000Y-100823750D01*
X34214250Y-100665000D01*
X33798691Y-100665000D01*
X33565302Y-100761673D01*
X33386673Y-100940301D01*
X33290000Y-101173690D01*
X32710000Y-101173690D01*
X32710000Y-99535750D01*
X33290000Y-99535750D01*
X33290000Y-100076310D01*
X33386673Y-100309699D01*
X33565302Y-100488327D01*
X33798691Y-100585000D01*
X34214250Y-100585000D01*
X34373000Y-100426250D01*
X34373000Y-99377000D01*
X33448750Y-99377000D01*
X33290000Y-99535750D01*
X32710000Y-99535750D01*
X32710000Y-96782290D01*
X32720365Y-96792655D01*
X33064017Y-96935000D01*
X33340750Y-96935000D01*
X33240000Y-97035750D01*
X33240000Y-97576310D01*
X33336673Y-97809699D01*
X33515302Y-97988327D01*
X33568483Y-98010355D01*
X33565302Y-98011673D01*
X33386673Y-98190301D01*
X33290000Y-98423690D01*
X33290000Y-98964250D01*
X33448750Y-99123000D01*
X34373000Y-99123000D01*
X34373000Y-98073750D01*
X34274250Y-97975000D01*
X34323000Y-97926250D01*
X34323000Y-96877000D01*
X34303000Y-96877000D01*
X34303000Y-96623000D01*
X34323000Y-96623000D01*
X34323000Y-96603000D01*
X34577000Y-96603000D01*
X34577000Y-96623000D01*
G36*
X60990000Y-103818149D02*
X60984788Y-103805565D01*
X60697175Y-103682430D01*
X59579605Y-104800000D01*
X60697175Y-105917570D01*
X60984788Y-105794435D01*
X60990000Y-105780755D01*
X60990000Y-106937710D01*
X60957345Y-106970365D01*
X60815000Y-107314017D01*
X60815000Y-107490000D01*
X58739803Y-107490000D01*
X58411046Y-107161244D01*
X58542655Y-107029635D01*
X58685000Y-106685983D01*
X58685000Y-106491258D01*
X59087734Y-106644707D01*
X59817443Y-106623786D01*
X60394435Y-106384788D01*
X60517570Y-106097175D01*
X59400000Y-104979605D01*
X59385858Y-104993748D01*
X59206253Y-104814143D01*
X59220395Y-104800000D01*
X59206253Y-104785858D01*
X59385858Y-104606253D01*
X59400000Y-104620395D01*
X60517570Y-103502825D01*
X60394435Y-103215212D01*
X59712266Y-102955293D01*
X58982557Y-102976214D01*
X58510000Y-103171954D01*
X58510000Y-101364801D01*
X59677362Y-100197440D01*
X60000000Y-100197440D01*
X60012106Y-100195032D01*
X60049009Y-100195032D01*
X60175318Y-100182592D01*
X60271451Y-100163470D01*
X60392904Y-100126628D01*
X60483460Y-100089119D01*
X60595397Y-100029287D01*
X60676896Y-99974831D01*
X60775006Y-99894314D01*
X60844314Y-99825006D01*
X60924831Y-99726896D01*
X60979287Y-99645397D01*
X60990001Y-99625353D01*
X60990000Y-103818149D01*
X60990000Y-103818149D01*
G37*
X60990000Y-103818149D02*
X60984788Y-103805565D01*
X60697175Y-103682430D01*
X59579605Y-104800000D01*
X60697175Y-105917570D01*
X60984788Y-105794435D01*
X60990000Y-105780755D01*
X60990000Y-106937710D01*
X60957345Y-106970365D01*
X60815000Y-107314017D01*
X60815000Y-107490000D01*
X58739803Y-107490000D01*
X58411046Y-107161244D01*
X58542655Y-107029635D01*
X58685000Y-106685983D01*
X58685000Y-106491258D01*
X59087734Y-106644707D01*
X59817443Y-106623786D01*
X60394435Y-106384788D01*
X60517570Y-106097175D01*
X59400000Y-104979605D01*
X59385858Y-104993748D01*
X59206253Y-104814143D01*
X59220395Y-104800000D01*
X59206253Y-104785858D01*
X59385858Y-104606253D01*
X59400000Y-104620395D01*
X60517570Y-103502825D01*
X60394435Y-103215212D01*
X59712266Y-102955293D01*
X58982557Y-102976214D01*
X58510000Y-103171954D01*
X58510000Y-101364801D01*
X59677362Y-100197440D01*
X60000000Y-100197440D01*
X60012106Y-100195032D01*
X60049009Y-100195032D01*
X60175318Y-100182592D01*
X60271451Y-100163470D01*
X60392904Y-100126628D01*
X60483460Y-100089119D01*
X60595397Y-100029287D01*
X60676896Y-99974831D01*
X60775006Y-99894314D01*
X60844314Y-99825006D01*
X60924831Y-99726896D01*
X60979287Y-99645397D01*
X60990001Y-99625353D01*
X60990000Y-103818149D01*
G36*
X56990001Y-105740199D02*
X56047813Y-104798011D01*
X56182809Y-104707809D01*
X56323157Y-104497765D01*
X56372440Y-104250000D01*
X56372440Y-102750000D01*
X56323157Y-102502235D01*
X56208613Y-102330809D01*
X56468436Y-102279127D01*
X56759586Y-102084586D01*
X56954127Y-101793436D01*
X56990000Y-101613088D01*
X56990001Y-105740199D01*
X56990001Y-105740199D01*
G37*
X56990001Y-105740199D02*
X56047813Y-104798011D01*
X56182809Y-104707809D01*
X56323157Y-104497765D01*
X56372440Y-104250000D01*
X56372440Y-102750000D01*
X56323157Y-102502235D01*
X56208613Y-102330809D01*
X56468436Y-102279127D01*
X56759586Y-102084586D01*
X56954127Y-101793436D01*
X56990000Y-101613088D01*
X56990001Y-105740199D01*
G36*
X47777560Y-98950001D02*
X47845873Y-99293436D01*
X48040414Y-99584586D01*
X48100898Y-99625000D01*
X48040414Y-99665414D01*
X47845873Y-99956564D01*
X47777560Y-100299999D01*
X47777560Y-100897639D01*
X47748744Y-100926454D01*
X47529635Y-100707345D01*
X47185983Y-100565000D01*
X46997440Y-100565000D01*
X46997440Y-100065000D01*
X46948157Y-99817235D01*
X46895232Y-99738028D01*
X46985000Y-99521310D01*
X46985000Y-99380750D01*
X46826250Y-99222000D01*
X45727000Y-99222000D01*
X45727000Y-99242000D01*
X45473000Y-99242000D01*
X45473000Y-99222000D01*
X45453000Y-99222000D01*
X45453000Y-98968000D01*
X45473000Y-98968000D01*
X45473000Y-98948000D01*
X45727000Y-98948000D01*
X45727000Y-98968000D01*
X46826250Y-98968000D01*
X46985000Y-98809250D01*
X46985000Y-98668690D01*
X46950334Y-98585000D01*
X47777560Y-98585000D01*
X47777560Y-98950001D01*
X47777560Y-98950001D01*
G37*
X47777560Y-98950001D02*
X47845873Y-99293436D01*
X48040414Y-99584586D01*
X48100898Y-99625000D01*
X48040414Y-99665414D01*
X47845873Y-99956564D01*
X47777560Y-100299999D01*
X47777560Y-100897639D01*
X47748744Y-100926454D01*
X47529635Y-100707345D01*
X47185983Y-100565000D01*
X46997440Y-100565000D01*
X46997440Y-100065000D01*
X46948157Y-99817235D01*
X46895232Y-99738028D01*
X46985000Y-99521310D01*
X46985000Y-99380750D01*
X46826250Y-99222000D01*
X45727000Y-99222000D01*
X45727000Y-99242000D01*
X45473000Y-99242000D01*
X45473000Y-99222000D01*
X45453000Y-99222000D01*
X45453000Y-98968000D01*
X45473000Y-98968000D01*
X45473000Y-98948000D01*
X45727000Y-98948000D01*
X45727000Y-98968000D01*
X46826250Y-98968000D01*
X46985000Y-98809250D01*
X46985000Y-98668690D01*
X46950334Y-98585000D01*
X47777560Y-98585000D01*
X47777560Y-98950001D01*
G36*
X51177000Y-93873000D02*
X51197000Y-93873000D01*
X51197000Y-94127000D01*
X51177000Y-94127000D01*
X51177000Y-96123000D01*
X51197000Y-96123000D01*
X51197000Y-96377000D01*
X51177000Y-96377000D01*
X51177000Y-98373000D01*
X52101250Y-98373000D01*
X52260000Y-98214250D01*
X52260000Y-97673690D01*
X52163327Y-97440301D01*
X52098026Y-97375000D01*
X52163327Y-97309699D01*
X52199421Y-97222561D01*
X52345365Y-97368505D01*
X52540000Y-97449125D01*
X52540000Y-97714250D01*
X52698750Y-97873000D01*
X53623000Y-97873000D01*
X53623000Y-97853000D01*
X53877000Y-97853000D01*
X53877000Y-97873000D01*
X53897000Y-97873000D01*
X53897000Y-98127000D01*
X53877000Y-98127000D01*
X53877000Y-98147000D01*
X53623000Y-98147000D01*
X53623000Y-98127000D01*
X52698750Y-98127000D01*
X52540000Y-98285750D01*
X52540000Y-98826310D01*
X52549926Y-98850273D01*
X52260000Y-99140198D01*
X52260000Y-98785750D01*
X52101250Y-98627000D01*
X51177000Y-98627000D01*
X51177000Y-98647000D01*
X50923000Y-98647000D01*
X50923000Y-98627000D01*
X50903000Y-98627000D01*
X50903000Y-98373000D01*
X50923000Y-98373000D01*
X50923000Y-96377000D01*
X50903000Y-96377000D01*
X50903000Y-96123000D01*
X50923000Y-96123000D01*
X50923000Y-94127000D01*
X50903000Y-94127000D01*
X50903000Y-93873000D01*
X50923000Y-93873000D01*
X50923000Y-93853000D01*
X51177000Y-93853000D01*
X51177000Y-93873000D01*
X51177000Y-93873000D01*
G37*
X51177000Y-93873000D02*
X51197000Y-93873000D01*
X51197000Y-94127000D01*
X51177000Y-94127000D01*
X51177000Y-96123000D01*
X51197000Y-96123000D01*
X51197000Y-96377000D01*
X51177000Y-96377000D01*
X51177000Y-98373000D01*
X52101250Y-98373000D01*
X52260000Y-98214250D01*
X52260000Y-97673690D01*
X52163327Y-97440301D01*
X52098026Y-97375000D01*
X52163327Y-97309699D01*
X52199421Y-97222561D01*
X52345365Y-97368505D01*
X52540000Y-97449125D01*
X52540000Y-97714250D01*
X52698750Y-97873000D01*
X53623000Y-97873000D01*
X53623000Y-97853000D01*
X53877000Y-97853000D01*
X53877000Y-97873000D01*
X53897000Y-97873000D01*
X53897000Y-98127000D01*
X53877000Y-98127000D01*
X53877000Y-98147000D01*
X53623000Y-98147000D01*
X53623000Y-98127000D01*
X52698750Y-98127000D01*
X52540000Y-98285750D01*
X52540000Y-98826310D01*
X52549926Y-98850273D01*
X52260000Y-99140198D01*
X52260000Y-98785750D01*
X52101250Y-98627000D01*
X51177000Y-98627000D01*
X51177000Y-98647000D01*
X50923000Y-98647000D01*
X50923000Y-98627000D01*
X50903000Y-98627000D01*
X50903000Y-98373000D01*
X50923000Y-98373000D01*
X50923000Y-96377000D01*
X50903000Y-96377000D01*
X50903000Y-96123000D01*
X50923000Y-96123000D01*
X50923000Y-94127000D01*
X50903000Y-94127000D01*
X50903000Y-93873000D01*
X50923000Y-93873000D01*
X50923000Y-93853000D01*
X51177000Y-93853000D01*
X51177000Y-93873000D01*
G36*
X58015527Y-97090329D02*
X58015530Y-97090331D01*
X58390537Y-97465339D01*
X58386530Y-97478549D01*
X58367408Y-97574682D01*
X58354968Y-97700991D01*
X58354968Y-97737894D01*
X58352560Y-97750000D01*
X58352560Y-98250000D01*
X58360516Y-98290000D01*
X57022440Y-98290000D01*
X57022440Y-97549999D01*
X56954127Y-97206564D01*
X56759586Y-96915414D01*
X56468436Y-96720873D01*
X56125001Y-96652560D01*
X55474999Y-96652560D01*
X55190687Y-96709113D01*
X55264801Y-96634999D01*
X57560198Y-96634999D01*
X58015527Y-97090329D01*
X58015527Y-97090329D01*
G37*
X58015527Y-97090329D02*
X58015530Y-97090331D01*
X58390537Y-97465339D01*
X58386530Y-97478549D01*
X58367408Y-97574682D01*
X58354968Y-97700991D01*
X58354968Y-97737894D01*
X58352560Y-97750000D01*
X58352560Y-98250000D01*
X58360516Y-98290000D01*
X57022440Y-98290000D01*
X57022440Y-97549999D01*
X56954127Y-97206564D01*
X56759586Y-96915414D01*
X56468436Y-96720873D01*
X56125001Y-96652560D01*
X55474999Y-96652560D01*
X55190687Y-96709113D01*
X55264801Y-96634999D01*
X57560198Y-96634999D01*
X58015527Y-97090329D01*
G36*
X37740001Y-95230149D02*
X37725112Y-95305000D01*
X37784097Y-95601537D01*
X37839865Y-95684999D01*
X37952072Y-95852929D01*
X38015528Y-95895329D01*
X38802560Y-96682362D01*
X38802560Y-96855000D01*
X38844331Y-97065000D01*
X38564802Y-97065000D01*
X37765331Y-96265530D01*
X37722929Y-96202071D01*
X37699900Y-96186684D01*
X37654127Y-95956564D01*
X37459586Y-95665414D01*
X37286455Y-95549731D01*
X37434698Y-95488327D01*
X37613327Y-95309699D01*
X37664979Y-95185000D01*
X37740001Y-95185000D01*
X37740001Y-95230149D01*
X37740001Y-95230149D01*
G37*
X37740001Y-95230149D02*
X37725112Y-95305000D01*
X37784097Y-95601537D01*
X37839865Y-95684999D01*
X37952072Y-95852929D01*
X38015528Y-95895329D01*
X38802560Y-96682362D01*
X38802560Y-96855000D01*
X38844331Y-97065000D01*
X38564802Y-97065000D01*
X37765331Y-96265530D01*
X37722929Y-96202071D01*
X37699900Y-96186684D01*
X37654127Y-95956564D01*
X37459586Y-95665414D01*
X37286455Y-95549731D01*
X37434698Y-95488327D01*
X37613327Y-95309699D01*
X37664979Y-95185000D01*
X37740001Y-95185000D01*
X37740001Y-95230149D01*
G36*
X35565302Y-95488327D02*
X35713545Y-95549731D01*
X35540414Y-95665414D01*
X35539623Y-95666597D01*
X35384698Y-95511673D01*
X35236455Y-95450269D01*
X35409586Y-95334586D01*
X35410377Y-95333403D01*
X35565302Y-95488327D01*
X35565302Y-95488327D01*
G37*
X35565302Y-95488327D02*
X35713545Y-95549731D01*
X35540414Y-95665414D01*
X35539623Y-95666597D01*
X35384698Y-95511673D01*
X35236455Y-95450269D01*
X35409586Y-95334586D01*
X35410377Y-95333403D01*
X35565302Y-95488327D01*
G36*
X36627000Y-94123000D02*
X36647000Y-94123000D01*
X36647000Y-94377000D01*
X36627000Y-94377000D01*
X36627000Y-94397000D01*
X36373000Y-94397000D01*
X36373000Y-94377000D01*
X36353000Y-94377000D01*
X36353000Y-94123000D01*
X36373000Y-94123000D01*
X36373000Y-94103000D01*
X36627000Y-94103000D01*
X36627000Y-94123000D01*
X36627000Y-94123000D01*
G37*
X36627000Y-94123000D02*
X36647000Y-94123000D01*
X36647000Y-94377000D01*
X36627000Y-94377000D01*
X36627000Y-94397000D01*
X36373000Y-94397000D01*
X36373000Y-94377000D01*
X36353000Y-94377000D01*
X36353000Y-94123000D01*
X36373000Y-94123000D01*
X36373000Y-94103000D01*
X36627000Y-94103000D01*
X36627000Y-94123000D01*
G36*
X34602000Y-91123000D02*
X34622000Y-91123000D01*
X34622000Y-91377000D01*
X34602000Y-91377000D01*
X34602000Y-92426250D01*
X34760750Y-92585000D01*
X35064860Y-92585000D01*
X34927081Y-92677061D01*
X34884681Y-92740517D01*
X34722638Y-92902560D01*
X34124999Y-92902560D01*
X33781564Y-92970873D01*
X33510000Y-93152327D01*
X33510000Y-92458025D01*
X33540302Y-92488327D01*
X33773691Y-92585000D01*
X34189250Y-92585000D01*
X34348000Y-92426250D01*
X34348000Y-91377000D01*
X34328000Y-91377000D01*
X34328000Y-91123000D01*
X34348000Y-91123000D01*
X34348000Y-91103000D01*
X34602000Y-91103000D01*
X34602000Y-91123000D01*
X34602000Y-91123000D01*
G37*
X34602000Y-91123000D02*
X34622000Y-91123000D01*
X34622000Y-91377000D01*
X34602000Y-91377000D01*
X34602000Y-92426250D01*
X34760750Y-92585000D01*
X35064860Y-92585000D01*
X34927081Y-92677061D01*
X34884681Y-92740517D01*
X34722638Y-92902560D01*
X34124999Y-92902560D01*
X33781564Y-92970873D01*
X33510000Y-93152327D01*
X33510000Y-92458025D01*
X33540302Y-92488327D01*
X33773691Y-92585000D01*
X34189250Y-92585000D01*
X34348000Y-92426250D01*
X34348000Y-91377000D01*
X34328000Y-91377000D01*
X34328000Y-91123000D01*
X34348000Y-91123000D01*
X34348000Y-91103000D01*
X34602000Y-91103000D01*
X34602000Y-91123000D01*
G36*
X56097000Y-89727560D02*
X55803000Y-89727560D01*
X55803000Y-89672440D01*
X56097000Y-89672440D01*
X56097000Y-89727560D01*
X56097000Y-89727560D01*
G37*
X56097000Y-89727560D02*
X55803000Y-89727560D01*
X55803000Y-89672440D01*
X56097000Y-89672440D01*
X56097000Y-89727560D01*
G36*
X58622795Y-87302403D02*
X57097440Y-88827759D01*
X57097440Y-88475000D01*
X57048157Y-88227235D01*
X56907809Y-88017191D01*
X56710000Y-87885018D01*
X56710000Y-87275636D01*
X56756986Y-87322622D01*
X56871861Y-87207747D01*
X56945995Y-87453864D01*
X57483223Y-87646965D01*
X58053454Y-87619778D01*
X58454005Y-87453864D01*
X58528139Y-87207747D01*
X58622795Y-87302403D01*
X58622795Y-87302403D01*
G37*
X58622795Y-87302403D02*
X57097440Y-88827759D01*
X57097440Y-88475000D01*
X57048157Y-88227235D01*
X56907809Y-88017191D01*
X56710000Y-87885018D01*
X56710000Y-87275636D01*
X56756986Y-87322622D01*
X56871861Y-87207747D01*
X56945995Y-87453864D01*
X57483223Y-87646965D01*
X58053454Y-87619778D01*
X58454005Y-87453864D01*
X58528139Y-87207747D01*
X58622795Y-87302403D01*
G04 #@! TD*
M02*
